ply                 
format ascii 1.0    
element vertex 679
property float x    
property float y    
property float z    
property uchar red  
property uchar green
property uchar blue 
end_header          
-1.69456 -0.679832 3.49142 72 105 62 
-1.62385 -0.586651 3.43382 169 133 107 
-1.66633 -0.588019 3.4552 249 206 153 
-1.40684 -0.60903 3.77633 107 87 76 
0.701101 -0.624767 3.95901 24 17 0 
0.65352 -0.614207 3.96233 76 70 56 
0.699539 -0.611937 3.9603 37 26 8 
0.787509 -0.604695 3.95848 109 99 87 
0.633893 -0.598559 3.96017 35 28 12 
-1.37073 -0.555445 3.79039 118 101 94 
-1.41587 -0.551029 3.78099 113 100 84 
-1.41429 -0.544801 3.77422 14 0 0 
0.694894 -0.577137 3.96509 97 84 76 
0.783074 -0.571341 3.954 38 23 0 
0.788207 -0.558209 3.96745 113 104 87 
-1.35837 -0.5241 3.77661 15 1 0 
0.683298 -0.557601 3.96476 116 102 93 
-1.4185 -0.519366 3.76901 87 71 58 
-1.40947 -0.51919 3.76427 10 0 0 
0.763303 -0.552548 3.96161 73 56 28 
0.828754 -0.551485 3.96291 70 63 53 
0.685203 -0.546545 3.96808 35 19 3 
0.715136 -0.544699 3.96358 64 47 17 
-1.56276 -0.488238 3.63057 146 130 117 
-1.55692 -0.489268 3.63663 136 124 108 
0.780424 -0.541401 3.96415 117 105 81 
0.791984 -0.53952 3.9731 33 20 4 
0.669433 -0.537983 3.96708 133 120 103 
0.80487 -0.530467 3.96424 24 7 0 
0.736269 -0.528267 3.96579 66 52 25 
0.736098 -0.523375 3.96695 68 53 30 
0.801697 -0.521452 3.96093 51 35 20 
0.805423 -0.520792 3.96737 27 11 0 
0.767653 -0.519952 3.96821 26 10 0 
0.772394 -0.518806 3.96589 113 97 82 
0.777917 -0.519072 3.9657 27 14 0 
0.704502 -0.517387 3.96633 69 58 28 
0.792754 -0.517264 3.9633 27 11 0 
0.743378 -0.515854 3.96633 24 8 0 
0.72377 -0.513946 3.9644 27 11 0 
0.733257 -0.514437 3.96831 22 6 0 
0.712575 -0.51143 3.96478 32 19 0 
0.746901 -0.511593 3.96377 124 107 99 
0.758264 -0.510318 3.96325 127 111 98 
0.717682 -0.507142 3.96133 117 100 90 
0.783498 -0.507321 3.96651 45 31 20 
0.674866 -0.506902 3.96466 94 79 56 
0.679962 -0.506334 3.96387 22 9 0 
0.686007 -0.507462 3.96501 121 110 92 
0.793746 -0.505898 3.964 45 27 13 
0.785938 -0.500913 3.96706 126 107 100 
0.757156 -0.500403 3.9661 118 99 92 
0.745109 -0.496716 3.96533 118 100 90 
0.759683 -0.49509 3.96761 28 10 0 
0.783058 -0.494533 3.9645 18 0 0 
0.73547 -0.493647 3.96651 94 75 71 
0.74105 -0.491847 3.96703 22 4 0 
0.759617 -0.494199 3.96884 24 5 0 
0.66451 -0.490955 3.96916 25 9 0 
0.720659 -0.491097 3.96739 27 8 2 
0.730601 -0.490497 3.96671 39 19 8 
0.68005 -0.490324 3.96689 36 19 3 
-1.5103 -0.403583 3.61395 205 155 96 
0.557578 -0.34866 3.68517 72 35 0 
0.618643 -0.344226 3.65025 130 86 0 
-1.35686 -0.357045 3.79448 102 74 73 
0.84173 -0.373173 3.97256 94 81 73 
0.70195 -0.330973 3.64516 180 142 45 
0.695291 -0.327653 3.63832 54 10 0 
0.703029 -0.313304 3.63883 32 0 0 
-1.66621 -0.282237 3.70237 67 15 0 
0.589792 -0.271792 3.64871 131 92 0 
0.90953 -0.254226 3.5499 145 138 132 
0.619447 -0.25107 3.63806 121 79 0 
0.870447 -0.226927 3.56053 141 136 132 
0.938525 -0.220734 3.54254 144 139 135 
0.869962 -0.220577 3.56102 103 99 90 
-1.33215 -0.207407 3.72995 133 120 111 
0.525393 -0.203612 3.67738 40 3 0 
0.667011 -0.167903 3.64719 233 186 68 
0.90074 -0.0973365 3.57224 111 105 93 
0.906593 -0.0973052 3.57031 117 108 99 
-1.36676 -0.0927023 3.68767 14 0 0 
0.639811 -0.0699198 3.66538 103 74 34 
0.288675 -0.0650753 3.53925 42 13 0 
-1.64325 -0.0558667 3.60759 137 115 104 
0.255627 -0.0547249 3.51257 92 62 52 
0.255971 -0.046973 3.51523 55 25 15 
-1.80575 -0.0452327 3.58426 44 26 16 
-1.80541 -0.0415982 3.58443 184 162 151 
-1.79265 -0.0396521 3.57924 51 29 18 
0.287298 -0.0405228 3.56635 207 179 168 
0.92499 0.0121266 3.43501 255 198 148 
0.37174 0.0941302 3.35287 190 160 134 
1.62576 0.612447 4.16155 101 82 75 
1.46209 0.805375 3.77487 25 31 5 
1.45494 0.807923 3.76891 76 84 60 
1.51347 0.840179 3.77528 82 85 58 
1.46596 0.840754 3.77332 85 84 56 
1.42299 0.841693 3.77541 20 15 0 
1.42304 0.856035 3.77635 29 18 0 
1.41597 0.861633 3.77824 89 82 63 
1.4552 0.861906 3.77969 94 89 67 
1.46846 0.862042 3.77649 100 95 73 
1.64922 1.13665 3.83922 178 147 126 
0.612561 -0.6933 3.94882 39 26 17 
1.06113 -0.602275 3.74033 135 122 114 
1.00697 -0.58246 3.74265 80 80 82 
0.653208 -0.614588 3.96532 75 69 55 
0.695821 -0.611793 3.95039 36 24 8 
0.790522 -0.585965 3.95763 81 72 57 
0.677786 -0.571006 3.97595 113 104 95 
0.791806 -0.573574 3.9692 94 82 66 
0.678159 -0.569833 3.97229 113 104 95 
0.733015 -0.534685 3.96099 116 101 70 
0.76037 -0.529753 3.96452 68 55 23 
0.802474 -0.5273 3.96291 38 22 7 
0.791564 -0.517774 3.96783 23 7 0 
0.744069 -0.502275 3.96517 124 107 99 
0.758013 -0.493884 3.96653 24 5 0 
0.69341 -0.490146 3.96154 24 11 0 
0.702245 -0.490752 3.96834 114 101 82 
0.695384 -0.327656 3.63739 46 5 0 
-1.73826 -0.0663032 3.58504 156 142 133 
-1.65053 -0.0509068 3.5888 21 2 0 
0.255736 -0.0472835 3.51612 55 25 15 
-1.70101 -0.0453777 3.57732 13 0 0 
-1.48408 0.103059 3.33402 88 70 60 
1.46212 0.805483 3.77507 25 31 5 
1.46625 0.841835 3.7752 94 93 65 
-1.40821 -0.640677 3.76862 110 5 1 
-1.38221 -0.636017 3.77474 111 0 0 
-1.4068 -0.61545 3.77673 159 131 107 
1.05839 -0.593862 3.73046 77 69 67 
1.01123 -0.580521 3.73884 84 82 85 
0.627386 -0.583593 3.96056 36 29 13 
0.699004 -0.580336 3.9642 41 22 7 
0.67421 -0.570559 3.96561 118 109 100 
1.12773 -0.524033 3.72978 85 61 49 
-1.35733 -0.520007 3.77456 19 12 6 
-1.67883 -0.456283 3.49652 98 71 52 
-1.54409 -0.4725 3.64185 20 1 0 
-1.39074 -0.482685 3.75775 87 41 15 
0.755336 -0.493565 3.96482 27 8 0 
0.601523 -0.247228 3.6328 255 228 111 
0.567162 -0.240309 3.65215 228 189 94 
0.576574 -0.236002 3.64253 228 190 89 
0.589721 -0.221619 3.63123 219 185 78 
-1.38391 -0.210535 3.80614 123 110 101 
-1.32404 -0.174702 3.87568 186 163 149 
-1.6572 -0.0715597 3.60197 111 98 92 
-1.64912 -0.0506956 3.58716 29 10 3 
0.234203 -0.0204765 3.52455 56 30 13 
-1.486 0.102306 3.33619 76 57 50 
1.46609 0.823283 3.77136 79 77 54 
1.42891 0.838008 3.77562 83 80 61 
1.44888 0.844702 3.77659 87 85 60 
1.44964 0.862323 3.77906 82 81 60 
-1.47905 1.00141 3.50283 111 92 85 
1.64754 1.13435 3.82967 182 151 130 
0.981301 -0.825951 3.94622 23 6 0 
-1.69978 -0.634401 3.48854 85 77 66 
-1.40468 -0.613987 3.77385 164 138 115 
0.55276 -0.209033 3.66067 18 0 0 
-1.33489 -0.193544 3.87245 191 170 151 
-1.54302 -0.178743 3.74285 143 116 87 
-1.60559 -0.106628 3.9089 90 77 68 
-1.47276 -0.0999475 3.63607 48 34 23 
-1.33414 -0.0933368 3.70822 135 110 90 
-0.0180395 -0.0732709 3.65148 157 130 111 
-1.48541 1.00685 3.49985 29 10 3 
1.64794 1.13506 3.83189 184 153 132 
0.665788 -0.63142 3.9593 30 23 7 
-1.41567 -0.57516 3.77306 23 4 0 
0.690798 -0.577348 3.96748 54 43 39 
-1.37033 -0.126002 3.77678 180 158 144 
0.69018 -0.59964 3.93287 95 83 57 
0.686815 -0.574143 3.98064 30 20 11 
0.60721 -0.283033 3.6714 241 205 46 
-1.73016 -0.744336 3.4466 174 96 94 
-1.63145 -0.675858 3.43279 32 63 29 
-1.65648 -0.664233 3.41902 72 105 62 
-1.61263 -0.647107 3.42781 18 5 0 
-1.6853 -0.624461 3.41121 62 53 38 
-1.6659 -0.611961 3.41772 30 17 8 
-1.67096 -0.60608 3.41353 27 14 5 
-1.9311 -0.63987 3.61716 80 33 13 
-1.713 -0.598676 3.41133 180 163 117 
-1.62928 -0.593333 3.39207 180 156 108 
-1.71508 -0.591755 3.40579 94 50 5 
-1.69768 -0.586703 3.39881 96 92 57 
0.59521 -0.68942 3.89631 105 96 91 
-1.60539 -0.576363 3.37006 61 19 0 
-1.58882 -0.573425 3.36551 169 133 107 
-1.62831 -0.573837 3.38252 249 206 153 
0.602175 -0.673874 3.89822 30 20 10 
-1.35537 -0.629154 3.70855 107 20 13 
-1.37809 -0.608272 3.71085 167 116 97 
-1.36192 -0.609905 3.71245 181 103 99 
-1.35838 -0.599449 3.71358 161 135 122 
-1.56393 -0.52904 3.44253 61 27 0 
-1.34861 -0.577191 3.71675 80 63 53 
0.976068 -0.566704 3.6491 103 103 105 
0.654627 -0.599951 3.89311 102 94 81 
0.685805 -0.600473 3.89415 37 26 8 
0.771084 -0.592708 3.88774 109 99 87 
-1.90369 -0.513479 3.48998 45 8 0 
-1.84045 -0.517635 3.51414 193 145 61 
0.773625 -0.571798 3.87655 91 81 69 
0.944352 -0.539366 3.67558 82 81 86 
0.685228 -0.568671 3.89462 41 22 7 
-1.38813 -0.534685 3.70884 14 0 0 
0.776218 -0.562994 3.90258 94 82 66 
-1.49759 -0.509935 3.62499 114 96 96 
0.773534 -0.553592 3.89921 43 30 11 
0.670802 -0.547477 3.9031 116 102 93 
-1.39101 -0.508998 3.70063 87 71 58 
0.672098 -0.542694 3.89198 48 32 19 
0.747895 -0.541997 3.89322 73 56 28 
0.637967 -0.54158 3.89903 107 103 94 
-1.33177 -0.501651 3.68463 170 137 94 
-1.36574 -0.500317 3.68807 167 130 103 
0.672289 -0.536815 3.90452 35 19 3 
0.700755 -0.534053 3.89563 64 47 17 
-1.52973 -0.480285 3.57761 136 124 108 
0.763273 -0.530191 3.88954 117 105 81 
0.656474 -0.527628 3.90184 133 120 103 
0.679415 -0.527153 3.89827 75 62 30 
-1.76895 -0.457708 3.48179 146 135 133 
0.716385 -0.523644 3.89194 115 100 69 
0.721759 -0.518056 3.89902 66 52 25 
0.74442 -0.517849 3.90121 67 53 24 
0.702955 -0.51137 3.90084 76 62 33 
0.789294 -0.513354 3.90829 51 35 20 
0.751597 -0.5099 3.89723 26 10 0 
0.761513 -0.508786 3.89411 27 14 0 
0.739761 -0.507819 3.89754 21 5 0 
0.776525 -0.507017 3.89373 27 11 0 
0.728261 -0.505454 3.89739 24 8 0 
0.792038 -0.506241 3.897 125 112 95 
0.709091 -0.504027 3.89583 27 11 0 
-1.40104 -0.470152 3.70233 93 65 41 
0.742468 -0.500081 3.89264 127 111 98 
-1.63334 -0.444051 3.53809 67 48 42 
-1.40117 -0.469043 3.71458 140 127 110 
0.661662 -0.497253 3.89878 94 79 56 
0.671342 -0.496957 3.89295 121 110 92 
0.681576 -0.491134 3.90027 123 113 101 
0.742444 -0.490988 3.90019 118 99 92 
-1.74773 -0.428353 3.48884 81 59 46 
0.731075 -0.487483 3.90149 118 100 90 
-1.70926 -0.42738 3.50753 16 0 0 
0.722211 -0.48472 3.90541 94 75 71 
0.755686 -0.484077 3.89724 23 5 0 
0.655772 -0.482384 3.90035 108 91 73 
0.695648 -0.48211 3.90688 30 14 0 
0.705935 -0.481954 3.89833 27 8 2 
0.667703 -0.481577 3.9057 36 19 3 
-1.87746 -0.410277 3.46413 189 130 72 
-1.79834 -0.413026 3.52646 170 119 74 
0.764087 -0.424879 3.91285 102 88 79 
0.777059 -0.421675 3.89355 111 98 90 
0.503063 -0.371505 3.67958 234 201 108 
0.690649 -0.335062 3.58874 160 122 0 
-1.43895 -0.312986 3.42537 249 200 71 
0.492059 -0.340243 3.67248 129 88 9 
0.915124 -0.331974 3.60881 107 105 106 
0.57658 -0.324203 3.61355 86 39 0 
0.820054 -0.352317 3.89912 122 109 101 
0.804363 -0.344043 3.90178 120 108 96 
0.68859 -0.306558 3.5757 32 0 0 
0.808465 -0.333568 3.90534 68 59 54 
-1.63686 -0.276716 3.64179 67 15 0 
0.58425 -0.263674 3.59208 254 219 67 
0.594642 -0.257764 3.59227 243 206 65 
0.889066 -0.248386 3.4817 145 138 132 
0.598076 -0.253907 3.57753 142 103 0 
0.603001 -0.251 3.58857 241 201 67 
0.557451 -0.248681 3.59213 69 39 0 
0.499223 -0.249336 3.67684 232 195 104 
-1.40523 -0.210348 3.75238 60 39 20 
-1.27749 -0.198581 3.58655 133 120 111 
-1.38481 -0.20544 3.73853 29 12 4 
0.520435 -0.1888 3.60882 190 162 123 
-1.96264 -0.17971 3.59724 202 166 134 
-1.2986 -0.172701 3.79117 131 107 95 
-1.37675 -0.162279 3.74546 73 65 63 
-1.53605 -0.157113 3.6572 80 67 58 
0.647351 -0.154181 3.58993 224 171 75 
-1.40337 -0.156028 3.68103 21 3 0 
0.596797 -0.135701 3.573 72 42 0 
0.425034 -0.136633 3.63481 127 100 79 
-1.35627 -0.133446 3.70055 19 2 0 
0.592711 -0.128496 3.58748 81 49 0 
-1.83797 -0.125649 3.545 147 121 98 
0.419449 -0.118691 3.6169 119 104 99 
0.175269 -0.106669 3.54489 151 125 100 
0.158391 -0.100705 3.54176 127 101 78 
0.203449 -0.0999331 3.544 144 117 90 
-1.36131 -0.0940044 3.62448 10 0 0 
-1.3432 -0.0912147 3.62823 14 0 0 
0.0200589 -0.0890859 3.64396 206 175 154 
-1.62352 -0.0838388 3.55882 110 99 93 
0.194154 -0.0815388 3.50568 166 138 117 
0.208053 -0.0816642 3.51586 129 101 80 
-1.35221 -0.0838274 3.60302 12 0 0 
0.700435 -0.0851808 3.65489 172 143 111 
0.225116 -0.0784343 3.49862 121 93 69 
-1.53276 -0.0792117 3.57091 76 65 61 
-1.98201 -0.0701016 3.46747 151 135 122 
-1.62709 -0.0709245 3.54329 133 120 114 
-0.0240343 -0.0726926 3.62521 150 123 104 
-2.01989 -0.0666474 3.46092 147 130 120 
-2.01603 -0.0670567 3.46281 162 144 134 
-2.04002 -0.0568337 3.46649 13 0 0 
0.284571 -0.0555748 3.51824 44 17 6 
-1.99241 -0.0536711 3.46438 223 206 198 
-1.61768 -0.0542952 3.5556 137 115 104 
0.25255 -0.0538327 3.4804 92 62 52 
-1.76458 -0.0439999 3.50879 44 26 16 
-1.77098 -0.0403338 3.52133 184 162 151 
-2.0401 -0.0351814 3.46587 10 0 0 
-1.81389 -0.0339573 3.49605 185 162 154 
0.273714 -0.0337204 3.52899 37 11 0 
-1.92749 -0.0273869 3.47515 200 180 171 
0.556686 -0.0255118 3.49252 141 123 113 
0.225505 -0.0191622 3.49296 55 29 12 
0.91292 0.0131598 3.36843 120 65 34 
0.36705 0.0927869 3.31955 190 160 134 
-0.60488 0.0931772 3.28578 113 93 84 
-1.12499 0.100839 3.26302 143 116 95 
-1.77293 0.104014 3.25578 167 142 120 
1.60709 0.597202 4.09584 123 106 96 
1.59551 0.601121 4.09297 101 82 75 
1.6095 0.570483 3.68494 115 92 78 
1.16335 0.53568 3.39955 195 168 149 
0.190446 0.53942 3.40426 135 110 103 
0.366626 0.538336 3.40352 196 167 149 
1.48891 0.826392 3.72169 82 85 58 
1.45511 0.826649 3.72013 92 95 68 
1.42748 0.835825 3.7244 34 23 3 
1.47545 0.838507 3.72815 41 36 14 
1.39682 0.840255 3.71556 29 18 0 
1.42717 0.845115 3.72964 41 33 14 
1.39022 0.845767 3.71829 89 82 63 
1.43977 0.846758 3.72046 91 86 64 
1.44736 0.849596 3.72904 100 95 73 
1.45588 0.848088 3.72114 91 87 62 
1.43951 0.855631 3.71943 87 86 65 
1.30579 0.905256 3.73346 108 92 69 
1.16653 0.985598 3.48474 158 131 114 
0.0828666 0.991857 3.46958 197 171 156 
1.62156 1.39389 3.83588 116 90 75 
-1.6053 -0.637675 3.45739 24 2 0 
-1.67382 -0.615038 3.42823 17 4 0 
-1.64068 -0.605853 3.41095 8 23 4 
-1.61792 -0.602147 3.39156 127 128 68 
-1.54673 -0.596348 3.39214 82 42 0 
-1.92605 -0.577893 3.58858 74 88 53 
1.03849 -0.590143 3.67137 135 122 114 
-1.88728 -0.498999 3.46757 162 145 129 
-1.86362 -0.493844 3.47398 28 0 0 
0.68261 -0.557315 3.908 12 0 0 
0.762204 -0.544143 3.8942 70 56 27 
0.73145 -0.517581 3.89451 70 56 27 
0.786371 -0.517827 3.89479 38 22 7 
-1.36759 -0.471507 3.69593 82 49 30 
0.776806 -0.491791 3.89233 44 26 12 
0.775951 -0.487483 3.91908 27 8 0 
-1.32808 -0.452819 3.70061 94 80 80 
0.682441 -0.481736 3.90807 24 11 0 
-1.78193 -0.405107 3.50759 115 72 27 
-1.51758 -0.40857 3.55483 36 22 9 
-1.78916 -0.401572 3.51947 201 157 110 
0.881004 -0.247578 3.4724 138 132 120 
-1.63709 -0.248876 3.64753 58 9 0 
0.890245 -0.22117 3.47797 11 0 0 
-1.34833 -0.207904 3.7396 47 34 25 
-1.70416 -0.178928 3.697 130 102 81 
-1.39184 -0.172071 3.73262 93 80 71 
-1.38223 -0.094462 3.59757 101 91 81 
-1.62472 -0.0861525 3.54701 42 29 23 
-1.29632 -0.0845221 3.61182 192 165 148 
0.68125 -0.0764054 3.62974 209 175 148 
-1.68714 -0.0604347 3.51499 83 64 49 
-2.00978 -0.0524206 3.46998 243 226 219 
-1.62189 -0.049966 3.53113 21 2 0 
-1.67211 -0.0443919 3.52112 13 0 0 
0.198511 -0.0266027 3.49389 40 13 0 
1.44031 0.827713 3.71668 94 93 65 
1.4814 0.835386 3.73667 102 100 75 
1.39384 0.833424 3.70117 38 30 11 
1.1761 1.38209 3.82053 81 68 59 
1.16091 1.39674 3.82973 85 70 63 
1.62804 1.40622 3.83631 118 91 70 
-1.71273 -0.63634 3.4105 68 78 51 
-1.66712 -0.582763 3.37669 64 118 56 
-1.65006 -0.574676 3.37481 15 55 3 
-1.38141 -0.627846 3.70147 110 5 1 
0.993136 -0.569908 3.68107 84 82 85 
-1.63213 -0.506725 3.40336 138 110 86 
-1.62147 -0.506926 3.40439 35 3 0 
-1.39109 -0.54428 3.71226 155 139 114 
-1.38475 -0.537737 3.71783 8 0 0 
0.643942 -0.565901 3.88087 111 102 93 
0.661499 -0.560303 3.90216 118 109 100 
-1.8727 -0.486186 3.47575 115 105 93 
-1.32879 -0.525704 3.73127 158 130 108 
0.806006 -0.546485 3.86426 30 21 6 
-1.32705 -0.507133 3.6957 19 12 6 
-1.32307 -0.508339 3.71546 15 0 0 
-1.4969 -0.49241 3.62735 11 0 0 
-1.51859 -0.478818 3.57569 63 56 46 
-1.41902 -0.490069 3.70587 83 37 11 
-1.64127 -0.445874 3.42431 98 71 52 
-1.9088 -0.433799 3.40775 115 35 0 
-1.55635 -0.455072 3.59004 15 2 0 
0.748419 -0.500505 3.90449 123 107 94 
-1.8671 -0.43553 3.52896 22 12 3 
0.739616 -0.483523 3.89425 27 8 0 
-1.49721 -0.417117 3.56848 142 120 96 
-1.64895 -0.41265 3.56327 48 14 0 
-1.93302 -0.327962 3.40856 21 0 0 
-1.44722 -0.315459 3.44426 249 200 71 
0.581481 -0.332941 3.62925 248 208 74 
0.526677 -0.324399 3.6343 164 138 103 
0.819027 -0.351665 3.9106 111 101 92 
-1.80432 -0.305885 3.59356 67 16 0 
0.545366 -0.304306 3.63775 86 53 2 
-1.42803 -0.284317 3.51635 93 35 0 
0.544853 -0.27519 3.65464 221 184 44 
0.579582 -0.217138 3.57902 219 185 78 
0.892543 -0.204678 3.49062 10 0 0 
-1.31142 -0.217718 3.76764 47 27 16 
0.545396 -0.206451 3.60153 31 0 0 
-1.94561 -0.201918 3.5857 186 147 68 
-1.36456 -0.207425 3.75621 123 110 101 
-1.39721 -0.197323 3.72994 42 25 15 
0.569883 -0.187601 3.59312 20 2 0 
0.695517 -0.184544 3.55025 22 3 0 
-1.53666 -0.16726 3.65384 157 130 103 
0.608001 -0.160315 3.57954 76 38 0 
-1.56706 -0.156875 3.63295 114 87 68 
-1.35607 -0.141593 3.69484 109 95 86 
-1.34461 -0.125241 3.70003 175 157 145 
0.807576 -0.102969 3.57457 190 169 152 
-1.45167 -0.0988116 3.58287 45 31 20 
-1.33612 -0.0917329 3.62185 19 2 0 
-1.30044 -0.0916787 3.63161 137 112 92 
0.359912 -0.0896167 3.61634 166 149 141 
-1.80529 -0.0822143 3.51075 49 10 5 
0.224963 -0.0783073 3.51534 139 111 87 
-1.70758 -0.0665563 3.53011 155 141 132 
-1.7188 -0.0635736 3.52641 16 5 0 
0.36145 -0.0656776 3.60382 121 98 80 
-1.76365 -0.0598175 3.52375 144 129 122 
-2.08629 -0.0464265 3.49159 170 152 142 
-1.81147 -0.0336385 3.50009 193 166 157 
0.288935 -0.0339126 3.53475 106 79 62 
0.800484 -0.0306695 3.47835 121 58 7 
-2.06439 -0.0300755 3.4733 31 13 3 
-1.92944 -0.0262941 3.47232 187 165 152 
-1.99906 -0.0234741 3.47042 50 28 17 
-1.79917 -0.021598 3.47736 118 91 72 
0.227951 -0.0197739 3.45435 56 30 13 
0.917274 -0.0109131 3.37223 185 128 57 
0.262558 0.541701 3.40198 99 63 37 
1.43577 0.796234 3.71828 81 86 63 
1.44729 0.812288 3.72917 79 77 54 
1.40317 0.836939 3.72696 44 37 18 
1.42415 0.847592 3.72098 82 81 60 
-1.48041 0.998235 3.45192 36 9 0 
-1.6536 -0.756951 3.44482 167 109 105 
0.960759 -0.809579 3.87467 23 6 0 
-1.65596 -0.612328 3.43169 4 19 0 
-1.6643 -0.587123 3.42225 156 153 84 
1.11241 -0.552379 3.65078 69 44 39 
0.646678 -0.574259 3.9238 99 92 84 
-1.85474 -0.49552 3.49885 191 142 14 
-1.54161 -0.484581 3.61279 74 62 50 
0.780769 -0.523707 3.88288 126 114 98 
-1.51252 -0.466392 3.5786 12 2 0 
0.67092 -0.363577 3.58941 232 201 118 
0.974334 -0.331729 3.6125 182 171 167 
0.913134 -0.213025 3.62369 14 5 0 
-2.14275 -0.174234 3.61055 190 167 153 
-1.29244 -0.173417 3.79782 196 170 153 
-1.34586 -0.113292 3.64694 58 45 37 
-1.3091 -0.09111 3.64307 135 110 90 
0.684362 -0.0839918 3.64376 49 11 0 
-1.67362 -0.0679602 3.53524 36 23 15 
-0.0180763 -0.073226 3.64619 157 130 111 
-1.79211 -0.0701587 3.53482 151 137 126 
0.85775 -0.0517461 3.53356 114 71 26 
0.56081 -0.0469631 3.4836 47 27 20 
-2.04121 -0.0363007 3.44202 58 44 41 
-1.70636 -0.0422779 3.52308 11 0 0 
0.551791 -0.0218645 3.48359 29 11 7 
0.818343 -0.0174056 3.45503 125 63 26 
-2.02054 -0.00482169 3.40936 115 88 69 
1.16605 1.40765 3.84256 91 74 66 
1.6711 1.42877 3.84432 74 39 17 
-1.91597 -0.575986 3.56295 44 28 3 
-1.38929 -0.563525 3.70727 23 4 0 
0.670265 -0.591319 3.88598 100 88 62 
-1.92075 -0.513834 3.4938 31 19 7 
-1.38744 -0.541766 3.70164 149 133 107 
-1.51211 -0.492213 3.56766 10 7 2 
0.780626 -0.545253 3.91506 24 14 5 
-1.56084 -0.484021 3.57791 20 1 0 
-1.48184 -0.426991 3.56237 209 154 37 
-1.46985 -0.404861 3.54657 38 25 19 
-1.48027 -0.266742 3.49748 158 110 48 
-1.31014 -0.215913 3.72003 45 30 23 
0.547382 -0.202165 3.63325 15 9 9 
0.565313 -0.169896 3.6057 10 4 6 
-1.6222 -0.064895 3.53088 115 100 93 
-1.94721 -0.0216066 3.4833 191 165 150 
0.232327 -0.0195429 3.42699 100 74 59 
-1.45249 0.0979594 3.28457 32 15 7 
-1.70691 -0.798131 3.46721 143 0 14 
-1.57683 -0.762447 3.51168 136 92 57 
-1.76345 -0.721362 3.47364 123 13 26 
-1.61008 -0.720003 3.45801 157 130 111 
1.03177 -0.637649 3.68765 13 9 10 
-1.36402 -0.583444 3.70413 8 8 8 
0.660397 -0.614908 3.89115 37 28 23 
0.67363 -0.563704 3.91571 30 20 11 
-1.50852 -0.499736 3.63844 15 6 7 
-1.5409 -0.398668 3.57269 15 5 3 
0.928984 -0.286218 3.54825 89 75 72 
0.563639 -0.249066 3.60547 108 76 25 
0.798109 -0.161094 3.60571 192 169 151 
-2.10313 -0.144092 3.61253 191 165 148 
-1.31811 -0.158988 3.80875 59 45 42 
0.296484 -0.149692 3.67505 70 44 27 
-2.14561 -0.132803 3.6268 48 33 28 
-2.13695 -0.103168 3.57906 30 18 18 
-1.33282 -0.116352 3.68443 190 169 152 
0.146342 -0.0931954 3.49294 211 185 162 
-1.31378 -0.0822374 3.62704 145 118 101 
0.569239 -0.0549289 3.47217 207 181 148 
0.785291 -0.0426177 3.48923 124 64 36 
-1.81513 -0.0356047 3.53059 190 161 153 
0.537663 -0.0229704 3.42675 36 25 29 
-1.92291 -0.017445 3.62004 158 129 111 
-1.79574 -0.0175163 3.44795 116 89 70 
1.14153 0.987358 3.48475 60 33 16 
0.60033 -0.710183 3.99825 127 118 113 
0.837974 -0.660651 4.00031 14 5 0 
1.08478 -0.594089 3.81729 167 156 154 
0.762268 -0.625581 4.01234 27 20 0 
0.689503 -0.599503 4.01749 141 124 106 
-1.403 -0.525239 3.82651 17 0 0 
0.664897 -0.553923 4.01443 114 104 92 
0.738157 -0.547078 4.00893 121 106 75 
0.818193 -0.540778 4.01247 71 65 53 
0.648176 -0.53164 4.01359 120 108 84 
0.742087 -0.533363 4.02842 56 43 11 
0.743279 -0.531243 4.01322 61 48 16 
0.712697 -0.528004 4.02014 66 55 27 
0.704697 -0.525384 4.01102 131 120 90 
0.732824 -0.519356 4.01301 99 86 70 
0.695747 -0.516503 4.02294 77 64 45 
-1.39273 -0.476657 3.83438 12 0 0 
0.767204 -0.499929 4.01601 21 4 0 
0.698547 -0.495261 4.00906 116 103 84 
0.726744 -0.49608 4.01328 23 7 0 
0.676333 -0.44496 4.01343 16 0 0 
0.845799 -0.438454 4.02469 12 0 0 
0.786174 -0.434962 4.0413 22 10 0 
0.845008 -0.429033 4.0231 26 10 0 
0.792556 -0.423378 4.02669 128 116 104 
0.845645 -0.414075 4.02329 43 29 16 
-1.4043 -0.363425 3.87437 18 3 0 
-1.40134 -0.361224 3.85647 99 73 74 
0.582053 -0.344296 3.72791 245 202 72 
0.64051 -0.338417 3.6864 128 82 0 
0.581322 -0.333823 3.71039 85 35 0 
0.61504 -0.333868 3.69988 121 78 0 
0.783108 -0.364918 4.02345 43 12 0 
0.789156 -0.357086 4.0248 140 121 107 
0.798615 -0.353393 4.02979 111 98 90 
0.58012 -0.31655 3.71046 86 36 0 
-1.40197 -0.323151 3.8817 8 0 0 
0.783603 -0.339436 4.02215 43 6 0 
0.614011 -0.254131 3.68092 106 61 0 
-1.39662 -0.225983 3.92799 52 33 19 
-1.42505 -0.213913 3.85921 107 94 85 
-1.41382 -0.214521 3.86333 32 19 10 
-1.37975 -0.199553 3.92748 196 175 158 
0.512327 -0.19088 3.7242 192 165 110 
-1.5842 -0.176167 3.81906 26 4 0 
0.661669 -0.169993 3.69511 255 213 97 
0.896502 -0.16564 3.60906 116 109 103 
0.401276 -0.162483 3.80446 167 145 124 
0.602731 -0.139508 3.67846 79 42 0 
-1.43213 -0.133755 3.85973 124 111 105 
-1.41866 -0.120375 3.72453 25 10 3 
-0.00403931 -0.11978 3.66933 214 187 166 
0.216003 -0.101034 3.59448 143 115 93 
0.223479 -0.0928353 3.58917 131 103 79 
-1.5186 -0.0883157 3.68903 75 62 56 
0.245493 -0.0851754 3.57803 155 129 104 
0.834004 -0.0757751 3.66574 49 13 0 
0.249394 -0.0543166 3.53749 31 3 0 
-1.43599 -0.0416361 3.61228 125 98 77 
0.270317 -0.0344695 3.5996 29 3 0 
0.560333 -0.0269189 3.576 135 117 113 
0.365936 0.0953562 3.37877 180 150 122 
1.63413 0.621107 4.21304 104 87 77 
1.57853 0.697755 3.76186 53 26 7 
1.47628 0.812884 3.80978 63 55 34 
1.46632 0.813681 3.8068 32 24 3 
1.5194 0.850851 3.81524 96 98 76 
1.42719 0.850833 3.81018 27 21 0 
1.45671 0.854182 3.81463 80 78 53 
1.48914 0.856182 3.81903 96 94 73 
1.48243 0.869469 3.814 104 96 77 
1.51904 0.874115 3.81708 86 84 59 
0.607066 -0.692668 4.00647 21 12 0 
0.718309 -0.681398 4.01222 26 20 0 
0.771585 -0.600507 4.02022 40 22 2 
0.690948 -0.574807 4.02119 18 0 0 
-1.3861 -0.530287 3.83976 29 5 0 
0.701909 -0.549078 4.00853 72 52 25 
0.788968 -0.517334 4.01098 126 110 97 
0.551629 -0.395092 3.77755 151 110 0 
-1.38672 -0.225259 3.91377 51 32 17 
0.612342 -0.163005 3.66515 83 50 0 
0.351885 -0.115316 3.70381 19 0 0 
-1.42216 -0.0879853 3.73134 11 0 0 
-1.42571 -0.0882648 3.7443 16 2 0 
0.655849 -0.081842 3.74798 40 0 0 
0.832981 -0.0764885 3.68299 66 23 0 
0.287762 -0.0344168 3.59736 109 84 64 
1.06401 -0.614664 3.79922 150 132 108 
1.1269 -0.575606 3.77479 14 0 0 
0.824937 -0.573512 4.03257 31 23 10 
1.09942 -0.527527 3.7774 58 40 28 
0.693569 -0.537427 4.02022 108 97 67 
-1.40838 -0.494461 3.82943 100 63 36 
0.777608 -0.506161 3.99803 121 105 90 
0.788318 -0.503357 4.01751 32 16 3 
0.689583 -0.494428 4.00251 33 20 1 
0.53997 -0.334552 3.71528 170 151 109 
0.799774 -0.354163 4.01643 124 110 99 
-1.39927 -0.221216 3.90264 25 12 4 
-1.22473 -0.0946373 3.28638 28 18 8 
-1.53409 -0.100628 3.67633 42 29 21 
-1.5175 -0.100795 3.69315 47 34 25 
-1.36462 -0.0945577 3.75028 141 114 97 
0.191097 -0.083168 3.57174 126 98 76 
0.710785 -0.087957 3.76344 209 179 145 
0.640378 -0.0838815 3.75447 48 11 0 
0.367757 0.553689 3.47526 166 135 115 
-0.625004 0.560547 3.4589 191 169 158 
0.690119 -0.57825 4.0063 43 25 15 
1.11345 -0.543357 3.8063 171 149 136 
0.627042 -0.545871 4.01557 24 15 0 
0.668359 -0.502778 4.00985 38 21 11 
0.596536 -0.250215 3.68966 255 216 103 
-1.37062 -0.224711 3.88106 51 32 17 
-0.0187831 -0.105451 3.69224 139 111 87 
-1.37479 -0.0944375 3.76433 138 111 94 
0.0058447 -0.0897972 3.68089 191 161 137 
0.564829 -0.0477486 3.57103 40 22 12 
1.46134 0.81559 3.82992 35 37 13 
1.11475 -0.520415 3.76331 68 47 44 
-1.371 -0.178875 3.83262 20 9 3 
-0.014868 -0.0722644 3.6588 157 130 109 
0.374425 -0.0661821 3.69228 14 0 0 
1.66019 0.931022 3.8308 179 152 125 
1.05131 -0.657171 3.79137 19 13 13 
1.00517 -0.576867 3.75393 62 62 64 
-1.43149 -0.306103 3.86736 40 4 8 
-1.57995 -0.176263 3.72586 150 116 78 
0.719735 -0.109546 3.74633 201 173 149 
0.825232 -0.0892618 3.69264 98 72 59 
