ply                 
format ascii 1.0    
element vertex 15
property float x    
property float y    
property float z    
property uchar red  
property uchar green
property uchar blue 
end_header          
0.0326549 0.034964 0.112885 44 38 108 
0.0295062 0.0313649 0.101628 142 167 233 
0.0294454 0.0312613 0.101406 137 162 228 
0.0294835 0.0312962 0.101482 142 167 233 
0.0317938 0.0336811 0.110112 11 20 79 
0.0295238 0.0313703 0.101641 143 162 228 
0.0350564 0.0370632 0.121323 15 23 70 
-0.0797721 0.118365 0.194763 17 23 45 
-396.844 494.984 1998.53 82 45 63 
-397.091 494.941 1998.58 82 45 63 
-1373.75 1092.78 3758.38 153 156 207 
-1388.72 1103.79 3792.8 53 46 77 
-396.003 493.886 1996.95 70 33 51 
-195.672 288.273 77.2172 11 27 63 
-201.806 296.947 79.4355 13 18 40 
