ply                 
format ascii 1.0    
element vertex 42
property float x    
property float y    
property float z    
property uchar red  
property uchar green
property uchar blue 
end_header          
0.0717774 0.0865192 0.112191 44 38 108 
0.0211126 0.0211325 0.0611854 142 167 233 
0.0208716 0.0208354 0.0609676 137 162 228 
0.0211136 0.0211338 0.0611863 142 167 233 
0.0559009 0.0652855 0.0961629 11 20 79 
0.0213618 0.021482 0.0614515 143 162 228 
0.104072 0.126245 0.144243 15 23 70 
0.190936 0.736921 0.585921 17 23 45 
-294.501 296.861 703.125 82 45 63 
-294.49 296.559 702.854 82 45 63 
-30220.9 14635.2 39783.9 153 156 207 
-557736 267095 732076 53 46 77 
-292.78 295.735 700.198 70 33 51 
7767.61 68800.5 6141.99 11 27 63 
30144 268818 23929.3 13 18 40 
-24211.6 11748 31888.3 153 156 207 
-61.8117 -78.0818 -57.4018 47 29 53 
-25731.4 12489.3 33904.3 153 156 207 
-293.149 295.013 698.358 82 45 63 
-320.348 302.245 730.719 86 44 64 
-279.39 280.054 682.349 88 50 75 
-318.463 299.458 725.506 80 41 60 
-32220.2 15359.5 42257.4 53 46 77 
-4583.95 2360.93 6270.56 155 189 252 
107.677 136.115 71.6794 144 169 233 
-4679.58 2413.8 6400.38 148 178 240 
107.804 136.037 72.33 40 63 139 
108.542 136.594 61.4596 44 48 57 
-325.816 312.27 749.658 100 51 70 
108.182 136.732 64.021 122 121 187 
109.139 136.38 63.2129 40 22 46 
107.793 136.099 71.6441 137 168 232 
-290.577 297.09 698.03 95 51 66 
108.892 136.473 63.2879 32 16 42 
107.11 136.764 72.79 155 173 239 
108.216 136.117 72.5251 11 24 92 
-295.725 299.225 705.621 115 68 86 
107.944 136.142 71.3333 149 174 240 
108.262 136.827 64.2484 149 160 224 
105.887 135.95 80.5044 120 136 188 
107.915 135.791 71.0656 153 173 242 
-1.50547e+06 720091 1.97505e+06 46 36 61 
