ply                 
format ascii 1.0    
element vertex 831
property float x    
property float y    
property float z    
property uchar red  
property uchar green
property uchar blue 
end_header          
0.0483067 0.0607245 0.0912965 44 38 108 
0.0169123 0.0182568 0.0586657 142 167 233 
0.0167929 0.0181053 0.058559 137 162 228 
0.0169139 0.0182588 0.0586673 142 167 233 
0.0438288 0.0540508 0.0865638 11 20 79 
0.0169522 0.0183329 0.0587198 143 162 228 
0.0775215 0.0986903 0.121229 15 23 70 
0.124116 0.640415 0.455114 17 23 45 
-281.123 236.26 562.364 82 45 63 
-281.159 236.08 562.264 82 45 63 
-20621 8522.33 23775.1 153 156 207 
-88554 36196.8 101804 53 46 77 
-279.476 235.289 559.941 70 33 51 
3812.48 70686.2 1133.47 11 27 63 
26565.2 499288 7845.72 13 18 40 
-3.19671e+06 1.33344e+06 3.68844e+06 153 156 207 
-35.3781 -46.7365 -33.8948 47 29 53 
-3.82558e+06 1.5956e+06 4.41509e+06 153 156 207 
-274.027 229.562 546.929 82 45 63 
-298.178 234.791 572.189 86 44 64 
-261.847 217.504 534.224 88 50 75 
-296.409 232.612 568.151 80 41 60 
-5.22136e+06 2.13392e+06 5.99556e+06 53 46 77 
-4375.95 1933.51 5216.09 155 189 252 
83.4064 109.993 61.0593 144 169 233 
-4460.93 1973.94 5316.18 148 178 240 
83.5043 109.949 61.5684 40 63 139 
84.2325 110.076 53.0789 44 48 57 
-307.036 246.344 595.718 100 51 70 
83.891 110.239 55.0673 122 121 187 
84.7093 109.966 54.4464 40 22 46 
83.4996 109.971 61.03 137 168 232 
-274.814 234.367 554.351 95 51 66 
84.4968 110.026 54.5013 32 16 42 
82.8848 110.501 61.9059 155 173 239 
83.8323 110.01 61.7146 11 24 92 
-279.529 236.06 560.459 115 68 86 
83.6259 109.997 60.7854 149 174 240 
83.9458 110.311 55.24 149 160 224 
81.8037 110.066 67.9649 120 136 188 
83.6324 109.743 60.5915 153 173 242 
-8.62526e+06 3.52937e+06 9.8747e+06 46 36 61 
117.687 124.736 214.944 63 50 70 
60.0686 90.4239 101.803 92 69 95 
258.741 -3.24865 -923.426 115 69 80 
96.1759 121.182 172.998 128 129 150 
95.4957 115.892 164.501 67 57 82 
148.787 -4.76126 117.31 79 57 78 
84.9351 108.2 69.0468 45 28 38 
84.672 108.607 67.1976 134 172 234 
82.1604 109.653 69.5923 50 39 56 
85.2501 108.701 65.8714 55 55 129 
91.0682 105.91 58.6646 141 169 232 
91.9489 105.703 57.6865 106 125 184 
90.3319 106.606 56.7861 97 111 186 
83.5568 110.011 61.528 39 65 140 
82.7618 110.427 61.2525 54 46 119 
74.3704 114.207 68.6064 47 30 46 
74.8839 114.309 64.9644 28 44 96 
76.1383 113.868 63.5699 52 49 128 
74.7015 114.493 64.5098 104 121 167 
74.141 114.754 64.9837 18 34 57 
81.1642 111.629 57.0621 35 64 134 
148.718 -4.82871 117.197 76 54 75 
84.8718 108.119 69.0023 40 22 34 
82.2163 109.577 69.5546 50 39 56 
85.1573 108.489 65.7255 34 31 110 
91.6568 105.81 58.0008 143 173 237 
91.5733 105.521 57.808 144 168 230 
82.2786 109.753 68.262 30 47 90 
83.4981 109.673 61.5687 40 63 139 
82.7215 110.421 61.2518 54 46 119 
76.5626 113.263 67.6843 52 34 48 
74.3326 114.096 68.5481 45 32 49 
84.6701 109.636 54.4738 46 27 55 
74.9109 114.373 65.0069 28 44 96 
74.0733 114.77 65.0018 29 45 61 
81.1812 111.742 57.1365 36 65 135 
84.2905 109.922 53.0491 44 48 57 
81.3042 111.594 55.6424 43 25 63 
145.087 -8.51454 120.335 117 103 120 
148.781 -4.85937 117.096 76 54 75 
159.681 20.7361 100.984 139 119 131 
84.9039 108.129 69.0993 54 37 45 
85.0322 108.279 67.7266 28 33 65 
82.3264 109.667 69.6174 49 36 53 
85.1849 108.48 65.7802 34 31 110 
90.1299 106.434 59.3846 36 41 107 
90.2267 106.79 56.4282 123 145 205 
83.3432 110.09 61.0516 145 173 238 
76.4897 113.292 67.7007 52 34 48 
74.4177 114.08 68.5944 47 30 46 
81.6332 111.365 55.9285 135 136 193 
81.3557 111.591 55.5932 43 25 63 
81.4873 111.441 55.4219 28 17 51 
81.6733 111.448 55.9811 139 147 209 
81.6237 111.432 56.3128 140 160 221 
75.0527 114.586 64.458 116 141 197 
83.9852 110.023 55.0211 122 121 187 
84.7284 109.664 54.4374 40 22 46 
74.6108 114.095 68.5805 53 32 49 
83.5882 110.165 60.9879 137 168 232 
90.2286 106.821 56.3905 123 145 205 
90.6426 106.509 56.7713 60 63 142 
90.0987 106.445 59.3939 33 33 95 
91.9609 105.737 57.7974 96 116 175 
91.2061 105.892 58.6396 127 153 214 
94.0087 104.7 56.4746 48 36 50 
85.0474 108.519 67.8484 22 21 39 
84.7751 108.272 69.0443 39 21 33 
82.4087 110.985 53.3423 78 79 83 
77.2076 114.017 60.0601 94 110 133 
145.082 -8.61866 120.171 123 106 122 
81.3723 111.582 55.5102 36 20 57 
81.4139 111.475 56.1187 133 140 195 
73.9689 114.654 65.3485 15 27 49 
76.4115 113.694 63.3293 32 34 109 
76.1156 113.203 67.7257 27 16 32 
82.6906 110.207 62.0111 155 173 239 
89.5518 107.232 56.3883 160 171 237 
90.0878 106.898 56.4435 148 168 231 
89.6982 106.662 59.6167 23 26 77 
91.7807 105.873 57.8895 136 164 227 
82.2415 109.589 69.512 37 28 45 
92.5019 105.275 57.6221 36 26 53 
84.7325 108.506 68.0876 12 19 35 
74.3381 114.226 68.5815 34 20 37 
91.7988 105.785 55.6797 16 25 40 
152.729 46.2729 86.7863 129 115 130 
81.2575 111.565 57.5855 14 22 69 
84.5505 109.804 54.2571 18 11 29 
82.4998 110.455 61.2169 31 18 87 
91.0645 106.166 56.2301 21 27 59 
91.8059 105.739 57.8285 126 150 212 
74.3377 114.914 65.2836 10 18 37 
84.0137 110.266 55.2051 149 160 224 
74.6657 114.267 68.5263 42 24 40 
82.8609 109.338 69.2989 27 16 32 
84.64 108.277 68.9417 27 15 27 
74.6378 113.948 68.3899 28 17 33 
76.1521 113.405 67.7899 32 18 33 
83.6618 109.683 60.5748 153 173 242 
89.4653 107.124 56.3086 156 163 231 
90.7873 106.252 56.7364 27 25 98 
89.3658 106.941 59.9369 16 22 48 
85.4518 108.542 65.0167 15 17 56 
82.48 109.709 68.6302 18 21 40 
84.3847 108.859 66.8527 162 185 253 
84.3168 108.172 68.9524 20 14 26 
90.7128 106.08 58.4561 150 179 247 
85.2465 108.727 65.0316 15 23 86 
84.2137 108.473 68.4328 10 16 28 
91.6494 105.902 56.0796 15 21 35 
150.799 42.5881 92.334 81 57 70 
-215.242 464.075 -925.419 80 35 42 
490323 -639636 2.2866e+06 66 27 32 
734643 -1.49268e+06 5.33477e+06 69 27 37 
121.821 35.8058 147.602 137 126 143 
32.7037 93.6828 440.147 94 57 74 
113.229 55.8042 116.033 76 58 80 
113.207 55.3847 113.698 81 67 90 
71.0177 56.7166 128.627 67 53 78 
52.3803 62.2075 115.182 129 127 148 
85.0056 108.231 69.1411 41 25 36 
93.3192 106.977 58.7881 43 39 72 
92.4332 106.621 58.3108 108 118 179 
81.0682 107.911 68.493 50 38 52 
85.6458 109.079 66.2289 46 39 117 
82.0903 109.416 68.0357 21 35 80 
80.4796 107.138 66.3504 65 97 158 
91.2937 108.175 57.8114 100 105 186 
90.3232 107.383 56.7661 139 154 213 
80.7867 107.095 59.8873 147 160 228 
83.7874 110.838 61.5381 145 169 231 
75.6543 111.478 66.5148 36 23 41 
72.9061 111.362 66.7735 53 36 52 
75.6529 112.689 62.8215 53 50 131 
81.1086 111.42 56.9026 45 76 143 
73.8125 112.565 63.2768 109 130 175 
81.9453 112.569 56.1539 42 31 65 
-134.978 348.825 -677.402 69 36 43 
862243 -1.47109e+06 4.92691e+06 75 35 43 
187.488 -76.7286 700.951 109 54 73 
147.318 37.7617 338.377 70 36 50 
123.368 36.3905 147.335 78 56 79 
122.351 53.6711 123.534 78 119 211 
31.0231 90.678 433.242 88 52 66 
92.2362 49.8455 139.986 64 55 74 
112.226 55.0956 115.065 70 56 79 
113.408 55.6686 114.073 75 61 84 
71.6471 57.3848 129.293 66 50 76 
52.6927 62.7956 115.719 125 120 140 
59.9463 65.7611 111.802 125 125 149 
85.9273 109.572 68.5588 24 32 68 
93.0547 106.538 58.5071 39 32 65 
84.5387 108.363 67.104 132 166 229 
92.1938 106.722 58.6496 154 179 243 
81.3491 108.252 68.7254 50 38 52 
85.8534 109.388 66.4819 58 55 134 
90.314 106.677 59.3354 63 83 154 
81.9055 109.015 67.8521 21 35 80 
83.5831 110.025 61.5542 54 80 155 
83.4492 110.834 62.1616 155 170 239 
83.2658 110.078 60.9997 150 170 233 
75.708 111.618 66.5903 36 23 41 
72.3346 110.459 66.1246 36 25 41 
85.063 110.482 54.9364 56 37 69 
74.5429 113.262 64.3166 22 40 86 
82.5149 113.545 58.293 17 42 108 
81.152 111.512 56.971 45 76 143 
84.5384 110.526 53.3798 39 43 52 
73.477 112.213 63.0801 109 130 175 
-215.117 459.887 -918.758 80 35 42 
845217 -1.45949e+06 4.89566e+06 68 31 39 
266.084 -188.976 864.781 74 32 42 
229.113 -177.818 1037.13 69 27 37 
180.592 -83.5727 715.344 110 54 65 
180.605 -70.6124 739.374 136 89 99 
156.484 -40.4687 448.652 82 35 41 
155.278 -8.28485 343.777 66 25 29 
121.899 35.6257 148.058 140 130 154 
123.132 36.2438 147.001 78 56 79 
111.288 44.1193 141.037 79 64 83 
107.577 47.6225 136.645 117 113 136 
45.5021 92.6011 467.035 97 53 70 
11.8633 87.5617 481.426 129 83 94 
32.6049 93.8589 442.07 88 52 66 
67.4661 103.523 400.545 74 41 48 
114.474 56.8871 117.274 85 67 89 
113.93 56.1393 114.86 72 57 80 
82.7724 52.5205 142.186 112 104 119 
71.5704 57.1108 129.138 74 58 84 
52.6699 62.5469 115.554 129 127 148 
64.1391 84.4191 86.8021 113 109 136 
86.7718 89.0255 69.2452 82 84 97 
77.6642 89.5796 75.7139 77 55 68 
55.0411 98.9206 89.6656 91 76 97 
85.3008 108.716 68.0684 24 32 68 
84.7192 108.672 67.339 123 161 224 
92.6104 107.293 59.0378 131 159 224 
81.4073 108.117 68.6804 54 38 51 
85.5784 108.999 66.2016 46 39 117 
82.1818 109.404 68.1524 21 35 80 
92.2241 106.727 56.1367 25 32 48 
91.1107 108.301 57.4066 148 167 226 
83.0534 110.312 61.8796 158 173 242 
75.3573 111.045 66.2847 59 42 60 
73.1338 111.571 66.9446 53 36 52 
76.1497 113.241 63.2501 83 75 152 
80.5691 110.451 56.5323 32 59 128 
74.2018 113.124 63.7288 87 115 165 
81.821 111.722 56.1242 137 146 205 
78.72 115.748 61.2028 102 119 139 
83.9863 113.657 54.9261 65 72 78 
80.5245 110.201 54.7079 38 22 67 
81.6844 111.539 55.9975 128 129 186 
74.3412 113.083 63.6087 105 133 183 
73.9813 113.68 64.3957 13 25 51 
80.8406 110.815 56.7873 36 57 124 
84.5199 111.035 55.5833 135 136 201 
82.4749 109.376 61.3523 155 170 239 
91.3521 107.182 56.9885 18 22 67 
81.6885 109.864 67.8162 123 136 188 
92.6494 107.282 56.4365 25 32 48 
81.2467 107.799 67.0958 16 37 84 
90.5428 107.288 59.9629 38 38 102 
93.0155 107.465 58.9316 144 164 223 
92.655 107.39 59.132 153 183 245 
91.9297 107.239 59.5323 143 173 233 
84.1145 107.653 66.5488 140 170 232 
84.8455 109.29 67.958 77 115 180 
85.4001 108.893 68.2091 28 28 54 
55.0847 98.8842 89.3871 79 64 87 
77.0372 88.7316 74.9844 78 61 77 
63.3272 66.5388 110.238 73 66 97 
52.8074 105.848 365.531 97 47 58 
81.6225 51.2629 140.66 110 103 119 
94.3468 51.5141 142.671 63 49 66 
14.7736 83.7771 473.331 98 52 65 
122.565 36.2259 148.907 137 128 147 
-441.392 765.246 -1604.7 55 23 36 
144.996 -42.4695 517.922 67 26 30 
142.876 -37.3026 443.789 81 32 38 
154.344 -41.2405 442.191 86 36 45 
160.28 -52.6409 534.03 52 17 23 
262.704 -172.818 797.41 62 30 41 
255.359 -186.434 833.065 72 30 40 
644531 -1.04588e+06 4.00933e+06 59 27 38 
150.955 -10.3858 335.196 78 33 38 
-215.035 456.409 -913.764 75 32 39 
-137.468 346.875 -690.747 70 42 54 
87.2329 89.5862 69.4324 91 94 111 
94.4077 6.14771 359.763 80 37 46 
113.157 55.7989 115.663 68 54 77 
115.722 57.6386 116.786 69 51 75 
61.7031 67.6245 113.541 134 134 160 
52.8038 62.8676 115.884 129 127 148 
101.44 130.357 332.304 97 49 61 
113.556 46.017 143.75 75 60 81 
81.1868 111.1 55.8531 131 133 190 
82.8893 113.454 57.5579 130 152 210 
72.4806 111.78 63.4185 19 30 50 
76.5096 113.27 63.1767 65 51 128 
84.9816 110.794 55.0043 38 17 56 
84.1028 110.587 55.4313 147 155 220 
72.2402 110.324 66.0802 39 25 40 
74.9333 110.917 66.1788 25 16 33 
82.5111 110.619 61.3154 39 23 94 
81.1413 109.472 67.6187 118 126 172 
81.7922 109.003 67.9186 20 30 66 
90.0272 107.206 60.0578 22 24 75 
85.781 109.579 66.3462 46 48 125 
81.4606 108.274 68.703 38 27 43 
93.8258 105.391 57.0049 34 26 41 
84.6377 108.237 67.9803 17 20 37 
84.029 107.658 68.7198 35 22 32 
54.9813 99.1875 89.4486 80 62 84 
75.8655 87.5734 74.3414 73 55 71 
75.5519 88.1832 78.0972 116 105 121 
73.4352 87.4186 78.8193 123 100 116 
76.0389 57.1567 134.504 108 105 124 
93.3925 51.2107 142.276 58 45 62 
66.4861 101.939 397.792 84 47 55 
100.66 49.4132 135.175 75 54 73 
102.841 112.24 368.651 124 78 88 
106.138 111.656 368.641 87 41 52 
157.157 -39.738 450.873 74 31 38 
163.941 -54.0092 524.48 72 27 32 
258.85 -189.152 848.635 96 50 60 
53.4075 107.837 370.653 110 58 71 
109.965 63.389 102.02 72 54 78 
95.7363 -13.7559 477.913 88 38 47 
142.997 -42.6491 516.304 68 28 29 
144.814 -36.5897 449.067 81 32 38 
189.373 -89.389 578.61 92 40 52 
261.95 -173.766 798.435 62 30 41 
221.896 -175.924 1004.52 61 25 35 
-205.332 439.627 -951.375 53 24 28 
288.233 -197.373 709.131 66 26 35 
30.4827 89.8473 433.824 84 50 66 
118.862 53.3573 120.069 51 43 84 
76.1812 58.1904 132.266 75 61 78 
100.433 77.7589 88.302 73 55 77 
123.541 37.4488 150.63 137 128 147 
-106.109 301.436 -716.751 69 31 42 
105.014 10.8514 338.557 66 23 32 
-354.905 650.883 -1466.46 51 24 33 
2143.23 -2880.25 15445.1 147 95 107 
73.7663 113.306 64.2241 15 27 49 
85.5856 111.395 55.2232 25 15 40 
84.5318 111.15 55.739 147 155 220 
72.5747 110.204 65.8565 33 19 34 
81.4585 108.914 60.2105 27 22 89 
84.5794 112.632 63.5241 160 179 248 
84.7685 110.992 62.5139 13 21 84 
89.3003 106.996 56.2525 141 142 209 
82.4024 108.918 68.1174 12 20 43 
91.597 106.57 58.9571 151 181 243 
85.2396 108.867 67.4577 114 143 203 
91.1278 103.551 56.5799 39 26 44 
83.8577 106.894 68.159 41 25 36 
74.4159 86.9322 76.814 125 108 124 
74.5312 88.6314 79.9447 121 104 122 
74.7347 55.4402 132.142 114 113 131 
91.8296 49.521 140.048 58 45 62 
89.4959 110.528 366.496 138 91 109 
101.482 49.8074 135.533 74 53 70 
103.868 47.5541 130.144 72 46 55 
107.147 49.0628 134.312 86 60 71 
121.348 52.3849 121.718 61 101 197 
265.191 -187.684 861.277 58 25 34 
242.656 -148.741 661.442 59 24 30 
577673 -748984 2.69411e+06 60 24 28 
-443.824 770.402 -2001.61 37 11 14 
19.1865 97.215 383.568 106 54 66 
112.967 65.6357 104.602 82 58 80 
85.1746 88.7609 68.6603 65 48 64 
175.483 -75.4605 545.623 139 85 99 
119.308 33.1451 142.16 74 52 73 
67.9014 85.504 83.8974 65 53 73 
81.4351 50.9533 140.265 110 103 119 
97.2331 73.6391 84.8683 74 63 79 
258.838 -179.112 714.103 147 100 116 
208.656 -173.327 953.946 81 35 45 
240.797 -128.47 579.088 66 33 42 
106.974 47.9631 136.331 122 118 141 
72.0699 110.732 62.802 11 22 44 
77.8298 114.247 63.5576 35 23 85 
73.4468 111.51 66.7684 42 24 40 
75.3765 111.469 66.4774 33 19 36 
83.8562 110.051 60.7952 155 178 245 
82.2532 109.353 61.8365 160 178 250 
90.3832 105.729 56.4333 18 15 62 
89.5428 107.204 60.1468 17 26 59 
92.4796 107.539 58.8354 167 182 249 
82.9006 109.39 69.4207 34 22 34 
93.9067 107.231 58.5963 21 17 42 
95.2298 107.193 58.125 23 19 33 
83.7637 107.007 67.2208 14 21 40 
74.083 86.4406 76.4065 125 108 124 
73.3799 87.6167 79.0848 132 109 125 
65.8786 68.9713 113.135 76 61 84 
91.8742 41.6185 26.1201 94 113 146 
109.944 68.7793 92.1057 104 103 121 
69.2037 102.256 398.249 64 37 42 
106.109 48.9468 133.311 75 54 63 
132.111 -10.8259 394.722 76 31 36 
152.87 -53.4062 513.138 48 17 23 
-198.732 425.02 -923.61 54 25 30 
-285.303 560.828 -1248.67 51 21 21 
172.17 -76.107 540.169 142 88 104 
85.1411 86.8671 66.8893 108 102 128 
1013.95 -1190.59 4518.28 61 21 30 
77.3921 89.9247 76.0576 77 60 76 
120.377 52.0765 121.315 82 121 214 
105.894 47.6332 135.718 123 121 143 
239.954 -146.64 656.857 65 34 40 
55.2928 99.0678 89.1302 74 60 83 
-132.331 347.976 -675.833 58 31 40 
112.83 70.3225 88.3257 125 114 131 
31.9281 100.632 334.741 90 49 57 
-437.194 753.813 -1588.76 53 23 35 
98.6759 75.4887 86.468 65 50 69 
-57.4132 229.273 -486.511 142 89 107 
91.6868 -15.7405 462.657 77 30 40 
-348.103 642.853 -1441.69 52 22 30 
81.5442 112.544 58.902 16 22 38 
73.7337 110.416 62.3647 146 167 230 
85.8608 111.891 63.2949 14 23 66 
92.9654 108.07 57.4993 12 19 29 
88.5304 106.747 60.211 16 23 42 
81.0514 107.784 67.4554 24 26 49 
91.314 107.006 59.0594 152 183 248 
83.6765 108.099 66.5312 167 188 255 
93.4446 106.502 58.144 24 16 37 
93.4895 43.7689 25.8637 77 104 149 
76.521 88.9313 75.5191 84 66 80 
84.07 88.2025 68.4304 72 53 72 
85.9007 88.3348 67.9102 99 93 119 
74.8933 87.59 77.1783 127 107 119 
72.0251 86.6312 78.4723 134 110 124 
75.4266 57.9618 131.556 77 62 81 
74.5514 57.1245 133.438 115 113 135 
-144.371 351.706 -789.009 60 27 36 
-194.313 433.117 -959.846 110 65 70 
-220.646 458.562 -1015.98 48 19 23 
-128.137 326.886 -764.815 49 23 24 
-338.366 619.029 -1398.51 53 23 31 
-478.431 789.861 -2079.18 125 74 83 
607.618 -657.82 1739.76 41 20 19 
102.506 51.1783 137.161 75 54 73 
924404 -1.61913e+06 5.41818e+06 69 34 41 
107.84 50.6521 135.656 77 59 75 
148.612 -55.3473 494.477 52 21 27 
154.246 -40.5876 443.194 59 22 30 
202.462 -825.269 1220.81 103 63 64 
-95.0936 -146.46 138.928 104 104 112 
-94.4643 -145.652 138.119 65 62 73 
-651.183 -860.608 -710.112 29 30 61 
-818.375 -1080.47 -877.454 39 36 107 
-705.865 -956.513 -783.462 30 47 99 
-11734.3 -14805.8 -11269.8 84 96 170 
-2874.72 -3863.75 -2987.4 45 71 145 
-3222.6 -4351.85 -3363.56 138 157 223 
-3818.82 -5172.28 -3973.1 44 38 108 
2032.92 2706.83 1965.09 63 47 74 
-8498.86 -12489.1 -9554.8 20 31 59 
1810.26 2486.35 1802.07 127 122 176 
1646.5 2267.72 1637.25 36 26 51 
74.4563 109.952 123.886 92 69 95 
-670.505 -886.388 -730.998 33 45 87 
-712.963 -945.524 -775.006 145 173 238 
-832.555 -1098.75 -891.936 43 33 104 
-3211.86 -4328 -3328.73 143 162 228 
1897.05 2527.28 1832.5 47 29 53 
-6731.78 -9819.67 -7544.37 10 22 64 
-40407.5 -59412.6 -45440.1 30 42 66 
2726.97 3760.34 2756.8 28 57 125 
1657.24 2281.65 1646.57 36 26 51 
7430.05 10658.7 7902.67 94 105 123 
-646.508 -855.016 -706.107 25 26 56 
-741.856 -980.582 -801.772 129 149 210 
-588.096 -795.558 -659.968 38 30 45 
-2426.27 -3067.77 -2391.94 26 31 89 
-10885.2 -13713.3 -10442.4 63 69 145 
-3106.19 -4196.12 -3247.02 146 165 231 
-1428.76 -2085.83 -1654 63 47 58 
1969.3 2624.22 1903.93 54 35 65 
1746.35 2403.39 1735.98 49 33 70 
2027.94 2721.32 1979.5 135 139 203 
-1409.16 -2055.03 -1629.11 51 35 46 
-4222.47 -5730.51 -4399.36 29 19 80 
-649.666 -878.849 -722.17 11 18 47 
-625.056 -825.695 -682.959 31 25 37 
-553.651 -732.527 -611.701 38 24 37 
1364.69 1825.94 1304.08 33 36 45 
53.8089 77.1294 85.1459 64 51 77 
1992.07 2737.23 1987.16 125 122 175 
2549.4 3518.77 2587.6 12 24 74 
1902.72 2545.57 1843.45 36 19 63 
-1576.14 -2301.64 -1822.29 41 31 42 
-1424.22 -2044.3 -1618.87 28 16 30 
-3194.09 -4299.44 -3305.46 143 162 228 
-725.49 -961.623 -788.385 145 173 238 
-652.916 -864.144 -714.622 19 17 31 
-572.16 -758.231 -632.573 28 16 26 
-2459.12 -3119.28 -2434.14 17 24 68 
-561.666 -744.165 -620.21 22 15 23 
2021.37 2714.23 1977.3 148 163 230 
-871.644 -1150.88 -929.751 17 18 74 
2509.48 3432.79 2509.52 142 159 228 
-4352.45 -6189.15 -4725.59 47 36 96 
85.2759 107.851 67.4779 39 43 78 
84.9411 108.243 67.0528 134 172 234 
82.5595 109.156 69.3744 50 39 56 
85.4112 108.288 65.7788 55 55 129 
91.7906 105.686 57.7597 106 125 184 
90.1897 106.278 59.1938 56 70 141 
90.1485 106.615 56.8709 97 111 186 
83.5637 109.959 61.5236 39 65 140 
74.6181 114.251 68.4837 47 30 46 
74.7236 114.732 64.5009 104 121 167 
74.2468 115.222 64.9365 18 34 57 
80.9346 112.049 57.1677 35 64 134 
81.0184 112.084 55.7503 43 25 63 
121.781 42.3729 113.884 72 112 207 
85.3164 108.108 65.6355 34 31 110 
91.4174 105.379 57.8787 144 168 230 
89.962 106.963 56.4723 138 157 216 
83.538 109.999 61.5546 40 63 139 
82.9512 110.185 61.784 149 164 229 
83.2805 110.355 61.0375 146 166 229 
74.9544 114.474 64.986 28 44 96 
74.0947 114.923 64.9919 29 45 61 
80.9541 112.148 57.2408 36 65 135 
80.9915 112.277 55.782 43 25 63 
91.0196 105.699 58.6849 141 169 232 
82.8933 110.251 61.8668 149 167 233 
76.6212 113.176 67.6321 52 34 48 
74.6227 114.072 68.4914 47 30 46 
83.5523 110.482 55.1567 123 118 184 
74.21 115.152 65.1684 11 26 47 
74.7495 114.635 64.498 104 121 167 
81.0991 112.114 55.7078 43 25 63 
81.1 111.964 55.5975 28 17 51 
81.3247 111.958 56.1404 139 147 209 
81.3063 111.943 56.4581 140 160 221 
74.248 114.815 65.0973 13 29 52 
84.3795 110.266 54.5937 40 22 46 
74.8107 114.184 68.4828 53 32 49 
76.6644 113.232 67.5305 42 29 47 
83.5459 110.144 61.0074 137 168 232 
82.9822 110.099 61.8963 149 169 238 
90.2702 106.51 56.943 60 63 142 
82.1876 109.804 67.7303 128 149 204 
91.5929 105.487 57.9633 96 116 175 
91.0432 105.735 58.7129 127 153 214 
85.2748 107.917 66.4043 137 155 217 
85.2881 107.786 67.6999 22 21 39 
81.2796 112.059 56.1766 133 140 195 
80.7915 111.877 57.6364 18 35 91 
84.3668 110.383 54.5492 32 16 42 
83.7963 109.997 61.7354 11 24 92 
90.2099 106.599 56.9211 120 134 207 
82.6856 109.319 68.4263 13 18 40 
85.55 108.235 65.4468 32 20 94 
84.417 108.453 67.4587 83 127 192 
84.9431 107.857 67.9568 12 19 35 
74.6286 114.09 68.433 34 20 37 
93.4777 104.695 56.7332 36 24 38 
121.594 42.3446 113.724 80 116 210 
80.9212 112.02 57.7421 14 22 69 
84.0297 110.217 54.4942 18 11 29 
75.6548 114.182 64.2762 144 162 224 
76.2369 113.116 67.5674 20 16 33 
82.8475 110.359 62.0547 159 178 247 
90.6429 106.208 56.4246 21 27 59 
82.6692 109.154 68.2927 11 27 63 
91.647 105.646 57.9008 126 150 212 
121.88 42.3167 113.741 75 114 209 
83.6451 109.937 60.5859 153 173 242 
89.382 107.132 56.3474 156 163 231 
91.5453 105.577 56.1022 13 17 29 
89.1486 106.792 60.0353 16 22 48 
85.5251 108.161 64.9693 15 17 56 
83.0983 108.883 69.1663 32 21 37 
84.797 107.845 68.7037 20 14 26 
84.3329 109.396 61.8088 17 22 64 
88.5487 106.672 60.2197 17 25 48 
425.773 6.25958 349.622 61 42 61 
274.455 10.8794 164.522 46 33 53 
273.699 11.3649 164.347 51 39 63 
296.871 50.518 260.947 128 122 136 
83.195 110.088 70.0161 50 38 52 
86.0017 109.08 66.3494 46 39 117 
89.6586 105.786 58.8343 63 83 154 
89.9696 106.629 56.906 100 105 186 
89.7982 106.935 56.5023 139 154 213 
83.7846 110.258 61.7493 54 80 155 
82.1776 109.177 61.0551 147 160 228 
83.3561 111.3 61.7936 48 40 117 
77.4059 113.864 68.0177 36 23 41 
75.5355 115.053 69.1197 53 36 52 
80.7825 111.516 57.0892 23 48 115 
80.9308 111.736 57.0265 45 76 143 
75.2316 114.865 64.6585 109 130 175 
80.9469 111.858 55.6818 42 31 65 
435.978 8.84589 358.705 70 46 68 
273.007 10.3856 163.336 51 39 61 
275.092 11.875 165.397 51 39 63 
225.094 30.6437 131.736 101 79 100 
77.3448 88.6615 74.9677 78 61 77 
62.4542 108.48 97.4486 91 76 97 
85.6294 109.255 67.772 132 166 229 
91.4482 105.701 58.0865 154 179 243 
89.5531 104.284 57.5908 152 184 245 
91.4439 105.628 57.7174 126 137 201 
89.6911 105.862 58.8855 63 83 154 
89.9627 106.679 56.9318 100 105 186 
82.2142 109.155 61.1695 155 170 239 
83.7481 110.852 61.4365 150 170 233 
83.4507 111.477 61.9197 48 40 117 
77.3167 113.79 67.9504 36 23 41 
74.9416 114.217 68.4602 36 25 41 
80.9643 111.802 57.2951 17 42 108 
83.3484 109.712 52.8415 39 43 52 
80.9849 112.07 55.7393 49 39 64 
79.3594 116.881 61.7703 105 122 142 
960.4 -132.76 802.617 148 127 146 
580.55 -35.5253 468.676 65 44 53 
478.113 -18.4913 373.013 75 56 75 
432.082 24.9628 372.4 78 56 77 
274.159 10.5382 164.356 46 33 53 
275.843 10.6078 169.115 69 50 69 
209.843 16.8314 86.2998 135 112 130 
232.181 29.7207 154.561 78 61 80 
224.051 29.9356 131.209 103 81 102 
235.861 32.1057 162.068 79 60 80 
141.738 57.376 71.5257 130 100 108 
99.0215 73.816 85.9032 68 54 71 
64.8947 84.255 86.7936 113 109 136 
77.8973 89.266 75.5516 77 55 68 
85.7958 108.825 68.2277 24 32 68 
91.3412 105.692 58.1338 131 159 224 
90.0525 104.104 56.9101 159 179 240 
86.099 109.233 66.444 46 39 117 
91.3077 105.906 55.6146 25 32 48 
82.5224 109.509 61.453 158 173 242 
76.9532 113.244 67.7083 59 42 60 
75.1091 114.328 68.6868 53 36 52 
84.3166 110.081 54.6739 56 37 69 
83.4886 110.42 55.1878 149 157 222 
77.4161 115.163 64.4035 83 75 152 
81.6993 112.284 56.371 137 146 205 
81.3845 112.547 56.1007 42 31 65 
80.8982 111.45 55.3427 38 22 67 
81.0079 111.362 55.8157 128 129 186 
83.8551 109.525 54.1571 35 21 46 
74.7373 113.625 68.0398 32 19 36 
82.1599 109.227 61.2412 155 170 239 
89.3815 105.816 56.4477 81 80 160 
91.0133 105.509 55.3971 25 32 48 
83.1604 109.861 68.5225 16 37 84 
89.1006 105.595 58.944 38 38 102 
83.0408 109.677 69.7373 38 27 43 
90.1139 104.064 56.9036 144 164 223 
90.3968 105.339 58.4044 143 173 233 
85.0947 109.068 67.957 77 115 180 
91.3027 104.344 57.0345 31 22 49 
85.6705 108.715 68.2261 28 28 54 
86.061 108.835 69.7524 55 39 49 
297.111 49.9361 261.632 129 125 140 
482.705 -17.5508 376.957 75 56 76 
275.364 11.2031 165.477 45 32 50 
495.169 -27.9366 383.806 131 114 133 
566.253 -36.913 457.784 65 44 53 
805.347 -84.365 680.374 87 63 77 
219.077 28.4273 122.442 101 74 89 
234.702 31.3364 160.964 79 62 81 
37.9925 75.1551 92.7705 128 107 122 
56.9411 82.6814 90.5243 66 52 78 
982.845 -133.783 822.325 146 127 146 
217.911 39.7648 141.606 138 121 137 
178 34.2088 73.5322 105 73 86 
432.428 24.9973 372.871 78 56 77 
81.8519 112.528 56.6036 131 133 190 
81.876 112.531 56.993 130 152 210 
75.7082 115.125 64.6566 116 119 170 
75.0492 115.562 65.6667 19 30 50 
84.3473 111.059 53.8356 20 23 32 
81.7344 112.737 58.1751 16 30 77 
84.6555 110.864 54.9697 38 17 56 
83.5577 110.367 55.2299 147 155 220 
75.2013 114.425 68.7045 39 25 40 
77.3659 114.117 68.1748 25 16 33 
83.8972 110.562 61.3417 145 173 238 
90.1725 107.427 56.9742 152 172 235 
83.8071 112.208 69.5163 118 126 172 
90.7787 105.182 55.2653 21 30 47 
90.1483 107.131 60.0861 22 24 75 
86.9088 110.278 66.9425 46 48 125 
90.5652 105.832 58.7237 114 145 210 
85.971 110.449 68.7493 94 138 203 
93.3483 104.791 56.6792 34 26 41 
86.4115 109.669 69.0475 17 20 37 
77.5189 88.9413 75.4044 73 55 71 
170.221 51.4326 99.3205 59 50 69 
484.839 -3.44864 389.827 139 119 131 
506.449 -26.6988 393.442 134 115 135 
84.2363 85.7186 66.6615 94 97 114 
485.687 -17.4671 379.252 75 56 75 
38.3322 76.226 93.8037 110 90 102 
63.4771 81.9165 95.0506 128 107 122 
279.564 12.0121 171.673 68 49 68 
1027 -136.287 861.397 151 130 147 
222.975 30.2605 125.447 109 81 93 
862.06 -83.0944 731.716 91 65 78 
584.701 -35.3905 473.947 66 43 49 
81.9875 108.233 52.0782 24 30 42 
81.2811 111.398 56.2784 145 165 226 
75.489 114.617 64.3001 139 146 201 
83.4779 109.408 54.0337 25 15 40 
83.0214 109.839 54.9308 147 155 220 
89.4295 105.615 56.329 60 59 139 
90.8652 105.221 57.5396 163 181 245 
85.389 108.671 67.4234 114 143 203 
84.6246 107.377 67.5163 27 25 39 
84.8348 107.513 68.7373 41 25 36 
75.4165 86.571 73.361 78 61 77 
74.7976 86.6626 76.6875 125 108 124 
72.0393 84.8726 77.1262 121 104 122 
166.849 49.1277 96.7678 59 48 65 
208.592 23.8321 98.9014 132 119 136 
249.982 0.853793 117.091 140 120 132 
91.1174 83.4638 60.4346 68 50 64 
84.1469 87.4648 67.743 65 48 64 
39.6076 77.0384 94.6637 123 105 119 
97.0311 71.5569 83.8524 74 63 79 
81.9214 111.877 56.559 148 166 238 
81.3943 112.432 58.246 14 25 57 
78.0071 114.462 63.7469 35 23 85 
76.5263 114.281 64.466 148 166 232 
76.1644 115.326 69.1557 42 24 40 
83.1772 111.365 61.6251 27 22 89 
84.1204 110.53 61.056 155 178 245 
84.753 110.19 62.0364 13 26 58 
90.443 106.003 56.5871 18 15 62 
89.7571 107.268 60.2302 17 26 59 
85.3179 108.114 64.8852 18 21 64 
91.0499 105.552 57.7079 167 182 249 
90.7733 106.078 58.4107 162 187 254 
84.0411 110.144 70.0432 34 22 34 
85.564 108.764 68.4135 14 21 40 
85.583 109.042 69.5137 22 16 28 
74.5548 86.3274 76.381 125 108 124 
167.339 49.5162 95.3377 138 120 136 
170.076 51.1279 99.1816 55 44 58 
243.816 35.5283 168.62 72 55 73 
208.265 23.6379 98.9824 126 113 130 
453.265 -0.415959 364.055 61 46 65 
39.5554 69.9095 94.528 122 114 135 
38.2258 74.7257 92.1905 125 102 120 
82.967 114.683 60.1326 16 22 38 
75.3348 112.963 63.8653 146 167 230 
83.3901 110.258 55.3836 153 170 240 
85.1614 113.808 64.8214 161 179 251 
90.3404 106.211 56.7393 42 35 113 
91.0104 105.542 56.0533 12 19 29 
83.6733 110.686 69.3671 24 26 49 
93.5841 105.412 56.7973 19 18 32 
71.8602 89.7912 78.4525 96 75 94 
33.498 68.4931 93.4791 59 43 54 
-176.213 -51.8532 -169.156 84 64 91 
-657.942 121.464 -389.956 75 60 83 
-158.063 -56.5549 -160.591 81 61 86 
127.333 24.5573 64.109 126 118 131 
83.7443 24.4988 78.5098 85 63 84 
83.3681 23.8451 76.1918 80 70 94 
122.22 43.0963 56.0944 123 96 103 
96.1709 63.8107 63.7445 80 62 74 
83.3743 84.3431 65.7757 83 84 102 
-576.676 94.71 -353.929 94 80 95 
-289.193 5.76786 -222.317 128 111 130 
-321.539 -1.30916 -238.666 71 52 74 
-238.799 -36.1304 -200.605 77 63 89 
83.3153 23.7358 76.3469 68 53 74 
122.716 43.363 56.5597 128 102 113 
-664.358 123.713 -392.959 70 55 78 
-323.111 -0.531645 -239.561 76 58 82 
553.389 -195.19 164.337 63 48 71 
82.5003 82.9023 64.3981 95 98 115 
154.371 1.70528 62.1168 128 109 128 
-321.978 0.762071 -239.298 130 111 131 
-177.881 -51.0636 -170.176 83 63 90 
-157.245 -56.9704 -159.987 81 61 86 
-59.0094 -112.197 -87.5251 98 69 87 
149.371 1.15378 62.8089 140 130 154 
82.9902 83.9503 65.1777 91 90 108 
-173.692 -51.6913 -167.661 95 73 94 
94.5165 51.4376 71.7458 133 115 127 
155.455 2.25977 63.1895 114 99 118 
89.6623 40.0578 77.1049 98 74 90 
125.217 23.2351 63.2636 64 55 76 
153.476 1.45274 61.4306 142 125 141 
89.7622 42.7157 77.3735 120 116 139 
82.8295 83.512 64.7725 99 98 116 
-26.2171 -117.068 -44.9529 76 51 70 
152.114 0.559944 60.5916 133 114 133 
565.403 -205.774 166.46 55 43 63 
154.79 2.03599 62.7065 117 104 122 
81.2238 83.9888 65.4026 68 51 67 
83.16 84.1161 64.8646 102 94 117 
128.457 25.7931 64.8197 135 115 127 
-385.409 -459.697 -1488.92 89 49 60 
-1011.34 1031.2 -4031.15 89 44 51 
-392.29 -479.082 -1523.18 119 79 88 
-407.916 -510.693 -1591.03 87 49 60 
0.756069 -7.96952 -11.8542 109 98 115 
-403.246 -504.712 -1572.64 93 51 61 
-389.829 -487.728 -1512.66 61 31 41 
-392.089 -478.117 -1522.96 119 79 88 
-386.677 -461.924 -1500.24 76 38 49 
-956.794 970.131 -3823.37 83 40 47 
-756.903 326.542 -2966.58 60 22 35 
-436.604 -567.21 -1711.73 137 89 101 
-472.625 -620.539 -1865.13 139 91 105 
-382.099 -451.314 -1480.86 103 58 65 
-10322.2 42720.3 -43579.9 63 31 42 
0.819925 -7.81543 -11.8645 129 109 120 
-479.453 -626.102 -1890.08 137 91 104 
-456.167 -592.444 -1798.58 140 89 104 
