ply                 
format ascii 1.0    
element vertex 1244
property float x    
property float y    
property float z    
property uchar red  
property uchar green
property uchar blue 
end_header          
3.01365 -6.94148 14.6408 234 229 191 
-2.20889 -2.44799 6.52723 188 179 150 
-2.23973 -3.21495 9.08389 255 254 255 
-2.13185 -2.90697 8.9276 146 147 149 
-2.15867 -1.99555 6.45861 74 62 48 
-2.10824 -1.6996 5.77668 255 255 255 
-2.31278 -1.93622 7.2044 184 179 173 
-2.10631 -2.73426 10.7554 195 196 198 
-0.401846 -3.73837 15.0466 75 77 63 
1.74635 -3.54767 14.7759 60 62 59 
0.462695 -3.52329 14.8467 75 77 74 
0.0957315 -3.29988 14.9675 243 242 248 
0.018394 -3.2726 14.9631 58 59 61 
-0.422582 -3.19466 14.9049 242 240 241 
-0.485705 -3.19174 14.8973 238 238 240 
2.19941 -3.14537 14.6869 130 140 141 
3.41656 -3.04635 14.256 128 129 131 
-1.68086 -3.13919 14.8894 110 118 120 
3.73383 -2.91724 14.2113 120 123 114 
-1.67609 -2.88894 14.8791 81 85 84 
-1.67968 -2.84421 14.8894 97 105 107 
3.7182 -2.46201 14.1507 53 60 26 
4.83056 -2.432 14.5718 170 172 169 
4.82706 -2.38823 14.5605 160 165 161 
3.79304 -2.2553 14.1346 65 70 66 
4.82718 -2.32636 14.5609 161 166 162 
4.82973 -2.28881 14.5671 168 170 167 
3.51744 -1.91113 14.0968 57 61 60 
3.47671 -1.88437 14.1066 63 68 64 
3.41208 -1.80973 14.1187 71 73 70 
2.40256 -1.81846 14.6535 40 53 62 
-2.50071 -1.76377 14.5634 100 109 108 
3.70579 -1.38257 14.0459 48 57 62 
-2.94703 -1.33286 14.4275 61 66 62 
-3.08118 -1.05442 14.3828 140 150 152 
0.514557 -1.06518 15.1026 12 17 13 
3.78692 -0.502796 13.9214 146 154 167 
-2.16775 -0.319066 14.6057 124 132 134 
4.90273 -0.0171881 14.352 45 44 42 
2.7249 0.255165 14.1086 13 18 21 
-0.390991 0.459283 15.0041 79 80 75 
3.757 0.466461 13.7948 146 151 154 
0.965921 0.520801 15.0055 5 7 6 
1.01788 0.530644 14.9603 3 11 13 
1.03877 0.557343 14.9744 125 129 128 
3.37595 0.58492 13.8147 55 63 65 
-2.82111 0.858702 14.202 37 45 48 
3.27427 1.54346 13.6971 5 9 12 
3.78915 1.62034 13.6073 52 62 61 
-1.90114 1.74098 14.5708 10 14 15 
2.45554 2.00245 14.079 13 23 35 
4.72204 1.99822 13.891 167 169 164 
3.36175 1.14092 6.75283 217 209 206 
3.2558 1.28588 6.68466 140 141 123 
3.08069 1.32354 6.84412 41 23 3 
3.28666 1.31773 6.6889 135 119 104 
3.31008 1.32196 6.68206 183 184 150 
3.31161 1.33733 6.68578 155 143 117 
3.33651 1.34839 6.67373 255 255 228 
3.29371 1.38731 6.68524 205 189 174 
-5.18211 3.06692 14.714 129 133 132 
3.46821 1.44602 6.68282 63 38 31 
3.38948 1.478 6.66836 79 67 51 
3.37574 1.50437 6.66612 224 208 175 
4.65074 3.08782 13.6449 142 147 153 
3.22751 1.56784 6.68837 214 197 179 
3.73383 1.43907 6.08468 251 238 222 
3.27458 1.59165 6.6671 113 92 63 
-3.16443 2.01375 8.45284 182 164 150 
4.06633 1.44352 5.94395 132 110 86 
2.75287 2.25293 8.96539 113 118 114 
3.27283 1.69098 6.6677 185 178 149 
3.28653 1.69385 6.66386 75 59 33 
2.82425 2.22172 8.74984 164 146 132 
2.77581 2.28797 8.97934 129 129 129 
2.95786 2.08694 8.17315 171 155 142 
2.97839 2.08065 8.14894 155 140 137 
3.02115 2.03565 7.95699 163 135 123 
3.10742 1.94947 7.58422 149 136 130 
3.12896 1.94324 7.55463 127 116 114 
3.15554 1.91512 7.43575 142 128 128 
-4.00441 1.99468 7.69109 119 101 53 
2.99143 2.11826 8.11144 117 106 102 
3.28737 1.75314 6.65674 97 78 61 
2.83029 2.31115 8.77334 109 92 84 
3.53091 1.72898 6.4471 57 49 46 
-3.92195 2.05262 7.64844 176 160 126 
3.53079 1.74115 6.4451 208 192 176 
3.75411 1.66597 6.09918 86 73 64 
-3.46314 2.16087 7.9305 209 198 176 
3.05514 2.13418 7.83806 128 91 73 
-3.85238 2.08919 7.62045 135 131 94 
3.46765 1.79269 6.43388 198 182 169 
3.62185 1.74264 6.18723 144 120 96 
3.5486 1.81508 6.24835 88 61 42 
3.72451 1.78653 6.12793 128 106 93 
3.1326 2.22204 7.52677 248 249 244 
3.29856 1.97409 6.64338 60 48 24 
3.28246 1.97766 6.64135 184 172 146 
3.76536 1.82545 6.10914 93 62 33 
3.54938 1.88057 6.27153 136 112 88 
3.96278 1.82393 6.05259 91 68 36 
3.78084 1.84886 6.10916 133 115 77 
3.74341 1.8814 6.12791 219 198 143 
3.21569 2.05111 6.67104 185 175 148 
3.55533 1.94124 6.27218 91 69 46 
3.43837 1.99139 6.41212 179 157 120 
3.54466 1.96779 6.27404 216 196 169 
3.55401 1.97755 6.27619 126 106 82 
3.21596 2.09845 6.66812 173 161 147 
3.2974 2.10043 6.64238 62 53 38 
3.75087 1.94478 6.13727 111 85 50 
3.75697 1.95763 6.13757 236 212 174 
3.79389 1.95389 6.11962 210 187 146 
3.42763 2.06608 6.44204 155 152 133 
-0.779581 4.87753 15.4418 146 155 154 
3.76332 1.99567 6.14416 131 106 66 
3.16316 2.18916 6.69523 156 147 130 
3.13722 2.45307 7.47758 102 92 57 
3.0168 2.63381 7.99366 249 255 236 
3.68539 2.04818 6.16478 98 76 19 
3.01261 2.63042 7.94816 97 86 68 
3.82043 2.0428 6.1348 220 220 170 
3.73319 2.05182 6.14543 94 81 26 
3.80945 2.04937 6.13264 111 85 60 
3.73212 2.06039 6.15514 75 80 13 
3.85492 2.04894 6.12592 79 53 28 
2.9831 2.65459 7.95287 189 201 163 
3.94084 2.04369 6.10691 77 61 25 
2.99794 2.65696 7.94361 66 72 34 
3.63899 2.10112 6.22885 102 88 41 
3.72529 2.07936 6.16931 85 61 33 
3.15577 2.53264 7.41529 210 209 207 
3.63346 2.13462 6.23798 198 194 130 
2.9391 2.75372 8.00864 157 163 117 
2.80949 3.00481 8.74789 255 251 245 
2.88804 2.87316 8.31276 189 197 148 
2.96265 2.77714 8.00541 46 56 3 
3.42874 2.2585 6.46144 53 34 17 
3.90441 2.13765 6.13291 196 177 121 
3.6492 2.18355 6.23788 192 194 121 
3.66011 2.18172 6.22943 92 76 27 
3.63238 2.18718 6.23573 67 71 0 
3.02689 2.75045 7.85702 100 96 59 
3.58163 2.2156 6.30289 126 109 81 
3.00013 2.75781 7.86848 186 200 138 
3.65029 2.19542 6.23303 71 73 0 
3.69684 2.19576 6.22024 118 98 71 
3.8192 2.17296 6.16536 130 107 75 
3.66468 2.20463 6.23726 180 189 108 
3.03373 2.77473 7.85158 122 113 82 
3.11974 2.67409 7.56356 223 220 201 
2.85199 2.99567 8.48081 255 255 238 
3.09691 2.7143 7.63666 118 100 78 
2.92814 2.86534 8.06666 191 200 153 
2.85624 2.99972 8.44683 125 100 69 
3.06925 2.74652 7.71458 133 116 90 
2.9012 2.88092 8.09859 246 255 204 
3.06016 2.75519 7.73497 240 233 215 
2.8763 2.98176 8.37822 141 104 62 
2.98979 2.81692 7.90496 187 196 153 
2.88886 2.97205 8.33259 90 44 11 
3.66982 2.23479 6.24012 73 55 19 
3.07944 2.76086 7.71474 255 252 243 
2.89026 2.89897 8.10321 61 73 0 
2.91536 2.89805 8.0634 86 71 38 
3.02168 2.83993 7.83766 72 30 8 
-0.998992 3.02962 8.13302 191 173 163 
2.53759 2.35182 6.17686 135 150 91 
3.08683 -6.87812 14.6639 80 82 71 
-2.21305 -2.15362 5.31568 110 101 62 
-2.23488 -2.115 5.3676 222 228 242 
-2.32119 -2.12364 5.39738 206 219 235 
-2.19469 -2.45043 6.53044 101 94 68 
-2.14765 -2.4278 6.54181 128 116 78 
-2.34853 -1.95315 5.37157 224 230 246 
-2.22827 -2.06704 5.87219 181 170 152 
-2.09344 -2.06474 5.89126 131 120 92 
-2.21414 -2.04679 5.88163 125 110 71 
-2.43311 -4.98566 15.0093 20 20 22 
-2.20408 -4.85677 14.831 129 141 153 
-2.24012 -1.71514 5.19406 80 65 42 
-2.0795 -2.86584 9.00646 201 203 200 
-2.23298 -1.45836 4.68977 237 236 234 
-2.18285 -4.53767 15.0098 95 103 116 
-2.1693 -4.49262 14.9526 90 96 108 
-2.13185 -1.96981 6.50926 117 105 83 
-2.19771 -2.7016 9.04906 96 100 103 
-2.16576 -2.69858 9.05224 89 98 103 
-2.16317 -2.62538 9.02799 198 197 202 
-2.11762 -2.62116 9.0336 190 191 195 
-2.15789 -2.79427 9.73395 169 173 176 
-2.15727 -2.48365 9.00063 92 92 94 
-2.119 -2.48967 9.03648 92 96 97 
-2.12179 -2.41806 8.86938 241 240 238 
-2.29646 -1.59731 5.80306 94 87 79 
-2.31406 -1.59332 5.79998 233 235 247 
-2.15646 -3.81958 14.9007 86 92 92 
-1.67635 -3.81098 14.9661 83 94 98 
-2.13386 -2.73892 10.7556 55 54 49 
-2.05012 -3.79114 14.9307 17 21 20 
-1.87649 -3.77137 14.9161 40 50 41 
-2.20745 -3.70618 14.9055 100 102 101 
3.51914 -3.50994 14.271 36 43 25 
-0.0537784 -3.69559 15.1319 69 71 68 
-0.839741 -3.59594 14.9433 68 71 64 
0.475055 -3.5037 14.8496 51 54 45 
-0.0571526 -3.5509 15.0907 53 55 44 
1.72274 -3.32181 14.7981 236 237 241 
2.1727 -3.30676 14.7487 26 28 27 
1.31962 -3.36807 15.0556 233 234 238 
1.50125 -3.32614 14.8955 239 241 253 
0.437478 -3.29153 14.8662 240 239 245 
-0.00765532 -3.34123 15.1131 234 235 237 
1.72414 -3.26799 14.7814 43 49 47 
-1.7265 -3.2974 14.9216 103 110 126 
-0.479284 -3.27565 14.918 16 18 17 
-0.433103 -3.27588 14.9266 18 22 21 
0.105345 -3.26817 14.9686 52 52 52 
-1.71468 -3.23875 14.8819 25 27 26 
-1.758 -3.24995 14.9348 19 19 19 
3.52869 -3.08921 14.2388 116 120 119 
-0.476884 -3.19678 14.8526 234 234 236 
-2.90159 -3.12942 14.5744 32 37 33 
-3.43001 -3.12008 14.5763 22 27 21 
-0.432513 -3.13556 14.8404 29 34 28 
-2.14779 -3.13975 14.8694 29 33 36 
3.81795 -2.90462 14.2155 120 126 112 
2.20756 -2.91266 14.6841 95 103 105 
-1.79503 -2.81456 14.8847 98 108 118 
3.82161 -2.62605 14.1929 90 99 96 
3.10775 -2.61056 14.2849 114 126 138 
2.5506 -2.37476 14.5802 45 50 54 
1.91637 -2.35676 14.6869 42 42 40 
1.71366 -2.35177 14.6859 27 27 27 
2.41546 -2.33929 14.5913 114 124 136 
1.75999 -2.33945 14.6943 100 107 113 
1.8755 -2.34019 14.7145 99 104 108 
-1.51074 -2.29666 14.8378 20 22 19 
-1.93817 -2.29606 14.8927 19 19 17 
-1.46586 -2.28103 14.8392 111 118 126 
-1.9842 -2.28183 14.881 103 103 111 
4.81018 -2.15818 14.5209 154 156 155 
1.76686 -2.15358 14.7522 99 103 106 
1.87565 -2.15649 14.7862 105 110 114 
4.04695 -2.04495 14.1614 101 105 106 
4.80159 -2.08908 14.5042 154 156 151 
-0.808836 -2.10451 14.9083 85 87 86 
-1.45914 -2.09565 14.9215 90 101 107 
4.10794 -1.94627 14.1489 112 118 118 
1.89224 -1.97156 14.8543 95 102 110 
1.77924 -1.96522 14.8323 104 112 114 
1.24584 -1.96185 14.9157 99 103 102 
1.12281 -1.94041 14.8652 90 96 96 
-1.45601 -1.89776 14.9935 93 101 104 
1.13806 -1.76635 14.9882 90 100 101 
1.25057 -1.76469 14.9592 105 114 123 
4.35909 -1.68359 14.1917 126 135 134 
3.74083 -1.54545 14.063 49 54 50 
1.62123 -1.41671 15.0701 26 37 29 
0.730324 -1.38782 15.1234 121 130 139 
-0.466086 -1.38187 15.1826 13 19 17 
-0.3022 -1.35262 15.2016 106 116 117 
-1.422 -1.33562 15.2021 73 82 79 
0.021577 -1.22977 15.1317 11 17 15 
1.07543 -0.854745 15.0201 21 33 23 
1.01101 -0.763423 15.023 32 44 34 
-3.22938 -0.706218 14.3972 12 12 12 
-3.17717 -0.703547 14.3316 15 17 16 
-3.27142 -0.700821 14.378 100 108 111 
4.40511 -0.669293 14.074 66 72 70 
-3.14556 -0.672847 14.3611 106 111 114 
3.78939 -0.617503 13.9459 120 134 145 
-3.14497 -0.599917 14.3548 104 109 112 
-12.6066 -0.660751 17.2095 31 30 28 
-2.13416 -0.34733 14.5509 31 38 31 
3.77734 -0.133565 13.8762 118 128 137 
4.75144 -0.142645 14.2463 95 99 100 
3.30986 0.0500972 13.9073 62 73 75 
0.137992 0.255207 14.2833 60 80 78 
-0.418518 0.334164 14.9963 70 84 84 
-0.339952 0.375114 14.9807 63 73 74 
-0.406492 0.402313 14.9613 73 85 85 
0.662568 0.415515 14.9776 98 100 97 
-0.350196 0.456132 15.0119 14 16 11 
0.990866 0.501241 14.9858 91 95 94 
-0.946499 0.586956 14.9922 110 126 142 
-2.22644 0.616226 14.408 113 129 129 
-0.739227 0.702513 15.2715 11 11 9 
-2.21052 0.889232 14.4051 120 131 135 
-2.78882 0.875843 14.2219 128 138 148 
4.21883 0.945686 13.7916 57 61 64 
-2.12055 1.24034 14.3647 121 129 140 
-1.30212 1.40368 15.0116 126 140 149 
-1.13231 1.49577 14.9083 73 78 81 
2.39961 1.64486 14.1893 6 16 17 
2.64521 1.63265 13.9817 26 35 32 
-1.90742 1.73938 14.509 14 18 19 
-1.85239 1.7612 14.5179 104 112 114 
-1.94829 1.75894 14.4897 88 95 101 
-1.93728 2.26815 14.388 90 100 109 
-1.91639 2.30953 14.3997 14 20 20 
2.26594 2.41663 12.8128 22 30 33 
3.13996 1.31 6.75585 52 25 14 
-1.56491 2.82158 14.6807 25 35 36 
3.2034 1.32313 6.72998 192 178 149 
3.22206 1.37205 6.72018 132 109 93 
3.32393 1.3658 6.67393 59 56 49 
3.19397 1.37701 6.73084 135 112 96 
3.2107 1.38774 6.72244 223 207 191 
3.14852 1.40203 6.76931 239 220 203 
3.16615 1.39955 6.74902 253 240 221 
3.12226 1.41075 6.79446 214 197 181 
3.46332 1.39247 6.6843 99 98 93 
-9.17289 4.18934 19.9793 149 150 152 
-9.36036 3.78091 17.9771 147 149 148 
3.13085 1.42593 6.78737 146 128 114 
3.29668 1.40643 6.68017 70 60 48 
-21.182 6.52706 31.1709 140 140 138 
-21.9917 6.95877 33.1401 136 136 134 
-20.8206 6.32979 30.275 146 146 144 
3.48903 1.43992 6.67163 56 41 38 
3.12905 1.4723 6.78286 133 114 99 
2.87855 1.96005 9.05548 91 94 85 
3.42889 1.45484 6.66085 217 200 182 
3.11847 1.49214 6.79299 216 199 183 
3.14623 1.48777 6.75596 194 175 160 
3.1731 1.48447 6.73149 203 186 170 
3.40474 1.47516 6.65705 255 253 234 
2.05606 3.15964 14.3513 91 107 132 
3.21545 1.49775 6.70211 118 95 77 
3.357 1.50558 6.66843 98 84 71 
3.45774 1.47695 6.46307 215 203 189 
-3.48728 1.81401 7.94056 61 54 44 
3.32925 1.52841 6.66349 101 85 70 
3.76022 1.40587 6.08972 247 239 228 
3.18432 1.55632 6.7114 133 114 99 
-3.48804 1.85161 7.94252 190 172 148 
3.30014 1.55742 6.66863 107 86 67 
3.20944 1.57069 6.70512 211 192 175 
3.14075 1.58995 6.75515 217 201 186 
3.25027 1.58381 6.67892 102 81 64 
3.15738 1.60261 6.75569 138 115 99 
3.28994 1.58639 6.66652 211 190 163 
3.39995 1.53895 6.45428 222 209 190 
3.73179 1.45358 6.07549 77 66 60 
3.95519 1.43816 5.95264 232 210 196 
3.27699 1.61159 6.668 192 174 138 
3.58656 1.49478 6.16245 235 212 196 
3.69457 1.47063 6.06496 238 225 209 
-3.10402 2.07524 8.43551 154 136 116 
3.6213 1.52757 6.1623 105 73 50 
3.14145 1.66676 6.74376 237 218 201 
3.53661 1.55293 6.23796 66 53 47 
3.09459 1.71564 6.91335 221 207 194 
-3.37624 1.96395 7.90307 185 169 136 
3.12028 1.68427 6.77209 248 229 214 
3.40745 1.60467 6.44109 192 178 152 
3.09999 1.69488 6.80879 229 212 194 
3.18852 1.66806 6.69775 224 200 176 
3.23372 1.66419 6.67968 219 197 173 
3.64184 1.54189 6.16873 231 205 188 
3.55389 1.55994 6.23521 188 171 151 
3.727 1.52088 6.08154 227 215 193 
3.91115 1.5016 6.00581 207 186 159 
-3.10401 2.10719 8.4258 40 36 27 
3.09088 1.71843 6.85092 126 94 79 
-3.36601 1.98959 7.91044 27 27 15 
-3.53616 1.95367 7.73111 172 160 136 
2.78746 2.2437 8.91623 229 229 217 
-3.39421 2.01019 7.92546 68 58 49 
-3.11924 2.15 8.43538 59 56 49 
-3.93663 1.96053 7.65466 185 170 115 
2.79394 2.27319 8.93843 113 114 109 
3.11673 1.93509 7.56694 255 254 248 
2.81168 2.27541 8.89827 243 239 236 
-3.13303 2.18495 8.43196 185 170 149 
3.09584 1.769 6.8058 235 218 202 
3.13951 1.95548 7.53343 252 251 247 
-3.98437 2.00187 7.68658 211 193 145 
2.75704 2.3251 8.97709 41 42 36 
3.00336 2.12508 8.12071 115 105 95 
2.75997 2.34819 8.96655 125 135 137 
3.09665 1.8077 6.82158 224 208 193 
-3.23854 2.17252 8.19917 171 154 134 
2.99383 2.14346 8.0749 114 105 100 
-3.24783 2.26008 8.46115 47 43 32 
3.28619 1.78631 6.65517 129 109 74 
3.51253 1.73947 6.44153 59 54 50 
-3.98558 2.06864 7.68686 187 174 140 
2.82986 2.35355 8.77802 255 255 251 
-3.53704 2.15483 7.9733 58 46 34 
3.21375 1.81257 6.68209 215 194 173 
-3.87839 2.06643 7.6247 155 148 96 
-3.11581 2.28006 8.43233 42 37 33 
-3.94102 2.07436 7.64202 28 28 18 
2.92331 2.2655 8.39105 255 255 251 
-3.13528 2.28895 8.42339 178 171 145 
3.16558 2.0216 7.38785 254 254 252 
3.84223 1.68532 6.12697 246 230 217 
-3.42122 2.18176 7.92032 189 182 154 
3.00892 2.19404 7.95861 105 87 77 
-3.83719 2.10449 7.60189 28 29 24 
-3.79516 2.09847 7.57554 134 130 95 
3.28815 1.85103 6.65574 122 98 70 
3.81769 1.70546 6.12346 234 218 205 
3.79839 1.70871 6.12356 72 54 50 
3.14158 1.88162 6.72186 254 233 214 
3.26355 1.87321 6.65903 175 153 130 
3.43375 1.81328 6.43887 67 53 44 
3.76407 1.72105 6.10473 84 65 58 
3.21958 1.87996 6.67591 178 156 133 
3.28878 1.87779 6.65452 126 105 76 
-2.58192 2.79025 9.9537 74 80 80 
2.79284 2.49652 8.85685 70 61 52 
3.62228 1.76902 6.18834 96 71 51 
-2.99148 2.49085 8.69077 81 85 84 
3.52315 1.81328 6.241 208 190 166 
3.28651 1.93677 6.64984 105 87 65 
3.42174 1.87422 6.41635 105 88 70 
3.54836 1.82626 6.24883 92 65 44 
3.87853 1.76286 6.01874 186 171 152 
3.4162 1.89616 6.43003 203 188 169 
3.14431 1.9928 6.72979 187 167 143 
3.1675 1.98863 6.69713 203 182 161 
3.92744 1.79668 6.04579 50 36 23 
3.21475 1.98835 6.67473 189 174 153 
3.2616 1.98558 6.64581 161 150 132 
3.30852 1.98797 6.6439 191 171 134 
3.92119 1.80864 6.04393 66 48 24 
3.24857 2.04962 6.65494 162 148 122 
3.88381 1.88006 6.07678 149 136 91 
3.26258 2.07289 6.64757 99 87 65 
3.01152 2.47498 7.95374 80 77 70 
3.22261 2.0909 6.67216 149 133 118 
3.24699 2.08424 6.65201 143 130 113 
3.14137 2.10963 6.72606 167 150 134 
3.3058 2.08791 6.63668 165 152 120 
3.41331 2.04174 6.45741 185 184 166 
3.14661 2.12546 6.71753 94 81 65 
3.88516 1.93543 6.09619 62 47 24 
3.87153 1.94757 6.08914 148 135 103 
3.02367 2.52336 7.88998 70 69 39 
0.34313 4.74698 15.0035 140 148 159 
3.04598 2.52131 7.85263 239 238 234 
1.27656 4.63174 14.5224 99 118 122 
1.39622 4.66571 14.6043 129 139 140 
1.07573 4.61207 14.4269 113 130 138 
3.02706 2.55749 7.8496 83 74 65 
3.01613 2.59535 7.95733 230 231 217 
3.34502 2.16753 6.58673 208 184 148 
3.51408 2.08497 6.33486 220 198 174 
2.98437 2.63996 8.03253 240 244 229 
3.73416 2.0385 6.16287 119 108 42 
3.53575 2.09615 6.31843 152 128 100 
2.65094 2.93222 8.91418 26 24 12 
3.14924 2.23749 6.71952 183 167 144 
2.93089 2.77605 8.32608 255 255 251 
3.14198 2.25555 6.71486 99 89 77 
3.76688 2.06837 6.15532 203 182 155 
3.00835 2.68006 7.90593 69 77 36 
3.6415 2.12167 6.23245 77 53 17 
2.64986 3.02276 8.90915 23 23 11 
2.7893 2.9896 8.7943 53 45 43 
3.01597 2.70087 7.89919 101 96 64 
3.31789 2.27765 6.60129 184 160 124 
2.79215 3.00814 8.77393 71 63 60 
3.09637 2.65533 7.65074 233 226 218 
2.90904 2.89691 8.33279 79 78 21 
3.0779 2.71819 7.70001 89 66 32 
3.09092 2.74028 7.67083 254 255 248 
2.99526 2.87442 8.02177 198 192 144 
3.05638 2.78679 7.74827 248 240 229 
3.48697 2.33666 6.43885 108 90 26 
1.05658 2.91188 7.75559 198 172 155 
3.08375 2.11098 5.46622 74 87 18 
3.31752 2.12922 8.07836 94 78 78 
3.89559 1.77061 6.01893 62 54 43 
-2.17359 -3.62254 9.12716 93 99 95 
-1.42732 -5.76937 16.5376 80 75 71 
-2.21478 -2.07761 5.86768 130 117 100 
-2.17098 -2.06567 5.85358 120 109 87 
-2.18722 -4.71193 14.2805 117 138 155 
-2.13263 -2.94495 8.95084 255 255 253 
-2.14506 -1.69124 5.18122 90 79 47 
-2.18025 -4.51089 14.9675 99 105 121 
-2.15469 -3.86095 13.8132 137 151 160 
-2.11411 -2.49306 9.0355 93 97 100 
-2.3302 -1.611 5.80103 108 101 95 
-2.04344 -1.64318 5.93986 137 132 129 
-2.29255 -1.59777 5.79897 91 82 73 
-2.09579 -2.40473 8.90387 139 143 154 
-2.05572 -3.79816 14.9297 17 24 17 
-1.88329 -3.77729 14.9386 32 42 33 
-2.17377 -3.75167 14.9007 38 38 38 
-0.0643442 -3.74637 15.1166 77 78 72 
0.60869 -3.6983 14.924 71 75 61 
-2.21143 -3.70272 14.9007 90 92 91 
3.51883 -3.50835 14.2691 36 43 25 
0.480849 -3.63426 14.9187 89 91 80 
1.75394 -3.51895 14.7321 57 59 56 
1.26187 -3.58522 15.067 54 56 51 
0.48011 -3.50999 14.8521 54 57 48 
-0.0618999 -3.54448 15.0765 50 52 39 
0.441831 -3.46821 14.8606 254 254 254 
-0.866742 -3.46993 14.9321 254 254 254 
2.12806 -3.36231 14.7369 101 113 127 
1.71692 -3.3277 14.7993 237 238 243 
1.32588 -3.37519 15.0608 237 238 243 
2.15433 -3.30061 14.7475 15 17 16 
0.431642 -3.29778 14.8656 240 241 246 
-1.72709 -3.3018 14.9112 95 102 118 
1.44562 -3.27367 14.8071 65 67 62 
0.0601803 -3.29917 14.9681 249 248 254 
1.72102 -3.26044 14.7812 34 43 40 
2.21363 -3.23356 14.7193 109 116 124 
0.110177 -3.2637 14.9672 55 57 56 
0.216279 -3.2726 14.9973 46 46 46 
-1.73905 -3.23928 14.9164 26 29 22 
-2.90577 -3.12628 14.5825 37 39 36 
-3.42645 -3.1168 14.5646 22 27 21 
-0.440051 -3.10998 14.7597 25 30 24 
2.20862 -2.90519 14.674 105 115 116 
0.869197 -2.85945 14.7421 4 13 12 
4.32645 -2.79576 14.3215 106 113 105 
-2.14157 -2.82099 14.8254 17 22 16 
4.2876 -2.62851 14.2869 93 100 93 
-4.67413 -2.64451 15.5088 255 255 255 
2.36756 -2.35174 14.6198 11 15 14 
1.92449 -2.34845 14.6904 31 31 29 
1.70729 -2.34221 14.6889 25 25 25 
2.42371 -2.33069 14.6036 108 120 136 
1.76736 -2.33046 14.6949 99 108 117 
1.86977 -2.33291 14.7317 97 106 111 
1.21441 -2.32157 14.7926 80 85 88 
-0.805606 -2.27079 14.8285 79 84 88 
-1.45895 -2.27101 14.8397 108 117 126 
-1.9889 -2.27222 14.8731 101 104 111 
4.12532 -2.16303 14.1593 105 111 111 
2.37701 -2.21714 14.6654 31 35 38 
-1.99317 -2.21259 14.8689 96 99 106 
-1.93506 -2.18859 14.9514 18 20 17 
1.77356 -2.14047 14.7364 96 99 104 
1.8741 -2.15133 14.8066 113 118 122 
1.11745 -2.13127 14.8284 78 82 83 
1.22912 -2.14689 14.926 85 91 91 
0.587369 -2.13393 14.9726 73 80 86 
4.05367 -2.03529 14.1345 113 116 121 
-0.803341 -2.09603 14.8971 86 87 91 
-1.45408 -2.08942 14.9331 88 97 106 
-0.801914 -2.03098 14.9256 85 89 92 
-1.44995 -2.032 14.9216 93 100 106 
3.75827 -1.89284 14.0902 71 81 80 
1.88527 -1.95953 14.8418 102 109 119 
1.78733 -1.95649 14.8358 103 110 116 
1.24212 -1.95212 14.9099 97 103 103 
1.12539 -1.93381 14.8592 99 104 107 
-0.785926 -1.90589 14.9765 81 85 86 
-1.4469 -1.89136 14.9765 93 100 106 
1.24703 -1.75817 14.9633 104 113 122 
-1.43981 -1.71032 15.0645 81 88 94 
1.15703 -1.56447 14.9893 93 104 110 
-1.43144 -1.51625 15.107 71 76 79 
3.89161 -1.33296 14.0442 64 70 68 
1.61879 -1.41445 15.0516 33 43 35 
1.12679 -1.4119 15.0832 23 32 27 
0.732091 -1.38492 15.1228 121 130 139 
-1.46494 -1.37733 15.223 17 22 16 
-0.302344 -1.35682 15.2269 105 115 116 
-1.42071 -1.32662 15.1999 72 81 78 
0.0192317 -1.22911 15.1398 14 20 16 
3.783 -1.12031 14.0119 136 152 168 
3.83487 -0.819 13.9864 18 20 19 
1.03 -0.823491 15.0142 95 108 114 
-3.16216 -0.692646 14.169 10 12 11 
-3.27912 -0.692047 14.3817 98 106 108 
-3.13994 -0.672024 14.3586 104 109 112 
4.41157 -0.662475 14.0743 69 75 71 
3.79064 -0.61647 13.9419 120 134 145 
0.67383 -0.358546 15.0166 77 88 94 
0.664912 -0.301284 14.9875 24 30 28 
1.0845 -0.175721 14.9464 93 111 123 
3.82722 -0.102263 13.9067 47 54 64 
0.259058 0.0303603 14.9948 20 26 24 
-1.36694 0.0836389 15.0799 37 48 44 
-2.1721 0.147776 14.4894 43 52 49 
-0.341303 0.368886 14.9813 52 60 62 
0.659412 0.41266 14.9715 101 103 100 
-0.180889 0.418762 15.014 6 12 10 
-0.345153 0.439639 15.0028 16 20 19 
-2.2372 0.436497 14.4274 118 131 137 
-1.26909 0.564764 15.026 102 118 133 
-0.498326 0.559611 15.041 84 84 82 
1.18044 0.55211 14.8598 75 80 76 
-0.949641 0.596942 14.9879 109 127 141 
-0.85516 0.607853 14.9987 15 17 12 
-0.742766 0.712082 15.2511 12 12 10 
-2.78644 0.883498 14.2213 119 129 141 
4.2214 0.941759 13.7955 52 56 59 
-2.12591 1.24348 14.3992 121 129 140 
-1.27526 1.38556 14.8365 102 120 132 
3.27458 1.54117 13.6674 12 21 20 
2.67559 1.58801 13.9225 19 25 23 
2.40042 1.64781 14.1971 5 15 16 
2.64545 1.63184 13.9652 20 29 26 
-1.90464 1.74208 14.5084 14 18 19 
-3.10047 1.7106 14.0607 113 128 147 
-1.84964 1.76987 14.5209 104 112 115 
2.4497 1.97126 14.1366 82 100 110 
2.39674 2.02789 14.1185 13 23 25 
-1.95034 2.07506 14.4029 96 109 118 
-1.90216 2.12901 14.4773 20 24 27 
-1.94135 2.19653 14.3826 91 108 115 
4.28154 2.11785 13.6256 52 57 51 
-1.92057 2.317 14.4257 19 25 25 
2.40047 2.31589 14.0656 33 38 44 
4.8305 2.47499 13.9582 155 162 172 
2.27286 2.41829 12.8102 27 33 33 
3.29221 1.30272 6.69285 37 39 26 
-2.75083 2.51671 13.0494 13 19 15 
3.20303 1.32632 6.72879 193 179 152 
3.22696 1.36974 6.72136 137 114 98 
3.28354 1.36692 6.69425 111 92 78 
3.32415 1.36722 6.67667 59 56 49 
3.21065 1.38784 6.72228 223 207 191 
3.15135 1.40232 6.77023 242 227 208 
3.46462 1.38978 6.6849 89 90 84 
3.42738 1.39342 6.68416 90 90 82 
-21.5724 6.72305 32.1262 139 141 138 
-22.0072 6.9499 33.1642 135 135 133 
3.49239 1.43851 6.67445 51 40 36 
3.4293 1.45577 6.65959 217 200 182 
3.47049 1.44296 6.5914 223 204 189 
3.14453 1.48774 6.75395 203 184 169 
3.38499 1.4744 6.66923 63 53 41 
3.20109 1.48476 6.70547 214 196 176 
2.05941 3.15862 14.3668 91 109 133 
3.18228 1.50276 6.71362 126 110 94 
3.2184 1.50126 6.69806 118 92 75 
3.33148 1.50213 6.67029 123 116 100 
-3.26318 1.92016 8.47732 201 183 163 
3.45633 1.47914 6.46946 219 206 190 
3.32878 1.52982 6.66621 98 82 67 
3.18163 1.554 6.7114 126 107 92 
3.29987 1.55636 6.67048 125 104 85 
-3.48934 1.85276 7.94387 190 172 148 
3.20836 1.56772 6.70677 200 181 166 
3.14158 1.59075 6.75725 217 201 186 
3.16029 1.60286 6.74787 143 117 102 
3.24856 1.58725 6.68107 105 84 67 
3.29107 1.58438 6.66443 199 179 152 
3.1933 1.59823 6.71444 117 94 76 
3.37178 1.55253 6.43694 215 194 177 
3.69393 1.46805 6.06429 238 224 211 
3.27736 1.61205 6.669 192 174 138 
3.39476 1.56178 6.4339 71 64 58 
3.09803 1.68409 6.86303 130 111 96 
-3.1169 2.081 8.46185 145 127 107 
3.61598 1.52323 6.15564 113 81 56 
3.14051 1.66849 6.74259 244 225 210 
3.09051 1.71209 6.89996 222 208 195 
3.40501 1.60542 6.44186 195 177 153 
-3.08225 2.09514 8.44067 30 30 20 
3.10326 1.69697 6.81699 229 212 194 
3.18879 1.66916 6.70113 231 207 183 
3.64159 1.54056 6.1616 233 210 192 
3.30752 1.66158 6.65474 202 179 147 
3.72596 1.52237 6.08314 230 215 196 
3.55845 1.5632 6.23732 187 166 145 
3.92166 1.50737 6.02214 216 191 169 
-3.10215 2.10792 8.42955 40 37 28 
-3.93947 1.91993 7.64839 63 47 22 
-3.36232 1.98947 7.91615 33 33 21 
-3.53624 1.95617 7.73475 172 160 136 
2.78161 2.23598 8.88719 236 236 224 
-3.38802 2.00795 7.91437 68 58 49 
-3.11825 2.15074 8.43467 59 56 49 
-3.93315 1.95935 7.6501 185 170 115 
-3.13538 2.18894 8.43382 191 174 154 
3.09574 1.81492 6.96633 248 245 240 
2.99456 2.11846 8.08312 108 98 86 
3.02674 2.09101 7.96449 118 105 97 
3.09903 1.79423 6.80502 243 227 212 
3.56603 1.70439 6.44005 210 193 177 
3.90545 1.59332 6.02327 89 66 52 
2.76337 2.35347 8.97086 127 137 138 
-3.24161 2.17225 8.21579 181 165 142 
3.11811 1.78997 6.75929 247 233 220 
3.20938 1.77624 6.69541 210 188 167 
3.88655 1.63562 6.15341 65 54 50 
-3.54316 2.07195 7.74967 180 162 138 
-3.24812 2.26277 8.46204 49 45 36 
-3.19763 2.26157 8.45056 177 157 133 
3.28543 1.79185 6.66001 133 109 73 
-3.23073 2.20047 8.18851 50 50 42 
-4.10482 2.08455 7.75506 190 182 135 
-3.53698 2.15569 7.97039 64 54 45 
-3.87536 2.06426 7.62242 137 127 78 
-3.93993 2.07617 7.64252 26 27 19 
-3.91244 2.07367 7.63342 52 51 33 
-3.14013 2.28496 8.42757 180 168 144 
3.49243 1.76205 6.45219 44 39 33 
3.81653 1.6816 6.11921 66 55 51 
3.84469 1.68575 6.12751 241 225 210 
-3.42342 2.17624 7.91931 187 176 154 
2.81628 2.40722 8.80795 91 78 72 
-3.79779 2.10002 7.5814 134 130 95 
-3.83892 2.10745 7.60246 21 22 16 
3.79333 1.70756 6.11836 68 50 46 
3.81758 1.7095 6.12347 238 222 207 
2.59183 2.49296 9.00327 13 14 8 
-3.419 2.212 7.90962 32 34 33 
3.14218 1.88198 6.72482 239 221 201 
3.43566 1.80362 6.43276 71 62 57 
3.17485 1.87972 6.70377 218 193 171 
3.76836 1.71691 6.10765 81 64 56 
3.21939 1.87492 6.66902 194 170 146 
-2.58414 2.7861 9.95192 76 82 80 
-2.644 2.70551 9.61982 86 90 89 
3.07505 1.91668 6.77219 142 116 99 
2.78692 2.49814 8.85023 69 62 52 
-3.00241 2.49691 8.71445 82 86 85 
2.80043 2.53694 8.83399 76 69 59 
3.56984 1.80953 6.24582 220 198 175 
3.52204 1.81455 6.24613 218 198 174 
3.28411 1.93762 6.6511 102 84 62 
3.44521 1.87177 6.41644 72 59 40 
3.54754 1.82513 6.2485 88 61 40 
3.42609 1.87503 6.41772 101 84 66 
-3.26478 2.3823 8.16724 79 81 78 
3.91393 1.76269 6.03712 56 41 36 
3.87684 1.76215 6.01842 188 171 153 
3.41065 1.89315 6.42565 207 192 173 
3.36328 1.92656 6.53412 189 173 157 
-0.944925 7.3041 24.9741 72 73 55 
3.24394 1.97819 6.66542 142 127 108 
3.39376 1.93608 6.51209 109 93 78 
3.21533 1.98939 6.67529 189 174 153 
3.92239 1.79951 6.04151 50 36 23 
3.95574 1.80513 6.0556 213 194 162 
3.23452 2.00839 6.67071 112 91 74 
3.80098 1.84275 6.10525 194 173 142 
2.92765 2.51483 8.34509 248 248 246 
2.81918 2.66203 8.7791 94 81 73 
3.24858 2.04877 6.65573 162 148 122 
2.79623 2.70008 8.81748 228 227 225 
3.23145 2.06655 6.66531 107 89 69 
3.26306 2.07145 6.64939 95 83 61 
3.02824 2.45749 7.90376 246 247 239 
3.22102 2.09057 6.67084 149 133 118 
3.30564 2.08728 6.6363 165 152 120 
3.41323 2.04169 6.4572 185 184 166 
2.81532 2.75152 8.76568 246 247 242 
3.29366 2.11032 6.63823 80 68 54 
3.89687 1.94247 6.10341 69 57 35 
3.97727 1.95581 6.07929 211 195 170 
1.07095 4.59125 14.3602 113 130 138 
-0.0861664 4.63827 14.5053 132 140 143 
3.15347 2.21143 6.70645 92 76 63 
2.79117 2.88515 8.78098 171 170 166 
2.64932 2.93253 8.91308 26 24 12 
3.83038 2.03442 6.13255 221 198 166 
3.14991 2.23718 6.72292 169 153 130 
3.74235 2.06375 6.15742 143 134 75 
3.76923 2.07352 6.15992 194 173 146 
2.81556 2.92177 8.71919 101 92 83 
3.06414 2.62826 7.77199 203 197 183 
2.83464 2.93544 8.683 246 245 240 
3.64064 2.11876 6.23046 78 59 17 
3.31976 2.25655 6.62915 172 146 95 
2.64888 3.0152 8.9032 34 34 22 
3.32329 2.28557 6.61878 180 156 120 
2.73472 3.05297 8.78043 44 47 38 
2.83853 2.9482 8.47262 206 206 182 
3.01766 2.75173 7.85478 106 116 63 
2.66781 3.0739 8.7448 83 62 33 
3.06244 2.7945 7.77106 255 244 235 
2.97782 2.86 7.90998 109 101 54 
-1.54883 2.98734 7.93899 138 160 75 
3.08405 2.11114 5.46547 79 92 22 
-2.24143 -2.1084 5.36176 217 225 244 
-2.40047 -1.63279 4.88252 230 233 250 
-2.34584 -1.6164 4.8486 222 227 247 
-2.17601 -3.36818 10.7736 167 174 184 
-2.14742 -3.70229 14.3685 113 117 128 
-2.24662 -3.93585 15.2925 93 98 104 
-2.07453 -3.81239 14.9289 24 36 26 
-2.17652 -3.75188 14.9175 26 26 26 
0.626829 -3.74396 15.1151 69 73 58 
1.76479 -3.51811 14.7062 60 65 58 
1.24662 -3.58283 15.0627 47 50 43 
0.490346 -3.5048 14.8194 50 53 44 
0.436389 -3.45754 14.878 247 247 249 
2.15472 -3.28864 14.74 16 18 17 
1.43703 -3.24572 14.736 57 62 56 
1.71887 -3.23861 14.7728 43 54 50 
-1.74067 -3.22335 14.911 18 20 19 
3.54267 -3.09499 14.2471 106 112 110 
-0.46817 -3.23546 15.0363 231 231 233 
-2.80786 -3.1293 14.6176 26 28 23 
-2.7044 -3.12302 14.6299 29 31 26 
-0.449933 -3.10702 14.8538 26 31 25 
2.14855 -2.87368 14.6927 30 38 40 
0.86925 -2.85475 14.7648 5 14 11 
4.32379 -2.79143 14.3182 102 107 100 
-2.1402 -2.82385 14.8378 23 28 24 
2.14468 -2.7141 14.6374 47 58 54 
1.69285 -2.3221 14.6802 17 17 15 
2.43659 -2.31133 14.6115 108 124 139 
1.2951 -2.3216 14.8359 20 21 16 
1.77949 -2.3055 14.6803 97 103 117 
1.85739 -2.30971 14.7426 104 111 121 
1.21343 -2.30749 14.8455 80 85 88 
-0.875227 -2.28216 14.8205 12 14 11 
-0.0796582 -2.28513 14.889 67 70 77 
0.556301 -2.27991 14.8013 85 89 98 
4.80457 -2.26033 14.4936 118 120 119 
-1.91896 -2.28041 14.9103 21 21 19 
-0.786214 -2.25083 14.8399 77 82 86 
-1.99788 -2.24812 14.8645 100 103 110 
-1.44493 -2.24427 14.8399 101 110 117 
-1.3767 -2.2526 14.8737 87 94 102 
-1.93217 -2.18698 14.9524 18 20 17 
1.78586 -2.11472 14.7292 105 108 115 
1.86524 -2.13255 14.818 111 116 120 
1.21941 -2.12124 14.8914 85 90 94 
0.572848 -2.1121 14.9581 80 86 98 
-0.138258 -2.082 14.8817 62 66 67 
-1.43675 -2.06024 14.9123 85 94 103 
-1.37352 -2.07061 15.0056 78 85 93 
3.75835 -1.89266 14.0909 71 81 80 
1.23229 -1.93586 14.9366 71 79 82 
1.87326 -1.93599 14.8403 105 109 120 
0.581685 -1.92108 15.043 80 87 93 
-0.126231 -1.89949 14.9728 65 66 68 
4.22905 -1.81186 14.1364 109 118 123 
-0.778561 -1.8817 14.9729 83 87 90 
1.15355 -1.73402 14.961 74 85 91 
1.23768 -1.7395 14.9577 98 106 117 
-1.43515 -1.6849 15.061 87 91 100 
1.23333 -1.54587 15.0804 85 95 105 
1.17228 -1.5342 15.0035 97 107 116 
-0.757768 -1.49606 15.1167 73 81 84 
-1.42701 -1.49125 15.1363 74 82 84 
1.75948 -1.41806 15.0326 25 30 26 
1.13126 -1.40767 15.0749 16 25 20 
1.26719 -1.40772 15.0913 16 22 22 
0.731592 -1.38382 15.1228 121 130 139 
-0.483892 -1.35239 15.156 29 38 35 
-0.293212 -1.34969 15.1851 106 116 117 
0.464601 -1.02459 15.0755 15 21 17 
3.83946 -0.805919 13.9901 16 18 17 
1.02082 -0.838143 15.0318 107 120 128 
1.03397 -0.754641 15.0316 27 37 28 
4.31018 -0.712018 14.0722 72 79 72 
-3.20768 -0.689451 14.3754 11 13 12 
-3.29535 -0.680565 14.3793 99 105 105 
3.82221 -0.554188 13.9295 21 27 27 
-3.12876 -0.489061 14.3532 105 109 110 
0.607685 -0.398533 15.0201 14 20 18 
-0.371323 0.361647 15.0005 61 71 72 
-0.323016 0.438736 14.9896 11 15 14 
-2.23164 0.445414 14.4167 118 132 135 
-0.457667 0.466771 14.9936 12 16 15 
-0.133652 0.473226 14.9928 69 69 67 
-0.245046 0.504447 15.0059 91 95 94 
1.06756 0.581849 15.0005 8 12 11 
-0.944856 0.597108 14.9836 111 127 142 
-0.846241 0.602701 14.9658 16 18 13 
-2.78312 0.885158 14.2139 119 129 141 
2.66138 1.61034 13.9583 4 13 10 
2.40285 1.66101 14.1889 4 12 14 
-1.90703 1.74664 14.5173 14 18 19 
-3.10546 1.72052 14.0494 109 125 141 
-1.96995 1.79675 14.4659 94 102 115 
-1.96241 2.0614 14.388 97 110 118 
2.40245 2.03462 14.1293 26 36 38 
-1.90384 2.13806 14.4978 22 26 29 
-1.91645 2.3303 14.4499 14 18 19 
2.2907 2.42597 12.7939 27 33 31 
3.27809 1.3035 6.68773 44 42 30 
-2.68553 2.47545 12.8229 12 19 12 
-2.03134 2.53336 13.1459 26 32 22 
-2.12789 2.5862 12.9305 75 86 92 
-4.596 3.07596 14.96 94 95 100 
3.50285 1.43469 6.69296 46 43 38 
3.42906 1.46112 6.66046 212 193 176 
3.37806 1.46658 6.66824 54 51 44 
3.46622 1.44978 6.57913 234 215 200 
3.22849 1.50901 6.69698 115 89 76 
-3.21522 1.93648 8.49732 74 68 54 
-3.46624 1.83065 7.95511 61 59 47 
3.17334 1.548 6.71353 136 117 102 
3.20865 1.56518 6.70882 189 170 155 
-3.49145 1.85739 7.95164 187 169 147 
3.24703 1.59305 6.66645 105 84 65 
3.3653 1.5447 6.43209 210 189 172 
4.04718 1.42693 5.94462 253 235 221 
-4.01767 1.84611 7.6888 43 48 26 
3.40151 1.56255 6.43343 70 67 60 
3.72665 1.48433 6.07452 88 70 66 
-4.07089 1.88089 7.71214 163 143 119 
3.25017 1.63111 6.67587 112 90 67 
3.1346 1.66619 6.73678 240 221 204 
-3.5303 1.9149 7.6992 55 52 43 
-3.38951 1.9644 7.90548 185 166 136 
2.80708 2.21733 8.99596 48 49 41 
-3.07214 2.09517 8.43889 24 25 17 
3.64842 1.54545 6.16559 232 211 192 
3.72275 1.52645 6.08514 226 209 191 
3.3092 1.67135 6.65589 195 174 147 
-3.3465 1.98521 7.91131 28 29 21 
-3.09888 2.11171 8.43414 40 40 30 
-3.98665 1.95303 7.68015 215 197 147 
-3.5305 1.96184 7.73095 188 170 150 
3.07327 1.79343 6.91917 255 253 248 
3.24989 1.73721 6.66928 114 89 67 
3.27396 1.73987 6.67282 124 101 83 
-3.14197 2.19271 8.43473 195 174 155 
3.56912 1.71114 6.44165 197 178 161 
3.86524 1.63586 6.13707 61 56 50 
-3.5367 2.0648 7.75151 187 166 145 
3.90971 1.64828 6.14901 227 210 192 
-4.09599 2.07455 7.74736 209 195 158 
3.07568 1.82561 6.81269 151 128 114 
-4.00068 2.06438 7.69527 212 191 164 
-3.24398 2.26514 8.45016 47 42 36 
-3.21514 2.20533 8.17556 53 53 45 
-3.57331 2.14536 7.91042 44 40 31 
3.2136 1.81709 6.67933 203 182 161 
-3.93246 2.08311 7.64973 41 42 36 
-3.42953 2.16226 7.91795 192 171 152 
2.78956 2.37048 8.74127 82 70 56 
3.85446 1.68636 6.13317 237 221 205 
-3.84079 2.10946 7.59381 17 18 12 
3.77305 1.70647 6.10612 79 62 52 
3.82284 1.71438 6.1208 234 216 202 
-3.42547 2.22062 7.91486 37 37 37 
-0.9302 7.68192 27.8045 24 24 14 
2.58635 2.5079 9.02287 12 15 8 
-2.64438 2.70445 9.63635 85 89 88 
-3.00917 2.49268 8.71377 83 85 84 
-2.96365 2.50299 8.73665 16 18 13 
2.79348 2.54005 8.83354 69 65 56 
2.82993 2.51051 8.73029 95 81 72 
-0.890604 9.68268 33.9007 56 61 29 
-3.22744 2.37653 8.18016 15 16 11 
3.27054 1.94296 6.64366 97 79 57 
3.44482 1.87869 6.42863 86 71 52 
3.54882 1.82715 6.25004 92 65 44 
3.87091 1.76023 6.01554 188 170 150 
3.34392 1.94351 6.60889 220 203 183 
3.47206 1.89615 6.41659 73 60 41 
3.81459 1.79889 6.08666 131 109 72 
3.91475 1.791 6.03626 68 58 46 
3.96325 1.80175 6.0583 194 176 154 
3.27834 2.01215 6.64871 94 82 60 
2.80811 2.64902 8.75529 78 69 60 
3.22104 2.09154 6.67448 147 131 116 
3.89755 1.93596 6.0943 80 68 46 
2.79073 2.80142 8.78647 77 70 64 
1.4043 4.65683 14.58 115 129 129 
2.81133 2.81986 8.74004 221 218 211 
3.03043 2.56999 7.88726 74 75 59 
2.72929 2.90207 8.88541 65 65 53 
3.0486 2.58474 7.83982 205 200 194 
3.14494 2.23647 6.72389 171 155 132 
2.8761 2.83463 8.4832 85 75 66 
3.92809 2.06243 6.16141 62 47 18 
3.02523 2.64884 7.87383 226 229 222 
3.09246 2.59295 7.65696 202 197 193 
2.83871 2.94185 8.68997 255 255 250 
3.64152 2.11905 6.23155 78 59 17 
2.92784 2.82651 8.31341 249 249 237 
2.75922 3.00863 8.84165 113 120 126 
3.00556 2.69608 7.90303 43 59 10 
3.3303 2.28947 6.62611 186 162 126 
3.35802 2.30449 6.61775 195 172 128 
3.29552 2.33989 6.63928 38 41 24 
3.1112 2.77755 7.722 255 253 250 
3.6274 2.26589 6.25047 198 177 150 
3.7276 2.26755 6.21581 183 165 119 
-2.20316 -3.14496 9.6554 147 153 153 
2.8762 2.26293 8.57583 141 140 136 
-1.51173 -5.86951 16.3773 52 56 41 
-2.26169 -5.27097 15.0936 61 66 69 
-2.22562 -4.53867 15.0178 112 120 133 
-2.46007 -4.30352 14.8941 22 24 23 
-1.87788 -2.6202 9.16653 193 193 201 
-2.10092 -4.05197 14.944 12 16 17 
-2.09909 -3.39088 13.117 124 135 141 
-2.22609 -3.87222 15.0086 100 107 115 
1.80978 -3.73054 15.0171 65 70 64 
1.23094 -3.73078 15.0789 74 83 80 
-0.0936017 -3.71827 15.1412 65 68 57 
1.22963 -3.58114 15.0514 48 51 44 
1.68971 -3.36059 14.8114 238 238 248 
1.35518 -3.40413 15.0579 235 235 247 
0.402447 -3.32789 14.8681 242 243 248 
0.0281933 -3.37585 15.123 239 238 244 
2.13492 -2.72182 14.6444 42 52 51 
-1.73194 -2.7439 14.8933 19 25 21 
-2.15691 -2.52915 14.8635 20 26 22 
2.11463 -2.44316 14.6423 89 97 108 
-1.82859 -2.37366 14.8518 92 101 106 
2.34322 -2.33136 14.6553 17 21 20 
1.96038 -2.31398 14.7109 17 18 13 
2.45419 -2.30203 14.6132 112 125 142 
1.67969 -2.30869 14.6957 16 18 15 
1.02267 -2.29936 14.7491 13 15 12 
1.31034 -2.31233 14.837 15 16 11 
1.88862 -2.38842 15.2768 97 103 117 
0.396979 -2.29403 14.8132 10 11 13 
0.671074 -2.29802 14.8703 11 13 10 
-0.242832 -2.27707 14.8105 8 13 9 
-0.890606 -2.26668 14.8186 10 12 9 
-0.616746 -2.28895 14.9383 10 11 6 
-1.90479 -2.26495 14.9019 19 19 17 
-1.55009 -2.25464 14.8301 10 12 9 
-2.01634 -2.24767 14.8724 90 93 100 
-0.760776 -2.23315 14.7665 75 80 84 
-1.42329 -2.23252 14.83 95 102 110 
-3.60415 -2.09595 14.5323 41 43 40 
-1.50654 -2.12832 14.8808 11 15 14 
1.82824 -2.10777 14.7819 103 106 111 
1.20553 -2.14008 15.1227 81 84 89 
-2.15881 -2.09211 14.8142 33 35 32 
0.5411 -2.09495 14.9283 86 93 103 
-0.112251 -2.06942 14.8817 59 65 65 
-0.771898 -2.05743 14.8902 76 81 84 
1.84468 -1.92141 14.8622 103 111 114 
1.21736 -1.95378 15.2196 73 78 81 
4.22932 -1.7884 14.1186 116 125 130 
-0.770627 -1.87161 14.9814 73 77 80 
1.85393 -1.73777 14.9268 88 99 101 
1.20519 -1.72731 15.0029 86 96 106 
1.86386 -1.54567 14.995 86 97 103 
-0.74176 -1.4873 15.139 75 85 86 
-1.41787 -1.47636 15.1264 79 84 87 
1.77242 -1.43001 15.0053 26 35 30 
1.26481 -1.40472 15.0718 15 20 23 
-0.501564 -1.33447 15.1525 22 28 26 
0.453597 -1.02445 15.0682 12 18 16 
-3.11574 -0.482285 14.36 96 100 103 
4.50046 0.107745 14.0314 55 61 51 
-0.24212 0.390906 15.0089 6 12 12 
-0.481213 0.459419 14.9843 12 16 15 
-2.23082 0.452878 14.3992 123 137 140 
-0.835311 0.59319 14.9865 15 17 12 
-1.27312 1.0487 14.9082 32 41 36 
-1.32018 1.19893 14.9224 35 45 37 
2.66709 1.60898 13.9456 19 25 23 
-1.95449 2.36817 14.7073 18 24 24 
-2.71452 2.5179 13.0285 13 20 13 
-2.0475 2.5353 13.1493 33 39 29 
3.27194 1.30545 6.6942 42 42 30 
-2.11574 2.59041 12.8954 77 87 99 
3.3737 1.46347 6.66749 55 51 48 
3.4293 1.46564 6.6599 212 193 176 
3.23799 1.5228 6.69729 120 97 81 
-3.26811 1.92992 8.46227 189 171 151 
-3.19792 1.94303 8.49165 64 60 51 
-3.93565 1.75738 7.64432 51 54 45 
-3.45134 1.83661 7.9547 64 65 49 
3.2977 1.54036 6.66816 100 89 67 
3.20899 1.56311 6.70783 188 169 154 
3.29169 1.58987 6.64997 185 166 136 
-4.00799 1.84229 7.68533 48 53 33 
3.24027 1.60418 6.66924 120 98 74 
-2.15152 3.04351 12.7734 24 29 22 
3.2789 1.64918 6.66691 136 117 75 
-3.39686 1.96213 7.90276 176 155 128 
-3.06313 2.09345 8.43732 23 25 14 
3.39645 1.61535 6.44881 200 180 156 
-3.33508 1.98189 7.90544 29 30 22 
3.9343 1.51911 6.02308 193 166 145 
4.16034 1.50809 6.00303 225 204 185 
-3.10673 2.12717 8.44211 57 57 49 
-3.37869 2.0153 7.90784 64 56 53 
-3.96018 1.96782 7.66494 193 173 122 
2.75883 2.31188 8.99626 42 43 37 
3.26351 1.7315 6.67023 128 105 87 
-3.15082 2.1945 8.43298 185 164 143 
-3.23709 2.16095 8.24124 178 157 138 
-3.52712 2.05576 7.74955 192 170 147 
3.56807 1.71104 6.43321 208 189 174 
3.86074 1.6417 6.14227 56 53 48 
3.52373 1.74023 6.47621 35 30 26 
-3.24594 2.26952 8.45086 48 43 37 
-3.1614 2.25971 8.43543 177 157 133 
-3.20852 2.21588 8.18098 48 48 38 
-3.43921 2.15248 7.92422 195 175 151 
-3.50792 2.1156 7.7169 46 46 36 
3.44113 1.78213 6.43203 67 58 53 
3.84772 1.70321 6.13805 238 220 206 
-3.85423 2.10828 7.60009 20 21 15 
3.48739 1.79466 6.41088 189 168 147 
2.58886 2.51322 9.03695 12 15 8 
3.62349 1.76435 6.19318 125 98 77 
3.50992 1.81474 6.25369 217 196 175 
-3.21869 2.37449 8.17697 16 17 11 
3.26685 1.9377 6.64881 114 96 74 
3.32474 1.94075 6.6386 207 185 162 
3.45043 1.87823 6.42276 69 58 28 
3.374 1.96056 6.64981 213 195 175 
3.81357 1.79458 6.083 123 100 68 
3.90753 1.78295 6.03013 62 52 42 
3.9694 1.796 6.05972 196 179 159 
3.83987 1.87449 6.16127 199 178 149 
2.76922 2.69667 8.81628 132 137 141 
3.90875 1.93691 6.10757 81 64 48 
3.3559 2.11362 6.60172 198 176 129 
3.41385 2.0864 6.45795 68 66 51 
2.9719 2.64999 8.0743 255 252 243 
3.9493 2.06224 6.15447 81 65 40 
3.42819 2.18039 6.46403 75 62 45 
3.16812 2.31969 6.74495 74 67 57 
2.83555 3.03731 8.74032 255 254 245 
3.29538 2.33655 6.64282 46 49 32 
2.64332 3.05659 8.71434 67 71 36 
3.07484 2.71746 7.68664 88 63 43 
3.48058 2.29699 6.45498 188 164 136 
2.51158 3.0914 8.7195 222 203 186 
3.70837 2.25393 6.18642 191 170 127 
-0.950343 3.0495 8.22437 146 124 103 
-2.38196 -3.84047 13.6482 135 138 143 
-2.12505 -3.99071 14.8897 14 15 20 
-2.86118 -3.93729 15.1354 165 165 173 
-1.79282 -3.30613 14.9136 90 100 102 
-2.82415 -3.0926 14.6483 30 35 29 
-1.7119 -2.74813 14.8733 14 20 16 
-2.13987 -2.50309 14.8252 24 30 28 
2.10511 -2.45087 14.6209 115 125 135 
1.65844 -2.27622 14.6774 17 19 16 
1.99093 -2.2845 14.6921 17 18 13 
0.372174 -2.26427 14.8047 11 13 12 
0.697514 -2.26971 14.845 11 11 9 
-0.915886 -2.23785 14.8106 9 11 8 
-1.58118 -2.22835 14.8267 10 12 9 
-1.25018 -2.24182 14.9283 9 11 8 
-0.53652 -1.30868 15.1576 13 19 19 
1.01816 -0.903176 15.0805 100 113 119 
1.09583 -0.754141 15.0104 22 32 21 
-0.235463 -0.253147 15.0145 13 18 21 
-2.23313 0.483368 14.4232 114 125 129 
-2.07388 2.52596 13.1387 26 32 18 
-2.69424 2.54174 13.0829 17 22 16 
2.2388 2.54327 12.8295 70 90 117 
-3.28508 1.95794 8.4883 188 167 146 
-3.16596 1.96117 8.49599 54 53 48 
-3.42425 1.85361 7.95677 65 63 50 
-3.99816 1.83665 7.70013 42 46 29 
3.30878 1.5897 6.65219 182 160 137 
3.2314 1.61623 6.67771 102 83 51 
3.27527 1.64637 6.66983 150 128 104 
-3.4178 1.9652 7.90916 191 170 149 
-3.31591 1.97828 7.90729 27 28 20 
3.38764 1.63262 6.44819 206 185 164 
3.3338 1.69844 6.66201 210 190 166 
2.81518 2.24812 8.81869 255 255 253 
3.24958 1.72707 6.67559 127 102 80 
-3.23183 2.14498 8.25834 185 164 147 
-3.51347 2.03947 7.74871 185 160 138 
-3.16675 2.23132 8.43854 187 166 145 
3.13769 1.8102 6.8343 234 220 207 
-3.44674 2.12612 7.92346 193 172 151 
3.44909 1.75628 6.42663 67 60 50 
3.38697 1.78024 6.46479 226 210 195 
2.84827 2.4641 8.81309 122 121 117 
3.25356 1.9177 6.6529 119 95 71 
3.33056 1.81433 6.29264 185 168 152 
3.47265 1.88612 6.42473 72 62 37 
3.83707 1.79885 6.10308 120 96 72 
3.91192 1.78248 6.03692 59 49 39 
3.82272 1.87071 6.12352 197 176 149 
3.90737 1.93022 6.10099 88 73 54 
3.29417 2.15393 6.63951 60 60 34 
3.42489 2.10068 6.48134 68 67 47 
3.97116 1.99265 6.10944 204 182 159 
3.37473 2.15973 6.53672 162 135 105 
3.11996 2.23351 6.71961 173 155 131 
3.9322 2.0573 6.13622 79 63 38 
3.35948 2.31385 6.61957 181 154 111 
3.48315 2.28637 6.44567 195 171 145 
-3.09559 2.13653 8.44061 55 56 48 
-3.2474 2.28164 8.44462 54 51 44 
2.8937 2.62174 8.86364 254 254 252 
2.82436 2.6833 8.64894 255 255 253 
-1.40654 -5.58328 16.5282 240 240 248 
-2.30709 -4.29456 13.0913 126 127 131 
-2.21893 -4.75634 15.233 18 21 28 
-2.13473 -4.32439 14.8603 13 18 21 
-2.17986 -4.023 15.0434 17 18 22 
0.920234 -3.59819 14.868 51 60 39 
1.16857 -3.66463 15.0909 78 88 87 
-0.154395 -3.65045 15.1159 55 61 49 
0.575482 -3.5866 14.8735 71 74 63 
-0.734224 -3.59912 14.9807 51 58 42 
-1.50704 -3.81657 15.9889 46 53 35 
1.62896 -3.42266 14.8409 238 238 248 
1.41077 -3.46284 15.0413 236 236 248 
0.0879779 -3.44498 15.1443 240 239 245 
0.342064 -3.38352 14.8531 245 244 249 
-1.33931 -3.76327 16.6771 245 245 245 
2.13722 -2.47889 14.6032 115 125 135 
2.03528 -2.25611 14.7308 15 17 12 
-1.23181 -2.21811 14.9452 9 11 8 
-1.61818 -2.19606 14.851 12 14 11 
2.29961 -2.1131 14.8241 91 100 107 
-1.8786 -2.04906 15.0152 99 99 99 
-0.578025 -1.28132 15.1557 14 19 22 
3.83809 -0.973502 14.0184 120 134 137 
1.02549 -0.929167 15.0261 99 112 120 
1.12833 -0.745595 14.9966 41 48 41 
-3.32271 1.99504 8.55722 190 172 152 
-3.38859 1.86305 7.9327 65 63 48 
-3.16203 2.06228 8.42196 148 125 107 
3.26868 1.65337 6.68021 133 108 88 
-3.30378 1.97808 7.91399 35 36 28 
-3.20152 2.12347 8.23398 168 147 128 
-3.49282 2.01793 7.74052 190 168 147 
3.47105 1.73573 6.44482 68 61 53 
-2.43817 2.83107 10.4767 78 82 81 
-3.52259 2.1661 7.9062 39 39 31 
3.03684 1.89595 6.82319 65 55 46 
2.83586 2.44549 8.64822 186 185 181 
3.37711 1.8474 6.4592 206 189 171 
2.71574 2.54095 8.87127 57 53 44 
3.34444 1.9297 6.61875 229 210 195 
3.47992 1.88383 6.41222 80 67 50 
2.85565 2.55915 8.57365 199 198 196 
3.38017 1.98093 6.52556 58 51 35 
3.03944 2.41193 7.84546 87 83 72 
3.28435 2.16613 6.63714 52 49 32 
3.37511 2.16013 6.55928 201 177 143 
-2.06903 -3.71531 14.0293 43 44 46 
0.633015 -3.53028 14.8056 56 60 46 
1.51418 -3.48268 14.9355 232 234 247 
2.08602 -2.21758 14.7387 16 18 15 
-3.2583 1.97272 8.43227 181 163 141 
-0.20927 -3.59274 15.074 50 56 42 
0.207907 -3.81363 15.0329 255 255 255 
0.214453 -3.50746 14.9913 244 243 248 
-0.679851 0.518836 15.1493 21 25 24 
