ply                 
format ascii 1.0    
element vertex 1266
property float x    
property float y    
property float z    
property uchar red  
property uchar green
property uchar blue 
end_header          
-0.414511 0.168133 1.01614 116 109 125 
-0.411925 0.214568 1.01038 67 56 73 
-0.416319 -0.0233479 1.03679 70 63 81 
-0.415604 -0.049566 1.03856 68 51 67 
-0.406596 0.126488 1.01864 86 76 100 
-0.391971 0.0762656 1.01711 105 97 120 
-0.389515 0.108176 1.0123 15 17 38 
-0.390504 0.0795397 1.01661 19 24 43 
-0.381183 0.0843138 1.0121 162 179 248 
-0.384451 -0.0511786 1.02825 61 49 73 
-0.376544 0.0934817 1.00883 17 24 43 
-0.376544 0.0934817 1.00883 17 24 43 
-0.376109 0.0725033 1.01183 108 95 113 
-0.380242 -0.0516855 1.02613 56 44 64 
-0.369755 0.19499 0.998882 56 46 55 
-0.371594 0.106641 1.00621 18 22 34 
-0.370788 0.110942 1.00529 100 95 115 
-0.369908 0.0730516 1.01033 101 90 107 
-0.376421 -0.108861 1.0284 115 102 130 
-0.37234 -0.0224913 1.02018 74 56 80 
-0.36783 -0.105197 1.02656 127 109 133 
-0.347758 0.230074 0.971713 35 36 40 
-0.347758 0.230074 0.971713 35 36 40 
-0.366488 -0.107858 1.02559 42 33 52 
-0.353979 -0.0105437 1.01307 64 47 65 
-0.352211 -0.025033 1.01415 45 33 47 
-0.352211 -0.025033 1.01415 45 33 47 
-0.346186 0.0736002 1.00104 55 52 71 
-0.350438 -0.055818 1.01526 126 108 132 
-0.34325 -0.0198987 1.00899 116 98 122 
-0.330578 0.0114039 1.0013 67 50 68 
-0.322198 0.0348354 0.995553 110 89 108 
-0.322198 0.0348354 0.995553 110 89 108 
-0.215549 0.192567 0.666503 67 36 42 
-0.278041 0.0997882 0.892206 52 31 36 
-0.308776 -0.109521 1.00625 55 37 51 
-0.270371 0.10372 0.888698 33 32 37 
-0.303803 -0.0848297 1.00183 133 111 124 
-0.29878 0.0383594 0.987055 45 29 40 
-0.300277 -0.0562311 0.997557 51 34 50 
-0.300981 -0.0858066 1.00104 69 48 63 
-0.294408 0.0406558 0.98622 115 85 97 
-0.297705 -0.163691 1.00708 71 50 59 
-0.292002 -0.0548315 0.993743 130 109 126 
-0.250463 0.102106 0.882024 52 32 41 
-0.267053 -0.140882 0.994176 53 34 53 
-0.263365 -0.0571046 0.983487 77 59 73 
-0.175558 0.186282 0.658419 103 71 94 
-0.169662 0.19193 0.650229 53 33 44 
-0.255216 -0.111545 0.987008 80 61 81 
-0.243159 -0.106839 0.982025 78 60 76 
-0.239739 -0.107541 0.980356 129 106 124 
-0.239186 -0.176368 0.987519 60 43 53 
-0.230921 -0.139177 0.980308 78 52 65 
-0.227977 -0.112154 0.976252 68 54 67 
-0.189668 0.100448 0.860387 71 39 54 
-0.215338 -0.182113 0.978906 97 66 84 
-0.174419 0.0189603 0.902671 120 73 83 
-0.161402 0.115287 0.848402 79 42 59 
-0.0781713 0.0913114 0.820058 52 55 100 
-0.0639658 -0.104487 0.864404 51 21 23 
-0.0367526 0.093522 0.805724 67 41 54 
0.166664 -0.123279 0.834316 126 122 147 
0.19236 -0.163704 0.826845 65 53 65 
-0.483157 0.237632 1.02076 23 30 48 
-0.483053 0.189687 1.0362 143 161 199 
-0.478801 0.223232 1.02906 78 73 103 
-0.4718 0.239273 1.01595 37 37 47 
-0.481313 0.201143 1.03805 79 85 117 
-0.390187 0.227758 0.847403 107 119 109 
-0.477732 0.171349 1.03971 144 163 205 
-0.478022 0.148473 1.04273 137 162 202 
-0.477415 0.0493422 1.0463 158 172 221 
-0.474786 0.126386 1.04618 102 87 110 
-0.469074 0.219545 1.03382 78 69 86 
-0.473571 0.112067 1.04559 101 84 103 
-0.471928 0.0902215 1.04803 97 84 102 
-0.45355 0.23123 1.01124 65 58 76 
-0.462021 0.193377 1.03398 42 35 53 
-0.474343 -0.0489422 1.06217 88 96 135 
-0.470355 -0.0395182 1.06026 99 85 118 
-0.472948 -0.156044 1.07055 107 116 155 
-0.473882 -0.240102 1.07866 170 188 234 
-0.444717 0.22384 1.01434 112 103 120 
-0.456683 0.0512459 1.04533 68 62 88 
-0.470804 -0.269089 1.08218 61 68 112 
-0.468671 -0.292524 1.08335 104 88 115 
-0.466546 -0.248359 1.0791 118 96 119 
-0.464485 -0.213803 1.07448 101 82 114 
-0.459373 -0.192199 1.0699 71 53 75 
-0.440678 0.167368 1.02675 114 104 129 
-0.438753 0.214869 1.0237 72 63 82 
-0.441686 0.126183 1.03315 126 114 138 
-0.440319 0.0879895 1.03496 89 71 93 
-0.455273 -0.268237 1.07581 127 109 131 
-0.445749 -0.196366 1.06646 92 65 82 
-0.432087 0.0755186 1.0354 75 58 76 
-0.429097 0.124284 1.02901 130 120 145 
-0.434733 -0.0779171 1.04907 84 60 76 
-0.439597 -0.172344 1.06183 81 62 81 
-0.445208 -0.300898 1.07745 82 59 87 
-0.431925 -0.0258423 1.04534 112 99 125 
-0.435074 -0.199417 1.06362 138 116 128 
-0.429053 -0.10671 1.0499 126 113 133 
-0.435992 -0.271571 1.0694 123 109 134 
-0.431987 -0.240088 1.06503 70 53 71 
-0.416381 0.073232 1.03035 61 52 69 
-0.426834 -0.190239 1.05983 83 61 73 
-0.430082 -0.294225 1.06982 59 48 65 
-0.414185 -0.102904 1.04409 134 116 138 
-0.401038 0.172296 1.01383 110 101 122 
-0.41878 -0.242574 1.06052 139 115 129 
-0.41387 -0.172387 1.05195 96 65 81 
-0.416167 -0.294704 1.06304 69 55 68 
-0.351783 0.233531 0.904502 20 24 23 
-0.394572 0.122666 1.0155 120 107 127 
-0.404504 -0.108168 1.0412 42 37 57 
-0.397311 -0.0233396 1.03212 118 104 130 
-0.386125 0.216078 1.00396 57 55 69 
-0.394812 0.0138821 1.028 70 55 78 
-0.401755 -0.171051 1.04767 63 49 62 
-0.401587 -0.198022 1.04949 80 59 74 
-0.387952 0.0940269 1.01565 21 28 47 
-0.400082 -0.210608 1.05113 77 54 72 
-0.3906 0.0486562 1.02697 76 62 87 
-0.398188 -0.161524 1.04736 52 38 53 
-0.388519 -0.0217024 1.02586 65 50 71 
-0.392919 -0.14374 1.04046 133 125 140 
-0.382255 0.103033 1.01244 154 171 240 
-0.386927 -0.00929751 1.02587 63 50 68 
-0.378027 0.16685 1.00455 116 104 126 
-0.393143 -0.187485 1.04649 133 114 134 
-0.393547 -0.243518 1.05052 119 102 118 
-0.378685 0.0127322 1.02095 60 53 69 
-0.373699 0.124316 1.00836 45 37 52 
-0.381914 -0.135912 1.03613 126 108 132 
-0.359225 0.239196 0.97564 35 26 31 
-0.383701 -0.19767 1.04404 53 37 47 
-0.382737 -0.187024 1.0417 137 123 136 
-0.373271 -0.00894546 1.02297 72 53 73 
-0.36295 0.121896 1.00394 54 46 57 
-0.377114 -0.215734 1.04391 70 47 57 
-0.364796 -0.0497338 1.01983 125 106 126 
-0.366686 -0.138265 1.0284 76 58 82 
-0.373297 -0.268316 1.04736 137 118 138 
-0.360339 0.0124617 1.01492 61 47 64 
-0.366093 -0.165147 1.0346 69 47 59 
-0.354275 0.0238673 1.01053 115 102 120 
-0.350671 0.143489 1.00114 40 36 51 
-0.350734 0.0406172 1.00892 77 62 83 
-0.346739 0.122667 0.999677 46 40 54 
-0.350737 -0.105118 1.01989 121 108 128 
-0.353161 -0.212764 1.03374 79 55 68 
-0.340944 0.0888235 1.00146 46 35 51 
-0.346574 -0.080617 1.01865 129 107 130 
-0.34724 -0.139329 1.02607 82 61 80 
-0.228079 0.193518 0.672397 64 34 44 
-0.335371 0.141376 0.993776 51 37 52 
-0.335469 0.0468818 1.00318 51 44 52 
-0.33993 -0.111062 1.01973 61 48 65 
-0.343457 -0.231256 1.03247 56 42 59 
-0.344944 -0.276046 1.04021 61 40 47 
-0.334605 -0.0552165 1.01058 62 46 72 
-0.340925 -0.2446 1.03227 76 55 64 
-0.33131 -0.019379 1.00636 122 101 120 
-0.331892 -0.0847761 1.01648 54 38 49 
-0.335739 -0.270786 1.03377 133 108 127 
-0.323247 -0.0557476 1.00917 58 43 64 
-0.322325 -0.0252355 1.00714 65 51 68 
-0.327212 -0.176429 1.02319 52 39 57 
-0.286826 0.118083 0.89628 48 39 42 
-0.324261 -0.109392 1.01448 69 54 75 
-0.317273 -0.0121444 1.00199 67 50 60 
-0.215067 0.164816 0.678934 85 46 64 
-0.21462 0.174897 0.678479 73 42 60 
-0.321499 -0.208703 1.02192 98 85 95 
-0.323775 -0.246556 1.02986 68 40 54 
-0.32019 -0.183549 1.01858 66 47 66 
-0.309677 0.085534 0.986444 91 71 83 
-0.318359 -0.17233 1.01792 124 104 116 
-0.320623 -0.274298 1.02846 52 41 49 
-0.310946 0.0239724 0.99793 35 24 32 
-0.311187 -0.00215393 0.998831 63 44 63 
-0.310919 -0.0265632 1.00245 48 38 49 
-0.276745 0.117932 0.891961 66 35 50 
-0.309787 -0.0524405 1.00299 118 99 119 
-0.206311 0.187319 0.670758 100 73 88 
-0.280499 0.0873586 0.918196 153 99 115 
-0.204476 0.163709 0.675722 65 39 52 
-0.273706 0.0922854 0.908846 74 53 52 
-0.306865 -0.274022 1.02481 67 44 50 
-0.303338 -0.236041 1.01723 67 48 70 
-0.26808 -0.0165382 0.912601 96 43 53 
-0.289335 -0.174967 1.00697 74 53 70 
-0.193234 0.138778 0.671782 65 39 52 
-0.189166 0.192583 0.65831 71 39 50 
-0.290883 -0.274583 1.01778 58 38 49 
-0.285307 -0.112781 1.00095 58 41 59 
-0.186712 0.212734 0.653008 127 134 152 
-0.289627 -0.292834 1.01864 134 117 135 
-0.258094 0.0645678 0.92268 108 74 88 
-0.276284 -0.0855875 0.993746 73 50 60 
-0.257683 0.0193613 0.929634 47 21 20 
-0.275461 -0.113033 0.995464 51 39 53 
-0.276071 -0.173796 1.00136 125 107 129 
-0.24696 0.0913669 0.895792 70 49 48 
-0.241748 0.114805 0.878498 62 35 44 
-0.183083 0.174176 0.666543 90 47 64 
-0.245864 0.0811051 0.906247 145 93 106 
-0.237611 0.102143 0.878508 125 81 98 
-0.247908 0.0688367 0.917173 142 95 113 
-0.180437 0.154152 0.667264 69 38 53 
-0.269105 -0.272804 1.00977 76 50 63 
-0.266351 -0.209887 1.0009 132 117 136 
-0.265668 -0.247252 1.00539 78 66 86 
-0.228392 0.116802 0.873619 74 51 57 
-0.174159 0.138662 0.666761 77 37 48 
-0.234666 0.091722 0.902695 61 42 48 
-0.258728 -0.177919 0.99653 58 42 55 
-0.253737 -0.0559407 0.982603 58 44 61 
-0.171353 0.173773 0.661931 80 39 55 
-0.258842 -0.274128 1.00528 81 53 65 
-0.251933 -0.0863416 0.985679 58 40 56 
-0.22327 0.0946853 0.874912 128 83 103 
-0.211141 0.136577 0.838927 92 62 74 
-0.217546 0.122133 0.869315 75 43 56 
-0.244394 -0.161992 0.990342 124 106 120 
-0.213957 0.103329 0.872302 53 38 43 
-0.228185 0.0401116 0.932526 57 25 36 
-0.160461 0.138348 0.661562 66 32 46 
-0.15572 0.192341 0.645352 67 45 57 
-0.238485 -0.251343 0.994713 90 55 75 
-0.203635 0.135173 0.851451 84 52 57 
-0.237625 -0.275556 0.997774 107 86 101 
-0.232443 -0.0844888 0.978891 61 39 51 
-0.20318 0.101076 0.865379 53 26 31 
-0.152841 0.160138 0.655163 71 43 58 
-0.212053 0.0618425 0.925216 62 29 40 
-0.227357 -0.277199 0.995163 46 30 40 
-0.224824 -0.189131 0.985005 73 55 81 
-0.224367 -0.179114 0.984521 63 50 78 
-0.224983 -0.209482 0.987843 127 118 139 
-0.211489 0.0281614 0.930075 49 24 30 
-0.147191 0.112021 0.650199 101 54 64 
-0.222299 -0.247442 0.989756 89 65 81 
-0.207593 0.0496213 0.927792 49 21 20 
-0.205187 0.0388454 0.919612 83 33 44 
-0.217173 -0.259078 0.987558 68 51 69 
-0.212196 -0.112068 0.973501 54 40 55 
-0.196724 -0.147481 0.902876 54 22 23 
-0.139704 0.19171 0.63953 73 43 53 
-0.199118 0.0275438 0.922177 51 28 34 
-0.211324 -0.249197 0.985251 76 56 68 
-0.139758 0.163176 0.651151 98 51 71 
-0.180262 0.133904 0.842978 74 53 60 
-0.139777 0.151079 0.652401 83 38 58 
-0.193006 -0.137176 0.91 99 56 63 
-0.205515 -0.215937 0.980214 74 51 61 
-0.176471 0.121108 0.855604 102 51 70 
-0.130026 0.191407 0.636138 82 46 58 
-0.18441 -0.082364 0.909692 97 71 82 
-0.186905 -0.00953152 0.924946 50 23 32 
-0.183828 -0.123868 0.912748 51 26 30 
-0.190853 -0.178278 0.971278 67 42 63 
-0.191038 -0.278426 0.981069 78 54 76 
-0.176212 0.05005 0.913777 64 29 36 
-0.174922 0.00594421 0.913298 93 44 50 
-0.176176 -0.0250063 0.920251 56 30 39 
-0.173882 -0.040851 0.912093 55 21 22 
-0.122933 0.16174 0.645387 79 48 64 
-0.172843 0.0330203 0.915691 58 22 22 
-0.171549 -0.0134987 0.91882 82 40 42 
-0.157926 0.089777 0.863573 99 57 69 
-0.177078 -0.277998 0.974772 76 54 75 
-0.166584 -0.0937947 0.918551 57 29 41 
-0.165374 -0.0761681 0.917857 67 26 40 
-0.15254 0.112111 0.847852 80 38 50 
-0.162029 0.0461746 0.911364 51 24 33 
-0.146994 0.137002 0.829849 86 58 73 
-0.160988 0.0300094 0.909772 43 23 25 
-0.160632 -0.0103656 0.912403 56 27 32 
-0.165684 -0.278335 0.971879 134 122 142 
-0.142734 0.099326 0.843456 70 40 52 
-0.150907 -0.103 0.918631 45 22 30 
-0.142686 -0.160085 0.877514 76 30 40 
-0.141063 0.0746255 0.872727 153 100 118 
-0.145098 -0.0778497 0.90354 59 28 26 
-0.137951 -0.225122 0.862542 139 93 104 
-0.138556 -0.176675 0.8806 114 66 80 
-0.140392 -0.255801 0.894024 143 90 106 
-0.135849 -0.213717 0.872006 42 22 24 
-0.129515 0.0989628 0.839701 73 39 55 
-0.134679 -0.137739 0.876507 128 78 90 
-0.0977176 0.152161 0.636974 81 44 62 
-0.0972064 0.169051 0.635387 87 43 56 
-0.133105 0.0201826 0.879807 62 30 41 
-0.124369 0.12662 0.822885 142 109 130 
-0.133311 -0.0317418 0.884257 51 20 26 
-0.131542 0.0456862 0.876558 63 22 30 
-0.131432 -0.185767 0.879316 121 67 83 
-0.0921686 0.209462 0.620133 63 49 66 
-0.128601 -0.159666 0.871131 136 84 97 
-0.12765 -0.231135 0.871261 53 18 25 
-0.124441 -0.237992 0.861363 119 70 76 
-0.12558 0.0314719 0.87595 65 37 51 
-0.120979 -0.144626 0.868381 133 86 104 
-0.121456 -0.0374016 0.877507 105 80 101 
-0.115117 0.118892 0.832434 88 50 65 
-0.120744 0.0438374 0.873706 98 47 56 
-0.118357 -0.130101 0.864224 143 90 106 
-0.115781 0.0604941 0.869116 56 29 36 
-0.115811 0.00842596 0.873681 53 27 36 
-0.114598 -0.214254 0.864823 43 22 21 
-0.115366 -0.00713267 0.875237 54 21 28 
-0.114933 -0.0201793 0.878264 64 37 46 
-0.114091 -0.185767 0.874248 108 75 96 
-0.112962 -0.233379 0.868981 61 28 37 
-0.110177 0.0759826 0.855528 93 41 53 
-0.111205 -0.154901 0.863878 57 25 30 
-0.111237 -0.133525 0.872006 63 27 31 
-0.108761 -0.123387 0.868553 128 80 92 
-0.108738 0.0448795 0.868854 57 21 33 
-0.107283 0.019481 0.869559 57 27 35 
-0.107077 -0.0313444 0.873632 55 29 40 
-0.106752 -0.0585293 0.874011 50 21 23 
-0.102747 -0.0679431 0.861893 53 23 25 
-0.100103 -0.232232 0.867432 137 85 98 
-0.0990384 0.0472423 0.86536 40 21 27 
-0.094115 0.113304 0.826101 83 44 63 
-0.0993645 -0.136034 0.880087 63 31 42 
-0.0977267 -0.156031 0.866167 51 25 28 
-0.0986096 -0.102382 0.876543 63 36 45 
-0.0699214 0.158132 0.625056 78 45 62 
-0.0946752 -0.214584 0.856618 43 22 21 
-0.09645 -0.0830638 0.874683 53 20 27 
-0.0877869 0.131107 0.808976 66 49 55 
-0.0915907 -0.0259109 0.86653 85 43 45 
-0.090194 -0.233777 0.862741 81 30 45 
-0.0905613 -0.0947453 0.872751 66 30 40 
-0.0624403 0.18965 0.611711 76 44 49 
-0.0875749 -0.016354 0.865027 137 114 98 
-0.0869595 -0.0369351 0.86689 141 115 100 
-0.0834525 0.0409875 0.841987 27 18 19 
-0.084289 -0.131311 0.873747 61 30 38 
-0.0598929 0.151672 0.623052 91 45 58 
-0.082938 -0.059721 0.869951 40 16 16 
-0.0772438 0.0297955 0.824836 20 15 12 
-0.0800661 -0.231869 0.855731 139 86 102 
-0.0786442 -0.0251645 0.84896 155 132 116 
-0.057073 0.171464 0.619883 80 46 63 
-0.0785286 -0.187442 0.861217 132 79 95 
-0.0792427 -0.0996407 0.869936 114 62 74 
-0.0752624 -0.21478 0.847562 44 22 25 
-0.0713525 0.0998119 0.818333 79 42 59 
-0.0531157 0.185059 0.608888 159 115 140 
-0.0536203 0.122519 0.615616 102 61 67 
-0.0716799 0.0203165 0.828844 107 101 105 
-0.0720481 -0.0134629 0.846034 195 185 160 
-0.0681049 0.130515 0.802602 65 49 59 
-0.0718033 -0.0631899 0.862458 162 150 128 
-0.0708135 -0.0355076 0.853749 198 191 172 
-0.072007 -0.119568 0.868463 64 37 46 
-0.0663512 0.0352939 0.824016 143 134 129 
-0.0679249 -0.235283 0.855148 76 35 43 
-0.066565 0.0511808 0.839386 60 28 29 
-0.0655855 -0.128854 0.867061 64 29 27 
-0.0616042 0.0273418 0.828241 224 221 206 
-0.061805 -0.0103521 0.844187 96 77 70 
-0.0623493 0.00516497 0.856366 119 99 74 
-0.0626407 -0.0335716 0.862323 137 113 87 
-0.0586303 0.111088 0.811829 93 61 76 
-0.0910129 0.155258 1.28221 77 49 64 
-0.0561912 0.0423995 0.825991 56 38 36 
-0.0578824 -0.119424 0.863671 67 30 38 
-0.0315352 0.053764 0.464366 70 36 50 
-0.0537642 0.0974064 0.812838 142 94 116 
-0.0407676 0.181602 0.613435 176 128 152 
-0.0563413 -0.0562886 0.86071 41 20 17 
-0.0540206 -0.018017 0.85476 199 188 160 
-0.0533403 0.00268904 0.860903 111 96 77 
-0.0525095 -0.234294 0.84755 80 37 54 
-0.0509824 0.0324684 0.836358 105 87 85 
-0.0495638 -0.191009 0.849457 71 39 52 
-0.0477354 0.0474311 0.83095 26 15 19 
-0.035431 0.122706 0.621221 127 79 95 
-0.0482857 -0.128308 0.86065 61 31 39 
-0.0351906 0.167766 0.621317 116 82 107 
-0.0443027 0.129811 0.793173 52 41 45 
-0.0471846 -0.104049 0.858979 54 23 29 
-0.0304914 0.146836 0.627473 86 49 66 
-0.0394613 0.0350935 0.829182 177 162 155 
-0.0377082 -0.234822 0.841383 63 27 41 
-0.0379551 -0.0893717 0.855392 48 20 19 
-0.0281101 0.158465 0.626866 81 50 65 
-0.0367766 -0.161329 0.835206 38 24 23 
-0.0338996 0.117643 0.803955 81 48 59 
-0.0346045 -0.188434 0.844418 128 75 91 
-0.0304054 0.046842 0.838215 56 24 27 
-0.030668 -0.103595 0.851215 48 28 30 
-0.0299552 -0.152792 0.83352 102 68 82 
-0.0283401 0.075356 0.821584 163 110 128 
-0.0214921 0.190506 0.617431 98 54 67 
-0.0262153 0.129212 0.785702 64 49 54 
-0.0243495 0.016426 0.839247 63 23 32 
-0.0242928 -0.0343163 0.843624 59 22 30 
-0.0172338 0.157948 0.631986 100 49 66 
-0.0213456 0.096403 0.799437 50 34 45 
-0.0126927 0.0547186 0.453321 50 34 45 
-0.0211819 -0.144098 0.834831 73 30 37 
-0.0146418 0.173844 0.631663 82 53 71 
-0.0146225 0.137181 0.635447 92 53 72 
-0.0182329 -0.0409214 0.837763 56 24 27 
-0.0175691 -0.0790003 0.845631 122 69 77 
-0.0164976 0.028399 0.83439 68 38 48 
-0.0163785 -0.0222256 0.838751 67 39 51 
-0.0159832 0.0421622 0.834003 58 23 30 
-0.0160087 -0.00955281 0.838079 53 21 32 
-0.0153022 0.0569522 0.831927 62 32 42 
-0.0148021 -0.160962 0.826105 135 85 97 
-0.0105563 0.0983321 0.796098 64 36 50 
-0.00839511 0.15916 0.636485 113 62 81 
-0.0104754 -0.144628 0.831832 74 32 34 
-0.00973387 -0.188545 0.8335 133 82 99 
-0.00918469 -0.132004 0.822116 151 97 113 
-0.00613303 0.19128 0.624954 88 55 66 
-0.00636451 -0.0410218 0.834435 57 22 28 
-0.00615881 0.0176617 0.831924 75 45 57 
-0.00616124 -0.00976603 0.834597 59 28 36 
-0.00609435 0.0417627 0.830165 51 20 26 
-0.00604097 0.0281936 0.832586 68 30 41 
-0.00600266 -0.0228081 0.836416 66 33 44 
-0.00579148 -0.261277 0.851865 150 95 116 
-0.00230069 -0.160894 0.822004 136 88 104 
0.00185501 0.107894 0.790269 77 43 57 
0.00163147 0.162642 0.640471 78 40 61 
0.0026743 -0.067684 0.821598 109 71 86 
0.00504581 -0.182654 0.838905 51 22 24 
0.00551628 0.0701805 0.813614 160 103 118 
0.00637012 0.095112 0.790475 138 91 107 
0.00731392 -0.258366 0.839683 148 101 111 
0.00822067 -0.223405 0.814977 111 64 70 
0.00793876 0.18601 0.637455 125 87 108 
0.0116317 0.108152 0.786187 134 88 101 
0.0121172 0.0883402 0.800997 153 109 126 
0.0100215 0.155 0.645869 83 50 67 
0.018219 -0.216331 0.802938 100 55 62 
0.0153224 0.192469 0.63467 94 53 67 
0.0210628 0.0860531 0.817353 69 48 57 
0.022517 -0.221452 0.820562 103 58 65 
0.0232745 0.000783732 0.844461 62 27 34 
0.0216402 0.0932068 0.785165 56 43 50 
0.0236768 -0.0308764 0.846063 63 38 44 
0.0237388 0.0245217 0.841908 57 24 31 
0.024137 -0.119796 0.853735 59 28 34 
0.0255191 -0.164929 0.837353 39 18 23 
0.0244475 0.115268 0.78068 70 40 48 
0.0265489 0.0499619 0.833874 63 33 43 
0.0280025 -0.0834221 0.85017 82 43 44 
0.0304243 0.0961695 0.780648 61 44 52 
0.0359009 -0.109726 0.848279 57 30 37 
0.0359241 -0.0755485 0.845276 54 25 30 
0.0288839 0.192998 0.640826 91 53 64 
0.0450775 -0.280168 0.894192 90 69 88 
0.0425048 -0.0164698 0.838573 57 30 39 
0.0437485 0.00340055 0.832333 97 52 59 
0.0439211 0.0239902 0.831606 44 18 19 
0.0474467 -0.265889 0.890411 135 114 133 
0.0443545 0.0400818 0.830188 61 30 36 
0.0419611 0.0972847 0.776134 58 39 45 
0.0461302 -0.0699806 0.841418 65 30 36 
0.0458855 0.0125777 0.820031 145 99 110 
0.048202 -0.0317936 0.837291 62 32 42 
0.0520234 -0.0473718 0.834397 44 23 30 
0.0525295 -0.0197412 0.834895 82 36 38 
0.0532182 -0.129201 0.825745 61 29 30 
0.0536077 0.00223236 0.829819 148 94 110 
0.0527478 0.0945737 0.7751 78 52 61 
0.0588282 -0.0321092 0.834135 57 28 33 
0.0592217 0.0429398 0.827925 59 26 33 
0.0600992 -0.087373 0.820177 48 24 24 
0.0594218 -0.157106 0.805099 136 86 98 
0.0656752 -0.214633 0.873006 43 21 33 
0.0630216 0.0239787 0.82535 50 21 25 
0.0635952 -0.144934 0.815149 94 51 60 
0.0662278 0.0101956 0.824997 82 45 52 
0.0618707 0.106413 0.767744 85 41 54 
0.0695176 -0.0170429 0.8268 56 33 43 
0.0660499 0.0906779 0.768661 69 35 51 
0.0767237 -0.266168 0.879177 91 63 78 
0.0765587 -0.201887 0.873552 135 117 139 
0.0769925 0.0233425 0.822583 58 26 31 
0.0690905 0.21203 0.738157 48 43 50 
0.0831038 -0.223895 0.873079 91 68 84 
0.0725688 0.198392 0.743454 145 102 122 
0.0862989 -0.204829 0.870788 98 65 82 
0.0742843 0.127573 0.748774 120 68 80 
0.076114 0.106398 0.761857 59 37 40 
0.0820147 -0.0740385 0.812403 57 31 40 
0.0773459 0.0848486 0.762491 153 118 138 
0.0833285 0.053177 0.817088 61 31 41 
0.0773424 0.162433 0.753522 50 27 33 
0.0902575 -0.264291 0.87488 82 60 81 
0.0862788 0.0403772 0.818112 62 32 34 
0.0787648 0.215377 0.739135 46 39 46 
0.0800889 0.13604 0.75001 94 58 60 
0.0936638 -0.223809 0.869065 133 116 135 
0.0836277 0.178121 0.749979 116 64 77 
0.0970875 -0.20931 0.865212 149 125 141 
0.0979965 -0.274459 0.87161 106 73 90 
0.0982536 -0.253813 0.870852 95 67 90 
0.0880948 0.108212 0.758422 74 38 50 
0.0876998 0.166895 0.749732 120 67 83 
0.0955987 0.0527665 0.813286 57 26 34 
0.103511 -0.242781 0.867294 91 59 80 
0.107609 -0.252302 0.867582 73 55 77 
0.0924494 0.131416 0.74539 59 31 30 
0.0963837 0.0817076 0.771191 79 52 61 
0.108512 -0.227786 0.864677 74 60 75 
0.108818 -0.157071 0.859345 96 72 88 
0.112224 -0.20863 0.861502 98 67 82 
0.112256 -0.143376 0.853988 110 74 88 
0.099823 0.0927645 0.753945 46 31 36 
0.0988031 0.163194 0.746083 78 36 50 
0.114028 -0.188558 0.858338 129 117 137 
0.116501 -0.255997 0.86445 92 72 100 
0.114879 -0.123625 0.850913 85 59 72 
0.114568 -0.093616 0.848358 99 68 83 
0.100332 0.184425 0.743284 62 42 44 
0.100987 0.147915 0.746255 56 33 39 
0.116996 -0.244055 0.862105 99 69 93 
0.101704 0.17296 0.743946 85 38 54 
0.117929 -0.224072 0.860938 96 64 79 
0.117645 -0.158613 0.854493 96 64 75 
0.111213 0.0307716 0.80755 51 24 31 
0.106218 0.0828793 0.76911 84 55 59 
0.117 -0.0641725 0.844733 70 49 68 
0.119707 -0.234416 0.859822 94 66 88 
0.109667 0.0720723 0.776528 158 104 120 
0.114913 0.0630993 0.786436 95 45 54 
0.125995 -0.209673 0.856098 95 74 83 
0.110569 0.0950301 0.750915 62 32 42 
0.125639 -0.184386 0.8528 59 44 65 
0.125403 -0.123073 0.849848 85 58 75 
0.125576 -0.146881 0.850242 101 76 97 
0.110427 0.117051 0.747224 143 88 109 
0.110006 0.163162 0.741735 75 29 40 
0.129704 -0.256288 0.860111 75 54 73 
0.130853 -0.234025 0.855857 91 62 80 
0.113179 0.195372 0.734391 129 85 108 
0.121614 0.0445806 0.787662 76 52 68 
0.134431 -0.223095 0.854621 81 61 86 
0.132642 -0.0850123 0.840917 146 125 144 
0.117044 0.17269 0.738746 68 34 48 
0.13529 -0.155648 0.847704 85 57 71 
0.136335 -0.205884 0.851138 144 123 142 
0.12476 -0.0113041 0.775902 109 58 65 
0.12739 -0.00856659 0.791393 41 20 17 
0.124176 -0.0260222 0.769042 135 82 98 
0.139395 -0.174735 0.848236 130 108 129 
0.140624 -0.244269 0.853943 100 73 92 
0.123288 0.104713 0.744925 80 42 55 
0.130577 0.00832866 0.784991 51 21 21 
0.121583 0.21528 0.723003 56 43 50 
0.140979 -0.0665155 0.835826 102 60 74 
0.142148 -0.12089 0.842783 133 117 128 
0.132431 0.0559117 0.778237 69 35 36 
0.146003 -0.255015 0.854129 77 58 78 
0.127861 0.089117 0.74604 58 30 42 
0.144065 -0.110131 0.840081 88 70 92 
0.147291 -0.204904 0.848293 138 117 136 
0.148205 -0.226776 0.851238 63 41 64 
0.128382 0.19512 0.72929 122 77 98 
0.150598 -0.149435 0.84039 94 63 79 
0.151331 -0.163616 0.84196 101 60 76 
0.133138 0.139195 0.735192 38 24 21 
0.134795 0.1044 0.741043 64 37 44 
0.133181 0.176307 0.731157 52 32 41 
0.153059 -0.12206 0.83713 130 122 143 
0.154558 -0.180391 0.842609 83 61 73 
0.153754 -0.0669278 0.831715 75 49 60 
0.137804 0.0894156 0.741127 128 85 95 
0.160865 -0.208669 0.842256 75 50 69 
0.162385 -0.145946 0.835915 90 66 88 
0.161693 0.0643412 0.815232 77 48 66 
0.166768 -0.191307 0.839446 91 67 83 
0.165116 -0.0660413 0.829777 139 120 142 
0.166351 -0.0939764 0.829873 68 47 52 
0.16525 0.0479953 0.8164 71 51 63 
0.171566 -0.268871 0.845705 95 67 90 
0.173296 -0.210579 0.838086 84 60 74 
0.175489 -0.226185 0.840304 80 58 70 
0.171054 0.0278765 0.81749 76 50 59 
0.179963 -0.248236 0.83891 101 72 92 
0.177937 -0.0652881 0.822543 139 117 140 
0.176361 0.0490067 0.813821 75 48 67 
0.180132 -0.0377985 0.8222 57 44 53 
0.179301 -0.00790242 0.816551 117 98 128 
0.182838 -0.156347 0.831767 127 113 136 
0.185031 -0.225997 0.837058 88 61 76 
0.185032 -0.210768 0.834697 85 61 75 
0.186596 -0.264583 0.837858 95 64 79 
0.186034 -0.124166 0.826308 120 111 132 
0.181274 0.152975 0.80285 110 98 118 
0.183936 0.000643418 0.814406 131 116 137 
0.180985 0.193567 0.795987 104 103 119 
0.180009 0.183299 0.791728 111 95 121 
0.185873 -0.0173786 0.814381 90 63 80 
0.184204 0.101594 0.80264 72 44 56 
0.192058 -0.240327 0.835364 71 52 74 
0.189026 -0.0341691 0.81678 144 125 144 
0.190133 -0.0669069 0.819655 54 41 51 
0.19444 -0.252419 0.833778 80 59 74 
0.18648 0.173974 0.795937 102 85 104 
0.188106 0.111706 0.8016 120 97 115 
0.190225 0.0503331 0.808845 127 112 133 
0.195829 -0.227804 0.832681 74 54 66 
0.191133 0.0255081 0.809556 97 67 77 
0.189816 0.0861192 0.803629 125 116 135 
0.19723 -0.182033 0.826869 86 59 74 
0.193747 0.00135174 0.810847 134 116 140 
0.190785 0.152526 0.797547 121 116 136 
0.196959 -0.123355 0.822895 126 119 137 
0.199422 -0.211898 0.828147 75 57 71 
0.197507 -0.106901 0.819918 79 60 79 
0.192808 0.126923 0.798584 59 47 67 
0.200985 -0.244529 0.83107 103 74 96 
0.201097 -0.19362 0.82656 89 67 80 
0.195606 0.0719511 0.803594 86 63 81 
0.201658 -0.15732 0.823111 86 59 78 
0.201817 -0.167792 0.823086 107 73 87 
0.196271 0.105438 0.799978 65 50 69 
0.194514 0.195298 0.790117 59 58 76 
0.195864 0.161175 0.794666 124 119 142 
0.199499 0.0207313 0.806927 77 63 80 
0.205729 -0.25861 0.830826 141 114 129 
0.203506 -0.0388578 0.811491 69 43 54 
0.147437 0.211776 0.588192 109 125 141 
0.207425 -0.237112 0.827182 92 63 85 
0.203061 -0.00106523 0.807054 122 104 126 
0.20641 -0.0978285 0.817543 60 44 57 
0.203191 0.0466773 0.803257 78 62 75 
0.201758 0.152311 0.795001 129 126 147 
0.20965 -0.18373 0.821544 80 59 66 
0.203473 0.112939 0.795953 143 124 144 
0.209199 -0.12351 0.817214 133 124 145 
0.211753 -0.213452 0.824786 64 46 58 
0.205603 0.102484 0.797632 82 64 86 
0.206303 0.0788706 0.798043 143 121 133 
0.204285 0.190086 0.790096 108 102 136 
0.212207 -0.135265 0.817853 60 43 59 
0.215015 -0.26424 0.828705 71 54 72 
0.209432 -0.0209092 0.806159 67 47 59 
0.213693 -0.202078 0.822162 91 62 80 
0.210729 -0.0560527 0.809634 83 58 77 
0.211879 -0.0691477 0.812787 66 45 54 
0.207882 0.127196 0.792545 113 103 127 
0.210437 0.0250967 0.801519 83 63 75 
0.210273 0.0890472 0.796182 74 59 80 
0.213966 -0.0101539 0.804861 64 49 72 
0.218846 -0.236531 0.822812 138 120 136 
0.212531 0.0627071 0.797349 128 110 126 
0.210126 0.167646 0.787131 74 55 75 
0.218669 -0.123966 0.813366 131 112 132 
0.220571 -0.192524 0.820051 71 58 68 
0.217949 -0.0406167 0.807726 53 36 42 
0.212966 0.183862 0.787748 121 118 139 
0.216152 0.0466055 0.7991 123 115 136 
0.213969 0.150233 0.789404 75 60 83 
0.217507 0.0982714 0.794358 64 45 51 
0.225153 -0.248157 0.82151 83 60 86 
0.226543 -0.181474 0.816648 137 124 142 
0.224361 -0.0760545 0.805736 121 96 117 
0.222712 0.0280336 0.796847 130 124 138 
0.223138 0.0400549 0.796179 58 45 62 
0.229386 -0.220567 0.818219 81 67 84 
0.221533 0.133083 0.788035 129 125 148 
0.225193 -0.00554396 0.799834 81 63 79 
0.219938 0.193898 0.7806 64 58 68 
0.221458 0.177983 0.783631 117 98 118 
0.224099 0.0574084 0.792032 90 67 75 
0.230197 -0.163041 0.813467 78 58 70 
0.230656 -0.200413 0.814019 134 120 146 
0.229862 -0.0971981 0.808415 63 42 47 
0.224461 0.15143 0.786781 76 63 89 
0.231205 -0.131995 0.808772 135 120 139 
0.234387 -0.234414 0.817781 86 63 83 
0.22762 0.0987316 0.787238 73 48 51 
0.231608 0.0469755 0.793601 75 52 68 
0.232333 0.0272542 0.792927 141 123 139 
0.235443 -0.0391139 0.799483 60 41 45 
0.23101 0.144095 0.782358 130 117 135 
0.240481 -0.205288 0.81278 79 54 73 
0.23223 0.130344 0.7825 145 131 154 
0.241688 -0.159636 0.81032 134 120 137 
0.237895 -0.00655373 0.797386 76 59 75 
0.243004 -0.17988 0.808941 136 122 147 
0.234232 0.174294 0.777923 127 108 127 
0.235464 0.153928 0.780332 134 125 154 
0.244706 -0.214607 0.811122 140 114 125 
0.242899 -0.0984383 0.802955 67 46 61 
0.235329 0.184056 0.776151 137 114 134 
0.237562 0.0770992 0.782283 22 62 175 
0.24458 -0.0670527 0.797995 129 110 130 
0.247974 -0.194048 0.808678 69 52 68 
0.241236 0.0599683 0.786066 83 61 82 
0.249257 -0.224871 0.811774 130 109 128 
0.240078 0.0944445 0.780643 82 121 212 
0.247556 -0.127942 0.802056 127 107 119 
0.249364 -0.164064 0.805318 66 55 72 
0.248905 -0.0486247 0.796293 67 58 75 
0.247694 -0.00116162 0.790459 68 45 63 
0.244717 0.141583 0.776806 102 79 99 
0.249947 -0.0390743 0.792716 60 47 57 
0.245923 0.130374 0.778571 130 114 127 
0.245518 0.188457 0.772293 120 109 139 
0.248907 0.102407 0.780616 73 55 71 
0.258014 -0.213841 0.807391 78 52 63 
0.250087 0.0824915 0.781006 109 81 95 
0.254376 -0.0714128 0.794457 96 67 72 
0.259232 -0.188562 0.804597 126 121 144 
0.258226 -0.159985 0.79975 72 60 74 
0.262142 -0.25921 0.810592 82 63 85 
0.26096 -0.232945 0.805985 95 67 82 
0.251005 0.154404 0.772983 130 113 132 
0.256381 -0.00802477 0.788922 140 116 130 
0.258716 -0.0575968 0.791798 77 56 63 
0.260124 -0.0968001 0.794902 71 48 68 
0.25624 0.0687505 0.778357 89 63 76 
0.259391 0.0267651 0.784465 125 112 129 
0.263441 -0.128077 0.796628 95 65 77 
0.266962 -0.222316 0.804045 75 62 88 
0.255699 0.182056 0.769892 81 64 83 
0.259367 0.108275 0.775153 127 103 117 
0.259598 0.127433 0.773894 79 61 75 
0.262206 0.0431285 0.780841 139 116 132 
0.265214 -0.0423089 0.788816 60 44 55 
0.267215 -0.0710438 0.791754 65 42 58 
0.270256 -0.159664 0.797084 64 46 62 
0.266306 -0.00265305 0.783794 114 93 110 
0.261863 0.149319 0.770643 68 54 69 
0.264626 0.074648 0.777102 120 101 120 
0.25641 0.205854 0.751919 66 57 76 
0.268512 0.0327936 0.778265 103 80 100 
0.27871 -0.237146 0.799921 143 122 137 
0.26983 0.102289 0.773988 61 41 53 
0.266739 0.188443 0.764552 147 124 140 
0.267024 0.159419 0.765204 134 116 132 
0.280196 -0.260856 0.802456 52 35 51 
0.272912 0.0221785 0.777214 119 92 107 
0.279053 -0.130988 0.792252 119 110 127 
0.273777 0.0475044 0.774887 146 122 136 
0.272051 0.125936 0.768668 64 51 61 
0.280951 -0.160235 0.793891 54 42 54 
0.282657 -0.228054 0.798471 58 43 62 
0.27322 0.0820727 0.771401 90 60 70 
0.283365 -0.150018 0.791746 89 65 78 
0.280808 -0.0412546 0.781645 68 39 44 
0.279466 0.0364417 0.773748 140 117 135 
0.276205 0.149334 0.764374 83 65 87 
0.284365 -0.0967191 0.785668 76 56 68 
0.279774 0.102026 0.76929 69 49 61 
0.276848 0.177624 0.761113 111 93 117 
0.29094 -0.261141 0.799871 61 43 67 
0.277849 0.16624 0.761536 135 118 134 
0.283208 0.0263436 0.773339 130 113 131 
0.284658 -0.00623953 0.777029 83 62 69 
0.288953 -0.136946 0.787819 87 60 79 
0.281507 0.126041 0.765058 70 57 67 
0.28133 0.186797 0.759168 127 105 118 
0.295057 -0.228699 0.795448 41 29 49 
0.292749 -0.0714272 0.780605 73 50 58 
0.289021 0.074495 0.769414 125 110 129 
0.286674 0.145898 0.761283 126 104 117 
0.299171 -0.249095 0.793485 137 114 130 
0.297179 -0.158644 0.785845 139 121 143 
0.289582 0.102473 0.765509 85 61 83 
0.299304 -0.135509 0.78318 82 58 82 
0.296326 -0.00822353 0.772346 87 66 73 
0.290271 0.177474 0.756086 138 115 131 
0.30496 -0.226284 0.79165 123 111 135 
0.300629 -0.0945239 0.77923 127 104 120 
0.295346 0.0674242 0.764392 130 103 118 
0.291946 0.187268 0.754772 74 57 73 
0.300254 -0.0328972 0.773622 129 107 120 
0.296313 0.124298 0.759495 77 55 68 
0.30898 -0.264141 0.791756 116 99 118 
0.307028 -0.179284 0.783549 88 64 80 
0.304182 -0.0545731 0.77339 88 61 78 
0.305316 -0.0687884 0.774723 128 111 130 
0.308863 -0.161443 0.782975 60 44 70 
0.303099 0.0303346 0.767504 116 103 123 
0.304694 -0.0158838 0.770308 124 111 128 
0.301213 0.0798026 0.761448 87 63 77 
0.304455 0.041225 0.765984 122 100 113 
0.299669 0.176734 0.752319 140 122 138 
0.313872 -0.193772 0.784377 54 36 52 
0.315327 -0.228486 0.785479 64 47 63 
0.308701 0.0193069 0.764393 131 107 121 
0.304613 0.145432 0.753846 127 107 118 
0.319577 -0.262042 0.788576 68 58 83 
0.314142 -0.00706414 0.766759 66 49 59 
0.307634 0.187863 0.749196 141 129 153 
0.311587 0.100159 0.755644 138 112 121 
0.319896 -0.13328 0.775211 94 69 91 
0.313457 0.064873 0.758306 149 118 134 
0.314648 0.0374323 0.760262 98 74 90 
0.329442 -0.261463 0.784039 74 57 76 
0.32196 0.0179957 0.7588 134 111 129 
0.325384 -0.042523 0.764512 112 99 117 
0.320221 0.124245 0.75084 66 50 63 
0.319245 0.180678 0.745432 45 31 44 
0.321141 0.146226 0.74762 64 52 66 
0.325309 0.0427956 0.756026 149 129 141 
0.329429 -0.0764903 0.765145 138 114 128 
0.330855 -0.00696384 0.75976 77 54 72 
0.316799 0.226041 0.726592 98 81 91 
0.33859 -0.195036 0.774498 73 50 76 
0.317759 0.211016 0.726448 115 106 123 
0.330798 0.0250863 0.755981 131 108 128 
0.328947 0.180979 0.741922 56 39 55 
0.345571 -0.218383 0.772894 92 68 92 
0.340184 -0.0483101 0.758957 136 111 132 
0.33219 0.191322 0.737074 69 64 87 
0.326437 0.21777 0.724088 154 172 244 
0.335666 0.125965 0.744124 136 113 123 
0.339995 0.0169551 0.752432 134 116 132 
0.338624 0.0645063 0.748394 144 118 127 
0.337553 0.13803 0.741211 93 66 71 
0.346318 -0.0206646 0.75433 129 106 124 
0.340547 0.147987 0.738802 63 42 51 
0.333978 0.210359 0.720622 16 23 41 
0.333797 0.221674 0.717963 14 20 34 
0.342202 0.214922 0.715398 156 174 248 
0.346659 0.201416 0.717467 131 117 130 
0.405528 -0.248348 0.829375 138 151 186 
0.404683 -0.14715 0.826446 68 84 120 
0.352054 0.226258 0.711354 85 80 84 
0.399408 0.164303 0.78894 20 34 63 
0.604352 -0.058501 1.06306 129 122 155 
-0.383067 0.125769 1.00957 66 58 79 
-0.361924 0.067968 1.00688 56 43 53 
-0.342339 0.167186 0.991801 111 97 112 
-0.339334 0.0356657 1.00224 87 62 81 
-0.330452 0.0925338 0.994646 115 104 121 
-0.325467 0.120916 0.989171 43 31 41 
-0.317516 0.0926478 0.989579 107 92 111 
-0.31452 0.120374 0.985056 42 32 43 
-0.316008 -0.124777 1.00854 130 106 119 
-0.262709 -0.085458 0.986063 88 57 73 
-0.335048 0.207779 0.614668 124 132 151 
-0.38426 0.215243 0.706706 134 150 163 
-0.541258 0.236916 1.02383 80 83 100 
-0.555087 0.186723 1.0572 36 48 70 
-0.513331 0.238258 0.998473 107 117 119 
-0.553334 0.0560302 1.07223 39 51 77 
-0.543506 0.24024 1.04799 32 31 39 
-0.551363 0.207317 1.06213 17 24 43 
-0.546759 0.196143 1.05992 26 31 51 
-0.550169 0.0872809 1.07352 27 35 54 
-0.544779 0.215699 1.06335 70 75 97 
-0.545557 0.131872 1.07101 98 111 146 
-0.544453 0.109268 1.07135 99 110 142 
-0.548443 -0.241181 1.10494 40 50 75 
-0.543846 0.0526839 1.07826 99 115 151 
-0.543216 0.0267588 1.08061 100 114 153 
-0.541628 0.121726 1.07275 23 31 67 
-0.541254 0.204267 1.06948 118 130 170 
-0.541722 -0.108364 1.09234 103 115 153 
-0.541229 -0.210453 1.10227 108 120 160 
-0.539159 -0.0965204 1.09374 128 137 178 
-0.544023 0.118653 1.08906 143 157 202 
-0.536276 -0.336877 1.11278 29 40 96 
-0.500379 0.237096 1.02836 68 62 74 
-0.486201 0.217592 1.04567 148 162 199 
-0.477984 0.0690866 1.06039 102 88 111 
-0.475426 0.00946465 1.06383 121 102 121 
-0.475505 -0.34164 1.09101 176 189 241 
-0.4737 -0.0909525 1.07279 111 93 115 
-0.474935 -0.0679113 1.07585 117 96 115 
-0.475872 -0.0259558 1.07543 100 85 118 
-0.474515 -0.204871 1.08703 123 104 126 
-0.474298 -0.329528 1.09662 99 108 149 
-0.472893 -0.359566 1.09932 90 97 139 
-0.462522 0.171727 1.04373 39 34 54 
-0.469522 -0.313085 1.09254 110 95 118 
-0.464437 -0.330702 1.09161 123 99 112 
-0.465832 -0.370321 1.10417 121 93 115 
-0.457026 -0.242653 1.08193 91 72 94 
-0.437256 0.235473 1.01334 47 52 58 
-0.439539 -0.332911 1.08436 131 124 142 
-0.430048 -0.202114 1.06802 133 113 124 
-0.42508 -0.0786834 1.05395 78 60 84 
-0.423681 -0.359659 1.08102 95 66 86 
-0.419013 -0.191629 1.06382 81 59 72 
-0.222227 0.188927 0.681129 105 73 96 
-0.416285 -0.34682 1.07941 94 66 80 
-0.405203 -0.356915 1.07208 93 68 89 
-0.406352 -0.331619 1.07275 78 57 74 
-0.402998 -0.318254 1.07032 98 74 98 
-0.38949 -0.331336 1.06591 100 76 98 
-0.384041 -0.359923 1.06588 86 62 88 
-0.380153 -0.326789 1.05778 125 111 126 
-0.37567 -0.0818102 1.03892 57 38 60 
-0.376289 -0.366292 1.06463 83 64 84 
-0.36814 -0.327589 1.05736 128 110 126 
-0.361915 -0.300271 1.0537 78 64 77 
-0.359173 0.0944368 1.01562 127 115 137 
-0.361808 -0.27998 1.05615 92 80 92 
-0.156105 0.210385 0.613425 50 38 62 
-0.353034 -0.325029 1.05279 76 52 74 
-0.349702 -0.345713 1.05328 83 64 84 
-0.345882 -0.166629 1.03529 80 57 67 
-0.292125 0.104282 0.90529 41 28 37 
-0.336632 -0.346465 1.04885 73 58 77 
-0.33065 -0.382847 1.04894 89 60 82 
-0.325913 0.0228951 1.01176 64 50 65 
-0.324479 -0.30182 1.03931 78 51 68 
-0.321561 0.0466127 1.00374 104 88 99 
-0.319561 -0.345203 1.0405 84 63 82 
-0.314453 -0.357064 1.04103 132 119 139 
-0.307511 -0.324779 1.03428 87 59 74 
-0.305324 -0.213565 1.02522 85 62 82 
-0.304849 -0.345119 1.03765 82 61 78 
-0.148023 0.187262 0.654017 113 75 96 
-0.260306 -0.0223741 0.922356 148 95 113 
-0.296071 -0.243826 1.02371 130 116 131 
-0.291119 -0.331357 1.02999 137 119 131 
-0.291096 -0.34513 1.0325 84 61 81 
-0.290394 -0.370695 1.03407 76 58 74 
-0.254739 0.00180856 0.932429 43 19 19 
-0.282229 -0.165869 1.01018 76 56 68 
-0.281913 -0.1401 1.00898 129 112 130 
-0.00374627 0.099226 0.37122 85 53 74 
-0.276437 -0.370489 1.02867 79 57 78 
-0.276706 -0.326902 1.02543 79 58 77 
-0.115751 0.211797 0.620331 113 115 136 
-0.26609 -0.123379 1.00047 69 51 65 
-0.244023 0.081076 0.930671 82 39 49 
-0.262009 -0.362696 1.02221 87 60 79 
-0.260238 -0.326637 1.01829 74 56 68 
-0.25752 -0.162393 0.999982 130 108 129 
-0.25442 -0.213262 1.00398 85 59 72 
-0.250402 -0.333066 1.01471 79 65 78 
-0.245085 -0.354162 1.01446 79 61 75 
-0.238831 -0.343556 1.01304 128 111 130 
-0.223988 -0.320608 1.00392 74 60 83 
-0.219666 -0.279998 0.997968 51 35 46 
-0.0863572 0.185771 0.631029 115 76 97 
-0.165706 -0.216968 0.881068 62 32 34 
-0.205026 -0.347106 0.998042 72 57 78 
-0.164115 -0.228158 0.87918 85 41 56 
-0.204537 -0.299517 0.994218 130 112 134 
-0.196806 -0.330983 0.994148 70 55 74 
-0.194558 -0.308053 0.992917 90 66 80 
-0.166009 -0.180363 0.913316 60 29 35 
-0.312846 0.170301 1.26991 95 48 66 
-0.179117 -0.349674 0.991531 81 66 89 
-0.17812 -0.33096 0.987232 86 70 97 
-0.160022 0.0156225 0.915872 50 23 30 
-0.13728 -0.151161 0.881829 57 25 28 
-0.164802 -0.329505 0.984173 78 63 86 
-0.161978 -0.310945 0.980014 76 55 74 
-0.156129 -0.332103 0.978503 76 55 74 
-0.150091 -0.35252 0.979102 75 59 85 
-0.133126 -0.00570951 0.887838 56 25 31 
-0.122253 -0.281114 0.891606 142 91 110 
-0.0472978 0.202918 0.609174 71 55 68 
-0.115031 -0.288356 0.889197 54 31 39 
-0.140675 -0.35125 0.974952 53 35 49 
-0.136585 -0.336852 0.973548 55 41 67 
-0.113879 -0.11367 0.883111 28 13 16 
-0.115638 0.0317215 0.87864 65 32 39 
-0.105155 -0.162731 0.878074 34 18 18 
-0.108284 -0.0800526 0.882862 122 65 72 
-0.12434 -0.3327 0.968736 67 50 69 
-0.029863 0.185584 0.624472 124 89 113 
-0.0903713 -0.057865 0.867275 46 20 21 
-0.0765158 -0.258199 0.854047 40 21 23 
-0.105243 -0.333022 0.961384 71 54 72 
-0.0797399 -0.0445965 0.871813 142 127 108 
-0.090979 -0.333955 0.95655 84 68 94 
-0.0796225 -0.331981 0.950455 83 48 68 
-0.0693751 -0.0236153 0.868256 139 117 80 
-0.0690463 -0.332211 0.946586 59 38 57 
-0.0488427 -0.289366 0.87204 71 24 30 
-0.0543158 0.0222636 0.843332 176 164 152 
-0.0588433 0.012237 0.870055 174 158 133 
-0.0555232 -0.0683644 0.871034 35 16 18 
-0.00552094 0.170598 0.640064 99 61 84 
-0.0525654 -0.00995029 0.855216 174 159 140 
-0.0451433 0.110379 0.812463 79 45 61 
-0.0548617 -0.33673 0.929795 173 157 132 
-0.0367321 -0.217482 0.83881 47 22 26 
-0.00186395 0.187037 0.637923 120 85 109 
-0.0407973 -0.268713 0.871073 80 32 46 
-0.038282 -0.279197 0.874874 144 89 108 
-0.0233564 -0.237737 0.838601 48 22 31 
-0.0272095 -0.0759773 0.852878 125 74 83 
-0.0166839 -0.286735 0.850529 66 39 48 
-0.0222915 -0.0674871 0.835699 113 74 93 
-0.0160826 -0.267829 0.860254 153 102 121 
-0.0215488 -0.332336 0.928251 68 44 57 
-0.0157167 0.00559467 0.842636 64 31 40 
-0.0015328 -0.177965 0.835498 67 27 36 
-0.00690576 -0.333533 0.924523 77 57 82 
0.00184311 -0.0818169 0.834255 130 74 87 
0.0061312 -0.158276 0.844 58 23 30 
0.0766661 0.0538197 0.448896 66 39 56 
0.00426031 -0.312057 0.917311 138 123 144 
0.0137309 -0.0715159 0.825982 70 35 33 
0.0127516 -0.332259 0.916666 132 122 146 
0.0149708 -0.0600948 0.851428 47 19 18 
0.0172068 -0.289675 0.910854 65 39 66 
0.0312027 -0.316405 0.908159 94 71 91 
0.0313679 -0.286093 0.904785 90 60 72 
0.0399584 0.0523234 0.839446 70 33 40 
0.0478779 -0.320364 0.902812 81 63 87 
0.0530474 -0.222005 0.841936 108 70 81 
0.0547026 0.179039 0.738193 88 49 68 
0.0580531 -0.283036 0.894798 139 121 143 
0.0596734 -0.311688 0.897922 86 62 78 
0.0631618 -0.255115 0.890035 97 68 90 
0.0641817 0.199936 0.74239 152 109 129 
0.0865874 0.21029 0.56962 109 110 131 
0.0679304 -0.236149 0.884392 104 82 103 
0.0710866 -0.288908 0.891295 65 46 65 
0.071622 -0.30886 0.89405 94 74 102 
0.0672409 0.198068 0.75711 66 49 57 
0.0804987 -0.285474 0.887594 130 120 145 
0.0865377 0.0909204 0.765989 66 38 50 
0.0839903 0.203682 0.744474 70 39 47 
0.091522 -0.284714 0.88137 93 79 104 
0.0955282 0.215326 0.637517 128 133 153 
0.0985248 -0.315314 0.882569 74 52 65 
0.0892593 0.195892 0.748876 154 107 127 
0.108852 -0.287811 0.875959 96 65 83 
0.113275 -0.309831 0.875844 137 117 142 
-0.032464 0.330717 2.68349 60 33 42 
0.122171 -0.289088 0.872621 94 69 91 
0.130769 -0.283691 0.868514 136 121 142 
0.130481 -0.247161 0.862554 97 70 87 
0.120956 0.148506 0.743836 61 31 41 
0.141923 -0.29748 0.864577 121 104 123 
0.148198 -0.288164 0.861086 98 67 83 
0.151309 -0.303214 0.860759 92 63 83 
0.155264 -0.281491 0.856989 103 78 97 
0.163805 -0.286906 0.855394 135 117 139 
0.158909 0.0267848 0.828287 64 41 59 
0.175621 -0.295506 0.851924 93 62 80 
0.183796 -0.289852 0.849212 83 52 68 
0.168911 0.0770582 0.820032 128 120 144 
0.174606 0.106306 0.813123 134 126 149 
0.173349 0.181698 0.807056 57 41 52 
0.19559 -0.292215 0.844631 75 53 66 
0.17984 0.0709376 0.813734 74 52 65 
0.180327 0.086455 0.812334 72 54 76 
0.183666 0.209679 0.785407 56 52 66 
0.207337 -0.291142 0.840413 84 61 77 
0.216086 -0.160591 0.824734 69 52 70 
0.221923 -0.276867 0.831986 80 56 78 
0.232669 -0.191625 0.820446 126 103 123 
0.220169 0.0791798 0.798514 132 111 128 
0.21277 0.228001 0.767225 107 119 133 
0.241756 -0.260613 0.824857 129 115 140 
0.261922 -0.274732 0.816884 78 59 79 
0.269185 -0.196553 0.808942 59 46 64 
0.283422 0.0682085 0.776431 90 63 68 
0.332437 -0.167801 0.779136 84 66 82 
0.337114 0.0557466 0.758163 137 114 122 
0.345059 0.0443713 0.755176 77 53 69 
0.41724 -0.186494 0.846943 96 109 161 
0.406021 0.156464 0.79811 61 85 121 
-0.472719 -0.167551 1.07514 117 115 154 
-0.469395 -0.113068 1.06874 102 85 104 
-0.456147 0.223836 1.02561 87 75 95 
-0.386596 -0.15165 1.0439 125 102 120 
-0.250591 0.0578749 0.923489 99 57 77 
-0.253061 0.0100175 0.934896 113 62 69 
-0.267766 -0.165585 1.00289 73 52 67 
-0.120722 0.185953 0.641674 106 73 94 
-0.238082 -0.214359 0.996934 69 48 65 
-0.10303 0.185485 0.634887 111 78 97 
-0.137337 0.0880774 0.732296 81 40 56 
-0.108736 0.120224 0.999066 82 56 69 
-0.0456095 -0.220189 0.832745 115 75 86 
-0.024695 -0.233795 0.823125 50 23 28 
-0.113138 0.154038 1.26406 64 38 51 
0.0528864 0.0670547 0.566634 66 39 56 
0.0413743 -0.153169 0.83174 138 84 100 
0.132113 0.130736 0.732784 41 30 28 
0.150663 -0.0939875 0.840655 79 54 75 
0.191089 -0.0505808 0.820302 63 45 57 
0.211459 -0.227656 0.828975 89 66 82 
0.216315 -0.0303051 0.808087 72 55 74 
0.228496 -0.260342 0.826794 78 60 74 
0.243394 0.0214795 0.792566 82 56 69 
0.246638 0.17833 0.77479 127 106 121 
0.270369 -0.267198 0.809896 78 56 79 
0.284864 -0.194684 0.798892 81 62 81 
0.329536 -0.103385 0.771706 95 71 85 
0.346682 -0.237598 0.77717 90 63 82 
0.343107 0.182278 0.738437 116 103 120 
0.343582 0.228714 0.717559 58 59 63 
0.331067 -0.103905 0.553592 115 130 173 
-0.359648 -0.024747 1.02176 56 44 66 
-0.108272 -0.164288 0.86419 116 72 89 
0.0424868 0.102262 0.688546 75 45 55 
0.0682222 0.114045 0.765946 93 53 62 
0.0889023 -0.231763 0.872381 110 72 97 
0.176326 -0.124424 0.830816 128 119 140 
0.219625 -0.0198253 0.803788 135 112 128 
0.293283 -0.0404946 0.778895 60 43 53 
0.330892 -0.033206 0.762342 133 110 130 
0.330557 0.103591 0.749847 134 113 128 
-0.424577 0.21476 1.01715 70 59 76 
-0.423637 0.168153 1.02105 120 112 135 
-0.421418 -0.190146 1.03966 135 114 131 
-0.40813 0.0496351 1.02804 59 51 72 
-0.359445 0.167361 0.998233 39 35 49 
-0.354834 0.0934978 1.00326 121 109 129 
-0.34192 -0.164698 1.02334 73 50 60 
-0.20015 0.0614188 0.921023 53 22 37 
-0.157285 0.0584679 0.905035 60 27 36 
-0.106202 0.229 0.779128 112 75 93 
-0.0987622 -0.223818 0.894407 43 22 21 
-0.0783979 -0.216509 0.796338 102 43 61 
-0.0120244 0.122706 0.780613 150 108 122 
0.0032246 0.0931622 0.665165 77 40 57 
0.0202943 0.0965935 0.654028 70 40 48 
0.316332 -0.286361 0.791052 73 54 74 
0.342244 -0.262401 0.778803 78 64 89 
0.345031 0.125421 0.738969 123 99 112 
0.432091 0.0545928 0.77066 148 168 201 
-0.452017 -0.23945 1.06806 81 61 86 
-0.426008 0.237669 0.983759 83 93 85 
-0.443137 -0.13738 1.0551 99 75 99 
-0.441582 -0.147659 1.05558 84 67 86 
-0.382028 0.2283 0.85893 43 58 51 
-0.425912 -0.138495 1.04993 90 67 83 
-0.418238 0.0947491 1.02379 76 62 79 
-0.407936 0.0946181 1.0212 66 58 81 
-0.410324 -0.194549 1.04928 138 117 132 
-0.404553 -0.130562 1.03925 80 61 83 
-0.404433 -0.14513 1.04238 132 117 136 
-0.386306 0.230637 0.983802 52 50 53 
-0.393204 -0.0825746 1.03075 124 106 130 
-0.392041 -0.0672077 1.02898 79 63 90 
-0.383654 0.19819 1.00175 113 109 132 
-0.380701 0.147707 1.00353 118 114 141 
-0.386444 -0.161852 1.0371 77 54 70 
-0.386983 -0.210394 1.04241 79 55 69 
-0.36808 0.238365 0.97651 37 33 32 
-0.367198 0.215489 0.993298 52 50 63 
-0.360637 0.198539 0.992695 108 92 105 
-0.361723 0.0474376 1.00914 66 53 71 
-0.360055 -0.0342289 1.01577 70 54 83 
-0.338154 0.225564 0.968505 91 84 92 
-0.341732 0.10252 0.99602 57 45 59 
-0.334769 0.0696661 0.996878 103 91 111 
-0.332166 0.164764 0.987503 54 41 50 
-0.330088 0.196212 0.982028 48 37 51 
-0.330771 0.0263983 0.999308 65 51 66 
-0.303126 0.208254 0.879464 136 93 113 
-0.322997 -0.0840916 1.00592 78 54 70 
-0.317321 0.198411 0.977985 96 92 107 
-0.320975 -0.255107 1.02347 77 59 73 
-0.31231 -0.194745 1.01399 71 54 73 
-0.308587 0.00901377 0.996088 56 43 61 
-0.309824 -0.222122 1.01496 92 61 76 
-0.307717 -0.175901 1.01128 72 55 73 
-0.302611 0.0928698 0.984277 37 29 40 
-0.303432 -0.0108612 0.993017 62 42 53 
-0.288433 0.100846 0.893142 109 73 83 
-0.301302 -0.142806 1.00362 80 56 69 
-0.295238 0.0798193 0.980374 42 31 39 
-0.283607 0.0384366 0.980133 59 42 50 
-0.273072 0.0770347 0.917623 149 95 111 
-0.279762 -0.159897 0.997448 136 113 133 
-0.256868 0.128585 0.87919 76 56 58 
-0.234492 0.193466 0.677713 54 34 43 
-0.264143 -0.112822 0.989225 62 49 69 
-0.263803 -0.196123 0.996004 91 68 88 
-0.226695 0.212177 0.66654 49 35 48 
-0.253609 -0.150788 0.988365 89 64 86 
-0.240127 -0.0569146 0.974965 60 41 60 
-0.214685 0.151239 0.677701 88 42 53 
-0.233712 -0.0637777 0.971484 139 112 129 
-0.21386 -0.220737 0.980227 96 60 72 
-0.196179 0.112524 0.665169 104 57 65 
-0.203623 -0.0279351 0.924125 78 31 39 
-0.203207 -0.0394707 0.924219 119 68 77 
-0.204448 -0.230406 0.977667 57 34 42 
-0.191401 -0.0601056 0.92131 102 55 61 
-0.187568 -0.215671 0.970713 86 62 78 
-0.186649 -0.247605 0.97332 76 59 77 
-0.177873 -0.179219 0.964564 57 43 58 
-0.170865 -0.2037 0.961938 50 38 58 
-0.167908 -0.249708 0.966534 87 61 90 
-0.16498 -0.0250798 0.913532 55 28 35 
-0.163054 -0.0626874 0.915066 73 32 38 
-0.153748 -0.263621 0.962308 74 58 85 
-0.148109 0.0299261 0.902094 47 20 27 
-0.14299 -0.02406 0.903383 48 29 35 
-0.135839 -0.127931 0.864811 146 91 110 
-0.140477 0.20907 0.612394 217 228 255 
-0.125242 -0.00677386 0.875818 49 22 31 
-0.124033 -0.0991499 0.867834 65 31 32 
-0.121423 0.089004 0.846152 93 51 61 
-0.11914 0.0997828 0.832831 82 48 64 
-0.129971 0.152082 0.646263 96 48 62 
-0.0932218 0.0450591 0.848719 113 87 72 
-0.109772 0.190272 0.625873 79 46 57 
-0.110707 -0.159219 0.637888 46 26 28 
-0.0959676 -0.201545 0.748721 82 30 52 
-0.0977382 0.141464 0.63536 98 48 60 
-0.0694766 -0.0257377 0.853676 124 93 62 
-0.063961 -0.0433079 0.853612 184 171 152 
-0.0623281 -0.0717476 0.852658 135 116 101 
-0.0889881 0.171988 0.629159 101 52 71 
-0.0638213 0.121821 0.783115 141 107 121 
-0.0416063 -0.242518 0.941045 49 24 27 
-0.0576528 0.129721 0.794734 63 47 57 
-0.0227072 0.0867261 0.811853 106 60 73 
-0.024603 0.120523 0.79673 147 94 112 
-0.0573804 0.160409 0.618795 92 44 60 
-0.0572919 0.137575 0.620673 83 47 61 
0.270689 -0.437434 2.39266 140 96 111 
-0.0486995 0.109993 0.611867 116 63 71 
0.317056 -0.421211 2.38458 131 74 91 
0.31492 -0.344503 2.34149 54 23 21 
0.00184679 -0.0345182 0.830988 56 25 33 
0.0285396 -0.132356 0.845934 99 59 67 
0.039656 0.0858142 0.811165 99 60 65 
0.0854319 0.00781429 0.819087 72 40 55 
0.0840923 0.0334047 0.804673 139 85 101 
0.0919163 -0.00215891 0.811543 110 63 71 
0.127409 -0.269643 0.859234 92 74 98 
0.137401 -0.0931403 0.837945 97 70 89 
0.152243 -0.192696 0.842669 86 71 92 
0.132921 0.0434119 0.778227 81 50 65 
0.121233 0.157674 0.736806 62 34 46 
0.148555 0.197686 0.725308 175 129 157 
0.246709 0.165853 0.771612 84 65 85 
0.249362 0.0327423 0.782893 145 122 132 
0.262922 -0.205022 0.803479 61 49 73 
0.272794 0.138373 0.766281 78 63 82 
0.308546 -0.210736 0.785625 85 73 93 
0.310933 -0.0221165 0.76603 138 117 134 
0.432784 0.236755 0.754685 115 128 144 
-0.406707 0.161228 1.01484 124 116 139 
-0.406383 -0.0772824 1.03704 128 113 136 
-0.399304 0.0509423 1.02329 118 101 119 
-0.367549 -0.0777942 1.02168 125 102 128 
-0.333852 -0.132868 1.01468 81 59 72 
-0.323725 0.140558 0.987977 45 39 51 
-0.32261 0.103973 0.990362 46 32 45 
-0.313546 0.215274 0.974588 41 39 52 
-0.31171 0.0472175 0.99069 71 54 70 
-0.302528 -0.0312623 0.995161 116 92 105 
-0.297696 0.116279 0.97966 100 79 86 
-0.292071 0.00833325 0.98876 56 43 53 
-0.288707 -0.0108218 0.988507 76 62 77 
-0.261589 0.194843 0.875476 25 21 22 
-0.233863 -0.163213 0.984056 94 61 80 
-0.218677 -0.16527 0.978084 82 56 67 
-0.206624 -0.192108 0.975841 97 66 82 
