ply
format ascii 1.0
comment PCL generated
element vertex 147
property float x
property float y
property float z
property uchar red
property uchar green
property uchar blue
element face 0
element camera 1
property float view_px
property float view_py
property float view_pz
property float x_axisx
property float x_axisy
property float x_axisz
property float y_axisx
property float y_axisy
property float y_axisz
property float z_axisx
property float z_axisy
property float z_axisz
property float focal
property float scalex
property float scaley
property float centerx
property float centery
property int viewportx
property int viewporty
property float k1
property float k2
end_header
2.1850801 -2.4135101 18.028601 54 58 55
2.148 -2.37532 18.120899 73 77 78
2.1640699 -2.3659101 18.129999 66 70 71
2.54357 -2.2725699 17.5012 45 51 49
2.52266 -2.2425499 17.496799 51 55 55
2.52161 -2.2430201 17.5012 51 55 55
2.52057 -2.24349 17.5058 51 55 55
2.14766 -2.31637 18.233999 66 70 69
2.5214 -2.2041299 17.4118 55 59 58
2.5176499 -2.20575 17.4272 55 59 59
2.52754 -2.1877601 17.2903 53 57 55
2.99666 3.8956001 21.506701 87 88 86
2.99792 3.9309599 21.513599 88 89 86
3.00178 3.95998 21.4891 93 93 91
2.99225 3.9937301 21.4694 90 90 90
2.3461399 -2.5246201 17.885401 37 39 35
2.3796899 -2.52899 17.859301 37 39 36
2.33915 -2.50646 17.820999 40 42 38
2.3879499 -2.4841299 17.7596 33 35 31
2.3907101 -2.5030999 17.842899 44 47 45
2.49087 -2.46544 17.6532 35 38 36
2.50227 -2.4813399 17.6999 30 33 30
2.50388 -2.47772 17.697399 30 33 30
2.3181801 -2.4700799 17.830999 52 54 50
2.37518 -2.4674399 17.704901 39 41 38
2.4870701 -2.4482601 17.697901 28 30 26
2.4886899 -2.4446399 17.695499 28 30 26
2.30284 -2.43663 17.827499 56 58 55
2.3085001 -2.46065 17.8461 53 54 51
2.3085001 -2.46065 17.8461 53 54 51
2.336 -2.43997 17.7894 51 53 49
2.36731 -2.4477999 17.768801 46 49 45
2.4749401 -2.4329 17.6549 41 44 42
2.2133601 -2.43187 17.945801 51 54 51
2.4572401 -2.39568 17.655199 37 40 35
2.4885499 -2.4036901 17.632401 33 36 31
2.28672 -2.4035699 17.826599 54 57 53
2.3175399 -2.40255 17.7897 57 59 55
2.36678 -2.3949499 17.818001 38 40 36
2.3961999 -2.40288 17.797501 37 40 35
2.4721301 -2.3657999 17.627501 39 42 37
2.2985401 -2.3654101 17.792 48 50 46
2.4008601 -2.3364 17.6451 22 25 19
2.4426899 -2.35467 17.6514 37 41 35
2.47928 -2.32166 17.5357 34 38 33
2.4937799 -2.3350599 17.5679 35 38 35
2.4247501 -2.32023 17.651199 37 41 36
2.4908299 -2.2962201 17.516701 33 36 32
2.3899901 -2.28913 17.5478 34 37 32
2.4638901 -2.2892101 17.5352 39 43 38
2.37448 -2.25371 17.5425 51 54 50
2.44965 -2.2565501 17.532 47 51 47
2.47721 -2.26336 17.5105 40 44 40
2.41026 -2.23575 17.629299 36 40 35
2.3875799 -2.2258799 17.5182 50 54 50
2.41026 -2.23575 17.629299 36 40 35
2.48878 -2.23822 17.492201 44 48 43
2.4860599 -2.2193999 17.414 42 46 42
2.4186699 -2.1923399 17.5278 59 63 60
2.4039199 -2.1472499 17.4715 41 46 41
2.4589801 -2.1533501 17.4891 52 56 53
2.5313101 -2.4848599 17.6782 18 22 18
2.2541201 -2.4679799 17.9603 34 36 34
2.2572501 -2.4217701 17.868 38 41 37
2.2823801 -2.33252 17.792 45 48 44
2.51565 -2.24525 17.4732 43 45 42
2.4981799 -2.1928201 17.383101 61 65 64
2.5397201 -2.2234399 17.558701 39 43 41
2.47102 -2.1872499 17.414 56 60 56
2.5092299 -2.16065 17.3361 51 55 51
2.4983301 -2.1549699 17.426701 46 50 46
2.53654 -2.15997 17.6619 31 37 33
2.5253999 -2.1538601 17.651501 34 39 36
2.50723 -2.13923 17.616699 43 49 45
2.5146899 -2.14275 17.6152 41 46 43
2.5226099 -2.13274 17.705799 31 38 33
3.0520899 3.67149 21.717699 120 119 115
2.9797101 3.66113 21.5063 95 94 91
3.0032699 3.67907 21.580999 119 118 116
3.03475 3.69806 21.621 181 181 179
3.0708499 3.7053101 21.6618 97 96 92
3.0815001 3.7165501 21.719 92 92 91
2.9955299 3.7116699 21.5499 101 100 97
3.05247 3.73384 21.643801 125 124 122
3.0258701 3.72367 21.5828 189 190 188
3.07919 3.7511499 21.673599 101 99 97
2.9906001 3.73896 21.489401 97 95 92
3.04338 3.75752 21.5891 150 151 150
3.0654399 3.78316 21.624399 117 116 111
3.0071101 3.7885599 21.523899 118 118 117
3.03688 3.8008299 21.558901 180 181 180
3.06604 3.8150699 21.6222 97 97 94
2.9979401 3.8215201 21.4963 90 89 87
3.0725701 3.83044 21.6152 91 91 88
2.9760101 3.83728 21.4839 100 99 95
3.0050499 3.839 21.487 105 105 102
3.02634 3.83635 21.5254 206 207 204
3.0431399 3.86041 21.5516 161 162 162
3.07341 3.85695 21.573799 95 95 93
2.9828501 3.8683701 21.505199 92 91 88
3.0141599 3.865 21.484301 140 140 138
3.0437901 3.89151 21.538799 169 170 168
3.0735199 3.8856699 21.548401 102 100 97
3.08406 3.9201801 21.5243 92 92 91
2.9780099 3.9424 21.4342 95 93 89
3.0302 3.9700799 21.490999 198 200 197
3.06196 3.95469 21.4732 121 121 122
3.0933599 3.9506299 21.466299 93 93 91
3.05018 3.98367 21.4681 159 161 161
3.08023 3.98332 21.480101 91 92 90
3.09271 3.9815199 21.446899 87 86 83
2.9818001 4.01862 21.445801 94 93 89
3.0213599 4.0021 21.462299 175 176 174
3.0643101 4.01299 21.415501 116 117 114
2.9833 4.0511599 21.4541 94 93 92
3.01281 4.0525198 21.4526 186 187 187
3.0475399 4.0490599 21.431801 177 178 178
2.98599 4.0805101 21.447001 93 93 91
3.02859 4.0757198 21.434999 210 212 212
3.06498 4.0704598 21.4044 121 120 117
3.02829 4.1052399 21.4266 209 210 211
3.0929301 4.07516 21.3944 96 96 86
2.99559 4.1164699 21.4289 129 129 126
3.0618501 4.1020999 21.366699 135 134 133
3.0776999 4.10953 21.3986 111 110 105
2.98908 4.1540599 21.459999 105 104 97
3.0283501 4.1300998 21.393999 207 208 202
3.0606699 4.15097 21.3958 122 121 118
3.0924001 4.1310701 21.305599 104 102 92
3.00896 4.1799798 21.414101 153 153 146
3.0805099 4.1721601 21.368401 105 104 96
2.9988999 4.2216101 21.392 108 106 92
2.22844 -2.4033899 17.9261 56 60 57
2.26057 -2.4122601 17.8995 37 40 37
2.2455699 -2.37393 17.896799 48 51 48
2.2254 -2.35672 17.8871 59 63 62
2.2534201 -2.3247499 17.7157 67 71 71
2.2441599 -2.3023601 17.7078 70 74 74
2.2445199 -2.30585 17.870399 56 59 56
2.51689 -2.1686699 17.595699 44 49 45
2.5269699 -2.1802101 17.629999 44 49 46
3.0422201 4.1620302 21.364401 212 211 203
3.0499699 4.1731701 21.362 185 183 176
3.0229499 4.197 21.378 216 214 202
3.0808001 4.1930199 21.311001 107 104 91
2.29565 -2.3582499 17.7215 50 53 50
2.51003 -2.1703801 17.369101 59 64 62
0 0 0 1 0 0 0 1 0 0 0 1 0 0 0 0 0 147 1 0 0
