ply                 
format ascii 1.0    
element vertex 1334
property float x    
property float y    
property float z    
property uchar red  
property uchar green
property uchar blue 
end_header          
-0.0916661 0.46326 1.16701 52 51 49 
-0.0997971 0.465917 1.17068 53 51 253 
-0.109932 0.469922 1.17458 67 227 71 
-0.126825 0.471879 1.18143 0 0 0 
-0.0978472 0.45803 1.17049 55 254 53 
-0.0952287 0.469835 1.16784 50 49 47 
-0.0933767 0.443737 1.16058 254 60 58 
-0.120247 0.462868 1.17925 0 0 0 
-0.0906982 0.543653 1.16453 254 35 33 
-0.0853315 0.544105 1.16216 254 38 36 
-0.0423586 -0.600283 1.4144 0 0 0 
-0.0450536 -0.595269 1.4145 0 0 0 
-0.0896437 0.555358 1.16319 26 27 254 
-0.101881 0.467671 1.17094 60 58 253 
-0.0883147 0.462902 1.16531 42 40 254 
-0.0963069 0.441638 1.1629 55 53 54 
-0.101989 0.456423 1.17165 56 54 55 
-0.105094 0.492944 1.17121 59 57 253 
-0.100924 0.457292 1.17274 253 54 52 
-0.121244 0.443459 1.17301 0 0 0 
-0.121092 0.443469 1.1728 0 0 0 
-0.0956206 0.55526 1.16649 254 46 44 
-0.114398 0.460245 1.17703 7 8 5 
-0.0886731 -0.202069 1.25532 0 0 0 
-0.145063 0.112817 1.22048 0 0 0 
-0.10891 0.531837 1.17271 45 43 44 
-0.129369 0.0981058 1.21114 0 0 0 
-0.0461055 -0.653352 1.41756 0 0 0 
-0.0836264 0.100338 1.19422 254 77 75 
-0.102986 0.461526 1.17182 55 255 46 
-0.115405 -0.102111 1.24201 0 0 0 
-0.0996941 0.120143 1.19716 64 62 209 
-0.11599 0.042513 1.19967 0 0 0 
-0.148142 -0.00776062 1.21189 0 0 0 
-0.0621203 0.0865603 1.191 2 0 254 
-0.148551 -0.00776731 1.2117 0 0 0 
-0.107802 0.270294 1.19037 0 0 3 
-0.113141 0.461202 1.17589 8 63 9 
-0.0846751 0.0261217 1.18921 28 28 28 
-0.1372 0.144022 1.21313 0 0 0 
-0.0978168 -0.20347 1.25863 0 0 0 
-0.124731 -0.0454324 1.22216 0 0 0 
-0.113106 0.461202 1.17589 8 63 9 
-0.0622298 0.0866212 1.19093 2 0 254 
-0.122205 -0.0655262 1.23124 0 0 0 
-0.0565219 -0.166377 1.24102 122 130 116 
-0.120724 0.190514 1.20088 0 0 0 
-0.0678553 0.235366 1.1811 254 38 34 
-0.0886237 0.467229 1.16557 48 47 45 
-0.10058 0.19288 1.19188 27 123 29 
-0.0904404 -0.107674 1.23442 0 0 0 
-0.0467002 -0.000208856 1.18321 33 254 37 
-0.0873091 -0.20102 1.25444 0 0 0 
-0.0839125 0.12952 1.19224 41 254 36 
-0.154311 0.0511834 1.22066 0 0 0 
-0.108594 0.0139865 1.19741 59 60 65 
-0.117047 0.223293 1.19555 0 0 0 
-0.0648117 0.506132 1.14895 49 45 46 
-0.107072 0.502553 1.17272 60 59 57 
-0.11319 -0.177128 1.26242 0 0 0 
-0.0719006 0.240401 1.18142 74 71 254 
-0.120074 0.114896 1.20569 0 0 0 
-0.0831752 -0.0342064 1.19751 74 74 76 
-0.0860443 0.461707 1.16469 51 254 47 
-0.153489 0.00908119 1.22002 0 0 0 
-0.0289796 0.602498 1.11249 72 254 78 
-0.105174 0.553773 1.17079 41 39 254 
-0.0869639 -0.305638 1.3062 0 0 0 
-0.164 0.0406381 1.22823 0 0 0 
-0.114988 0.13082 1.20252 0 0 0 
-0.0896656 0.110972 1.19536 52 50 254 
-0.0578812 0.00519745 1.18684 254 29 27 
-0.097499 0.0982676 1.19979 46 46 44 
-0.081972 0.105757 1.19336 43 254 64 
-0.12207 0.265689 1.19612 0 0 0 
-0.0571944 0.212972 1.18103 55 54 52 
-0.0804347 -0.199168 1.25121 0 0 0 
-0.0675953 -0.0754957 1.21586 254 76 76 
-0.0970387 -0.167835 1.25577 0 0 0 
-0.132897 0.0105757 1.20791 0 0 0 
-0.148812 0.014535 1.21836 0 0 0 
-0.118548 0.191533 1.19915 0 0 0 
-0.124075 -0.00561843 1.19772 3 2 2 
-0.102722 0.220568 1.19025 7 6 22 
-0.067381 -0.166169 1.24269 0 0 0 
-0.100427 -0.245673 1.26109 0 0 0 
-0.108317 0.051797 1.19593 8 8 10 
-0.108167 -0.161513 1.26023 0 0 0 
-0.0563178 0.509396 1.14898 31 31 31 
-0.0841268 -0.236131 1.25396 0 0 0 
-0.129924 -0.0942865 1.24598 0 0 0 
-0.160848 0.491444 1.19317 0 0 0 
-0.102308 0.0112852 1.1945 252 69 69 
-0.0704178 0.0850314 1.19414 58 254 68 
-0.0515104 0.496792 1.14893 39 37 38 
-0.151352 0.225298 1.21765 0 0 0 
-0.0987099 0.138097 1.19618 234 59 59 
-0.0941591 -0.19779 1.25737 0 0 0 
-0.0386288 0.373453 1.16808 36 34 37 
-0.110776 0.536329 1.17306 31 29 30 
-0.078005 -0.00267856 1.18391 254 70 70 
-0.113915 0.0944557 1.20421 0 0 1 
-0.0963167 0.370284 1.16701 62 59 255 
-0.0942125 0.37447 1.16611 50 253 64 
-0.0986502 0.0907748 1.19919 241 41 41 
-0.125887 0.00298852 1.2051 0 0 0 
-0.0727108 -0.014021 1.18895 254 68 68 
-0.108585 -0.161111 1.26011 0 0 0 
-0.174166 0.0494791 1.23758 0 0 0 
-0.14917 0.0137784 1.21903 0 0 0 
-0.0503795 -0.00497215 1.1809 73 73 254 
-0.159511 0.0172802 1.22494 0 0 0 
-0.0460116 0.375002 1.16843 254 48 47 
-0.11104 0.045156 1.19723 171 30 33 
-0.0921816 0.0390438 1.19149 69 254 76 
-0.109608 0.0894112 1.20345 1 0 0 
-0.13542 0.0254081 1.20986 0 0 0 
-0.125843 0.613256 1.11306 171 45 45 
-0.0924754 0.0387545 1.19067 74 75 254 
-0.128049 0.0118952 1.20578 0 0 0 
-0.0423014 0.451707 1.15676 254 43 43 
-0.0430297 0.45105 1.15561 40 40 254 
-0.146741 0.599935 1.09471 37 36 31 
-0.0971248 -0.0904612 1.23264 0 0 0 
-0.0719112 -0.0969598 1.22331 63 62 254 
-0.0889673 0.0173065 1.19238 61 254 69 
-0.100549 -0.221878 1.26045 0 0 0 
-0.116831 -0.0936203 1.24155 0 0 0 
-0.107019 0.0968173 1.20119 0 0 0 
-0.100299 -0.0172985 1.19415 254 54 54 
-0.0882092 -0.0104355 1.18978 254 50 50 
-0.127639 0.613805 1.11171 49 43 166 
-0.0616878 0.105592 1.19118 69 254 75 
-0.0980806 -0.196566 1.25861 0 0 0 
-0.0294446 0.344185 1.17022 37 254 46 
-0.0490316 0.318785 1.17374 254 47 45 
-0.10172 0.538876 1.16959 40 41 254 
-0.111527 0.608739 1.1234 54 50 224 
-0.0925124 0.10004 1.19699 52 254 54 
-0.0855364 0.00410049 1.19099 30 31 254 
-0.118358 -0.169191 1.26402 0 0 0 
-0.126186 0.603163 1.09077 50 50 43 
-0.167356 0.42259 1.21831 0 0 0 
-0.0926411 0.10032 1.19667 52 254 54 
-0.051612 0.108417 1.18882 51 254 64 
-0.113721 0.0221285 1.19942 36 37 39 
-0.096481 -0.0744515 1.22671 1 1 0 
-0.11191 0.0181792 1.19798 85 89 114 
-0.103968 0.103344 1.19959 30 10 11 
-0.10503 0.436517 1.16546 56 56 54 
-0.130545 -0.032477 1.21635 0 0 0 
-0.0618893 0.15846 1.18672 42 39 254 
-0.0987892 -0.00506449 1.18866 68 254 67 
-0.0907362 0.246322 1.18628 36 28 251 
-0.0590891 0.512854 1.14853 45 254 45 
-0.117818 0.0975882 1.20597 0 0 0 
-0.0786195 -0.201704 1.24944 0 0 0 
-0.0590966 -0.0751064 1.21111 89 254 56 
-0.13941 -0.113136 1.25604 0 0 0 
-0.058215 -0.291251 1.29006 0 0 0 
-0.130011 0.509409 1.17871 6 1 1 
-0.122299 0.49834 1.17861 7 6 22 
-0.115284 0.48641 1.17553 17 13 96 
0.0039425 0.0291924 1.19215 35 35 255 
-0.106947 0.0656037 1.19815 2 2 6 
-0.0285754 0.0630458 1.19331 47 45 255 
0.0313982 -0.0292605 1.21204 75 71 68 
-0.0110401 -0.0696454 1.21427 43 41 254 
-0.0441174 -0.454276 1.3505 0 0 0 
0.00569622 -0.184645 1.26704 16 254 44 
0.125593 -0.0139402 1.31047 67 66 62 
-0.0417449 -0.391738 1.32943 0 0 0 
-0.15816 0.0840894 1.23399 0 0 0 
0.0928457 0.112053 1.24531 255 39 37 
-0.0556081 -0.200046 1.24811 10 11 12 
0.043047 -0.204807 1.29209 27 254 37 
-0.17898 0.604581 1.13899 4 3 32 
-0.0426097 -0.0870063 1.21023 69 65 62 
0.0312672 -0.236847 1.30023 254 63 60 
0.0968416 0.197968 1.23913 45 46 255 
0.00953879 0.0451473 1.19181 255 21 21 
-0.102493 -0.300515 1.31198 0 0 0 
-0.132455 0.456506 1.18306 0 0 0 
0.0504163 0.0037145 1.21205 50 49 47 
-0.038736 0.21592 1.18018 61 60 58 
0.000702661 -0.17026 1.26166 254 37 36 
-0.136399 0.29605 1.20216 0 0 0 
-0.146874 0.0412939 1.2162 0 0 0 
-0.0461688 0.165653 1.18495 254 54 50 
-0.00166773 0.292499 1.17879 59 55 254 
-0.18985 0.603027 1.17497 10 48 12 
-0.142746 0.559053 1.17161 62 250 76 
0.0634456 -0.0569592 1.24414 50 46 255 
-0.0525833 0.434017 1.15851 33 254 31 
-0.0746871 0.377332 1.1615 65 63 254 
-0.00689799 0.0725387 1.19507 46 44 45 
-0.00358414 0.225393 1.18407 59 57 58 
-0.151031 0.127727 1.22357 0 0 0 
-0.125632 0.289497 1.19711 0 0 0 
0.0165946 -0.222584 1.28585 40 36 33 
-0.108642 0.616407 1.07032 10 9 78 
-0.115684 -0.191689 1.26569 0 0 0 
-0.117363 0.513316 1.17641 39 37 38 
0.00446038 -0.149499 1.25172 254 58 58 
0.0611427 0.21014 1.21201 29 30 255 
-0.0539337 0.450815 1.15475 31 254 26 
-0.0415369 0.542541 1.14178 55 53 54 
-0.0476878 -0.224305 1.25992 1 1 1 
-0.0657 -0.324529 1.3059 0 0 0 
-0.170981 0.0599884 1.23101 0 0 0 
0.061065 0.0383345 1.21844 38 36 37 
-0.00988554 0.202057 1.18533 62 60 255 
-0.104457 0.178452 1.19377 3 1 0 
0.0384832 -0.184246 1.27941 22 23 254 
0.0424979 0.182482 1.20571 255 40 36 
-0.125755 0.37542 1.17888 0 0 0 
0.0472489 0.11117 1.2146 49 49 49 
-0.0742156 0.465546 1.15629 66 254 69 
-0.0961152 0.304166 1.1881 65 66 59 
-0.127439 0.127369 1.20877 0 0 0 
-0.0289731 0.591554 1.13279 254 68 67 
-0.144338 -0.0707612 1.24187 0 0 0 
-0.012283 0.0504194 1.19148 255 11 11 
-0.0399819 0.151892 1.18503 35 33 254 
-0.0395113 0.181888 1.18288 48 254 50 
0.071004 0.457141 1.19558 51 254 53 
0.067978 0.614875 1.13656 37 253 45 
-0.122777 0.155936 1.20189 0 0 0 
-0.0484181 0.0953379 1.1897 71 254 69 
-0.0533531 -0.498876 1.36404 0 0 0 
-0.0622534 -0.151704 1.24062 19 21 22 
0.0704792 0.601648 1.1403 35 37 23 
-0.0394345 0.409677 1.16577 39 254 44 
-0.111625 -0.00415949 1.19225 70 69 74 
-0.0920004 -0.377318 1.33495 0 0 0 
-0.0276792 0.000562127 1.18598 254 26 24 
-0.0826188 -0.345969 1.31945 0 0 0 
-0.0703982 0.599722 1.11029 20 253 41 
0.0477519 -0.0943412 1.25229 58 59 255 
-0.0295398 -0.152439 1.24167 254 65 64 
-0.093533 -0.0287209 1.19857 64 63 68 
-0.085886 -0.138043 1.24466 0 0 0 
-0.121337 -0.140118 1.25825 0 0 0 
-0.0679274 -0.470524 1.36053 0 0 0 
0.0194477 -0.108147 1.24432 42 254 52 
-0.0358652 -0.0691401 1.20519 66 62 59 
0.0916467 0.16823 1.24036 44 47 255 
-0.0931306 0.520977 1.16638 39 40 254 
-0.00539713 0.00470282 1.19048 254 32 31 
-0.00306583 -0.0303908 1.19341 57 52 254 
-0.0516308 -0.097727 1.21539 254 66 63 
-0.0900929 0.0673355 1.19872 32 34 33 
-0.0128297 0.12225 1.18985 32 255 47 
-0.076447 -0.185447 1.25005 0 0 0 
-0.0632885 -0.604741 1.39481 0 0 0 
-0.0504762 -0.259163 1.27413 0 0 0 
0.0391661 0.454619 1.17593 45 254 17 
-0.138785 0.184247 1.21257 0 0 0 
-0.00110976 -0.205991 1.27182 43 254 40 
0.0236805 0.0506999 1.20205 254 10 9 
-0.0691768 -0.441822 1.35056 0 0 0 
-0.0449826 0.567992 1.13452 254 39 38 
-0.0237328 0.0990471 1.19091 47 47 47 
-0.109332 -0.129935 1.25049 0 0 0 
-0.141371 0.480632 1.17969 0 0 0 
0.0491076 0.592314 1.15257 44 42 254 
-0.0685187 -0.0424065 1.19699 55 254 57 
-0.134823 -0.145524 1.26539 0 0 0 
0.0157978 0.0774709 1.20418 38 36 37 
-0.000324343 0.140977 1.19117 254 52 48 
-0.0983933 -0.0475061 1.21087 113 122 89 
0.00395353 -0.300341 1.31295 253 63 60 
-0.050159 -0.525648 1.37617 0 0 0 
0.093999 0.131395 1.24467 35 255 37 
-0.077978 -0.397593 1.33774 0 0 0 
-0.0313445 0.0358942 1.18468 72 254 64 
0.0434357 -0.021878 1.21171 67 64 59 
-0.00830755 -0.092736 1.22943 254 48 47 
-0.0311753 0.12823 1.18783 28 254 20 
0.0938479 0.0974791 1.24524 37 38 255 
-0.081076 0.437436 1.15803 40 38 254 
-0.0452437 0.0193524 1.18472 128 127 254 
-0.0249529 0.213536 1.18324 38 36 255 
-0.168643 0.227737 1.23276 0 0 0 
-0.113803 -0.0238419 1.20423 0 0 0 
-0.162763 0.609617 1.14475 137 32 31 
-0.14389 -0.0351619 1.2241 0 0 0 
-0.0980594 -0.363037 1.33313 0 0 0 
0.0915096 0.183674 1.23924 40 41 255 
0.0237161 0.339183 1.18262 36 37 254 
0.0553293 0.300379 1.20069 33 31 254 
-0.0965201 0.348775 1.16942 74 70 255 
-0.0356718 -0.300066 1.29403 0 0 0 
-0.04893 0.0510713 1.18909 14 12 13 
-0.00550408 0.269035 1.17892 34 32 35 
-0.00464067 0.364964 1.17241 43 254 47 
-0.155611 0.141037 1.22811 0 0 0 
0.0284407 -0.0101335 1.19452 254 66 66 
-0.0654988 -0.546901 1.38795 0 0 0 
0.0098853 0.113941 1.19567 255 39 37 
-0.0954638 0.427943 1.16503 254 47 47 
0.0349976 -0.119284 1.25555 32 31 29 
-0.00696322 0.530717 1.14773 16 18 254 
-0.0692787 0.050203 1.18593 9 9 9 
0.0151666 -0.00839915 1.19237 65 65 65 
-0.0856315 -0.329702 1.31361 0 0 0 
-0.138375 0.600439 1.15608 27 24 235 
0.0516931 -0.0454864 1.2295 71 69 255 
-0.132145 0.490133 1.18242 0 0 0 
0.00583032 -0.0998322 1.23464 254 29 28 
0.0920208 0.0840876 1.2458 26 27 255 
-0.044356 -0.408786 1.33427 0 0 0 
0.0298047 0.318198 1.1886 254 43 42 
-0.0615081 0.145863 1.18733 43 254 62 
-0.0373396 -0.20388 1.25396 83 81 254 
0.0215658 0.152795 1.19622 20 255 31 
-0.14463 0.0561141 1.21483 0 0 0 
-0.127829 0.592394 1.16049 24 20 19 
-0.0946563 -0.23275 1.25741 0 0 0 
-0.0626478 0.264037 1.17822 254 38 34 
-0.0702132 0.340083 1.17414 36 34 254 
-0.0106893 -0.0100387 1.18616 79 78 76 
-0.0240394 0.169669 1.18457 255 74 71 
-0.0309398 -0.0343689 1.18945 254 75 72 
0.0250383 -0.138455 1.25516 56 52 254 
-0.116159 0.313753 1.19524 0 0 0 
-0.144936 0.196954 1.21543 0 0 0 
0.0305046 0.597475 1.12278 60 61 55 
0.0955689 0.263994 1.23197 25 23 24 
-0.085158 0.199678 1.18714 43 254 55 
0.0830341 0.0410824 1.23714 255 48 46 
-0.0552498 -0.175985 1.24482 32 36 230 
-0.179613 0.0146682 1.24524 0 0 0 
-0.145861 -0.0524098 1.2346 0 0 0 
0.0364767 0.0871268 1.20962 42 42 42 
0.0134423 -0.256522 1.30097 47 40 254 
-0.0755068 0.524352 1.15147 36 254 34 
-0.0903936 0.157777 1.19008 62 252 71 
-0.0754628 0.157613 1.18906 66 65 254 
-0.133198 -0.12415 1.25747 0 0 0 
0.0582486 0.197055 1.2144 30 255 35 
0.02828 0.101166 1.20436 49 255 52 
-0.0700794 0.0204449 1.18705 73 254 78 
-0.0250078 -0.210623 1.261 61 59 254 
-0.0687567 0.409264 1.15835 254 47 46 
-0.117459 -0.223606 1.26459 0 0 0 
-0.0162597 0.0209875 1.18803 48 254 49 
-0.0647061 -0.512329 1.37416 0 0 0 
-0.00652365 0.5848 1.13707 254 55 48 
-0.0936 0.502119 1.16642 52 52 52 
-0.0895629 0.616707 1.06208 3 38 5 
-0.0629253 0.524115 1.1481 43 43 43 
-0.154444 0.286516 1.21661 0 0 0 
-0.0750828 0.510495 1.15387 254 48 46 
-0.0497213 0.481952 1.15016 43 41 42 
-0.0196343 0.37108 1.16831 24 254 22 
-0.139157 0.329739 1.20489 0 0 0 
-0.00592016 0.038353 1.18893 42 255 54 
0.0827877 0.582253 1.17426 24 254 26 
-0.0651622 0.169541 1.1863 47 254 56 
-0.133548 0.223917 1.20463 0 0 0 
0.0175508 0.353599 1.17738 254 50 50 
-0.0520373 0.355571 1.16848 64 60 59 
-0.175615 0.0017623 1.23244 0 0 0 
0.0163913 -0.0408555 1.21126 70 65 254 
0.0899806 0.0667502 1.24786 36 35 33 
0.0151381 0.468831 1.1589 105 254 64 
-0.0223742 -0.338327 1.31827 0 0 0 
-0.0958935 -0.119061 1.24139 0 0 0 
-0.0166921 -0.241401 1.27924 77 74 67 
0.04385 0.035368 1.20833 32 33 255 
-0.0741395 -0.131506 1.23723 0 0 0 
-0.0266467 0.544739 1.14039 61 59 254 
-0.0224113 0.190603 1.18351 255 9 5 
0.0460704 0.35489 1.19267 26 22 19 
-0.0766889 0.175799 1.187 68 254 78 
-0.0833752 0.0498709 1.18965 254 27 27 
-0.0603139 -0.270065 1.28334 0 0 0 
-0.0638417 -0.365271 1.32103 0 0 0 
-0.0593848 0.249763 1.17825 254 44 40 
-0.0232199 -0.256893 1.28271 15 16 11 
0.0096304 0.168124 1.19353 255 46 43 
-0.0416334 0.600409 1.1101 254 76 75 
-0.0582886 0.183757 1.18337 71 254 65 
-0.0286243 -0.109908 1.22583 55 54 254 
-0.0823869 0.320659 1.17647 69 68 66 
-0.0351524 -0.0108709 1.1827 66 64 254 
-0.128893 0.559669 1.176 68 59 253 
-0.0152093 -0.112897 1.23053 57 53 52 
-0.130869 0.276357 1.20105 0 0 0 
-0.0938029 0.411457 1.16424 254 52 51 
0.0133855 0.540862 1.15011 254 12 11 
-0.0338774 -0.234645 1.26692 44 47 57 
-0.120643 0.580281 1.17251 67 63 52 
-0.133944 0.609939 1.12367 40 40 33 
-0.0513416 -0.303892 1.29003 0 0 0 
-0.0487813 0.0382805 1.188 35 36 254 
-0.0146326 0.239419 1.17992 40 255 36 
-0.0227605 -0.138272 1.2359 36 254 29 
0.0822491 0.600907 1.14909 23 254 24 
-0.0324765 0.461372 1.15482 254 67 67 
0.0353667 -0.103355 1.2507 46 45 255 
-0.105526 -0.0339123 1.20814 77 82 82 
0.0145629 0.132901 1.19722 59 255 49 
-0.0967948 0.28984 1.18807 250 68 68 
-0.156462 0.197071 1.2221 0 0 0 
-0.0121105 -0.0432728 1.19636 254 107 105 
-0.0302014 0.531268 1.14661 45 44 42 
-0.0810247 -0.0727876 1.22107 63 61 62 
-0.0502831 -0.0161535 1.18076 57 55 254 
-0.163427 0.125962 1.23412 0 0 0 
-0.103626 0.157591 1.19377 18 3 4 
-0.11403 0.41106 1.16995 2 0 0 
0.0366978 0.266006 1.20308 41 39 254 
-0.0258663 0.509524 1.14685 254 61 60 
-0.161018 0.481181 1.19465 0 0 0 
0.0324029 0.595511 1.14063 24 254 29 
-0.0827091 0.48821 1.16144 69 67 254 
-0.0278551 0.0795197 1.1924 34 254 40 
0.0111577 0.312267 1.18159 254 54 53 
-0.030273 0.116024 1.19139 55 55 254 
-0.0380385 0.504717 1.14656 70 70 254 
-0.10913 -0.0805306 1.23308 0 0 0 
0.0164688 0.583115 1.14371 254 34 33 
-0.029814 0.309933 1.17429 60 58 254 
-0.0142196 0.417345 1.16888 254 57 57 
0.0654517 0.257372 1.21253 255 29 27 
-0.15887 0.0325904 1.22486 0 0 0 
-0.0575652 0.06346 1.19424 22 22 22 
-0.0668198 0.119389 1.18938 254 52 48 
0.0491151 0.0195921 1.21248 23 21 255 
-0.0500765 -0.36148 1.31266 0 0 0 
-0.065183 -0.121608 1.23114 61 62 255 
0.0253316 0.367771 1.18086 59 57 254 
-0.0554483 0.301807 1.17469 50 49 47 
0.0937978 0.25071 1.23554 255 23 21 
-0.0418127 0.615271 1.10931 48 253 62 
0.00884949 0.20231 1.18992 29 30 255 
0.0957642 0.399147 1.22295 38 254 45 
-0.0854013 -0.415084 1.3464 0 0 0 
-0.128009 0.24887 1.20082 0 0 0 
-0.0883147 0.341176 1.17642 76 254 83 
-0.0860357 0.280195 1.18187 83 78 74 
0.0990861 0.373358 1.22527 50 48 254 
-0.139537 0.266385 1.20673 0 0 0 
-0.0109976 0.162106 1.1869 71 255 77 
-0.155292 0.167366 1.22536 0 0 0 
0.0608935 0.16133 1.21933 255 30 29 
-0.0945134 0.600723 1.12673 27 26 24 
-0.113766 0.253736 1.18992 0 0 0 
-0.00598696 0.549404 1.14072 11 11 11 
-0.00850197 0.352429 1.17155 42 42 254 
0.0575564 -0.0417803 1.26516 64 62 255 
-0.102562 0.323009 1.18252 10 11 8 
-0.0203476 0.275912 1.1764 27 26 24 
-0.0257525 0.155459 1.18533 255 45 44 
-0.156599 0.0660705 1.23127 0 0 0 
-0.163709 -0.00590501 1.22723 0 0 0 
-0.022746 0.252296 1.17711 25 254 32 
-0.172094 0.206915 1.2383 0 0 0 
-0.021321 0.294802 1.1762 62 254 65 
-0.00508056 0.188349 1.18669 63 59 56 
0.0256615 0.555038 1.1483 34 37 254 
-0.0950085 0.573803 1.16547 254 30 28 
-0.133056 -0.196 1.27256 0 0 0 
-0.192363 0.264539 1.2639 0 0 0 
-0.197796 0.079462 1.28009 0 0 0 
-0.185517 0.243219 1.25118 0 0 0 
-0.189428 0.603413 1.17593 35 30 231 
-0.163144 0.145043 1.23434 0 0 0 
-0.167063 0.112436 1.23864 0 0 0 
-0.116751 -0.273184 1.30392 0 0 0 
-0.161657 0.187516 1.22924 0 0 0 
-0.219282 0.0604417 1.31879 0 0 0 
-0.0837041 -0.177102 1.25107 26 254 41 
-0.145328 0.0984765 1.2207 255 58 57 
-0.165377 -0.0616945 1.24649 0 0 0 
-0.179786 0.0994248 1.25208 0 0 0 
-0.131585 -0.0184302 1.20828 40 42 254 
-0.0644854 -0.386856 1.32586 0 0 0 
-0.190726 0.13777 1.26799 0 0 0 
-0.179589 0.18845 1.24823 0 0 0 
-0.120551 0.0660179 1.2083 10 10 254 
-0.213797 0.0846072 1.43657 0 0 0 
-0.132364 -0.170948 1.27091 0 0 0 
-0.21285 0.0637142 1.28764 0 0 0 
-0.0704849 0.549266 1.14324 30 254 29 
-0.207355 0.602541 1.1955 12 2 2 
-0.150181 0.188385 1.2195 14 52 17 
-0.141164 0.0716223 1.22116 33 31 254 
-0.155718 0.112997 1.22928 0 0 0 
-0.167875 0.128138 1.23852 0 0 0 
-0.167792 0.17479 1.23513 0 0 0 
-0.161721 0.0996451 1.23507 0 0 0 
-0.137343 0.243594 1.20659 36 254 43 
-0.168277 0.366412 1.22382 0 0 0 
-0.104063 -0.322324 1.31884 0 0 0 
-0.203078 0.09652 1.28874 0 0 0 
-0.180323 0.266087 1.24441 0 0 0 
-0.0278745 0.131884 1.18799 24 22 23 
-0.158326 0.244361 1.22135 0 0 0 
-0.180222 -0.0260827 1.24807 0 0 0 
-0.151366 0.262794 1.21524 21 4 5 
-0.146485 0.207587 1.21533 63 59 56 
-0.117191 -0.117828 1.24793 89 91 97 
-0.180965 0.0777586 1.25751 0 0 0 
-0.0860451 -0.223119 1.25447 23 23 23 
-0.040024 0.01277 1.1851 54 50 254 
-0.153387 0.294667 1.21517 0 0 0 
-0.188812 0.190951 1.25866 0 0 0 
-0.15893 0.396172 1.21319 1 0 0 
-0.213025 0.0140246 1.29253 0 0 0 
-0.147165 0.321314 1.20881 92 0 0 
0.0594697 -0.21018 1.30056 254 34 20 
-0.0555645 0.465812 1.15224 9 9 254 
-0.141379 0.123574 1.21734 54 50 252 
-0.0751881 -0.290152 1.29622 0 0 0 
-0.131039 0.203261 1.20524 63 254 69 
-0.141919 0.255327 1.209 42 33 254 
-0.144249 0.493434 1.18563 254 70 69 
-0.158329 0.156037 1.22832 2 1 1 
-0.17691 0.60222 1.16062 42 33 254 
-0.140847 0.226713 1.20962 65 62 53 
-0.175232 0.110891 1.24883 0 0 0 
-0.163836 0.291507 1.22268 0 0 0 
-0.125112 0.0848587 1.21128 59 58 54 
-0.0352823 0.0689075 1.19106 255 55 54 
-0.17119 0.00451758 1.23362 6 5 3 
-0.191747 0.0146467 1.25971 0 0 0 
-0.08311 -0.0899909 1.22674 52 50 254 
-0.156181 -0.16134 1.29661 0 0 0 
-0.162607 -0.141939 1.3032 0 0 0 
-0.146114 0.157382 1.21901 27 23 20 
-0.169941 0.536353 1.19831 9 254 21 
-0.199406 0.0506705 1.2661 0 0 0 
-0.174107 0.393683 1.23094 0 0 0 
-0.153672 -0.0825177 1.25077 0 0 0 
-0.127747 0.0430622 1.20442 254 45 41 
-0.201336 0.604482 1.17986 8 78 13 
-0.182155 0.0456701 1.2459 0 0 0 
-0.199367 0.324338 1.27715 0 0 0 
-0.0623652 -0.411233 1.33625 0 0 0 
-0.153253 0.369774 1.21012 0 0 0 
-0.154904 0.125833 1.22739 0 0 0 
-0.157652 0.21575 1.22477 0 0 0 
-0.209558 0.513187 1.25825 0 0 0 
-0.154106 0.501853 1.18887 40 254 40 
-0.176242 0.381112 1.23165 0 0 0 
-0.162975 0.353382 1.21749 0 0 0 
-0.17202 0.211609 1.23641 0 0 0 
-0.190239 0.0458896 1.25632 0 0 0 
-0.194488 0.405286 1.25532 0 0 0 
-0.0610928 -0.0646157 1.20533 53 51 254 
-0.0240296 0.236799 1.17974 27 21 21 
-0.0821569 0.599349 1.1319 46 254 59 
-0.172945 0.31501 1.23345 0 0 0 
-0.0203984 0.0851138 1.19116 255 37 33 
-0.184684 -0.00333436 1.24541 0 0 0 
-0.163449 0.595577 1.17644 39 35 34 
-0.156929 0.317165 1.21637 0 0 0 
-0.203445 0.562383 1.22572 3 0 0 
-0.195703 0.439426 1.25229 0 0 0 
-0.192635 -0.00920173 1.25442 0 0 0 
-0.055036 -0.1201 1.22465 94 254 86 
-0.144446 0.457866 1.18138 65 64 62 
-0.112828 -0.209894 1.26296 2 1 2 
-0.163841 0.479773 1.19734 2 2 2 
-0.201129 0.00841052 1.27201 0 0 0 
-0.17426 0.334446 1.23106 0 0 0 
0.0398397 0.257436 1.20334 44 255 45 
-0.0272419 0.407907 1.16736 35 254 34 
-0.0144475 0.0586918 1.19531 44 42 255 
-0.0540561 -0.141941 1.23324 49 254 50 
-0.202973 0.599384 1.22551 12 2 2 
-0.106172 -0.147908 1.25593 51 53 57 
-0.172586 0.296485 1.23302 0 0 0 
-0.128505 0.598686 1.1544 254 25 24 
-0.123278 -0.253448 1.29951 0 0 0 
-0.178511 0.480368 1.2101 0 0 0 
-0.182509 0.370972 1.24038 0 0 0 
-0.206522 0.298114 1.29731 0 0 0 
-0.16713 0.514439 1.19929 14 13 9 
-0.167758 0.267647 1.22868 0 0 0 
-0.167167 0.0828883 1.2408 0 0 0 
-0.169848 0.241615 1.23334 0 0 0 
-0.118929 0.422413 1.17284 49 254 59 
-0.0547289 0.331008 1.17242 47 255 43 
-0.056638 0.0399727 1.18477 48 48 48 
-0.106638 0.482234 1.17228 76 72 255 
-0.124811 0.0214579 1.20355 0 0 0 
-0.0611131 -0.349794 1.31266 0 0 0 
-0.140321 0.0046065 1.20943 0 0 0 
-0.0387992 -0.618932 1.38955 0 0 0 
-0.0862344 -0.361094 1.3277 0 0 0 
-0.0722216 0.00491661 1.18873 19 20 254 
0.0113353 0.181505 1.19242 255 37 34 
-0.107569 0.141744 1.19964 0 0 0 
-0.116438 0.00650731 1.19967 25 140 2 
-0.0828411 -0.0244401 1.19376 60 60 60 
-0.0346649 0.165604 1.18494 62 254 71 
-0.0518508 -0.605876 1.38948 0 0 0 
-0.136098 0.0510768 1.21121 0 0 0 
-0.103185 0.515446 1.1704 37 38 254 
-0.107236 -0.11144 1.24239 0 0 0 
-0.0430431 -0.145212 1.22932 56 55 51 
-0.0815328 0.246164 1.18311 254 73 73 
-0.142886 0.621449 1.08462 3 1 1 
0.00461337 0.0040122 1.19153 44 43 41 
-0.0690254 -0.350584 1.3185 0 0 0 
-0.136723 -0.0607727 1.23675 0 0 0 
-0.0411263 -0.0337348 1.18856 254 76 74 
-0.0195752 -0.00787608 1.17989 56 254 54 
-0.0851814 0.610927 1.09629 252 56 53 
-0.0898965 -0.157798 1.25163 0 0 0 
-0.0978086 -0.346133 1.32561 0 0 0 
-0.0798293 0.0904969 1.19421 60 58 59 
-0.0647399 -0.010609 1.18342 61 254 63 
-0.118589 0.384448 1.17559 0 0 0 
-0.123788 0.616449 1.08807 30 106 30 
-0.0584408 0.125189 1.18804 41 254 43 
0.00609143 -0.00931325 1.18454 254 62 62 
-0.0433208 0.0302119 1.1847 30 31 254 
-0.0710033 0.304296 1.17685 254 65 64 
-0.0719893 -0.154461 1.24321 0 0 0 
-0.0564051 0.0276359 1.18737 61 254 60 
-0.055063 -0.249201 1.27068 0 0 0 
-0.117314 0.238998 1.19546 0 0 0 
-0.113625 0.598906 1.14989 27 25 26 
0.0166764 0.332377 1.18149 23 21 22 
-0.0990844 0.0272857 1.19379 62 254 54 
-0.109792 0.168437 1.1969 1 1 1 
-0.0548085 -0.689142 1.41615 0 0 0 
-0.0937075 0.538636 1.16675 34 254 33 
-0.0520801 -0.638495 1.41739 0 0 0 
-0.0549284 -0.66419 1.45068 0 0 0 
0.0308712 -0.0494824 1.22271 77 255 49 
-0.0356566 -0.562527 1.39428 0 0 0 
-0.101629 0.526886 1.16968 37 254 30 
-0.187379 0.347642 1.25003 0 0 0 
-0.0744064 -0.563892 1.39791 0 0 0 
-0.165263 -0.273619 1.40842 0 0 0 
-0.159627 -0.186916 1.32565 0 0 0 
-0.118147 0.442671 1.15919 41 42 254 
-0.18214 -0.191725 1.39858 0 0 0 
-0.0490877 -0.158552 1.23575 62 60 63 
-0.216183 0.0797424 1.32627 0 0 0 
-0.107143 0.451473 1.1791 30 28 29 
-0.170344 0.193276 1.23555 0 0 0 
-0.13599 0.318805 1.20353 75 72 253 
-0.189168 0.0999794 1.26643 0 0 0 
0.0120879 -0.33568 1.33203 41 40 254 
-0.0611051 -0.538207 1.38259 0 0 0 
-0.0734891 -0.603861 1.39981 0 0 0 
-0.00160401 -0.0622828 1.21366 44 42 255 
0.034681 -0.267411 1.30891 11 8 254 
-0.20138 0.110944 1.28787 0 0 0 
-0.097456 -0.182524 1.25903 34 255 36 
0.0565188 0.225002 1.20862 23 24 255 
-0.0848931 0.553683 1.15222 21 22 254 
-0.230802 0.605856 1.26245 0 0 0 
0.00394571 -0.120662 1.24257 255 43 42 
-0.141682 -0.100221 1.25065 0 0 0 
-0.200436 0.179502 1.29259 0 0 0 
-0.111182 -0.0429343 1.21407 62 63 254 
0.00196498 -0.243854 1.28873 60 254 63 
-0.195928 0.0914236 1.28382 0 0 0 
0.00132406 0.0198353 1.19299 255 38 38 
-0.173547 0.0697528 1.24625 0 0 0 
-0.176045 0.247084 1.24059 0 0 0 
-0.118932 -0.0566613 1.22544 55 56 254 
-0.185962 0.0566289 1.25427 0 0 0 
-0.0688678 -0.198345 1.24513 254 57 53 
-0.18694 0.142782 1.25803 0 0 0 
-0.170415 0.0935882 1.24594 0 0 0 
-0.199332 0.0850359 1.29082 0 0 0 
-0.0782808 -0.0461692 1.2034 44 42 43 
-0.127546 0.527241 1.17629 45 44 42 
-0.124456 -0.130024 1.25495 0 0 0 
-0.217405 0.534402 1.27668 0 0 0 
-0.118159 0.05299 1.20344 12 10 254 
-0.0971637 0.23844 1.18845 254 55 47 
-0.034044 0.047983 1.18506 255 9 7 
0.104528 0.11372 1.25891 255 59 59 
-0.201482 0.606139 1.20335 8 7 38 
0.0228056 -0.250682 1.30357 56 53 254 
-0.212388 -0.04024 1.33388 0 0 0 
-0.0179355 0.227268 1.17931 49 255 53 
-0.192079 0.0713312 1.26766 0 0 0 
-0.184092 0.108064 1.25852 0 0 0 
-0.179195 0.160091 1.24872 0 0 0 
-0.114458 0.181642 1.19641 35 17 15 
-0.0307021 -0.251789 1.27565 60 56 55 
-0.034926 -0.333712 1.30825 0 0 0 
-0.163597 -0.244573 1.42225 0 0 0 
0.141676 0.258474 1.40198 38 36 37 
-0.115302 -0.305297 1.316 0 0 0 
-0.061747 -0.462844 1.35436 0 0 0 
-0.0849666 0.533217 1.1563 254 41 39 
-0.180196 0.124485 1.24624 0 0 0 
-0.210042 0.122998 1.30991 0 0 0 
-0.0917032 0.269815 1.1814 60 56 53 
-0.0895307 -0.0427703 1.20493 50 51 254 
0.0242034 -0.00212953 1.20307 33 32 30 
-0.224748 0.553964 1.28303 0 0 0 
-0.163995 0.0511088 1.23197 8 5 3 
-0.0913966 -0.39728 1.34214 0 0 0 
-0.0299265 -0.192439 1.25234 48 254 48 
-0.10632 -0.00897086 1.19186 254 59 57 
0.00640429 -0.270063 1.30293 42 39 254 
-0.197978 -0.000725675 1.25527 0 0 0 
-0.110096 -0.394109 1.37358 0 0 0 
0.0780966 -0.0800214 1.25975 32 31 29 
-0.189691 0.42045 1.41061 0 0 0 
0.0471669 -0.116205 1.25689 44 43 41 
-0.137589 -0.225861 1.30712 0 0 0 
-0.159749 -0.106715 1.26324 0 0 0 
-0.133335 -0.00565171 1.20199 52 56 254 
-0.00306401 0.599945 1.11435 254 26 27 
-0.057213 -0.480257 1.36021 0 0 0 
-0.146801 0.167706 1.21804 250 75 71 
-0.206526 0.0573298 1.28776 0 0 0 
-0.0232775 -0.231125 1.27123 254 57 53 
-0.190794 0.36134 1.25171 0 0 0 
-0.145718 0.528224 1.1818 42 43 254 
-0.148553 -0.239336 1.34121 0 0 0 
-0.216571 0.0562188 1.2943 0 0 0 
-0.0732561 -0.334466 1.31126 0 0 0 
-0.221585 0.0307703 1.32419 0 0 0 
-0.0815254 0.11809 1.19207 56 52 53 
-0.0211008 -0.265666 1.28697 51 47 44 
0.0367323 -0.0759621 1.24087 6 6 6 
-0.138791 0.472324 1.18445 71 254 74 
-0.132331 -0.106144 1.25001 1 1 1 
-0.16926 0.147651 1.23965 0 0 0 
-0.0467013 -0.311859 1.29656 0 0 0 
-0.158199 -0.00134609 1.21879 73 73 73 
-0.200124 0.448616 1.26117 0 0 0 
-0.196284 0.416117 1.26015 0 0 0 
-0.0663027 -0.29842 1.29321 0 0 0 
-0.136648 0.114799 1.21382 254 42 41 
-0.209026 0.634289 1.19182 0 0 0 
-0.0207826 0.59689 1.11994 31 26 254 
-0.0484827 0.59917 1.10886 54 254 47 
-0.127756 0.54711 1.17935 32 33 254 
-0.192304 0.125494 1.27065 0 0 0 
-0.158081 0.255925 1.2215 0 0 0 
-0.0702389 0.42723 1.15726 254 54 52 
0.0631489 -0.103382 1.26927 32 255 32 
-0.0972571 0.169726 1.19071 254 65 64 
-0.0865887 0.572754 1.16072 29 254 32 
-0.0314635 -0.128535 1.23261 46 45 40 
-0.0929543 0.488845 1.16634 50 254 51 
-0.00591765 -0.0504201 1.20316 54 52 255 
-0.0838732 0.60707 1.11136 254 9 11 
-0.168472 -0.244485 1.38471 0 0 0 
-0.060033 0.461279 1.15569 254 39 39 
-0.104711 0.295258 1.19105 26 254 39 
-0.0288191 -0.39225 1.33431 0 0 0 
-0.029093 0.602177 1.1118 61 56 254 
-0.180537 0.0348741 1.23444 0 0 0 
0.00297708 0.214568 1.18857 28 29 255 
-0.0775041 0.598884 1.11634 26 254 25 
-0.0770382 -0.376436 1.3267 0 0 0 
-0.0798189 -0.480677 1.36842 0 0 0 
-0.136151 -0.199492 1.28558 0 0 0 
0.0248887 -0.215664 1.2866 35 33 254 
-0.102313 0.411519 1.16621 19 254 27 
-0.0477523 -0.574615 1.42208 0 0 0 
-0.0109948 0.416634 1.1644 11 9 254 
-0.0100051 0.547486 1.1404 51 49 254 
-0.204904 0.098028 1.30383 0 0 0 
-0.210424 0.272798 1.30604 0 0 0 
-0.140795 0.403312 1.18499 254 68 64 
-0.0989091 -0.153469 1.26228 91 86 92 
-0.163314 -0.0954608 1.26195 0 0 0 
-0.170088 -0.218459 1.38293 0 0 0 
-0.150399 -0.10573 1.25765 0 0 0 
-0.206277 0.0294088 1.27988 0 0 0 
-0.0809519 0.585812 1.14804 27 25 254 
-0.0538584 -0.43556 1.34058 0 0 0 
-0.181449 -0.138126 1.34624 0 0 0 
-0.114677 -0.283451 1.30832 0 0 0 
-0.0472959 -0.332268 1.30353 0 0 0 
-0.0600214 0.432658 1.15544 39 37 38 
-0.0267548 0.183016 1.18351 72 68 65 
-0.165427 0.405703 1.21588 0 0 0 
-0.180184 0.307357 1.23965 0 0 0 
-0.206553 0.257364 1.30121 0 0 0 
-0.190582 0.312257 1.25651 0 0 0 
-0.153302 0.328992 1.21365 0 0 0 
-0.0720891 -0.493281 1.37164 0 0 0 
-0.174908 0.279534 1.24411 0 0 0 
-0.21471 0.154841 1.32136 0 0 0 
-0.0547075 -0.0575439 1.19663 59 254 59 
-0.169204 -0.253939 1.43535 0 0 0 
-0.176679 -0.0628824 1.27863 0 0 0 
-0.138227 0.534117 1.17504 254 44 42 
0.0134734 0.0103315 1.19823 43 44 255 
-0.0109716 -0.0205043 1.18671 255 53 52 
-0.122699 0.601641 1.14228 17 15 254 
-0.0800742 -0.111661 1.22922 254 50 49 
-0.0747216 -0.30967 1.30221 0 0 0 
-0.13943 0.162962 1.21347 254 36 33 
-0.065062 -0.697628 1.41087 0 0 0 
-0.1447 0.14815 1.22066 255 58 54 
-0.198109 0.343161 1.27121 0 0 0 
-0.155778 -0.053751 1.237 0 0 0 
0.0819831 -0.0693187 1.25537 255 40 39 
-0.0259155 -0.0546294 1.20058 255 34 31 
0.00927968 -0.362335 1.33833 255 69 68 
-0.155098 -0.0335635 1.22838 83 62 65 
-0.0439788 0.259929 1.17828 51 50 48 
-0.0866909 -0.426693 1.35183 0 0 0 
-0.0971114 -0.049719 1.21764 254 46 46 
-0.128205 0.361806 1.18958 254 56 52 
-0.191969 0.253107 1.26238 0 0 0 
-0.19004 0.379008 1.25599 0 0 0 
-0.0596529 -0.000949296 1.19636 25 254 31 
-0.144103 -0.191111 1.29194 0 0 0 
-0.115989 0.32139 1.18842 51 46 254 
-0.152825 0.0946681 1.22619 58 9 10 
-0.171292 0.00177042 1.2442 1 1 1 
0.00285911 -0.195923 1.26954 40 34 254 
-0.00665612 -0.190488 1.26173 254 25 24 
-0.0851963 0.359385 1.17511 47 43 254 
-0.0681439 -0.405857 1.3374 0 0 0 
-0.0428784 0.304431 1.17091 255 37 36 
0.0531102 0.0446076 1.21168 30 28 29 
-0.0553239 0.479145 1.14915 254 28 26 
0.0372216 0.173841 1.20475 49 46 255 
-0.214703 0.000414832 1.27884 0 0 0 
-0.0496672 0.267781 1.17507 42 41 255 
-0.144336 0.134735 1.21764 66 255 75 
-0.0684149 -0.0140143 1.19783 51 52 254 
-0.179444 -0.079848 1.30162 0 0 0 
-0.166694 0.305063 1.22677 0 0 0 
-0.200852 0.0553228 1.27225 0 0 0 
-0.114854 -0.373279 1.36384 0 0 0 
-0.185743 0.543024 1.21118 49 53 230 
-0.213898 0.00404425 1.26636 0 0 0 
-0.00737257 0.0286126 1.19007 51 255 51 
-0.0943154 -0.409331 1.35191 0 0 0 
-0.141035 0.54329 1.16953 28 27 25 
-0.16651 -0.0458016 1.25259 0 0 0 
-0.145898 -0.133719 1.26562 0 0 0 
-0.0621404 -0.105726 1.22037 57 55 254 
-0.154197 -0.0723611 1.24653 0 0 0 
-0.170196 -0.117742 1.30084 0 0 0 
-0.0834774 -0.0973178 1.22865 44 42 254 
0.0290302 0.471622 1.16181 16 254 5 
-0.183732 0.38512 1.24147 0 0 0 
0.0907946 0.256971 1.23447 255 26 25 
-0.102913 0.040336 1.19465 254 64 63 
0.0317854 0.112298 1.20516 255 58 58 
-0.180343 0.196982 1.25059 0 0 0 
-0.188347 0.0805989 1.26572 0 0 0 
-0.17983 -0.0558585 1.26942 0 0 0 
-0.0670217 -0.158435 1.24405 55 53 54 
-0.0666051 0.331408 1.17391 40 255 46 
-0.119031 -0.325579 1.34185 0 0 0 
-0.123997 -0.278028 1.31476 0 0 0 
-0.215229 0.599799 1.24105 5 1 1 
0.046201 -0.164896 1.28757 38 255 40 
-0.12995 0.166556 1.20624 66 54 254 
-0.171685 -0.187474 1.3572 0 0 0 
0.0397894 0.114712 1.21303 51 51 255 
-0.10592 0.073303 1.20539 27 27 27 
-0.113479 0.607759 1.0956 254 46 45 
-0.161793 0.099202 1.29396 0 0 0 
0.0118733 0.0209554 1.19416 40 43 255 
-0.0374142 0.344417 1.17006 254 38 37 
-0.000954533 -0.218327 1.27575 56 51 254 
-0.206515 0.467908 1.27199 0 0 0 
-0.0211886 -0.294693 1.29836 55 54 254 
-0.195413 0.104506 1.27586 0 0 0 
-0.036482 0.595415 1.13314 29 22 254 
-0.0274845 0.01663 1.1843 255 33 31 
0.0293838 -0.0407583 1.21657 57 54 49 
-0.164515 -0.127063 1.2896 0 0 0 
-0.199497 0.497849 1.23718 0 0 0 
0.0186389 -0.123427 1.24703 38 255 39 
-0.0184995 -0.174799 1.2501 254 40 37 
-0.0233072 0.55579 1.13721 57 53 254 
-0.175255 0.438176 1.22199 0 0 0 
-0.129253 -0.181642 1.26773 0 0 0 
-0.0805301 -0.388739 1.33364 0 0 0 
-0.191684 0.275635 1.26092 0 0 0 
-0.0438732 0.11781 1.18874 45 44 42 
-0.0772507 0.48051 1.16025 254 62 61 
-0.180992 -0.0150647 1.24363 0 0 0 
-0.0513152 -0.0684671 1.20281 56 55 254 
-0.155811 -0.0440186 1.23498 0 0 0 
-0.188274 0.280588 1.25359 0 0 0 
-0.0391753 -0.325418 1.30327 0 0 0 
-0.193446 0.531912 1.2312 0 0 0 
-0.155778 0.422848 1.20141 66 62 206 
-0.150374 0.246554 1.21498 15 48 13 
-0.0437347 -0.233033 1.2668 254 37 31 
-0.0515043 -0.270861 1.27647 90 91 97 
-0.122543 -0.014375 1.20211 47 254 50 
-0.177861 0.425033 1.22824 0 0 0 
-0.180268 0.288737 1.24733 0 0 0 
-0.192449 -0.0940847 1.35458 0 0 0 
-0.0506962 -0.383167 1.32214 0 0 0 
-0.0378135 0.443559 1.15915 36 36 36 
-0.147621 0.0642628 1.22347 19 19 254 
-0.0872122 0.576198 1.14756 254 30 28 
-0.178337 0.342703 1.23701 0 0 0 
-0.0224581 0.203916 1.18303 45 255 52 
-0.209331 0.211813 1.30537 0 0 0 
0.00948872 0.244289 1.18714 255 34 30 
-0.069085 0.393214 1.16266 254 47 46 
-0.15291 0.273272 1.21455 1 2 1 
-0.112095 -0.199787 1.26023 0 0 0 
0.00749296 -0.0258503 1.19304 60 255 68 
-0.0669623 -0.0515984 1.20124 254 43 43 
-0.16634 0.601195 1.15368 254 39 38 
0.0243027 0.016127 1.20455 255 3 1 
-0.0865106 -0.112731 1.24326 254 45 44 
0.000798605 0.339166 1.17558 23 21 22 
-0.0715171 -0.537255 1.387 0 0 0 
0.0114273 0.347877 1.17707 25 26 254 
-0.0798932 0.60759 1.12632 14 13 11 
-0.164768 0.505863 1.19136 250 55 54 
-0.077205 0.49823 1.15244 36 34 254 
-0.0930083 0.078584 1.19711 254 58 57 
-0.098326 -0.313956 1.31418 0 0 0 
-0.141242 0.511013 1.17932 51 254 47 
-0.12884 0.349158 1.18523 57 53 50 
-0.0157871 -0.129335 1.23882 47 46 44 
0.0270537 -0.0705608 1.23369 36 37 255 
-0.182551 -0.00378481 1.23914 0 0 0 
0.0623067 0.594707 1.15312 254 32 36 
-0.166479 0.527806 1.19545 37 37 37 
-0.0690195 0.475914 1.15059 39 254 42 
-0.0864133 0.184027 1.18595 254 84 80 
-0.145583 0.620722 1.11816 54 49 254 
-0.20243 0.189339 1.30013 0 0 0 
-0.0296857 -0.172045 1.24739 46 41 254 
-0.0387958 0.283862 1.17373 50 254 50 
-0.113571 -0.232741 1.26439 0 0 0 
-0.160226 0.532239 1.18782 254 29 27 
-0.135196 0.565125 1.1621 254 38 36 
-0.0156134 0.146297 1.19007 23 22 255 
-0.186653 0.184799 1.26396 0 0 0 
-0.150866 0.600287 1.1662 31 29 254 
-0.0741993 -0.0798008 1.22867 58 56 57 
-0.139187 0.393541 1.18689 54 254 57 
-0.0203696 0.440804 1.16424 254 27 27 
-0.142094 0.0838406 1.22165 43 252 37 
-0.106243 0.2878 1.19623 254 38 22 
-0.0462475 0.219095 1.17773 48 47 45 
-0.0495916 -0.0790431 1.21012 49 45 42 
-0.0678195 -0.320186 1.29997 0 0 0 
-0.171593 -0.133309 1.31812 0 0 0 
-0.00823744 -0.344539 1.32695 27 26 32 
-0.0613185 -0.0675904 1.21778 37 36 34 
-0.131284 -0.277713 1.47149 0 0 0 
-0.0602224 -0.600037 1.39338 0 0 0 
-0.0884761 0.479143 1.16812 254 42 40 
-0.220652 0.25488 1.3411 0 0 0 
-0.0445134 -0.674974 1.41328 0 0 0 
-0.218165 0.211232 1.35228 0 0 0 
-0.213685 0.0919261 1.31496 0 0 0 
-0.186917 0.176693 1.25709 0 0 0 
-0.178955 -0.149563 1.34568 0 0 0 
-0.15386 0.438113 1.19349 45 254 53 
-0.18659 -0.165293 1.37409 0 0 0 
-0.136002 -0.26457 1.32964 0 0 0 
-0.131538 -0.160758 1.27025 52 37 40 
-0.211704 0.250568 1.30433 0 0 0 
-0.0985589 0.367922 1.17847 59 55 254 
-0.15917 -0.181657 1.32085 0 0 0 
-0.20257 0.14366 1.28535 0 0 0 
-0.213281 0.289792 1.31463 0 0 0 
-0.213037 0.326547 1.30624 0 0 0 
-0.149817 -0.205403 1.31235 0 0 0 
-0.108724 0.363592 1.16862 254 63 62 
-0.175723 -0.0545159 1.26038 0 0 0 
-0.199394 0.460835 1.24815 0 0 0 
-0.134559 -0.257428 1.32197 0 0 0 
-0.209425 0.472408 1.26255 0 0 0 
-0.0791844 -0.456771 1.36233 0 0 0 
-0.208558 0.0396317 1.28797 0 0 0 
-0.0782318 0.543214 1.14581 43 254 42 
-0.206172 0.0615459 1.2808 0 0 0 
-0.193053 0.0617482 1.25736 0 0 0 
-0.0844568 0.526142 1.1584 50 51 254 
-0.160142 -0.23983 1.37416 0 0 0 
-0.185088 0.416449 1.23976 0 0 0 
-0.144079 -0.0187725 1.21307 254 42 42 
-0.190162 0.235105 1.25861 0 0 0 
-0.11207 -0.0518595 1.21917 254 43 45 
-0.122724 -0.359925 1.37889 0 0 0 
-0.162014 0.00772198 1.22849 31 31 254 
-0.20874 0.484654 1.25683 0 0 0 
-0.0654338 -0.486673 1.36498 0 0 0 
-0.213768 0.335253 1.31392 0 0 0 
-0.240272 0.617999 1.24815 0 0 0 
-0.0471315 -0.110406 1.22251 48 45 255 
-0.219408 0.0794893 1.35065 0 0 0 
-0.186408 0.619507 1.10201 11 10 9 
-0.185822 0.204912 1.25598 0 0 0 
-0.21352 0.072843 1.31692 0 0 0 
-0.14042 -0.154782 1.27035 1 2 2 
-0.165552 -0.189537 1.34506 0 0 0 
-0.192406 0.0292876 1.25904 0 1 1 
-0.16476 0.0702352 1.2372 254 23 22 
-0.215255 0.0288451 1.29973 0 0 0 
-0.0969685 0.150076 1.19223 74 254 57 
-0.0889821 -0.486324 1.3941 0 0 0 
-0.184418 -0.124119 1.34343 0 0 0 
-0.169208 -0.201436 1.3681 0 0 0 
-0.0896425 -0.321148 1.31356 0 0 0 
-0.0874708 -0.29568 1.30261 0 0 0 
-0.0131592 -0.474475 1.37033 0 0 0 
-0.209101 0.102574 1.44969 0 0 0 
-0.115107 0.298842 1.19511 28 29 254 
-0.0607716 -0.507627 1.37087 0 0 0 
-0.192256 0.152119 1.26895 0 0 0 
-0.185323 0.227012 1.25431 0 0 0 
-0.0861389 0.30219 1.18185 254 49 45 
-0.102524 -0.0610995 1.21835 36 34 254 
-0.0772222 0.538373 1.16343 35 254 32 
-0.133167 -0.0814844 1.24292 92 90 254 
-0.14891 -0.221049 1.32752 0 0 0 
-0.195756 0.161882 1.27222 0 0 0 
-0.139185 -0.294396 1.37495 0 0 0 
-0.103918 -0.273686 1.29864 0 0 0 
-0.212477 0.413553 1.30156 0 0 0 
-0.228983 0.0593886 1.34257 0 0 0 
-0.172454 0.406462 1.22524 73 70 61 
-0.21198 0.10393 1.31315 0 0 0 
-0.118514 -0.264225 1.30188 0 0 0 
-0.19911 0.0390578 1.26599 0 0 0 
-0.12867 0.323246 1.19829 51 254 55 
-0.185056 0.215453 1.25303 0 0 0 
-0.098638 -0.139433 1.2474 37 36 34 
-0.165493 0.0916219 1.238 254 50 50 
-0.185459 -0.15103 1.36826 0 0 0 
-0.21219 0.112026 1.32001 0 0 0 
-0.184497 -0.0575153 1.28478 0 0 0 
-0.0173561 0.612343 1.11299 36 31 254 
-0.031045 -0.643391 1.4449 0 0 0 
-0.22189 -0.0111365 1.31885 0 0 0 
-0.183837 -0.102717 1.32138 0 0 0 
-0.00476772 0.0935352 1.19551 255 33 32 
-0.204103 0.0387754 1.2775 0 0 0 
-0.174692 -0.0665342 1.26982 0 0 0 
-0.14528 0.302818 1.2086 254 65 63 
-0.168121 0.202254 1.23192 254 55 51 
-0.243475 0.606719 1.3287 0 0 0 
-0.0175115 0.0599935 1.29117 17 255 17 
-0.174736 0.169656 1.24196 85 84 79 
-0.200758 0.365531 1.26959 0 0 0 
-0.13344 0.0803527 1.21544 254 47 46 
-0.225577 0.0027551 1.30992 0 0 0 
-0.180439 0.134734 1.25149 0 0 0 
-0.187439 0.012715 1.25104 9 7 252 
-0.199983 0.318429 1.29143 0 0 0 
-0.130877 -0.324451 1.36867 0 0 0 
-0.0874666 -0.125141 1.23753 34 30 254 
-0.206735 0.225751 1.30421 0 0 0 
-0.119036 -0.0801911 1.23663 47 254 51 
-0.23886 0.605714 1.24462 0 0 0 
-0.0839317 0.506458 1.16214 254 60 58 
-0.131966 -0.273148 1.3241 0 0 0 
-0.134013 -0.0409354 1.22145 65 65 254 
-0.129303 0.603935 1.12842 254 26 24 
-0.0336088 0.103596 1.19203 41 41 255 
-0.0741222 0.145764 1.18979 46 255 52 
-0.235472 0.607703 1.23246 0 0 0 
-0.196239 0.346848 1.25199 0 0 0 
-0.0803737 -0.6131 1.40328 0 0 0 
-0.123875 -0.340679 1.36311 0 0 0 
-0.0657222 -0.0217288 1.18639 255 48 48 
-0.202971 0.424888 1.26783 0 0 0 
-0.158951 0.517704 1.1911 32 254 33 
-0.206591 0.537383 1.24711 112 22 22 
-0.0933088 -0.458476 1.37968 0 0 0 
-0.194504 0.502752 1.23049 18 17 15 
-0.106275 -0.401317 1.36861 0 0 0 
-0.159631 -0.0931364 1.25552 0 0 0 
-0.140061 0.28679 1.20667 51 40 254 
-0.147312 -0.166142 1.28654 0 0 0 
-0.172405 0.0246437 1.23522 0 0 0 
-0.0912025 -0.449632 1.32877 0 0 0 
-0.123022 0.483905 1.17937 2 0 0 
-0.106943 0.202274 1.19387 0 0 0 
-0.0474023 -0.619508 1.41999 0 0 0 
-0.192 0.113205 1.26907 0 0 0 
-0.143127 0.0311199 1.21357 0 254 1 
-0.205459 0.168795 1.28825 0 0 0 
-0.183776 0.45539 1.22832 0 0 0 
-0.16457 0.319672 1.22353 0 0 0 
-0.0695588 -0.142384 1.24041 254 55 54 
-0.151606 0.0794724 1.22812 74 79 85 
-0.236985 0.109348 1.46866 0 0 0 
-0.196145 0.0871339 1.47344 0 0 0 
-0.145779 0.520176 1.18603 46 47 254 
-0.176151 0.236056 1.24059 124 37 37 
-0.214182 0.130642 1.31829 0 0 0 
-0.158623 -0.115439 1.2705 0 0 0 
-0.123475 -0.325304 1.46824 0 0 0 
-0.139106 0.211425 1.20991 254 48 45 
0.0312278 -0.00358385 1.23175 255 27 26 
-0.186142 0.11854 1.26083 0 0 0 
-0.220106 0.111761 1.48414 0 0 0 
-0.187408 0.166273 1.26073 0 0 0 
-0.170552 0.377936 1.22388 255 80 79 
-0.182165 0.318119 1.24844 0 0 0 
-0.102964 0.31422 1.19021 43 42 37 
-0.192322 0.291786 1.26035 0 0 0 
-0.175921 0.257287 1.23791 35 150 46 
-0.217336 0.123618 1.38532 0 0 0 
-0.0506804 -0.627864 1.38635 0 0 0 
-0.219887 0.162435 1.37092 0 0 0 
-0.0965365 -0.467992 1.40194 0 0 0 
-0.217646 0.307999 1.34486 0 0 0 
-0.199113 -0.115403 1.36874 0 0 0 
-0.225135 0.475831 1.33942 0 0 0 
-0.173238 -0.0913255 1.28787 254 44 40 
-0.21807 0.2759 1.35127 0 0 0 
-0.19588 -0.132561 1.37513 0 0 0 
-0.211246 0.34054 1.30299 0 0 0 
-0.177483 -0.101573 1.30162 2 1 2 
-0.134688 -0.190326 1.53212 0 0 0 
-0.218398 0.332281 1.33927 0 0 0 
-0.103415 -0.436115 1.39942 0 0 0 
-0.213593 0.441561 1.37601 0 0 0 
-0.196461 0.139173 1.27678 73 255 60 
-0.178063 -0.113383 1.31576 0 0 0 
-0.158107 -0.256331 1.38383 0 0 0 
-0.0736416 -0.560896 1.407 0 0 0 
-0.216502 0.324525 1.32244 0 0 0 
-0.133234 -0.330825 1.38191 0 0 0 
-0.114689 -0.321219 1.32475 0 0 0 
-0.144003 -0.302023 1.38975 0 0 0 
-0.228954 0.0743451 1.35952 0 0 0 
-0.214883 0.410073 1.33252 0 0 0 
-0.214285 0.354816 1.31258 0 0 0 
-0.157676 -0.223613 1.34906 0 0 0 
-0.097471 -0.450948 1.39281 0 0 0 
-0.199815 0.301154 1.28312 0 1 0 
-0.149687 -0.287939 1.3883 0 0 0 
-0.218393 0.198867 1.34034 0 0 0 
-0.201582 -0.077969 1.34761 0 0 0 
-0.208304 -0.0841694 1.3686 0 0 0 
-0.21767 0.207489 1.31854 0 0 0 
-0.216426 0.38224 1.3249 0 0 0 
-0.219025 -0.0317083 1.33794 0 0 0 
-0.179698 -0.182724 1.37967 0 0 0 
-0.214089 0.317238 1.316 0 0 0 
-0.22154 0.175102 1.35691 0 0 0 
-0.0706604 -0.521881 1.38206 0 0 0 
-0.21853 0.204784 1.37179 0 0 0 
-0.212854 0.264332 1.31101 0 0 0 
-0.216973 0.0665521 1.43023 0 0 0 
-0.100509 -0.38997 1.35126 0 0 0 
-0.0737912 -0.603481 1.41155 0 0 0 
-0.15769 -0.205166 1.33807 0 0 0 
-0.212554 0.142936 1.30706 0 0 0 
-0.115864 -0.403633 1.39987 0 0 0 
-0.215048 0.227762 1.31952 0 0 0 
-0.0860933 -0.469214 1.37481 0 0 0 
-0.206273 -0.0992694 1.36927 0 0 0 
-0.194905 0.0679019 1.27747 35 34 254 
-0.163116 -0.164156 1.31635 10 7 7 
-0.20494 0.119034 1.29744 0 0 0 
-0.163098 0.388411 1.21572 48 254 62 
-0.217251 0.190103 1.33201 0 0 0 
-0.115265 -0.337355 1.34016 0 0 0 
-0.190452 -0.0466347 1.28553 51 50 48 
-0.205547 0.152392 1.29052 0 0 0 
-0.228134 0.0376374 1.34268 0 0 0 
-0.217063 0.477898 1.2731 0 0 0 
-0.111232 -0.415087 1.39666 0 0 0 
-0.150756 -0.182662 1.30646 13 20 134 
-0.21815 0.161588 1.38756 0 0 0 
-0.223769 -0.0140886 1.32806 0 0 0 
-0.220228 0.118253 1.35673 0 0 0 
-0.145723 -0.216248 1.31312 14 9 6 
-0.216875 0.0835352 1.33942 0 0 0 
-0.190657 -0.15448 1.37893 0 0 0 
-0.122265 -0.374052 1.39148 0 0 0 
-0.202251 0.394586 1.27187 0 0 0 
-0.228558 0.00404424 1.32419 0 0 0 
-0.230363 0.0562444 1.35897 0 0 0 
-0.217386 0.302884 1.33181 0 0 0 
-0.166337 -0.173909 1.33408 0 0 0 
-0.215367 0.141497 1.32383 0 0 0 
-0.152081 -0.147543 1.27668 48 254 50 
-0.217947 0.155675 1.33891 0 0 0 
-0.117214 -0.385915 1.39505 0 0 0 
-0.137999 -0.268483 1.34073 0 0 0 
-0.147526 -0.250067 1.35174 0 0 0 
-0.169544 0.348104 1.22489 53 41 254 
-0.105806 -0.366924 1.46173 0 0 0 
-0.1857 0.0316611 1.25092 41 254 51 
-0.221439 0.089328 1.35367 0 0 0 
-0.229473 0.0167258 1.36289 0 0 0 
-0.202497 0.406359 1.27173 0 0 0 
-0.175148 -0.243314 1.42081 0 0 0 
-0.189818 0.490931 1.21769 45 254 35 
-0.0947732 -0.282904 1.29809 104 106 114 
-0.162042 0.43224 1.21348 49 45 254 
-0.194551 0.429174 1.25213 47 254 43 
-0.230892 0.566548 1.28067 231 57 58 
-0.0922752 -0.483083 1.40207 0 0 0 
-0.215975 -0.0245517 1.32604 0 0 0 
-0.158373 -0.127344 1.27493 50 46 43 
-0.205737 0.349761 1.28066 0 0 0 
-0.245244 0.607871 1.27019 1 0 0 
-0.168281 -0.0732614 1.25787 33 254 31 
-0.224993 -0.0275039 1.35416 0 0 0 
-0.137208 -0.322024 1.39286 0 0 0 
-0.172544 0.116118 1.48414 0 0 0 
-0.105707 -0.389756 1.46173 0 0 0 
-0.201433 -0.00378337 1.26578 254 52 51 
-0.184188 0.361618 1.24277 79 75 64 
-0.216009 0.292124 1.32622 0 0 0 
-0.197224 -0.0341235 1.28325 44 252 42 
-0.168392 -0.209767 1.37329 0 0 0 
-0.218939 0.241429 1.33305 0 0 0 
-0.224709 0.505623 1.30524 0 0 0 
-0.234565 0.606356 1.31053 0 0 0 
-0.229717 -0.0190465 1.36032 0 0 0 
-0.0725734 -0.531475 1.43837 0 0 0 
-0.217145 0.250398 1.36643 0 0 0 
-0.171694 0.279118 1.23267 46 40 254 
-0.230491 0.0474689 1.36608 0 0 0 
-0.220812 0.048224 1.31464 0 0 0 
-0.203752 0.509161 1.2406 54 51 254 
-0.212284 -0.075568 1.37222 0 0 0 
-0.21353 0.214952 1.39891 0 0 0 
-0.221018 0.0142581 1.31376 0 0 0 
-0.163174 -0.228248 1.37229 0 0 0 
-0.121399 -0.314641 1.33357 0 0 0 
-0.208037 0.157975 1.30217 0 0 0 
-0.196384 -0.0462334 1.30126 0 0 0 
-0.103908 0.609948 1.11551 14 254 21 
-0.194273 0.177912 1.26717 254 60 56 
-0.221996 -0.0430557 1.36147 0 0 0 
-0.226207 0.545308 1.28641 39 38 137 
-0.214949 0.620912 1.44024 0 0 0 
-0.155447 0.347584 1.21309 254 72 71 
-0.227199 -0.016591 1.34669 0 0 0 
-0.0765046 -0.521008 1.39046 0 0 0 
-0.213102 0.54314 1.25444 254 50 49 
-0.218361 0.0375468 1.30826 0 0 0 
-0.225593 0.0256648 1.33795 0 0 0 
-0.145747 -0.180945 1.28608 30 26 254 
-0.199563 0.22048 1.29369 0 0 0 
-0.125834 -0.242111 1.29492 34 255 31 
-0.200572 0.438585 1.26437 255 42 41 
-0.168735 0.25359 1.23065 68 64 53 
-0.135753 -0.287506 1.35906 0 0 0 
-0.0763242 -0.537363 1.39669 0 0 0 
-0.219461 0.108071 1.35594 0 0 0 
-0.229416 0.016568 1.34913 0 0 0 
-0.218592 0.466872 1.30309 0 0 0 
-0.109506 -0.347994 1.33405 0 0 0 
-0.204488 0.477925 1.2481 67 253 69 
-0.164426 -0.113824 1.28801 51 50 45 
-0.220631 0.146274 1.35711 0 0 0 
-0.222222 0.522749 1.28299 5 1 1 
-0.199928 0.0287565 1.26999 54 52 254 
-0.105711 -0.369338 1.34027 0 0 0 
-0.168722 -0.149408 1.32025 0 0 0 
-0.0828643 -0.511044 1.39441 0 0 0 
-0.19171 0.419353 1.24788 49 254 62 
-0.216585 0.205894 1.32975 0 0 0 
-0.0852352 -0.0518005 1.2084 255 32 32 
-0.17106 0.619033 1.12885 3 0 0 
-0.225976 0.0511529 1.41325 0 0 0 
-0.214614 0.431643 1.30818 0 0 0 
-0.229717 0.0288421 1.39011 0 0 0 
-0.216187 0.492296 1.26826 1 0 0 
-0.187109 0.299807 1.25008 254 14 11 
-0.119705 0.173378 1.20081 8 254 16 
-0.208945 0.111928 1.3074 0 0 0 
-0.17064 -0.085072 1.27521 254 67 66 
-0.203106 0.0194334 1.26711 30 30 28 
-0.162936 0.279116 1.22383 66 63 54 
-0.176493 -0.169891 1.35838 0 0 0 
-0.0983194 0.253961 1.18795 49 39 37 
-0.215658 0.348115 1.32011 0 0 0 
-0.215127 0.0161518 1.30416 13 13 10 
-0.233067 0.558452 1.33 0 0 0 
-0.21763 0.439918 1.33229 0 0 0 
-0.231335 0.556144 1.3081 0 0 0 
-0.0897624 -0.419849 1.35626 0 0 0 
-0.224389 0.0493454 1.33228 0 0 0 
-0.233394 0.00481728 1.33891 0 0 0 
-0.25205 0.607844 1.29922 0 0 0 
-0.167751 -0.0536378 1.24142 89 88 86 
-0.177701 0.143717 1.24701 53 52 48 
-0.12714 -0.356914 1.39085 0 0 0 
-0.213654 -0.0479895 1.34817 0 0 0 
-0.235411 0.605458 1.28921 9 1 1 
-0.214731 0.240569 1.31588 0 0 0 
-0.129137 0.187021 1.20351 10 2 0 
-0.210211 0.165207 1.31288 0 0 0 
-0.159143 0.177515 1.23015 254 90 86 
-0.236838 0.0118531 1.37035 0 0 0 
-0.213512 -0.00973285 1.29415 78 85 113 
-0.196504 0.521753 1.22995 254 57 53 
-0.145198 -0.262001 1.35485 0 0 0 
-0.0675352 0.441393 1.15709 26 254 26 
-0.173197 -0.0249751 1.23737 32 254 37 
-0.201764 0.126568 1.28407 20 25 10 
-0.244103 0.609588 1.2553 0 0 0 
-0.145332 0.402587 1.19369 21 254 32 
-0.0907034 -0.477966 1.39279 0 0 0 
-0.18616 -0.109453 1.32801 0 0 0 
-0.105096 -0.171773 1.26031 254 37 35 
-0.228741 0.028043 1.36475 0 0 0 
-0.173415 0.418381 1.22441 254 57 53 
-0.203759 -0.0261497 1.29337 56 199 30 
-0.208831 0.3394 1.29287 0 0 0 
-0.0896823 -0.439605 1.36079 0 0 0 
-0.201193 0.541552 1.23136 254 41 40 
-0.213017 0.312467 1.30089 0 0 0 
-0.208067 0.0145294 1.28204 13 13 15 
-0.108756 0.350416 1.17498 254 45 41 
-0.177392 0.523028 1.20751 30 30 30 
-0.186506 -0.0900686 1.31897 0 0 0 
-0.160215 0.269682 1.22024 254 49 45 
-0.17714 0.361103 1.23332 61 58 254 
-0.19185 -0.0815743 1.3236 0 0 0 
-0.226167 -0.0349895 1.37273 0 0 0 
-0.211511 0.0816595 1.3059 0 0 0 
-0.146912 0.342976 1.20538 70 67 62 
-0.114643 0.149588 1.19953 255 53 49 
