ply                 
format ascii 1.0    
element vertex 924
property float x    
property float y    
property float z    
property uchar red  
property uchar green
property uchar blue 
end_header          
-0.798763 0.0760049 4.43996 62 49 17 
1.45538 -0.468187 4.35107 116 54 5 
1.52291 -0.426363 4.10637 126 90 12 
-0.547764 -0.322079 4.6388 115 142 127 
-0.500068 -0.228813 4.63514 128 110 100 
-0.547494 -0.184349 4.70639 0 25 6 
1.14429 -0.169075 4.76445 120 79 0 
-0.288424 -0.10475 4.65511 113 106 80 
-0.337838 -0.0526363 4.62482 18 20 0 
-0.242195 -0.0439705 4.61842 103 81 44 
-1.05922 -0.0211825 4.38238 59 36 0 
0.836171 -0.0342774 4.68746 47 47 45 
-1.01582 -0.0094074 4.38573 107 84 43 
-0.701716 0.0179831 4.50836 163 160 119 
0.831539 0.014669 4.67504 117 119 118 
-0.447227 0.0364619 4.63322 25 60 20 
-0.457612 0.0469449 4.63347 159 155 110 
-1.88231 0.0881408 6.43612 70 38 0 
-1.86275 0.128195 6.4407 54 28 0 
-1.90243 0.15254 6.41185 73 50 8 
-0.785538 0.136907 4.42464 44 33 1 
0.555996 0.221863 5.45682 147 149 148 
0.439157 0.253467 5.49789 132 128 127 
-1.50565 0.354552 6.33851 167 135 26 
-0.399695 0.274871 4.70527 124 103 76 
1.15924 0.345602 4.45801 183 186 191 
0.0832622 0.508145 5.40358 32 36 35 
0.399242 0.585047 5.98307 41 0 0 
0.330501 0.716911 5.92466 207 170 30 
1.17791 1.37403 6.54093 42 17 0 
1.19255 -0.825775 5.88241 138 118 91 
0.0222633 -0.62172 4.72553 52 124 74 
1.38955 -0.57495 4.30438 133 99 10 
0.68033 -0.570321 5.53644 36 94 69 
-0.523039 -0.296501 4.61754 24 78 52 
-0.431614 -0.263641 4.59152 24 55 37 
-0.481969 -0.237171 4.6329 66 22 19 
-0.559748 -0.236447 4.7285 96 110 97 
-0.478587 -0.230156 4.60662 76 31 26 
-0.451903 -0.212669 4.62869 52 15 9 
-0.45304 -0.197043 4.64236 51 21 13 
-0.547658 -0.183739 4.70384 0 25 6 
-0.451912 -0.166222 4.68222 96 102 90 
0.512209 -0.201452 5.67195 149 128 39 
-0.211769 -0.138422 4.6804 25 60 30 
-0.185204 -0.114062 4.67252 88 75 41 
-0.298947 -0.0802821 4.60587 11 24 4 
-0.267698 -0.0589156 4.59548 62 46 13 
-0.356139 -0.0455384 4.62729 139 130 101 
-0.31125 -0.0285614 4.60329 106 84 47 
-0.404148 -0.0220948 4.63057 5 51 22 
-0.283515 -0.00520712 4.5851 119 96 55 
0.829154 -0.00298319 4.67084 16 16 14 
0.773609 0.0183934 4.71208 143 144 146 
-1.90462 0.0540697 6.41992 205 153 8 
-0.997451 0.0290823 4.39639 49 25 1 
-0.447347 0.0349855 4.63316 26 68 28 
-1.8977 0.0679362 6.42328 204 156 10 
-0.704347 0.0386439 4.50264 22 24 0 
0.331865 0.0445103 5.42742 119 120 122 
0.776383 0.0365098 4.72018 51 51 51 
1.06554 0.0486285 4.50456 121 64 0 
1.04808 0.0833895 4.51391 84 46 0 
-1.88017 0.165207 6.41999 225 184 18 
1.01748 0.102168 4.53128 154 126 19 
1.03011 0.118206 4.53562 21 15 3 
-0.785426 0.13474 4.42844 43 34 5 
0.493011 0.200715 5.51102 2 2 2 
0.441949 0.253568 5.49874 131 127 126 
0.856518 0.228604 4.67324 36 27 12 
0.889968 0.253768 4.6753 158 133 17 
1.07758 0.248169 4.49471 124 122 125 
-1.67478 0.406898 6.39147 83 41 3 
0.908676 0.286274 4.61986 37 29 6 
0.542215 0.348781 5.44364 85 82 75 
0.90604 0.304841 4.62283 200 170 36 
-1.87746 0.490749 6.37789 162 128 21 
-1.82909 0.497764 6.41043 44 17 0 
-1.79856 0.502126 6.40012 161 119 9 
-1.83739 0.521744 6.39201 162 124 13 
-1.79194 0.552608 6.39039 132 69 2 
0.0641647 0.514377 5.40526 136 137 139 
0.385132 0.604305 5.97128 141 113 6 
-2.2828 0.660849 6.06935 239 227 211 
0.286915 0.644102 5.85538 188 158 26 
-0.590854 1.08623 7.32383 72 44 0 
0.446577 1.41151 6.73253 61 29 0 
1.13395 -0.870543 5.88158 42 18 0 
1.20129 -0.826142 5.88265 128 115 83 
1.5402 -0.329233 4.18781 111 59 2 
-0.543059 -0.310063 4.62042 109 126 116 
-0.590272 -0.244928 4.76883 5 9 8 
-0.473974 -0.223822 4.61157 65 28 22 
-0.507209 -0.205725 4.64557 39 21 9 
-0.210195 -0.143053 4.68693 18 61 31 
-0.303313 -0.0839499 4.6169 7 32 10 
1.35341 -0.0775545 4.46532 238 198 14 
-0.27169 -0.0623205 4.61242 84 69 38 
-0.244428 -0.0640607 4.61316 192 175 132 
-0.308211 -0.0310326 4.60709 103 83 46 
-0.40592 -0.023498 4.63205 5 56 25 
0.828351 0.0229416 4.67399 109 111 110 
1.18377 0.0335513 4.52088 199 122 8 
-1.88599 0.0958142 6.44269 68 41 11 
1.06381 0.0475593 4.49609 121 64 0 
-0.802412 0.0863965 4.43124 31 22 5 
0.43402 0.141105 5.46151 126 123 116 
-0.785277 0.129929 4.4297 41 34 8 
0.286272 0.160369 5.44016 8 9 11 
-1.87728 0.219368 6.3692 73 40 9 
-0.377032 0.176621 4.6569 37 22 0 
0.511893 0.21468 5.48876 135 137 136 
0.580278 0.230466 5.44674 27 27 25 
0.504787 0.274671 5.44591 132 136 135 
0.91365 0.28424 4.6233 30 27 20 
1.10165 0.319204 4.49263 184 184 186 
-1.87645 0.482342 6.38571 162 129 13 
-1.82546 0.497182 6.4017 44 17 0 
-1.8769 0.519889 6.39789 58 24 0 
0.395973 0.58072 5.98045 48 8 0 
-2.24516 0.626448 6.12874 255 223 79 
-0.589033 1.00592 7.20391 64 40 0 
-1.2184 1.23379 7.93034 167 135 58 
3.12018 1.27995 8.40955 140 122 108 
-1.16022 1.28149 7.85865 223 209 180 
-1.03931 1.64966 7.52924 186 176 164 
0.00920772 -0.502191 4.64139 32 147 82 
0.600544 -0.571493 5.55707 11 53 39 
-0.526716 -0.262885 4.61637 118 133 114 
-0.591538 -0.245407 4.7604 5 9 8 
-0.814089 -0.104076 4.51412 212 189 137 
0.0250402 -0.109809 4.81144 5 27 14 
-0.858448 -0.0405396 4.47804 109 88 45 
-0.355595 -0.0348653 4.62372 149 131 91 
-0.408372 -0.0255407 4.6339 9 63 29 
-0.306819 0.00243175 4.5925 173 150 108 
1.1836 0.032266 4.5141 200 125 6 
0.331201 0.0561842 5.42976 114 115 117 
-1.86846 0.115963 6.41945 56 36 1 
0.411334 0.0817881 5.50634 125 124 119 
1.01739 0.08992 4.5296 162 134 11 
0.348674 0.126391 5.43783 65 64 62 
-1.86701 0.172908 6.42191 231 176 11 
-1.83132 0.244272 6.36563 192 147 2 
1.13434 0.194131 4.5142 34 31 26 
0.566134 0.27125 5.4173 102 103 98 
1.1499 0.226248 4.47768 175 175 175 
1.17323 0.225882 4.48882 176 172 173 
-2.44631 0.341213 6.04473 217 204 187 
0.434122 0.29113 5.49202 4 5 0 
1.07473 0.255438 4.48784 131 129 134 
-1.67099 0.406867 6.3854 83 41 3 
0.539432 0.336627 5.43984 86 84 72 
-1.2222 1.23163 7.9226 164 136 73 
-1.17014 1.28556 7.87674 219 210 181 
-1.24066 1.31957 7.80141 235 225 213 
0.438937 1.31059 6.62839 152 120 7 
-0.841974 1.71263 7.64979 92 72 39 
-1.36209 1.74698 7.62753 107 91 76 
-2.61904 1.81329 7.50115 141 128 119 
1.34747 -0.365119 4.60275 237 186 15 
-0.524936 -0.260164 4.61841 118 130 108 
-0.424649 -0.237333 4.60971 106 110 93 
0.535331 -0.191168 5.6445 169 138 13 
-0.31147 0.0107094 4.58343 187 164 120 
1.0581 0.0564062 4.49119 130 74 0 
0.40521 0.0992298 5.47674 122 123 117 
5.37388 0.209129 10.0901 162 148 139 
-0.375893 0.158403 4.62068 42 27 0 
-2.24844 0.474855 6.21065 150 97 5 
-1.24877 1.50072 7.84019 94 81 65 
-0.896033 1.57963 7.4577 197 188 171 
-1.01315 1.6426 7.5642 190 181 166 
-0.802397 -0.161086 4.57879 64 98 48 
0.54469 -0.191788 5.58689 148 116 5 
0.0179705 -0.132997 4.77734 16 45 25 
-0.44633 0.00544777 4.60926 33 92 46 
-0.682718 0.0446022 4.52238 11 80 35 
0.341048 0.181327 5.4904 64 61 56 
-1.7894 0.386983 6.3781 182 146 10 
-1.87246 0.513847 6.41067 54 22 0 
-1.33021 1.73412 7.64687 107 91 76 
0.0241226 -0.162706 4.80564 7 47 23 
-0.216961 -0.0726885 4.64355 191 174 128 
-0.56164 0.065713 4.55101 34 93 45 
-0.411407 -0.265663 4.56691 104 115 99 
-0.297774 -0.0648907 4.60806 152 135 109 
0.290505 0.134187 5.40245 99 100 102 
0.399523 0.584608 5.97827 41 0 0 
1.10185 -0.459236 4.42303 97 41 0 
1.17027 0.287826 4.44713 234 234 236 
-0.0122452 0.565324 5.42386 96 95 93 
-0.592099 1.01291 7.25506 64 40 0 
0.519488 -0.190403 5.64118 152 125 12 
-1.90458 0.0629448 6.41669 203 151 6 
-1.23323 1.24179 7.99004 164 136 73 
-1.17769 1.29483 7.93544 219 210 181 
-0.690952 0.0474666 4.50542 22 63 29 
-0.0281111 -0.0978526 4.80637 129 106 62 
-0.530054 -0.29547 4.56368 146 163 147 
1.336 -0.649158 4.51434 118 39 8 
0.320839 -0.45897 4.16942 135 110 70 
-0.519364 -0.282785 4.56424 25 80 51 
-0.53798 -0.279095 4.56265 165 174 157 
-0.924973 -0.160574 4.44309 240 218 168 
-0.512318 -0.189039 4.63754 56 16 8 
1.06785 -0.250459 4.88142 138 70 0 
-0.444874 -0.152227 4.63374 112 124 110 
-0.176928 -0.144069 4.67294 27 71 36 
1.33989 -0.0770442 4.44557 245 202 25 
-0.150174 -0.075648 4.60224 120 97 56 
-0.238874 -0.0318355 4.56458 115 92 50 
0.511314 -0.199136 5.65563 172 148 48 
-0.365261 0.132336 4.53741 91 68 26 
0.790069 0.148397 4.7406 25 11 0 
-0.376773 0.181712 4.63607 45 23 0 
-1.67747 -0.0536152 6.24845 43 37 15 
-1.63057 -0.00319357 6.21065 67 60 44 
-1.94133 0.0754641 6.31903 88 61 18 
0.330623 0.221157 5.47898 94 92 79 
0.565551 0.241036 5.39777 40 39 44 
-1.83519 0.205996 6.37497 98 70 5 
-1.84428 0.238104 6.35626 214 177 45 
-1.51919 0.302073 6.31467 139 116 36 
-1.50845 0.314526 6.33302 34 19 0 
-1.50548 0.355237 6.33499 179 149 37 
-1.49367 0.433192 6.45375 33 30 23 
0.0901542 0.525081 5.38284 233 240 233 
-2.09916 0.492074 6.45097 90 49 5 
-1.88803 0.521127 6.42297 63 22 0 
0.398955 0.585813 5.97221 55 12 0 
0.852302 0.769952 5.57308 90 83 67 
0.901629 0.771545 5.62746 166 141 48 
-0.600439 1.01344 7.37119 52 23 0 
1.15762 1.43902 6.59465 109 70 0 
1.1791 1.52171 6.66968 71 40 0 
0.576204 0.265064 5.41958 121 117 114 
-0.834864 -1.52633 5.19785 27 14 5 
-0.814308 -1.4456 5.07392 180 151 121 
-0.758031 -1.19017 5.09894 54 26 12 
-0.490314 -0.731962 4.43575 254 76 92 
1.38647 -0.571132 4.29377 157 111 33 
1.34277 -0.658004 4.54109 116 37 6 
0.0298718 -0.714851 4.81469 74 0 11 
1.44785 -0.433517 4.12689 155 108 26 
1.06881 -0.460833 4.40513 122 47 7 
-0.00612815 -0.365913 4.56878 185 156 114 
0.180924 -0.278278 4.30713 47 28 11 
-0.387383 -0.259988 4.55643 108 107 89 
-0.49533 -0.215618 4.58448 150 138 124 
-0.297667 -0.0787008 4.59918 16 36 8 
-1.07019 0.0188186 4.34632 235 212 160 
0.519081 -0.300362 5.72294 128 109 32 
-0.239037 -0.0265851 4.55422 112 89 47 
0.824756 3.90133e-05 4.65663 30 30 28 
0.770007 0.0447892 4.67959 61 57 56 
-0.37617 0.218128 4.64951 66 45 18 
-1.6401 -0.0143189 6.24095 61 58 49 
0.855302 0.230021 4.66473 31 19 0 
-1.55728 0.00089271 6.19735 96 90 92 
0.289995 0.158905 5.39228 15 15 13 
-1.52052 0.0877595 6.20727 9 4 8 
0.541238 0.201559 5.48437 60 62 61 
0.331404 0.217348 5.49253 104 102 89 
0.570696 0.229924 5.42389 41 40 45 
0.648529 0.236456 5.36005 132 107 23 
0.568972 0.265558 5.39269 127 123 120 
0.439188 0.256958 5.47398 141 141 141 
-1.84568 0.156652 6.41548 227 177 2 
-1.87852 0.181154 6.43378 245 213 110 
0.513128 0.306954 5.43169 71 67 66 
-2.42907 0.353695 6.04074 223 208 175 
0.342136 0.359029 5.76645 136 117 22 
0.58937 0.426649 5.41572 128 108 22 
-2.37842 0.462302 6.01621 250 237 221 
-1.48215 0.413564 6.47757 24 20 17 
0.101177 0.502529 5.39415 21 27 25 
-1.49992 0.427992 6.47937 24 21 16 
0.0634071 0.516526 5.38158 151 153 150 
-1.75125 0.472818 6.36677 208 167 25 
0.0554151 0.585395 5.40487 130 129 125 
-2.18832 0.713512 6.05277 171 138 69 
0.462228 1.27212 6.71286 42 18 0 
1.50663 -0.322939 4.1776 120 61 1 
-0.115154 -0.400008 4.5292 43 172 105 
-0.521833 -0.172671 4.63042 128 141 123 
-0.792461 -0.0615983 4.47225 153 127 76 
-0.173655 -0.0760684 4.60722 200 182 134 
-0.0265801 -0.0901096 4.73363 155 133 84 
0.0307855 -0.0929058 4.81691 4 42 17 
-0.901915 0.015075 4.41329 255 255 206 
-0.683796 0.0807096 4.4775 35 86 43 
0.964033 0.0923988 4.53633 10 8 9 
-0.680419 0.173481 4.40577 234 216 152 
-1.90873 0.00901251 6.35875 122 59 5 
-1.48431 0.0340133 6.22217 84 82 83 
0.365479 0.185873 5.45033 120 116 113 
-1.92434 0.0725863 6.37694 240 195 70 
0.504128 0.277757 5.42307 153 157 158 
0.507502 0.313069 5.42351 75 71 70 
-1.87579 0.221065 6.35856 77 45 4 
-1.52968 0.296794 6.31347 145 109 12 
0.338221 0.366287 5.737 146 124 12 
-1.71584 0.339858 6.35543 178 134 9 
-1.5779 0.355136 6.28143 127 79 0 
-2.34975 0.426131 6.10156 249 224 46 
-1.87298 0.484183 6.36739 190 147 32 
-2.09758 0.492539 6.43698 88 48 0 
-2.07469 0.52861 6.42325 244 201 9 
-1.86116 0.525181 6.47094 184 139 10 
0.771416 0.649982 5.19796 151 104 12 
-0.598827 1.00532 7.33337 50 23 0 
1.01547 1.10795 6.6043 136 100 4 
0.451672 1.41058 6.78937 75 36 0 
0.0367384 -0.735805 4.83861 87 0 18 
-0.400131 -0.245287 4.55055 119 116 99 
-0.43234 -0.222655 4.55835 132 135 114 
0.722833 -0.437143 5.40418 241 239 224 
-0.515695 -0.214301 4.60364 90 39 36 
-0.42161 -0.184572 4.60727 108 126 104 
-0.802044 -0.0876368 4.4458 229 205 159 
-0.766467 -0.0537804 4.49167 232 213 157 
1.27592 -0.0482169 4.44543 207 128 7 
-0.903144 0.0143358 4.42429 255 249 200 
0.539446 -0.282276 5.72586 132 105 2 
-0.708057 0.0228838 4.45128 219 199 148 
0.52298 -0.185927 5.62951 171 143 10 
1.17884 0.0885847 4.43921 254 219 13 
0.473359 -0.113743 5.70137 30 13 3 
0.795396 0.081015 4.71137 103 100 95 
0.802496 0.102108 4.82933 22 17 11 
0.327786 0.0631362 5.38969 130 131 133 
-1.66182 0.00939743 6.21886 248 218 32 
0.346873 0.130788 5.41019 88 85 80 
-0.407529 0.282273 4.62581 143 121 82 
0.36963 0.188268 5.41371 116 112 109 
-1.54414 0.100021 6.19696 20 16 17 
0.889244 0.316818 4.59755 202 165 14 
-1.5528 0.151743 6.27415 21 18 11 
0.452962 0.257327 5.47492 143 143 143 
0.431176 0.294644 5.46495 8 4 3 
0.537109 0.338729 5.42276 101 99 87 
0.788095 0.43647 4.76645 131 96 6 
-2.4758 0.385267 6.08839 169 129 31 
0.516007 0.423202 5.77225 10 6 3 
-2.31143 0.422578 6.14662 252 222 12 
-1.66695 0.407979 6.37346 108 54 7 
-1.4999 0.413658 6.47435 22 17 13 
-1.24774 1.23585 8.08882 184 143 64 
-1.19173 1.29007 8.02793 227 215 189 
-0.0224608 -0.563557 4.64173 28 26 11 
-0.519305 -0.247019 4.56924 142 154 130 
-0.66346 -0.228391 4.6851 2 77 38 
0.724368 -0.423937 5.4097 244 236 225 
-0.480696 -0.200703 4.60393 14 29 22 
-0.323596 -0.0714725 4.58701 9 58 29 
0.0233707 -0.0852346 4.70444 1 45 18 
0.532442 -0.183491 5.60776 175 147 12 
0.955492 0.0831497 4.58801 11 9 10 
0.494773 -0.0679919 5.70187 150 122 12 
0.324469 0.194152 5.47898 98 94 91 
0.671759 0.245306 5.37635 167 130 16 
0.548035 0.391811 5.39346 22 18 17 
0.574914 0.499611 5.53637 26 17 10 
0.388628 0.579075 5.95996 94 55 0 
0.730386 0.716991 5.52005 21 19 24 
0.997253 1.17245 6.56186 208 173 11 
-0.249974 -0.0901019 4.6257 162 149 105 
0.469991 0.257134 5.46982 144 148 149 
0.508018 0.352657 5.61571 78 75 68 
0.582008 -0.468371 5.45803 231 227 215 
-0.893472 0.0369152 4.4099 226 206 153 
0.550743 -0.20165 5.6333 157 125 6 
1.29292 0.245004 4.55432 27 23 22 
0.884462 0.298873 4.62488 198 159 4 
0.856312 0.755975 5.51093 23 22 18 
-0.107921 -0.436762 4.5736 42 173 103 
-0.0989261 -0.325406 4.53854 43 34 1 
0.0250344 -0.169555 4.83403 8 52 25 
-0.214819 -0.0609823 4.5925 210 190 137 
-0.449787 0.028407 4.54643 36 111 55 
0.371018 0.287335 5.47697 8 6 9 
-0.109879 -0.224167 4.70525 29 64 24 
0.778296 0.018587 4.72778 143 144 148 
1.27022 -0.257818 4.62405 245 201 18 
1.37198 -0.110321 4.45508 127 71 10 
-1.83373 0.520431 6.37432 162 124 13 
-1.74646 0.530647 6.34802 127 69 0 
1.15434 -0.215159 4.75683 62 48 21 
0.51342 0.213645 5.4966 135 137 136 
-1.69778 0.385929 6.34428 210 169 25 
-1.19968 1.47183 7.74983 83 70 54 
-0.96914 1.64927 7.44286 198 188 176 
1.27857 -0.0516747 4.46953 190 115 13 
0.538525 2.05298 6.78726 219 197 176 
-0.68851 0.0478661 4.4985 22 63 29 
-1.55182 0.0760624 6.20847 24 20 21 
-0.765883 -1.19397 5.12463 80 55 33 
-1.06383 -0.026014 4.4003 108 85 51 
-0.475132 -0.13241 4.65584 30 50 41 
-0.688758 0.0808968 4.49811 39 71 32 
1.08105 0.246823 4.50733 142 143 138 
0.70979 0.565934 5.15223 182 146 34 
0.527491 2.01967 6.81225 183 140 1 
-0.439185 -0.270499 4.61263 18 73 42 
0.917433 0.282557 4.64197 15 17 14 
-0.967471 1.65499 7.44862 209 197 183 
-1.66589 0.408862 6.36743 108 54 7 
1.22698 0.564227 4.94083 149 111 12 
-1.00424 1.63622 7.4864 206 194 180 
-0.499535 -0.184988 4.66528 55 22 13 
-0.594788 -0.58477 5.41685 173 155 143 
-0.59249 -0.535545 5.47088 72 29 23 
-1.6638 0.405245 6.36141 87 45 5 
-1.87073 0.492638 6.35827 162 128 21 
-1.83615 0.530402 6.37406 164 120 11 
-0.734242 -1.19764 5.11989 64 45 28 
-0.757225 -1.50084 5.09908 200 171 131 
-0.734724 -1.49465 5.09806 31 19 19 
1.04604 0.118595 4.52174 173 145 38 
0.775985 0.103561 4.73547 29 16 7 
0.470408 0.334238 5.532 95 92 87 
-1.83219 0.522777 6.37736 182 140 20 
-0.408816 -0.266971 4.59819 121 118 101 
-1.4847 0.0356013 6.22065 84 82 83 
0.507651 0.271655 5.47145 153 157 158 
-1.73937 0.479715 6.342 202 162 13 
-1.82012 0.498336 6.38102 60 14 0 
-0.729823 -1.47231 5.10772 190 162 122 
0.82948 0.0209568 4.69827 128 129 124 
-1.49373 0.0727192 6.21636 135 132 123 
0.529818 0.17101 5.54938 19 18 23 
1.05874 0.336863 4.58357 119 119 109 
-0.438164 -0.342855 4.59631 2 21 15 
1.08844 -0.640919 4.48908 242 211 71 
0.577429 -0.382103 5.4124 151 143 124 
-0.584002 1.03311 7.18953 66 42 0 
1.42778 -0.560904 4.27081 255 252 136 
1.0683 -0.629677 4.49536 237 213 81 
-0.485184 -0.187085 4.66359 56 19 11 
-0.584575 1.10044 7.263 89 50 0 
-1.55736 0.0480493 6.21933 184 179 176 
-1.55104 0.0924572 6.2195 18 15 22 
-0.650306 -0.435917 4.64674 42 162 90 
1.4299 -0.475221 4.34951 123 50 0 
1.33533 -0.0832611 4.44555 250 208 25 
1.15473 -0.242982 4.79357 70 43 16 
-0.833177 -0.49632 4.85408 115 113 98 
-0.563539 -0.332552 4.63353 24 57 36 
1.04658 0.0849806 4.51961 123 77 0 
-0.348223 -0.0549135 4.60575 18 17 0 
-1.23204 -0.107098 4.46762 80 53 32 
-1.15053 -0.73217 6.5999 73 69 66 
-1.10085 -0.660267 6.517 199 165 67 
-1.1852 -0.706522 6.61487 170 169 167 
0.78905 0.353719 5.1008 68 18 11 
-1.14614 -0.374253 6.21929 22 20 25 
-1.09566 -0.335361 6.23933 164 161 144 
-1.07365 -0.282096 6.22977 127 127 117 
-1.16367 -0.290373 6.20111 176 176 176 
-1.22728 -0.309189 6.24649 175 176 170 
-1.18349 0.277753 5.29112 71 46 6 
-1.601 -0.0821954 6.28312 168 166 169 
-1.38402 0.00290948 6.36208 198 172 95 
-1.64182 0.013076 6.24773 250 218 75 
-2.18835 0.178943 6.41374 190 118 0 
-1.87462 0.520272 6.39198 60 26 17 
-2.08592 0.489319 6.43328 64 25 10 
-1.00708 1.01137 7.93233 212 175 25 
0.547889 2.00321 6.86653 154 96 0 
0.901678 2.27333 6.71219 225 209 196 
0.817584 2.26928 6.73389 221 206 199 
-0.774186 -1.19444 5.09912 52 37 16 
1.12859 -0.264734 4.7573 218 156 9 
1.31217 -0.0537606 4.4669 242 203 12 
1.14715 -0.255428 4.81914 217 164 34 
1.15187 -0.214338 4.74411 49 31 17 
1.16445 -0.194737 4.73831 215 167 31 
-0.83707 -0.515818 4.85601 41 24 14 
-0.796929 -0.450344 4.86415 35 22 6 
-0.540256 -0.193143 4.6258 66 22 19 
-0.551273 -0.186972 4.66296 130 145 124 
0.776752 0.102127 4.73683 18 16 17 
-1.07781 -0.023137 4.36624 92 66 51 
-1.09745 0.00899945 4.35626 222 201 138 
0.456265 0.252546 5.51778 169 169 171 
0.601851 0.425499 5.45665 140 117 21 
0.59873 0.44705 5.46848 22 13 4 
1.07922 0.746705 5.30134 126 84 2 
0.631328 0.573847 5.49733 16 5 3 
0.731475 0.733484 5.59823 17 13 10 
-1.62211 -0.0399765 6.26488 19 20 12 
-1.5557 0.00194272 6.21895 73 73 71 
-1.64272 -0.0164373 6.23135 32 33 28 
-1.54741 0.0748509 6.22602 27 22 19 
-1.549 0.131493 6.25242 21 12 7 
-1.51077 0.303101 6.31841 147 113 23 
-1.45184 0.400158 6.46863 111 105 105 
-1.69734 0.387715 6.34106 246 206 49 
-1.7443 0.474327 6.36695 210 161 32 
-0.956659 0.498494 7.67116 135 87 3 
-0.590649 1.00623 7.15506 27 6 0 
0.513038 1.81788 6.93109 146 99 0 
0.596095 1.93754 6.8793 255 218 127 
0.533425 2.01902 6.82581 164 107 0 
-1.16359 1.50406 7.77806 179 161 151 
1.3651 -0.113823 4.4564 130 75 10 
1.36581 -0.083665 4.4628 242 210 14 
1.12654 -0.117661 4.69316 248 215 58 
-0.420841 -0.262115 4.57474 115 117 103 
-0.843271 -0.477243 4.87391 36 16 7 
-0.339702 -0.0691926 4.62891 12 27 6 
-1.12149 -0.344501 6.22022 149 149 141 
0.774066 0.757916 5.58134 110 106 103 
-1.59418 -0.0771545 6.3013 179 177 178 
-1.66077 -0.0687968 6.31846 22 24 21 
-1.76095 0.238929 6.36361 180 126 4 
-1.70552 0.341407 6.36577 174 126 2 
-0.859421 0.504061 7.5372 230 185 66 
-1.8334 0.527975 6.392 182 143 4 
0.606692 1.94107 6.88245 245 205 120 
1.1062 2.14699 6.75193 202 158 7 
0.394157 1.87071 7.0927 214 173 5 
-1.19896 1.24782 7.98857 184 137 21 
-1.12555 1.30352 7.89342 234 217 191 
0.899998 2.14176 6.81218 188 141 25 
0.899409 2.27015 6.6994 222 206 193 
0.969642 2.31441 6.6705 229 215 206 
-0.55563 -0.306059 4.61162 156 170 145 
-0.4721 -0.26201 4.55229 19 75 50 
-0.526515 -0.201955 4.6251 72 20 24 
0.785934 0.075803 4.7138 100 101 96 
0.779189 0.118774 4.7573 10 9 14 
-0.416535 -0.0191713 4.61633 16 52 24 
0.808236 0.201842 4.70735 203 166 13 
0.787619 0.189181 4.74741 196 158 11 
1.04091 0.351193 4.57362 19 17 18 
0.90023 0.319213 4.61896 203 161 13 
-0.730651 0.177257 4.4544 106 82 34 
0.718267 0.0546357 5.6281 126 92 2 
0.940099 0.761602 5.60413 26 20 22 
-1.73374 0.483193 6.35927 210 165 22 
-0.558267 1.01634 7.26411 26 3 0 
1.10587 1.89746 6.87391 162 110 0 
0.503649 1.85606 6.93247 223 179 8 
0.374296 1.86295 7.04084 218 175 8 
1.0527 2.16618 6.75096 248 238 229 
-1.13357 1.30069 7.90751 232 218 189 
0.444905 2.06247 6.86081 168 122 0 
-0.858736 1.58217 7.53176 218 209 192 
-1.21892 1.4502 7.84375 206 190 177 
-0.903123 1.58665 7.51754 221 211 199 
-0.822355 1.62718 7.56368 207 191 178 
0.972858 2.36668 6.80789 78 62 47 
-1.07491 1.57001 7.70549 167 151 138 
-1.24496 1.50946 7.98086 88 70 56 
0.873472 2.45482 6.73971 195 172 158 
0.947524 0.0956679 4.56949 8 7 12 
1.07432 0.266043 4.50414 144 144 144 
0.809097 0.253686 4.67673 209 169 9 
-1.10531 -0.041021 6.44319 164 121 8 
-1.68438 0.369237 6.34896 216 177 14 
-1.75739 0.544294 6.37203 151 81 11 
1.13963 2.08337 6.75614 250 218 13 
0.535433 1.87464 6.95472 225 181 12 
0.41551 1.88251 7.09755 224 175 10 
0.560532 1.99504 6.87972 160 102 3 
0.901056 2.12038 6.80544 195 148 8 
1.01581 2.1779 6.70766 246 237 230 
0.979236 2.2915 6.6721 227 215 203 
0.693118 2.24633 6.75662 203 187 174 
3.40857 -9.23681 25.6507 183 167 144 
0.996537 0.31416 4.56707 16 14 19 
0.616282 0.538714 5.41506 151 114 8 
0.650271 1.94306 6.8578 252 221 131 
0.451585 1.98367 6.8746 213 169 10 
0.657493 2.06663 6.81243 194 148 10 
0.768971 2.12852 6.76929 232 216 200 
-0.933796 1.46699 7.61435 154 116 5 
-0.860809 1.61709 7.55918 213 201 187 
-1.10055 1.5344 7.78478 174 158 145 
0.880333 2.35457 6.61231 112 94 80 
-1.50435 -0.304169 6.50146 217 195 138 
0.624683 2.10696 6.75709 134 105 47 
-1.50238 0.318148 6.31369 34 19 0 
-1.83335 0.236607 6.34748 215 181 48 
-1.57742 0.360132 6.26697 132 85 0 
-1.48676 0.268749 6.28624 8 8 8 
0.581196 -0.387223 5.42899 151 143 124 
-1.7439 0.477601 6.33908 216 172 37 
-1.74225 0.536962 6.33622 157 87 2 
-1.39434 0.502719 6.54946 116 106 96 
0.828279 0.0184337 4.6846 145 147 146 
-1.83399 0.533363 6.36554 191 150 10 
0.647426 -0.404241 5.45257 241 234 218 
-0.756735 -1.21904 5.14644 53 29 25 
1.43806 -0.617802 4.53103 85 34 0 
-0.549879 -0.343791 4.66309 12 54 34 
-0.45379 -0.242292 4.64144 86 36 39 
0.892233 -0.0607508 4.72661 47 36 34 
0.80385 0.0200074 4.76065 73 73 65 
0.593985 -0.38674 5.44395 184 176 155 
0.786061 0.348884 5.11828 92 31 3 
-1.23427 -0.244448 6.15683 183 179 167 
0.696491 0.612947 5.22725 190 153 49 
0.645562 0.585227 5.49185 136 107 27 
0.717167 0.658371 5.52947 26 10 0 
-1.65045 0.0226976 6.20436 219 200 79 
-0.00648017 0.634398 5.6188 47 30 12 
-1.55772 0.141529 6.20661 23 25 14 
-1.51589 0.439805 6.40885 21 11 2 
1.06194 1.2181 6.46304 171 120 2 
1.15573 1.3382 6.45902 151 98 0 
0.44369 1.23826 6.5525 114 61 0 
0.44222 1.28196 6.58598 110 65 0 
-0.575148 0.899355 7.06497 99 54 0 
0.432671 1.39625 6.6203 38 14 2 
-0.595668 1.03512 7.15615 25 2 0 
-1.05038 1.02022 7.74362 221 172 41 
0.817434 0.339129 5.16388 88 24 0 
1.53213 -0.576288 4.2769 40 33 14 
-0.72798 -1.22144 5.14445 40 21 14 
-0.659071 -0.672667 4.70413 65 146 90 
-0.526775 -0.324466 4.63756 169 179 154 
-1.04748 -0.0479736 4.44109 95 69 34 
0.853502 -0.0133076 4.69861 31 27 24 
-1.02639 -0.0265256 4.45743 156 132 88 
0.854642 0.00526524 4.71364 152 146 146 
0.822007 0.0794557 4.7623 98 94 93 
0.815543 0.0876213 4.78793 20 14 16 
1.08568 0.357367 4.62429 15 9 19 
0.525296 -0.178471 5.65837 194 158 38 
19.4489 -3.79191 16.8054 36 34 37 
19.4749 -3.55982 16.4193 39 35 36 
0.799781 0.368154 5.12491 211 167 34 
0.574262 0.262454 5.44285 143 140 135 
0.538847 0.370092 5.47022 17 13 12 
0.667898 0.591791 5.19745 43 16 7 
-0.215867 0.394293 5.3483 118 102 69 
0.622104 0.552005 5.48448 156 117 14 
0.907893 0.77213 5.573 27 16 22 
-1.54821 0.0757176 6.22149 29 15 12 
-1.50628 0.327513 6.29353 30 17 0 
-1.50589 0.366455 6.3049 197 164 33 
-1.46133 0.408809 6.42133 118 113 110 
-1.77813 0.497564 6.35943 211 158 20 
-1.79045 0.56001 6.34839 166 92 7 
0.977411 1.12327 6.48561 153 113 2 
-0.890922 0.472471 7.40121 168 124 3 
-0.896013 0.524525 7.38816 238 197 71 
0.464368 1.52274 6.78095 77 38 0 
-1.14849 1.61141 7.64684 87 69 55 
0.419814 2.21287 6.89223 66 39 22 
1.3274 -0.0450207 4.56403 251 221 89 
-0.41079 -0.212395 4.6891 128 141 115 
19.6209 -7.1343 19.1141 65 56 47 
19.7289 -5.90752 17.7402 215 206 189 
0.969567 0.308515 4.63228 23 23 13 
19.3321 -5.81506 19.5692 87 73 62 
0.519494 0.384425 5.52503 101 99 86 
0.681735 0.587244 5.20342 43 15 3 
-1.76191 0.207449 6.32272 237 183 12 
-0.691162 0.451775 7.29513 239 201 76 
0.967489 1.2061 6.43491 231 196 18 
1.05663 1.21972 6.45419 170 119 4 
-0.589711 1.09939 7.2489 79 37 0 
0.920926 1.87503 6.76196 167 109 1 
0.558054 1.93288 6.78576 244 229 164 
0.996538 2.14472 6.6576 250 238 216 
0.615633 2.10481 6.74656 189 133 22 
0.980422 2.28848 6.62603 234 220 209 
0.85256 2.25911 6.61604 229 211 197 
0.743012 2.25325 6.62079 229 215 204 
-1.14181 1.61392 7.65437 77 59 45 
0.414985 2.2141 6.87921 65 39 24 
-1.51937 0.301825 6.29187 163 124 7 
0.414949 1.9432 6.86676 167 115 3 
1.44029 -0.710699 4.41023 17 11 15 
1.37068 -0.810784 4.53794 202 163 70 
1.46637 -0.737231 4.4912 13 13 11 
-0.275416 -0.308146 4.55318 20 54 30 
-0.501955 -0.304562 4.62396 4 84 49 
-0.441922 -0.282825 4.6079 11 75 49 
-0.519922 -0.283403 4.65183 165 174 145 
1.09407 0.170176 4.52289 20 14 24 
20.4186 -5.98058 17.7228 206 194 182 
19.5999 -5.87138 17.6466 219 210 193 
25.3938 -4.09005 17.3988 23 21 22 
20.3908 -4.91952 17.8736 173 160 143 
19.1584 -5.75798 19.4156 86 72 61 
20.37 -3.80513 16.7781 158 142 129 
19.2799 -3.75848 16.6591 35 35 35 
-1.22455 -0.26759 6.17365 183 182 178 
0.520629 0.377458 5.53736 102 101 83 
-1.11769 -0.183679 6.17638 121 118 113 
0.775613 0.804015 5.59555 84 79 73 
0.0210648 0.729294 5.86341 109 83 46 
-1.82088 0.503225 6.35177 101 38 0 
-0.631369 0.418437 7.2973 236 202 95 
0.981188 1.19987 6.4421 235 196 31 
-0.595104 1.09989 7.23327 83 41 1 
1.06725 2.1405 6.68154 212 161 34 
0.402582 1.93023 6.85774 163 113 2 
0.516047 2.10935 6.66188 233 218 195 
0.411353 2.05537 6.79492 176 127 6 
-0.895243 1.57846 7.38699 229 218 200 
0.921474 2.2975 6.58539 237 221 208 
-1.17452 1.53387 7.61379 184 170 157 
-0.987653 1.65175 7.38986 224 211 202 
0.477983 2.29012 6.81083 89 69 58 
-0.47603 -0.229203 4.67245 15 17 14 
1.02648 0.0539711 4.55395 222 180 20 
22.0872 -7.63675 19.6687 39 35 36 
19.4819 -6.8387 18.0797 233 223 211 
25.5508 -5.0323 17.1742 117 107 95 
19.8423 -5.96081 17.8782 218 209 194 
25.0956 -4.35508 17.3451 116 106 96 
0.793495 0.337874 5.1141 95 36 2 
0.517501 0.365904 5.554 94 92 80 
-1.37129 0.138508 6.34349 13 12 8 
-0.553679 0.34269 7.23111 218 178 91 
0.687178 0.955051 6.50389 132 86 1 
-0.640909 0.425204 7.28187 236 202 92 
0.481657 1.86694 6.84249 231 187 16 
0.581265 1.93739 6.77412 251 242 211 
0.354634 1.87291 6.96835 219 175 6 
-1.0987 1.33991 7.68651 195 150 7 
0.506439 1.98555 6.77404 176 112 6 
-1.19182 1.31251 7.72925 240 223 205 
0.85148 2.11023 6.71369 204 157 9 
0.624227 2.08289 6.74831 207 151 12 
0.519105 2.09256 6.71371 238 222 199 
0.934482 2.28129 6.59384 234 222 208 
-1.15823 1.52927 7.61039 185 169 156 
0.721501 2.25193 6.63954 225 211 198 
19.2083 -3.56552 16.2681 37 33 32 
1.51634 -0.493526 4.39238 153 69 0 
-0.571009 -0.550335 4.63158 51 175 102 
-0.483285 -0.317314 4.58246 8 40 27 
19.7303 -6.90801 18.3173 227 217 205 
21.6616 -6.20491 17.5839 144 130 117 
25.4675 -5.03373 17.1649 119 109 97 
21.0271 -5.04213 17.7145 141 125 110 
0.575964 0.411531 5.51922 15 9 9 
-1.20342 1.32527 7.70414 239 224 205 
0.420525 1.97822 6.81167 228 181 17 
0.58976 2.05294 6.6804 209 159 10 
-0.763208 -0.0160316 4.54564 228 209 151 
0.741696 0.344294 5.01434 140 92 7 
-1.74914 0.348882 6.36811 220 176 9 
-0.678711 0.414823 7.29977 223 186 79 
20.4456 -6.24729 18.6505 185 169 153 
0.554936 0.443755 5.55136 29 21 8 
1.4581 -0.479758 4.37687 133 50 0 
1.11334 -0.465498 4.43372 140 66 3 
-1.6242 -0.039659 6.25721 23 24 16 
-0.864278 0.446838 7.48658 167 123 2 
-2.10895 -0.285215 10.5245 153 135 123 
0.779134 0.0346731 4.7356 73 73 65 
1.09156 0.326328 4.51585 84 80 79 
-1.54851 0.0749179 6.22327 29 15 12 
0.566657 1.90319 6.8572 182 123 5 
0.646758 2.09934 6.79935 186 129 14 
0.512902 1.86212 6.90254 231 187 16 
-1.08428 1.33023 7.75063 195 150 7 
0.538247 1.98198 6.83122 176 112 6 
-1.1651 1.29586 7.8401 240 223 205 
0.82844 0.192162 4.76512 215 176 10 
0.626161 2.04899 6.74912 209 159 10 
0.506716 2.05773 6.79736 212 196 180 
1.08042 -0.467215 4.43312 125 50 10 
-1.86763 0.494766 6.32818 188 145 30 
-1.48846 0.264152 6.29175 8 8 8 
1.36076 -0.744031 4.71068 129 38 9 
-0.457172 -0.20025 4.66162 56 15 9 
-1.74442 0.476974 6.33489 216 172 37 
-1.91279 -10.5235 16.3639 6 56 93 
-1.67146 0.370595 6.34134 222 179 49 
-2.22578 -9.9362 16.0827 0 70 114 
1.59217 -0.498124 4.23408 255 254 167 
1.14852 -0.519865 4.50246 137 60 6 
1.1803 -0.512053 4.49513 140 61 2 
-0.53742 -0.34001 4.65037 167 179 169 
-0.419995 -0.287967 4.62402 22 67 46 
-0.474913 -0.220519 4.60815 71 17 17 
-0.360102 0.20441 4.71354 87 57 29 
-1.17011 -0.452501 6.25473 64 59 40 
0.653358 0.580856 5.5039 163 128 36 
-1.63678 -0.018282 6.24497 53 51 36 
-1.03868 -0.0702041 6.41874 15 0 0 
0.766958 0.731496 5.60418 27 27 17 
-1.32948 0.216538 6.42009 191 159 40 
-1.51463 0.308293 6.29196 174 135 34 
-0.930568 0.48243 7.43585 175 127 1 
1.16876 1.3801 6.50641 141 78 0 
-0.609875 1.01245 7.09459 18 0 0 
-1.05117 1.02106 7.73603 227 185 25 
-0.981729 1.67008 7.33414 241 225 210 
1.52773 -0.523012 4.43359 135 44 17 
-0.438112 -0.242885 4.66325 66 18 16 
-0.674196 0.0637231 4.5278 58 118 64 
-1.13564 -8.94163 16.0527 165 155 146 
0.693807 0.578614 5.23223 92 41 0 
0.638832 0.543003 5.50837 168 132 20 
0.638156 0.56968 5.51063 14 5 0 
-1.04315 -0.0642407 6.40451 16 5 1 
-0.34176 0.520572 5.64772 28 24 25 
0.61315 0.565104 5.74639 32 16 3 
0.740582 0.720895 5.61509 21 17 18 
-0.534898 0.441739 5.95339 152 123 81 
-0.10104 0.693501 5.91287 61 34 4 
-1.99788 0.317103 6.31058 83 46 19 
-1.76561 0.471462 6.34837 139 69 0 
-1.78213 0.501762 6.34821 224 165 37 
-1.81633 0.497092 6.36959 120 50 0 
0.99343 1.11789 6.51167 164 121 8 
0.454914 1.34613 6.59356 146 93 0 
0.907577 1.88048 6.73461 162 105 0 
0.541823 1.93267 6.77136 252 214 69 
0.396339 1.95725 6.82008 172 115 2 
-0.846023 1.61664 7.38211 226 202 164 
0.849958 2.13562 6.71117 194 144 13 
1.55284 -0.507284 4.22116 155 111 22 
1.5714 -0.567705 4.28475 238 201 69 
1.47885 -0.64181 4.38345 179 125 39 
-0.506807 -0.305579 4.62432 12 86 53 
-0.396926 -0.281123 4.6215 131 134 115 
-0.437063 -0.250272 4.62169 159 158 138 
0.818118 0.0584044 4.86395 120 105 84 
0.741208 0.550399 5.19049 239 187 25 
0.546768 0.373754 5.48211 21 16 13 
0.518237 0.364747 5.60031 111 110 92 
-1.15404 -0.156137 6.25059 119 112 106 
0.75889 0.666439 5.54251 160 127 11 
21.6975 -8.01467 20.8281 77 67 58 
-0.483908 0.55077 6.10258 64 38 11 
21.0145 -6.44 21.0146 85 72 63 
-1.77035 0.475384 6.3398 147 74 6 
-1.86845 0.495423 6.3199 219 176 9 
-0.861025 0.530539 7.36823 161 114 0 
0.441054 1.19443 6.55542 211 166 21 
0.46563 1.76037 6.75913 222 177 22 
0.443871 1.8455 6.81929 239 200 11 
-0.899234 1.58173 7.34456 241 226 203 
-1.26664 1.44683 7.63275 227 214 195 
0.494494 1.99882 6.76087 158 92 0 
-1.50931 -11.2385 15.4374 7 41 69 
-0.425662 -0.253418 4.63038 157 156 136 
-1.94785 -9.86291 15.4179 46 141 205 
1.12813 0.203428 4.51654 23 20 15 
-1.93728 -9.69261 15.452 7 41 69 
-1.92266 -9.48968 15.5539 72 164 227 
0.800917 0.0687352 4.84619 133 121 105 
0.510799 0.231238 5.52019 178 179 174 
23.2691 -10.0357 20.6423 34 33 38 
0.706293 0.574577 5.22418 97 38 6 
-1.18199 -0.126483 6.27784 16 19 10 
20.61 -8.41451 20.573 181 167 156 
22.4574 -8.85287 21.7248 37 33 30 
21.8155 -8.07987 20.9335 71 64 54 
21.4673 -8.45443 22.5341 16 14 17 
-1.52659 0.242049 6.27438 174 139 21 
0.0251437 0.726859 5.87361 116 87 57 
-1.67366 0.374182 6.33088 230 190 6 
-0.791711 0.456859 7.37224 241 204 28 
-0.601162 1.02205 7.13447 30 13 5 
-1.17371 1.30509 7.71415 242 231 201 
-0.917968 1.5883 7.3002 239 224 203 
-1.02471 1.61928 7.31909 235 226 209 
0.461201 2.05521 6.71786 243 223 196 
-1.20121 1.61914 7.63518 167 149 125 
-2.2258 -9.27152 15.3367 0 69 127 
22.8206 -9.82344 20.3018 28 28 30 
0.612337 0.581795 5.80238 190 140 5 
20.9397 -6.44579 20.9322 92 77 70 
0.816026 0.969269 6.58284 209 167 5 
-0.833938 0.521739 7.3712 158 104 0 
0.458091 1.55102 6.97708 103 51 0 
0.469358 1.86948 6.81999 235 194 18 
0.40476 1.88948 6.87373 165 117 9 
0.663103 0.36055 5.64773 18 17 13 
20.8873 -7.0363 20.2563 136 120 107 
21.0214 -6.50149 20.9897 98 80 76 
-1.18673 1.31665 7.75835 240 228 202 
0.480076 1.87927 6.83648 235 193 19 
0.560915 1.94387 6.69812 244 209 43 
0.647377 2.04732 6.77905 214 166 8 
-1.19222 -9.68151 14.9986 27 28 32 
-1.7945 -9.43837 14.8184 27 27 37 
20.6425 -7.17033 19.1511 231 222 205 
-0.0189552 0.994731 7.48238 211 195 172 
1.50346 -0.505704 4.41659 130 40 6 
1.15534 -0.487679 4.47483 140 61 2 
0.708922 0.610617 5.24248 217 171 51 
-0.933314 0.487538 7.42566 175 127 1 
0.427766 1.39634 6.60581 36 3 0 
-1.04339 1.09442 7.76945 162 103 3 
0.479891 2.00929 6.72491 160 94 0 
1.12557 -0.497996 4.47726 142 62 9 
-2.37695 -8.44897 15.3619 239 215 187 
-1.64856 0.0154802 6.23701 244 232 72 
0.54773 1.92951 6.78253 252 214 69 
1.45594 -0.62073 4.36723 179 125 39 
-1.66544 -0.018796 6.25675 252 230 67 
20.6873 -7.53375 20.0035 77 67 58 
21.0861 -6.44119 18.5265 69 59 47 
20.1763 -6.08421 20.299 85 72 63 
0.450294 1.84099 6.83564 239 200 11 
0.501291 1.99513 6.77404 158 92 0 
0.614391 2.10407 6.74037 193 144 7 
21.0663 -11.3683 22.9333 126 112 112 
20.2096 -7.14061 18.6464 240 227 221 
20.6956 -7.54608 20.0152 71 64 54 
21.1218 -6.45814 18.5564 69 59 47 
20.8883 -6.28599 18.6513 228 218 206 
20.0454 -6.04101 20.1821 84 71 62 
-0.603968 1.10136 7.20412 81 45 0 
-1.17163 1.3025 7.71955 242 231 201 
20.8828 -6.29891 18.696 233 223 211 
19.96 -6.02844 20.0959 92 77 70 
0.47546 1.86586 6.83448 235 194 18 
-1.09976 1.33012 7.65451 201 157 6 
-0.963689 1.44955 7.51476 176 131 2 
-1.52382 0.0878082 6.21808 17 5 7 
