ply                 
format ascii 1.0    
element vertex 1007
property float x    
property float y    
property float z    
property uchar red  
property uchar green
property uchar blue 
end_header          
-0.0853031 -1.17689 3.14729 144 126 102 
0.919696 -1.32486 3.99739 87 84 69 
-0.0281577 -1.04898 3.1723 65 45 20 
1.03594 -1.24756 3.96904 187 173 162 
1.05771 -1.23588 3.95739 109 103 89 
1.03162 -1.23757 3.96825 119 111 92 
1.0697 -1.23359 3.95616 81 72 63 
1.06306 -1.23366 3.95667 194 191 176 
1.06978 -1.23788 3.97182 142 136 124 
1.08719 -1.2295 3.95981 150 146 137 
0.0888996 -0.965079 3.28589 75 53 12 
-0.0299784 -0.235768 3.72699 216 183 114 
-0.119759 -0.280421 3.81861 192 157 55 
-0.448889 -1.05791 3.98198 120 95 65 
-0.483047 -1.0301 3.95612 115 98 72 
0.326611 -0.844902 3.23436 88 64 60 
-0.283326 -0.290427 3.26909 77 74 59 
0.172616 -0.808958 3.23912 55 48 19 
0.141339 -0.799481 3.21961 105 82 30 
0.180302 -0.780267 3.21324 116 97 55 
-0.332719 -0.31991 3.25002 115 112 105 
-0.302774 -0.328127 3.26926 140 139 135 
-0.146086 0.168811 4.024 71 33 0 
0.952539 -0.886907 3.94046 151 132 56 
0.0717782 -0.381056 3.52033 101 101 93 
0.0719469 -0.384641 3.52848 27 26 21 
-0.157189 0.170792 4.02113 70 28 0 
0.617703 -0.386194 3.39085 72 55 25 
0.334261 -0.590334 3.09864 178 155 113 
-0.235758 -0.481787 3.50453 99 88 58 
0.799214 -0.575363 4.00661 97 55 0 
-0.0359338 -0.549186 3.59915 70 70 68 
-0.22692 -0.715089 3.74633 175 141 33 
-0.260812 -0.197296 2.86978 248 237 209 
0.0694495 -0.382748 3.52909 48 47 42 
1.07593 -1.42728 4.04919 149 107 25 
-0.153632 0.224269 4.0121 94 61 0 
-0.521382 0.182768 3.95138 66 29 0 
-0.157512 0.169814 4.02193 60 19 0 
-0.174028 0.0914857 4.01526 167 129 0 
-0.280317 -0.126138 3.21 172 126 0 
1.0324 -1.23652 3.96575 114 105 90 
1.06225 -1.23309 3.95361 194 191 176 
1.08311 -1.23166 3.96378 104 100 91 
-0.120201 -0.279359 3.81635 199 163 53 
-0.123522 -0.288898 3.81939 182 149 54 
0.0160914 -0.281541 3.69442 179 151 101 
0.0886933 -0.960517 3.28804 70 47 6 
0.269946 -0.885809 3.24386 81 89 74 
-0.333324 -0.326363 3.25151 21 18 13 
0.0724616 -0.380754 3.5178 93 93 85 
-0.483976 -1.0419 3.95466 63 52 24 
0.33194 -0.849586 3.23159 92 79 70 
0.326602 -0.844669 3.23182 88 64 60 
-0.484591 -1.03044 3.96021 129 112 82 
0.331328 -0.842946 3.23801 92 93 79 
0.87189 -1.02481 3.95544 73 61 39 
0.151047 -0.806312 3.23155 139 117 67 
0.303795 -0.809269 3.25095 90 90 80 
0.141145 -0.799664 3.22032 105 82 30 
0.168666 -0.777444 3.20394 119 92 47 
1.02119 -1.23847 3.9672 126 109 93 
0.278727 -0.826648 3.25651 38 38 28 
-0.308602 -0.431507 3.44503 59 55 46 
-0.0750664 -1.19005 3.13723 129 110 78 
-0.0846846 -1.17553 3.14483 139 121 97 
0.93576 -1.32141 3.99139 107 76 71 
0.93454 -1.30975 3.986 204 180 178 
0.0269305 -0.199751 3.7229 191 174 131 
-0.119599 -0.278637 3.8171 199 163 53 
1.01957 -1.23973 3.96756 135 107 93 
1.03657 -1.24275 3.97942 130 121 104 
-0.12349 -0.288545 3.81921 182 149 54 
0.0154969 -0.281566 3.69657 183 155 107 
1.07676 -1.23416 3.96622 157 150 142 
-0.333059 -0.32592 3.24919 21 18 13 
0.331783 -0.848479 3.22964 91 83 70 
0.330911 -0.843835 3.23714 97 95 80 
0.872003 -1.02396 3.95286 73 61 39 
-0.475425 -0.45378 3.49384 160 137 70 
-0.579765 -0.488431 3.55459 18 14 5 
0.799399 -0.576088 4.01234 121 80 0 
0.299124 -0.819904 3.24389 30 32 18 
0.1853 -0.809896 3.24506 58 52 16 
-0.340925 -0.542903 3.49338 166 149 80 
-0.346394 -0.545351 3.49583 75 62 17 
-0.621252 -0.711184 3.90495 196 181 160 
0.333132 -0.590181 3.0984 159 136 95 
-0.308278 -0.431867 3.44424 58 54 45 
-0.0744559 -1.18258 3.13902 136 112 74 
-0.518161 0.235377 3.9465 66 33 0 
-0.521744 0.18185 3.95431 53 16 0 
-0.156787 0.135177 4.01076 113 66 0 
-0.048278 -1.04708 3.17779 50 35 16 
-0.0253605 -1.0414 3.17997 46 30 7 
-0.120451 -0.278877 3.81996 199 163 53 
0.0188069 -0.279081 3.69658 180 156 112 
1.0632 -1.23578 3.9613 177 174 159 
-0.304026 -0.330713 3.27345 135 134 130 
-0.480584 -0.454037 3.49816 168 142 65 
0.799677 -0.578139 4.01768 122 81 2 
0.447259 -0.465511 3.23986 156 140 127 
-0.485424 -1.04381 3.9594 63 52 24 
-0.485658 -1.03112 3.96376 117 94 63 
0.331 -0.843861 3.23477 97 94 77 
0.17171 -0.808017 3.24022 61 52 23 
0.187189 -0.807659 3.23772 55 54 23 
-0.613317 -0.709254 3.90158 100 84 59 
0.202346 -0.786356 3.22975 24 31 0 
-0.564927 -0.507337 3.55213 95 95 87 
0.0814924 -0.350732 3.5288 119 116 111 
-0.34882 -0.547164 3.50217 57 44 10 
0.29886 -0.820903 3.24509 34 36 22 
-0.155167 0.135306 4.00553 123 77 0 
-0.150222 0.129224 4.02915 214 175 20 
0.921735 -1.33689 4.00241 183 162 119 
0.48207 -0.693478 3.04547 40 29 7 
0.181239 -0.803208 3.23651 181 170 138 
-0.483046 -0.252991 2.94449 255 241 187 
-0.482968 -1.04319 3.95695 60 44 19 
-0.487585 -1.03277 3.96556 133 117 81 
0.333064 -0.845812 3.23591 91 87 75 
-0.107344 -0.257718 3.81088 154 107 15 
-0.165045 -0.262875 3.81226 180 147 52 
-0.475002 -1.02406 3.93199 45 23 10 
0.018361 -0.279911 3.69476 180 156 112 
-0.262852 0.479374 4.03511 206 165 25 
1.17006 -1.27539 3.9649 232 226 214 
0.817033 -0.559821 4.03503 126 86 17 
-0.158622 0.135857 4.01978 121 75 0 
-0.193294 0.10375 4.01987 149 107 5 
-0.194561 0.658079 3.93437 219 203 188 
-0.400681 -0.150734 2.76925 183 157 122 
-0.46008 -1.06206 3.96898 44 32 10 
0.183773 -0.786151 3.2227 99 85 46 
-0.0739064 -1.18946 3.14172 130 110 77 
-0.157914 0.138304 4.01864 111 62 0 
-0.106844 -0.255921 3.80243 252 211 71 
-0.126695 -0.287986 3.80532 180 148 49 
-0.481394 -1.04192 3.94856 79 63 38 
-0.492165 -1.03583 3.97021 134 119 78 
0.443766 -0.46766 3.23637 150 134 121 
-0.104819 -0.253881 3.78815 241 200 60 
0.288462 -0.889746 3.23269 112 111 91 
0.214722 -0.776179 3.21112 129 140 106 
-0.478771 -1.04204 3.94067 94 78 55 
-0.0513724 -1.20662 3.14821 118 94 66 
1.08589 -1.26421 3.91979 188 170 160 
1.11792 -1.24985 3.91264 107 107 99 
1.05137 -1.24717 3.92288 60 50 49 
-0.0474531 -1.04347 3.2061 57 40 22 
1.07275 -1.24206 3.91632 77 32 29 
1.12289 -1.23915 3.91575 159 152 142 
1.01436 -1.23776 3.93266 164 137 126 
1.10035 -1.22484 3.9128 120 110 108 
1.11237 -1.22599 3.91696 135 126 119 
-0.135504 -1.16572 4.03171 93 66 39 
0.285564 -0.89163 3.22924 96 104 93 
0.269921 -0.88652 3.24437 81 89 74 
0.282272 -0.88607 3.24349 56 60 46 
0.299765 -0.821822 3.24814 39 41 28 
-0.484097 -1.02993 3.96501 104 77 48 
0.165271 -0.809223 3.24545 92 72 35 
1.14196 -0.913026 3.97726 93 86 76 
0.398634 -0.682511 3.0622 103 76 46 
0.181677 -0.706672 3.19492 49 26 0 
0.345907 -0.679206 3.10769 133 133 97 
0.327884 -0.675459 3.12199 73 92 47 
0.335199 -0.647155 3.0775 134 110 66 
0.525136 -0.625321 3.07112 74 55 25 
-0.226877 -0.716335 3.75226 171 132 37 
-0.152382 -0.709978 3.77898 207 173 40 
0.341701 -0.531997 3.11655 152 126 91 
-0.617624 -0.709458 3.90041 185 170 151 
-0.615553 -0.698411 3.90346 83 68 49 
-0.614676 -0.696296 3.91667 186 170 154 
-0.594295 -0.691575 3.90766 104 86 64 
-0.134432 -0.635124 3.78883 151 125 50 
-0.48284 -0.457843 3.52923 199 177 101 
-0.350575 -0.436559 3.48324 75 67 54 
0.0819247 -0.350248 3.53475 119 118 113 
-0.305956 -0.331202 3.30354 140 137 128 
-0.335533 -0.328361 3.28896 43 41 29 
-0.0543714 -0.251098 3.77581 201 162 41 
-0.0302805 -0.224244 3.75205 150 120 68 
-0.523046 0.235844 3.98482 59 32 0 
-0.0763843 -1.20318 3.15703 213 200 168 
-0.275159 0.0513222 2.93387 103 62 0 
-0.465799 -0.12051 2.85511 128 78 0 
-0.0248278 -1.04665 3.19736 45 33 11 
-0.42634 -0.330563 3.25626 157 141 56 
-0.0953234 -1.17506 4.01792 39 31 12 
0.0558838 -0.391908 3.58881 103 103 101 
-0.45725 -1.06102 3.9654 56 41 18 
-0.447304 -1.05323 3.9654 123 100 69 
-0.565608 -1.01987 4.0678 154 142 130 
0.549501 -0.692735 3.01016 101 76 36 
0.554232 -0.691238 3.01906 92 68 34 
-0.115173 0.4999 4.21532 209 170 30 
-0.525194 0.268489 3.9957 70 46 0 
0.00999347 -1.04336 3.20989 75 52 21 
0.327164 -0.846731 3.23728 91 66 62 
0.304343 -0.810099 3.25332 90 90 80 
-0.0420029 -1.19626 3.15517 162 134 94 
0.42893 -0.739202 3.12991 175 177 128 
1.03427 -1.07735 3.99829 169 122 18 
0.305571 -0.887866 3.22408 67 73 63 
-0.0889666 -0.375873 3.79516 37 19 0 
-0.410085 -0.156457 2.83541 215 187 103 
-0.0768474 -0.19729 3.80336 223 188 60 
0.0257364 -0.189114 3.73815 173 152 109 
1.04693 -1.22346 3.92042 150 139 133 
1.06961 -1.21802 3.9015 62 53 54 
1.02712 -1.22876 3.92596 124 114 104 
1.01614 -1.23562 3.91501 190 176 167 
0.00538596 -0.255644 3.71979 91 63 13 
-0.313112 -0.201443 2.93794 179 125 19 
-0.0119771 -0.233988 3.73543 192 161 107 
1.12012 -1.22591 3.90898 181 179 167 
-0.424684 -0.329255 3.24348 126 109 37 
-0.196923 0.690652 4.00062 132 120 108 
-0.534824 0.182996 3.97886 61 28 0 
-0.471731 -0.117317 2.86829 146 95 4 
-0.574289 -0.507714 3.57523 22 21 19 
-0.484355 -1.04357 3.96057 84 67 41 
0.182674 -0.825678 3.26305 153 160 126 
-0.524687 0.147113 3.97656 94 54 0 
0.549397 -0.661312 3.01214 175 151 115 
-0.372837 -0.0415578 2.89514 88 34 0 
0.344348 -0.58787 3.09149 59 35 1 
-0.151944 -0.710441 3.78843 204 170 37 
-0.150981 -0.704393 3.75509 167 137 27 
-0.0772996 -1.19114 3.1631 133 111 74 
-0.413413 -0.144728 2.84623 212 174 31 
1.06187 -1.21663 3.91029 143 134 129 
-0.0885763 -0.194665 3.80602 255 228 105 
1.04744 -1.23346 3.92246 110 106 103 
0.055472 -0.388134 3.56391 33 34 28 
-0.0729817 -0.411179 3.75826 80 65 42 
0.379388 -0.650969 3.05707 73 58 27 
0.141906 -0.801276 3.22639 110 87 45 
1.12483 -1.24415 3.92712 137 134 127 
0.479685 -0.694786 3.04729 46 35 7 
1.12228 -1.22944 3.91798 176 174 161 
0.177294 -0.697245 3.19411 170 147 115 
-0.553467 -0.406749 3.5585 168 120 0 
1.01801 -1.23746 3.92388 195 181 170 
0.384059 -0.502453 3.14322 60 42 18 
1.02809 -1.24235 3.91737 197 177 168 
0.554563 -0.681532 3.01013 132 112 79 
0.138386 -1.00372 3.29412 229 180 139 
0.530095 -0.670372 3.01443 191 168 137 
-0.578505 -0.536794 3.58998 70 69 65 
-0.169551 0.472246 4.09664 227 183 22 
-0.284229 -0.483426 3.45001 147 144 139 
1.11547 -1.24133 3.89618 166 159 149 
0.52457 -0.67882 3.03891 106 96 71 
0.511652 -0.695239 3.01407 222 199 147 
0.202377 -0.787848 3.23678 56 66 31 
-0.411537 -0.142938 2.8314 169 121 19 
0.154738 -0.780615 3.2176 122 97 56 
-0.482879 -1.04153 3.95043 60 44 19 
1.06362 -1.41413 4.00799 154 114 27 
-0.254821 -0.00345416 2.92333 186 139 0 
0.852727 -1.00117 3.86544 82 68 41 
-0.089371 -1.16627 4.01799 120 100 73 
0.27798 -0.881914 3.22064 52 56 42 
-0.595328 -0.692031 3.89182 87 71 48 
-0.0434772 -1.04966 3.2178 39 25 12 
-0.127376 -1.17943 4.03068 92 78 52 
-0.448313 -1.04533 3.9461 55 27 3 
-0.540081 -0.452065 3.56777 160 134 24 
0.181981 -0.805057 3.24106 171 160 128 
1.06352 -1.10453 4.02893 211 169 31 
0.240022 -0.725643 3.21781 33 59 14 
0.365007 -0.713995 3.11997 166 188 142 
-0.460248 -1.05414 3.94313 44 32 10 
0.16277 -0.776017 3.1923 173 145 105 
-0.120578 0.360909 4.21548 185 150 20 
-0.217322 0.0363616 2.91199 141 107 17 
-0.160942 0.869893 3.66437 153 142 136 
-0.11427 0.378932 4.17707 207 168 13 
1.04015 -1.08999 4.01586 150 100 15 
-0.237271 0.588737 4.02337 230 202 155 
0.473845 -0.695328 3.0384 56 32 4 
-0.203641 0.667951 4.01515 188 175 156 
-0.302809 -0.0362682 2.88667 139 103 9 
1.0577 -1.23089 3.94401 150 139 133 
0.171541 -0.633659 3.21531 61 41 16 
-0.262542 -0.438623 3.48817 74 73 68 
-0.339399 -0.31847 3.26499 121 118 111 
0.474694 -0.700797 3.05859 73 48 18 
1.07018 -1.22781 3.94176 124 113 109 
1.03311 -1.23172 3.95322 128 118 106 
0.554169 -0.681077 3.01115 129 110 80 
1.07524 -1.43205 4.05549 217 181 95 
-0.525863 0.235924 3.95888 46 19 0 
0.297068 -0.819832 3.23919 46 47 41 
0.209829 -0.784089 3.22625 98 113 84 
0.148753 -0.774346 3.19257 187 164 122 
0.176773 -0.699439 3.17791 40 23 0 
0.339123 -0.584353 3.07257 68 45 14 
-0.740587 -0.822575 4.26041 85 65 38 
-0.0422449 -0.571814 3.59499 31 29 30 
-0.334333 -0.48381 3.46893 57 58 53 
-0.732878 -0.312869 4.23384 91 78 61 
-0.084433 -1.39269 4.03497 227 224 191 
0.267035 -0.886182 3.24226 68 80 66 
0.324596 -0.844685 3.22892 89 71 67 
0.359072 -0.710203 3.10745 165 173 136 
0.363116 -0.702002 3.10079 83 66 23 
0.338275 -0.676377 3.09549 76 80 47 
0.37594 -0.647933 3.04429 137 118 86 
-0.613485 -0.713222 3.90682 102 89 72 
-0.645501 -0.632912 3.97539 190 176 163 
-0.641124 -0.620122 3.97361 75 62 43 
-0.345347 -0.330742 3.28928 65 66 61 
-0.502271 -0.248207 2.99051 253 143 46 
-0.598933 -0.225302 3.26486 146 145 141 
0.135648 -1.001 3.2833 203 156 128 
-0.276084 0.0518705 2.92455 88 48 0 
-0.654669 -0.310988 4.26144 69 61 48 
-0.309705 -0.421961 3.47037 75 72 67 
-0.168277 -1.18259 4.103 67 37 9 
-0.167123 -1.18699 4.12196 102 65 36 
0.308364 -0.875399 3.22058 56 59 50 
-0.557322 -0.0961573 3.03808 215 179 31 
-0.369536 -0.018071 2.89624 106 62 0 
-0.461534 -0.0975532 2.86253 119 60 2 
0.0518541 -0.384478 3.54836 33 33 31 
0.370682 -0.653098 3.05324 93 74 42 
0.474247 -0.701442 3.05727 110 95 66 
-0.718082 -0.301147 4.23831 108 90 68 
-0.717644 -0.304459 4.22673 99 83 60 
0.166729 -0.819259 3.24594 106 106 70 
-0.0966912 -1.17364 4.01494 46 34 22 
-0.526578 -0.46016 3.5654 55 40 7 
-0.181824 0.465454 4.09213 162 110 0 
0.30361 -0.886675 3.21864 66 71 64 
-0.0162189 -1.17842 4.08593 79 55 29 
0.235818 -0.72203 3.20304 50 77 36 
-0.589014 -0.703457 3.91041 69 52 32 
0.0758682 -0.347092 3.52483 133 130 125 
-0.181547 0.870956 3.62986 196 186 177 
0.176757 -0.688371 3.18674 72 49 18 
-0.804274 -0.529365 4.50879 161 142 109 
0.0468862 -0.388279 3.5569 61 61 59 
0.525216 -0.677764 3.03953 91 78 62 
-0.48538 -1.03459 3.97505 135 112 81 
-0.160468 0.865235 3.63021 166 157 150 
-0.446297 -1.06128 3.9704 153 133 100 
-0.0918849 -1.18201 4.03964 56 44 30 
-0.178521 -1.19202 4.12534 180 161 146 
-0.234554 -0.935371 3.75106 51 96 75 
-0.462493 -0.101917 2.85328 113 49 3 
0.138091 -1.00248 3.28739 203 156 128 
0.173876 -0.816877 3.27591 108 85 43 
-0.484871 -1.04389 3.96476 83 69 42 
0.532623 -0.673267 3.0292 142 125 99 
-0.0502114 -1.0514 3.19595 54 39 20 
0.537816 -0.319349 3.45405 177 162 143 
-0.189316 0.427219 4.07875 222 183 52 
0.278364 -0.885531 3.23491 38 54 44 
-0.0791583 -1.03247 3.14292 44 28 12 
-0.0917276 -1.3774 4.03038 255 241 214 
-0.0473574 -1.22162 4.02497 249 234 203 
0.278747 -0.863407 3.17728 49 52 45 
-0.271371 -1.07271 3.94593 61 120 98 
-0.540261 0.177821 3.94119 99 60 0 
0.43903 -0.685875 3.0049 57 41 25 
0.499455 -0.659903 2.97318 88 74 47 
0.32306 -0.698569 3.06068 128 134 100 
0.144499 -0.687518 3.13008 67 53 27 
0.30055 -0.574551 3.02047 72 47 16 
0.306631 -0.51962 3.05376 78 58 31 
-0.717411 -0.299663 4.23463 113 95 73 
-0.620599 -0.695161 3.89123 90 75 54 
-0.599768 -0.685712 3.88906 108 91 75 
-0.3539 -0.0852518 2.80251 171 123 12 
-0.472632 -0.568164 3.51275 118 97 34 
-0.615329 -0.616068 3.95927 42 29 10 
-0.504642 -0.40529 4.22309 70 41 1 
0.17614 -1.39382 3.41533 127 37 47 
-0.0905003 -1.16309 4.01887 97 78 61 
-0.0309542 -1.16633 4.05016 109 74 46 
-0.544891 -0.441678 3.51902 114 74 0 
0.477557 -0.680421 2.95755 80 62 26 
-0.367141 -0.43468 3.42414 20 13 0 
0.281736 -0.661546 3.05607 67 69 30 
-0.582781 -0.798345 3.76669 129 115 102 
-0.153771 -0.726029 3.76979 131 114 44 
-0.483252 -0.447987 3.48386 48 23 0 
0.333106 -0.641069 3.00452 84 71 39 
0.0179038 -0.633057 3.33074 107 83 55 
-0.348062 -0.480152 3.43276 64 63 61 
0.265814 -0.807844 3.19606 52 54 40 
-0.790216 -0.514376 4.53349 66 50 34 
0.489635 -0.749805 3.05379 146 127 87 
-0.576998 -0.502992 3.53206 100 101 93 
-0.64089 -0.625558 3.96008 56 42 29 
0.294292 -0.667623 3.05958 113 128 97 
-0.433747 -0.552125 3.51313 45 27 0 
-0.516677 -0.720012 3.88869 99 93 79 
-0.102113 -0.587605 3.56195 139 136 127 
-0.614846 -0.707805 3.88821 69 54 33 
0.341253 -0.640734 2.99404 42 33 18 
0.354628 -0.662331 2.99298 82 60 36 
-0.651923 -0.193399 4.33998 216 195 168 
-0.133973 -1.17212 4.0348 134 119 90 
-0.166187 -1.20203 4.15901 206 188 174 
-0.491051 -0.746531 3.87112 19 14 11 
-0.61664 -0.228754 3.22002 186 187 179 
-0.619219 -0.218516 3.21752 69 68 63 
-0.641187 -0.618804 3.96821 68 54 41 
0.0998548 -0.566427 3.46969 101 88 56 
-0.734767 -0.306834 4.23763 73 56 40 
0.325085 -0.673309 3.08392 113 128 97 
-0.272761 0.476449 4.0487 203 158 29 
-0.189901 0.457841 4.059 121 92 0 
-0.528231 0.268216 3.97941 119 101 55 
-0.492136 0.231968 3.93875 157 120 32 
-0.467996 0.151325 3.93412 90 49 0 
-0.206583 0.0985717 3.97633 163 126 0 
-0.0662148 -1.09075 3.25105 159 101 90 
-0.708105 -0.146094 4.34503 100 87 71 
-0.552555 -0.133497 4.09234 146 106 0 
-0.599275 -0.114271 3.38804 57 44 2 
-0.61342 -0.157249 3.55093 205 164 40 
-0.0734761 -1.21084 3.98951 255 247 217 
0.49834 -0.885956 3.22115 82 74 71 
0.48279 -0.876828 3.21029 116 118 104 
0.338497 -0.858777 3.14353 124 104 95 
-0.159242 -1.16452 3.98042 73 62 34 
-0.211511 -1.18912 4.06067 48 37 17 
-0.747013 -0.306507 4.21409 74 61 44 
-0.177982 -1.14732 3.97227 92 68 40 
-0.0717743 -1.14813 3.99387 111 82 52 
-0.0994978 -1.13678 3.95656 132 103 71 
-0.209835 -1.17973 4.06545 48 37 17 
-0.754027 -0.314615 4.18904 70 57 41 
-0.19794 -1.18111 4.08734 153 136 116 
0.315776 -0.84075 3.19692 113 106 98 
-0.120965 -1.13718 4.03443 245 208 190 
-0.00580299 -1.08804 3.94744 57 77 52 
-0.256219 -1.16849 4.15991 88 100 80 
-0.576943 -0.164075 3.25994 89 81 42 
0.331805 -0.807228 3.22237 102 107 101 
-0.481568 -0.277883 4.1587 56 21 0 
-0.439805 -0.0906687 2.84331 107 63 2 
-0.281189 -1.14783 4.15425 145 162 144 
0.152386 -0.799631 3.21045 122 103 71 
0.468787 -0.678903 2.95361 96 72 38 
0.575269 -0.681295 2.98549 141 127 98 
-0.449992 -0.112407 2.84654 88 37 0 
0.146859 -0.772589 3.17603 131 111 74 
-0.253366 -1.02104 3.86356 102 172 136 
0.425417 -0.688199 3.00415 97 77 52 
0.483373 -0.669648 2.97422 113 98 77 
-0.468108 -1.05534 3.94254 61 47 20 
0.576677 -0.666759 2.9937 121 105 80 
-0.315382 -0.0955579 2.82239 230 218 204 
0.505343 -0.660991 2.97724 75 64 46 
-0.460668 -1.04802 3.94275 160 125 97 
-0.401525 -1.0551 3.98731 255 252 220 
0.491728 -0.655211 2.96598 166 152 125 
-0.506761 -1.03393 3.92365 95 81 46 
-0.493396 -1.03769 3.94467 72 58 23 
0.3744 -0.66335 3.00405 91 70 49 
-0.380416 -0.160329 2.98571 255 154 49 
-0.541794 -0.246117 3.25389 39 38 33 
0.309793 -0.666981 3.05366 120 104 71 
0.376562 -0.645991 3.00376 255 254 232 
0.30326 -0.669843 3.0636 165 162 129 
-0.376031 -0.182678 2.9951 196 75 0 
-0.469204 -1.00666 3.94561 210 169 149 
-0.506658 -0.252534 3.24035 218 187 45 
0.345268 -0.638139 3.00018 133 121 97 
-0.464348 -1.00884 3.96577 251 223 211 
-0.391523 -0.190926 2.98618 255 141 41 
-0.476302 -0.999715 3.95097 255 245 228 
-0.543464 -0.286894 3.35038 171 152 94 
-0.493634 -0.265318 3.26163 180 180 168 
-0.579403 -1.02426 4.0352 54 39 18 
-0.337824 -0.198822 2.96193 130 61 0 
-0.378684 -0.878642 3.69147 175 179 164 
-0.572588 -0.411874 3.71854 121 109 67 
0.300692 -0.585367 3.04692 61 40 9 
-0.534907 -0.403388 3.55069 165 121 0 
-0.347373 -0.330563 3.28335 100 98 85 
-0.316169 -0.324814 3.27767 30 27 10 
0.0274714 -0.639556 3.33628 61 38 7 
0.193296 -0.613892 3.32433 133 115 105 
-0.59555 -0.959031 4.25176 142 153 137 
0.157291 -0.611525 3.3083 69 54 33 
0.330331 -0.519759 3.073 150 131 99 
-0.3326 -0.336811 3.28911 54 53 49 
-0.576487 -0.795051 3.77814 128 116 102 
-0.513284 -0.444464 3.55972 180 144 32 
0.0081288 -0.61838 3.45499 11 0 0 
0.0255737 -0.614009 3.46745 68 61 42 
-0.655747 -0.907023 4.28083 74 68 44 
0.0850159 -0.345707 3.51657 140 136 135 
-0.508908 -0.745781 3.8426 14 4 0 
-0.450298 -0.451575 3.50992 45 18 0 
-0.445335 -0.452665 3.48512 176 160 111 
-0.734161 -0.843587 4.21393 153 123 95 
0.0552264 -0.379196 3.5028 20 20 18 
-0.635751 -0.759694 3.93903 97 88 71 
-0.54768 -0.506029 3.57501 69 68 66 
-0.561676 -0.505644 3.56531 17 16 14 
-0.63202 -0.605192 3.94351 106 90 74 
-0.343757 -0.459739 3.46451 7 6 1 
-0.494484 -0.723691 3.90901 19 10 3 
-0.36214 -0.461256 3.45586 67 66 62 
-0.616964 -0.615909 3.95624 38 26 12 
-0.643609 -0.7506 3.94627 218 209 192 
-0.652223 -0.742549 3.90889 198 184 171 
-0.640332 -0.626733 3.96103 60 49 31 
-0.767958 -0.74002 4.30515 98 84 73 
-0.742707 -0.822185 4.22871 131 106 84 
-0.675943 -0.66518 3.97989 65 55 43 
-0.336205 -0.513081 3.47924 117 117 115 
-0.617553 -0.705806 3.88894 175 164 144 
-0.127555 -0.566098 3.5948 142 135 129 
-0.328568 -0.520184 3.47048 35 20 0 
-0.418933 -0.55229 3.54931 98 79 10 
-0.601959 -0.691422 3.86534 144 129 108 
-0.506425 -0.582859 3.59715 80 53 0 
-0.599344 -0.685583 3.88978 101 84 68 
-0.442172 -0.562056 3.54041 33 19 0 
-0.473507 -0.580354 3.59684 229 195 98 
0.161926 -0.435319 3.36505 72 49 18 
-0.625349 -0.676655 3.90648 106 94 78 
-0.493191 0.170553 3.93504 93 55 0 
-0.606478 -0.668033 3.90241 93 78 57 
0.370009 -0.386515 3.2106 164 148 123 
-0.540367 -0.688906 3.92584 66 54 32 
-0.262113 0.060982 2.9107 100 59 7 
-0.778515 -0.735552 4.26123 79 61 41 
0.312646 -0.464644 3.33965 125 107 103 
-0.534009 0.304707 4.00007 67 33 0 
-0.525015 0.308276 4.01813 98 63 0 
-0.647579 -0.731775 3.86726 139 127 113 
-0.292698 -1.06758 3.91774 50 108 83 
-0.303623 -0.0807901 2.84916 153 106 0 
-0.615532 -0.283183 3.67811 195 165 43 
-0.608806 -0.284429 3.6926 182 153 35 
-0.4909 -1.02784 3.94401 62 30 5 
-0.393963 -0.151073 2.8038 224 201 169 
-0.337032 -0.429081 3.47405 73 65 54 
0.388529 -0.64391 3.01521 249 244 222 
-0.275422 -0.914844 3.71924 15 49 32 
-0.461554 -0.989744 3.92433 59 82 54 
-0.589528 -1.0118 4.02163 110 89 72 
-0.516921 -0.456229 3.55707 40 28 6 
-0.260072 0.570506 3.97281 185 163 105 
-0.379772 -0.128205 2.83067 255 239 88 
-0.649232 -0.186609 4.3089 71 47 13 
-0.368487 -0.103808 4.04869 138 101 33 
-0.709913 -0.78574 4.11737 42 98 73 
-0.59398 -1.24305 3.94547 160 138 99 
0.273252 -0.872968 3.17256 68 80 66 
-0.512282 -0.715343 3.87499 73 59 50 
-0.00487646 -1.07865 3.95261 57 89 66 
-0.518459 0.0314162 3.3631 33 32 30 
-0.609875 -0.184056 3.31542 128 127 123 
-0.652082 -0.611634 3.9515 207 193 180 
-0.677502 -0.887497 4.19644 46 56 32 
-0.454577 -0.616266 3.61197 184 139 0 
-0.499137 0.603714 3.96853 116 87 45 
-0.336542 -0.230532 2.98659 189 132 0 
-0.514275 -0.94534 3.90162 76 147 115 
-0.385566 -0.160591 2.97119 228 134 34 
-0.249367 0.563738 3.99053 248 210 129 
-0.585217 -0.177247 3.27986 30 25 21 
-0.715578 -0.80947 4.13046 88 144 115 
-0.585577 -0.389281 3.65353 205 170 44 
-0.329699 -0.485186 3.44153 85 82 77 
-0.624799 -1.22849 3.96579 146 131 102 
-0.203181 0.459212 4.0463 228 187 35 
-0.547772 0.232565 3.94394 27 8 0 
-0.18792 0.131519 3.97473 142 100 0 
-0.127376 -1.37645 3.97823 255 255 225 
-0.581134 -0.155762 3.24923 59 38 0 
-0.0931169 -1.20025 3.96699 251 238 204 
-0.43033 -0.116721 2.84877 122 77 0 
-0.216734 -1.18673 4.053 48 37 17 
-0.165818 -1.15308 3.98405 122 102 77 
-0.212977 -1.18226 4.07724 86 71 64 
-0.0200127 -1.08278 3.92956 74 90 64 
0.428253 -0.764729 3.07892 118 99 66 
0.459562 -0.76762 3.09766 203 180 146 
0.443897 -0.740975 3.02016 119 96 54 
-0.263388 -1.15954 4.15581 145 160 141 
-0.488164 -0.321688 3.3538 52 35 0 
-0.452308 -0.320719 3.37266 192 174 98 
0.407328 -0.739828 3.07824 192 172 135 
0.478604 -0.680462 2.95824 116 92 58 
0.0171103 -0.34793 3.52735 114 111 106 
0.593354 -0.670929 3.00732 92 74 52 
-0.457218 -0.451352 3.52027 48 23 0 
-0.390601 -1.06353 4.00368 255 252 223 
0.520723 -0.663439 2.98728 75 64 46 
-0.456776 -1.04676 3.9515 58 20 0 
-0.619532 -0.608907 3.96411 57 41 26 
-0.34935 -0.458638 3.45723 16 15 10 
-0.626245 -0.614723 3.94194 38 26 12 
0.318681 -0.669097 3.0573 151 131 98 
-0.648502 -0.624801 3.94789 60 49 31 
-0.754051 -0.743903 4.32493 31 17 4 
-0.670226 -0.662047 4.0032 107 95 81 
0.361213 -0.644575 3.00544 54 51 36 
-0.68418 -0.660775 3.96845 192 184 171 
-0.679397 -0.668935 3.98894 96 84 72 
0.160067 -0.686715 3.14891 153 141 115 
-0.518458 -0.580412 3.58092 84 57 0 
-0.616602 -0.696472 3.89703 95 84 66 
-0.75777 -0.801431 4.20568 152 123 93 
-0.488082 -0.981712 3.97157 234 185 153 
-0.754209 -0.826998 4.2195 57 41 16 
0.307298 -0.475606 3.34774 43 28 21 
-0.521523 -0.719839 3.8815 70 66 63 
-0.490445 -0.744242 3.8614 31 19 5 
-0.170747 -0.69898 3.728 184 163 98 
0.317455 -0.524378 3.06243 152 132 99 
0.345407 -0.510144 3.06619 88 70 50 
0.379632 -0.51059 3.09372 88 75 66 
-0.644241 -0.929475 4.20355 91 125 109 
-0.290351 0.469761 4.02155 211 169 25 
-0.829523 -0.506515 4.44604 87 72 51 
-0.644618 -0.407146 4.13998 52 34 20 
-0.196238 0.46675 4.02367 110 80 8 
0.332026 -0.579364 3.0445 72 53 20 
0.0984075 -0.665566 3.25059 102 82 58 
-0.445245 -0.339211 3.35868 57 46 0 
-0.12205 -1.0125 3.79126 23 63 39 
0.0943938 -0.566128 3.46397 96 84 62 
-0.637104 -0.739381 3.88556 127 115 99 
-0.220944 0.102976 3.98597 199 161 34 
0.325009 -0.472302 3.34731 147 133 122 
0.293156 0.203536 4.02718 207 189 143 
0.515834 -0.669495 2.96761 142 124 100 
0.333513 -0.466309 3.3578 137 119 115 
0.479331 -0.66891 2.96603 62 46 30 
-0.373982 -1.03486 3.91366 102 171 142 
-0.63792 -1.22828 3.93282 132 115 87 
0.385333 -0.38726 3.22189 164 148 123 
-0.608949 -1.24689 3.96742 150 131 101 
-0.264801 -0.92949 3.71023 18 61 33 
0.493045 -0.611201 3.00298 130 113 95 
-0.680396 -0.655933 3.99151 205 196 181 
-0.33763 -0.0110923 2.88619 97 54 11 
-0.232874 0.701412 3.9213 172 162 153 
-0.486829 -1.03107 3.95083 59 35 11 
-0.420888 -0.0949339 2.84525 108 68 6 
-0.293112 -0.201604 2.9136 173 122 17 
-0.260857 0.558565 3.97439 248 210 129 
-0.631735 -1.22046 3.9632 135 119 96 
0.0983478 -0.350263 3.53108 60 56 53 
-0.528245 -0.454856 3.54078 36 25 5 
0.28183 -0.863908 3.17885 32 40 29 
-0.531497 0.0303789 3.34648 27 26 24 
-0.518612 -0.714148 3.86587 60 45 38 
0.488111 -0.579578 3.01974 61 46 27 
0.0590975 -0.584984 3.35183 123 99 71 
-0.535046 -0.249164 3.26237 83 82 78 
-0.293159 -0.221466 2.94352 255 255 163 
-0.5384 0.143568 3.94192 89 48 0 
-0.466792 -0.891806 3.80129 44 104 76 
-0.681957 -0.509482 4.04882 111 98 82 
-0.574172 -0.188625 4.14022 181 134 0 
-0.37611 -1.06623 3.99558 154 130 102 
-0.223965 0.705281 3.93295 172 162 153 
-0.296252 0.560581 3.92624 215 189 140 
-0.284184 0.472597 4.0311 207 164 25 
-0.187134 0.470366 4.03798 176 141 25 
-0.537899 0.267003 3.96818 121 101 38 
-0.484465 0.232486 3.9517 165 129 35 
-0.179275 0.128653 3.97762 214 176 53 
-0.214064 0.105515 3.99588 199 162 29 
0.0240108 -1.07978 3.51628 60 48 36 
-0.631262 -1.23249 3.9445 136 120 94 
-0.64104 -1.21475 3.94676 138 122 96 
0.381715 -0.866981 3.16094 42 55 35 
0.279683 0.189629 4.00256 230 214 180 
-0.136195 -1.15819 3.96168 38 27 7 
-0.191111 -1.20267 4.10399 68 62 40 
-0.111015 -1.15302 3.98317 127 107 82 
-0.201871 -1.18487 4.07637 48 40 21 
-0.13086 -1.1282 4.0202 255 251 234 
0.276659 -0.810752 3.2052 55 56 48 
-0.0907936 -1.03558 3.80421 91 98 80 
0.419562 -0.770735 3.14761 123 132 103 
0.168876 -0.804614 3.21604 105 105 77 
-0.303555 -1.00268 3.79398 15 82 49 
0.52687 -0.671301 2.97529 134 116 92 
0.519617 -0.675151 3.00382 42 30 8 
0.352148 -0.705786 3.08216 138 149 109 
-0.630626 -0.283558 4.24002 199 179 146 
0.477649 -0.65705 2.96606 170 154 128 
-0.736565 -0.307333 4.2338 74 61 44 
-0.571761 -0.146539 3.25639 207 173 37 
-0.732556 -0.30725 4.1975 70 53 35 
-0.502584 -1.02315 3.93272 134 99 71 
-0.597609 -0.184231 3.37253 70 53 1 
-0.477404 -0.278081 4.168 52 19 0 
0.354006 -0.680636 3.09602 47 51 24 
-0.608648 -0.243636 3.64598 197 162 32 
0.311675 -0.671011 3.06906 165 162 129 
-0.495041 -0.292908 4.17015 73 42 0 
0.155519 -0.69736 3.13685 49 35 8 
0.34812 -0.643302 3.01595 77 51 24 
-0.777059 -0.370976 4.251 147 148 134 
0.392569 -0.628762 2.99281 255 255 209 
0.173962 -0.694798 3.15465 36 28 9 
-0.573366 -1.01719 4.00362 39 26 10 
-0.593678 -0.271651 3.65949 99 54 0 
0.50608 -0.609897 3.00745 48 28 4 
-0.482058 -0.983507 3.98058 234 185 153 
-0.393511 -0.876403 3.66657 223 236 219 
-0.62065 -0.250509 3.28334 89 87 75 
-0.381587 -0.144395 2.81992 157 106 17 
-0.815802 -0.526896 4.46791 38 26 4 
-0.809116 -0.533321 4.45685 106 93 77 
-0.343457 -0.197165 2.97109 139 65 0 
0.238945 -0.618896 3.3433 130 106 102 
-0.462942 -0.249601 2.99701 255 215 165 
-0.580565 -0.411241 3.70761 121 109 67 
-0.447181 -0.330359 3.36914 188 163 70 
0.0572428 -0.586769 3.34198 128 105 74 
-0.160675 -0.723806 3.76111 154 135 66 
-0.72897 -0.846566 4.22574 183 156 127 
-0.0769249 -0.591595 3.59195 139 138 133 
0.3409 -0.48095 3.37363 41 24 17 
-0.132877 -0.599461 3.60175 138 133 127 
-0.758544 -0.825072 4.2099 65 48 22 
0.3444 -0.467116 3.3676 137 119 115 
-0.645201 -0.741982 3.9416 212 204 185 
-0.526572 -0.444042 3.54706 118 80 0 
0.0245963 -0.34705 3.53425 130 127 122 
-0.518004 -0.449857 3.5685 195 163 52 
0.0602182 -0.344853 3.49253 140 136 135 
-0.58305 -0.700374 3.90037 43 25 11 
-0.5792 -0.481277 3.56579 80 74 62 
-0.458902 -0.570326 3.53345 55 36 0 
-0.566516 -0.488469 3.58515 16 12 0 
-0.498447 -0.575603 3.58945 183 163 94 
-0.324923 -0.523206 3.48245 136 119 73 
-0.343276 -0.512277 3.47015 134 134 132 
-0.670169 -0.673961 3.99788 83 73 61 
-0.678707 -0.668746 3.99919 202 204 191 
-0.456273 -0.57857 4.05966 81 55 18 
-0.683468 -0.659803 3.97907 90 81 66 
-0.763243 -0.740747 4.29248 97 80 60 
-0.335567 -0.437712 3.46479 15 5 0 
0.0677965 -0.381951 3.50844 69 69 67 
-0.660931 -0.626064 3.93433 190 179 161 
-0.654233 -0.616554 3.94423 57 46 28 
-0.360677 -0.457432 3.44505 5 4 0 
-0.325472 -0.22964 3.00363 197 141 0 
-0.517401 -0.44489 4.13925 63 41 0 
0.444914 -0.577994 3.50154 126 105 102 
-0.584813 -0.9551 4.00736 53 95 75 
-0.361739 -1.04003 3.92256 17 86 55 
-0.208518 0.372304 4.00094 182 151 68 
-0.215392 0.707879 3.94226 175 164 158 
-0.20448 0.707404 3.96086 108 97 91 
-0.206295 0.458707 4.05868 152 103 0 
-0.102421 -1.12944 3.1844 226 210 194 
-0.134021 -1.39103 4.0147 212 197 174 
-0.182683 0.203016 3.96275 210 174 64 
-0.00966416 -1.24266 3.73861 224 196 192 
-0.241517 0.100258 3.95797 207 170 37 
0.0172553 -1.07741 3.50893 60 48 36 
-0.146116 -1.17013 3.99695 101 90 62 
-0.12074 -1.16403 3.98321 33 22 4 
-0.189163 -1.18679 4.10399 149 131 117 
0.306745 -0.83537 3.1923 118 108 98 
-0.674437 -0.195829 4.28797 212 192 159 
-0.042331 -1.06015 3.89879 83 121 96 
0.310761 -0.802594 3.20744 103 106 99 
0.402297 -0.767642 3.1339 115 121 93 
-0.571883 -0.139802 3.26985 83 78 40 
-0.254724 -1.05172 3.93245 0 37 20 
-0.729328 -0.300892 4.21421 90 72 52 
-0.581224 -0.147198 3.24394 209 177 34 
-0.432449 -0.0927246 2.85087 91 43 0 
-0.619449 -0.325484 4.19693 198 178 151 
0.386273 -0.665064 3.01384 55 37 23 
0.23135 -0.716112 3.17759 41 79 40 
0.350303 -0.674858 3.08344 99 85 56 
0.354641 -0.650742 3.02157 210 192 152 
0.163011 -0.698009 3.14358 45 30 7 
0.433925 -0.624771 3.00047 255 247 208 
-0.530448 -0.235408 3.26259 127 124 119 
-0.582258 -1.01322 3.9888 43 27 12 
-0.367867 -0.150018 2.81674 184 166 144 
-0.571221 -1.00441 3.98872 117 92 72 
-0.530657 -0.284974 3.37018 80 55 0 
-0.472832 -0.251245 2.98683 252 212 163 
-0.438769 -0.330901 3.37985 188 163 70 
-0.254367 -0.232724 2.91402 137 128 119 
-0.52983 -0.403924 3.56239 159 111 1 
0.0261462 -0.380646 3.50431 22 21 19 
-0.151769 -0.712226 3.75166 104 95 30 
-0.40525 -0.688475 3.56707 226 189 48 
-0.469371 -0.576007 4.03796 55 30 0 
-0.949074 -0.893197 4.32166 119 104 83 
-0.640915 -0.631516 3.9698 190 179 161 
-0.503818 -0.722738 3.89367 25 16 11 
0.424872 -0.450824 3.32166 149 133 118 
0.566453 -0.4183 3.30962 103 87 72 
-0.220145 -0.591715 3.61024 98 82 31 
-0.312474 -0.527259 3.49771 174 154 93 
-0.50682 -0.574401 3.5783 183 163 94 
-0.636072 -0.701848 3.85338 67 56 34 
-0.405511 -0.556862 3.55119 87 63 1 
-0.620595 -0.695805 3.8894 85 74 56 
-0.451054 -0.570594 3.53931 52 35 0 
-0.414039 -0.868632 3.65159 244 240 229 
-0.659045 0.713899 3.88288 130 117 109 
0.336948 -0.718542 3.0668 85 121 75 
0.340923 -0.679967 3.08559 41 54 28 
-0.521579 -0.212412 4.14767 193 154 33 
-0.210147 0.420083 4.03418 220 182 57 
-0.588512 -0.692925 3.8896 141 128 109 
-0.53586 0.260197 3.97599 53 34 0 
-0.619261 -1.2357 3.95776 125 109 76 
-0.543612 -0.553351 3.56779 133 134 129 
-0.627281 -0.634919 3.99417 206 194 178 
-0.537525 -0.234469 3.25505 131 128 119 
-0.518823 -0.289619 3.37246 55 49 23 
-0.160429 -1.15724 3.99135 126 109 83 
-0.0719842 -1.1521 4.00125 73 41 18 
-0.21233 0.0885765 3.98821 218 180 33 
0.548518 -0.685145 2.99211 79 55 31 
-0.282179 -1.04168 3.89581 0 37 20 
-0.243527 -0.357684 3.52535 129 103 42 
0.371236 -0.724696 3.0796 180 187 143 
0.339151 -0.702848 3.0699 183 173 137 
0.376453 -0.671249 3.01717 64 43 16 
0.351914 -0.660119 2.98972 85 67 47 
0.213161 -0.713604 3.16349 41 79 40 
0.307 -0.666886 3.07747 41 64 20 
-0.712411 -0.163204 4.31975 64 50 37 
-0.289717 -0.904054 3.69794 13 25 15 
0.025846 -0.383773 3.51362 115 117 116 
-0.372722 -0.142785 2.82616 153 100 22 
-0.54507 -0.507777 3.58949 11 10 6 
-0.780012 -0.269682 4.4021 41 56 35 
-0.637999 -0.239066 4.29318 209 185 157 
-0.410208 -0.557638 3.56317 118 100 16 
-0.582821 -0.143637 3.25366 156 137 60 
-0.715246 -0.301905 4.24187 90 73 55 
-0.726786 -0.31439 4.24015 70 57 41 
-0.281505 -0.0367703 2.82949 165 155 143 
-0.607438 -0.705596 3.89304 72 60 36 
-0.258178 -0.0369421 2.84009 151 138 129 
-0.439877 -0.116405 2.8397 111 64 0 
0.353104 -0.562701 3.447 138 113 117 
-0.211806 -0.692882 3.68336 188 162 85 
-0.584456 -0.165499 3.24672 198 173 73 
-0.41408 -0.0961435 2.85287 97 48 5 
-0.419829 -0.0909915 2.86147 87 38 0 
-0.623709 -0.767983 3.96256 203 197 185 
-0.954333 -0.890963 4.30834 120 105 82 
-0.512934 -0.105337 3.06178 170 129 3 
-0.238237 0.639528 3.87645 220 208 196 
0.41398 -0.768838 3.14097 112 119 88 
-0.208953 0.131808 3.94742 149 100 7 
-0.573351 -0.48931 3.57418 19 15 4 
-0.35907 -0.334597 3.275 131 132 126 
-0.418402 -0.554022 3.53339 39 27 3 
-0.52019 -0.574516 3.61373 46 35 13 
-0.629825 -0.62404 3.98236 88 77 59 
-0.310368 -0.324948 3.28828 27 23 14 
0.143702 -0.694501 3.13035 37 25 1 
0.38232 -0.646436 3.02517 34 28 14 
-0.241944 -0.230867 2.93089 128 120 109 
0.345367 -0.692667 3.06643 92 77 48 
-0.2728 -0.0311792 2.84459 60 47 31 
-0.171869 -1.15814 3.96203 48 38 13 
-0.460937 -0.263475 4.20821 137 111 54 
-0.292261 -0.0498477 2.81362 227 219 206 
-0.418332 -0.114902 2.86102 116 69 0 
-0.585007 -0.233507 4.22069 222 181 53 
-0.336281 -0.168506 2.87223 159 108 17 
0.421513 -0.744202 3.0855 204 184 151 
-0.818099 -0.513253 4.46946 69 59 34 
-0.356324 -0.175459 2.84537 237 209 169 
0.414174 -0.733589 3.10935 154 165 122 
0.317907 -0.483588 3.35721 42 21 16 
-0.228449 0.104266 3.97317 219 183 37 
0.120341 -0.682023 3.12482 159 140 110 
-0.641921 -0.74341 3.92684 186 172 159 
0.389909 0.401103 3.92195 72 90 102 
-0.549338 -0.235765 3.24144 129 126 119 
-0.601171 -0.696612 3.87635 48 32 17 
-0.579269 -0.696206 3.92279 80 64 49 
-0.19608 0.452391 4.04908 124 97 8 
-0.549447 0.253503 3.95357 53 34 4 
-0.234017 0.0902841 3.97074 134 93 1 
-0.327955 -0.441577 3.47547 14 7 0 
-0.527639 -0.213212 4.14073 170 132 21 
-0.336871 -0.461364 3.47415 56 55 50 
-0.121272 -0.571934 3.60065 148 140 137 
-0.100148 -0.603022 3.63442 135 132 125 
-0.341196 -0.176622 2.96923 123 49 0 
-0.0880703 -1.14769 3.98814 79 44 22 
-0.809217 -0.505577 4.47148 115 103 81 
-0.240776 0.568407 4.00194 248 210 135 
-0.485359 -0.999514 3.93347 255 235 222 
0.392669 -0.648953 3.02229 215 213 198 
-0.553816 -0.155084 3.2864 28 25 6 
0.303553 -0.698989 3.04422 190 181 142 
-0.485956 -0.457772 3.49095 49 44 25 
-0.459011 -0.454978 3.49507 32 22 10 
-0.32383 -0.168011 2.88538 158 108 9 
0.402905 -0.678082 2.97685 37 28 11 
-0.145141 -1.03624 3.77669 172 177 155 
-0.199644 0.0767964 3.99326 201 168 13 
-0.680456 -0.679164 3.97657 160 152 141 
0.0334895 -0.385376 3.52653 58 60 59 
-0.321202 -0.0693192 2.86421 255 255 177 
-0.192721 -1.1793 4.178 148 163 142 
-0.594886 -0.70191 3.92732 85 74 56 
0.443312 -0.749516 3.1019 172 151 120 
-0.611771 -0.688307 3.87416 84 68 53 
-0.0849843 -1.16971 4.02142 92 79 63 
-0.350171 -0.34841 3.35758 43 29 0 
-0.657963 -0.239185 4.26306 202 182 155 
-0.709604 -0.881079 4.23618 118 87 56 
-0.20195 0.08724 4.00067 212 175 32 
0.355415 -0.496321 3.08187 45 31 22 
-0.522456 0.261238 3.99601 97 75 26 
0.339912 -0.722514 3.07647 51 103 57 
-0.228265 0.45297 4.03548 146 96 0 
0.361308 0.394779 3.89481 72 90 102 
-0.450993 -1.05952 3.95865 158 145 113 
-0.494374 -0.212535 4.19878 197 158 29 
-0.172782 0.471206 4.08382 230 187 30 
0.279707 -1.08411 3.09925 162 47 62 
-0.391842 -0.142466 2.81061 147 93 21 
0.388046 -0.872926 3.17638 108 77 74 
-0.209637 -1.17386 4.15438 186 189 170 
-0.444605 -0.558742 3.51565 206 167 10 
0.0522049 -1.09237 3.54569 70 21 25 
-0.243384 -0.0224004 2.8646 62 52 40 
-0.235816 -0.0228431 2.8539 217 204 187 
-0.0898411 -1.05737 3.84777 100 118 96 
-0.458923 -1.01009 3.97233 255 247 233 
-0.464101 -0.117813 2.81999 97 47 0 
0.368853 -0.696617 3.08603 86 72 43 
-0.227449 -1.18251 4.04806 49 44 25 
-0.478422 -1.04562 3.96254 63 50 18 
-0.420137 -0.32481 3.22657 240 203 88 
0.363475 -0.709228 3.08811 176 181 141 
0.297898 -0.478955 3.34218 43 24 18 
-0.408367 -0.454418 3.53503 203 182 75 
-0.474495 -0.459148 3.50673 36 33 18 
-0.424321 -0.572903 3.57302 53 39 12 
-0.396088 -0.56138 3.55659 154 131 53 
-0.607556 -0.618651 3.98686 51 39 27 
-0.286919 -0.475937 3.42404 140 139 134 
-0.481364 -0.581729 3.61075 202 165 35 
-0.572043 -0.705591 3.9284 53 39 26 
-0.568233 -0.107158 2.99743 140 94 0 
-0.517337 -0.71836 3.89204 99 89 80 
-0.150688 -1.16519 4.0099 130 115 84 
-0.596096 -0.191078 3.36011 36 33 28 
-0.0426664 -1.03777 3.15669 38 23 16 
-0.517305 -0.205546 4.1525 212 172 22 
-0.540045 -0.527521 3.76451 87 68 9 
-0.469619 -0.262984 4.18998 135 105 32 
-0.579305 -0.218246 3.27036 64 63 59 
-0.734185 -0.314979 4.2252 70 57 41 
0.398623 -0.738116 3.07233 192 172 135 
0.121496 -0.768189 3.15859 142 123 83 
0.494155 -0.655072 2.97261 73 53 26 
-0.619365 -0.607378 3.96351 106 90 74 
0.153512 -0.434421 3.35797 72 49 18 
0.0576178 -0.339995 3.48753 138 137 133 
-0.717751 -0.300102 4.23263 100 82 58 
-0.734925 -0.30876 4.23599 70 57 40 
0.305714 -0.516941 3.0559 148 131 101 
0.436255 -0.689146 3.00986 87 67 42 
-0.365339 -0.428692 3.44046 90 81 64 
-0.239744 0.567916 4.00231 248 210 129 
-0.546815 -0.447104 3.53192 195 163 52 
-0.540034 -0.696182 3.91177 19 12 4 
-0.532337 0.260677 3.96835 29 17 1 
-0.474129 0.151205 3.92854 92 50 0 
-0.554887 -0.130412 4.09274 207 170 38 
-0.486778 -0.0976811 2.80425 91 43 0 
-0.40695 -0.181529 2.79549 210 188 164 
-0.582748 -0.798247 3.77019 126 114 100 
-0.505586 -0.718628 3.88565 60 47 39 
12.9812 -8.49046 16.8027 222 213 198 
0.342823 -0.640898 2.99614 43 40 25 
0.332749 -0.64355 3.0003 31 21 9 
-0.390641 -0.198511 2.92897 134 61 10 
-0.380253 -0.199606 2.93826 142 68 7 
-0.53302 0.303309 4.00022 70 38 0 
-0.656597 0.715419 3.88688 122 109 101 
0.313256 -0.671633 3.05643 90 76 50 
0.203376 -0.712175 3.15543 33 81 41 
-0.589405 -0.699673 3.89393 56 40 25 
