ply                 
format ascii 1.0    
element vertex 1248
property float x    
property float y    
property float z    
property uchar red  
property uchar green
property uchar blue 
end_header          
0.012152 -0.962494 2.27902 51 32 18 
0.0174355 -0.962243 2.27955 101 82 68 
-0.0714377 -0.95603 2.26898 146 112 84 
0.205225 -0.963463 2.36622 62 39 21 
0.294912 -0.776663 2.70589 16 0 0 
0.29697 -0.772795 2.70816 159 148 146 
0.29227 -0.769084 2.70952 187 172 165 
0.311868 -0.767434 2.71777 190 180 171 
0.28878 -0.761708 2.71331 179 168 164 
0.303189 -0.761256 2.71805 193 182 178 
0.310029 -0.760523 2.71708 192 177 172 
0.288457 -0.759243 2.71541 68 54 53 
0.292276 -0.753561 2.71683 10 0 0 
0.299766 -0.751873 2.72106 185 175 174 
0.30431 -0.744336 2.72588 17 0 0 
0.197967 -0.620953 2.72624 124 112 90 
0.556204 -0.604739 2.79654 77 62 41 
0.257504 -0.547744 2.72672 49 36 19 
0.254758 -0.541642 2.72407 70 57 40 
-0.0147882 -0.485428 2.66144 161 146 125 
0.398144 -0.468804 2.73588 148 139 132 
0.130572 -0.460044 2.68707 131 116 95 
0.28913 -0.465152 2.71626 141 131 119 
0.469294 -0.466516 2.75141 41 47 33 
0.451734 -0.460207 2.74495 215 225 216 
0.250396 -0.451299 2.7045 216 224 209 
0.326202 -0.443995 2.7176 198 235 201 
0.449115 -0.442944 2.74392 71 79 66 
0.44475 -0.44028 2.74169 233 255 236 
0.347221 -0.421447 2.71685 193 218 196 
0.356403 -0.422018 2.71836 209 231 208 
0.366598 -0.421825 2.72261 218 247 219 
0.244771 -0.411024 2.69832 124 115 106 
0.242647 -0.408396 2.69799 232 219 210 
0.244803 -0.404887 2.6975 131 121 119 
0.24741 -0.400981 2.69627 233 231 232 
0.342595 -0.400492 2.71351 152 150 153 
0.385015 -0.40166 2.72122 164 165 160 
0.24771 -0.391072 2.69559 201 197 196 
0.253693 -0.385951 2.69491 228 240 226 
0.247977 -0.384825 2.69268 233 228 225 
0.390316 -0.381606 2.71877 219 240 221 
0.340218 -0.379331 2.70983 228 244 231 
0.343732 -0.377296 2.71049 99 118 98 
0.359756 -0.377635 2.71264 63 87 61 
0.248911 -0.353891 2.69036 125 122 113 
0.25055 -0.351226 2.68756 226 222 213 
0.162536 -0.345941 2.67337 149 146 141 
0.254472 -0.347952 2.68877 63 65 60 
0.356908 -0.350643 2.70681 225 250 228 
0.377832 -0.351591 2.71271 218 239 222 
-0.0669917 -0.339063 2.6256 169 153 130 
0.293032 -0.34734 2.69423 16 44 22 
0.257907 -0.344882 2.68373 27 43 33 
0.250403 -0.344323 2.68519 43 39 38 
0.289452 -0.343185 2.69272 25 54 36 
0.256685 -0.342074 2.68842 236 245 242 
0.315679 -0.343755 2.69686 191 234 204 
0.251994 -0.340871 2.68696 223 221 222 
0.322984 -0.341992 2.69989 70 81 73 
0.291063 -0.341278 2.69364 22 56 32 
0.25672 -0.338659 2.68707 232 241 238 
0.25069 -0.336082 2.68437 54 50 51 
0.258565 -0.33713 2.68474 28 41 32 
0.251181 -0.328285 2.68433 14 4 3 
0.322262 -0.329638 2.69737 235 245 236 
0.333077 -0.328161 2.6979 215 250 220 
-0.0630917 -0.318938 2.62407 163 147 124 
0.476974 -0.329635 2.72952 66 95 67 
0.477865 -0.324343 2.72945 84 108 84 
0.260676 -0.317444 2.68288 6 27 12 
0.261467 -0.313398 2.68046 31 54 36 
0.258701 -0.310125 2.68309 240 246 232 
0.253166 -0.308187 2.68107 238 231 225 
0.249609 -0.302139 2.68335 174 164 155 
0.249671 -0.29456 2.68022 234 224 215 
0.361345 -0.290747 2.69758 238 255 236 
0.364561 -0.291002 2.69896 226 252 225 
0.361892 -0.287628 2.69857 232 247 228 
0.364808 -0.287768 2.69708 235 255 236 
0.255088 -0.28423 2.67729 233 224 217 
0.373702 -0.282653 2.69749 215 248 219 
0.36511 -0.282537 2.69651 192 220 197 
0.38526 -0.280076 2.70045 221 249 224 
0.397163 -0.277222 2.7014 51 64 57 
0.403834 -0.277433 2.70408 49 65 55 
0.255838 -0.273219 2.67549 240 231 226 
0.411644 -0.273424 2.70477 244 255 246 
0.410127 -0.270322 2.70254 44 67 47 
0.558428 -0.270595 2.73872 115 103 87 
0.402468 -0.266588 2.7017 66 82 69 
0.559582 -0.268693 2.73542 243 231 215 
0.263637 -0.258063 2.6737 134 152 126 
0.264589 -0.254737 2.67314 194 214 186 
0.522546 -0.254175 2.72611 75 62 46 
0.414585 -0.245113 2.69865 213 246 217 
0.417514 -0.245207 2.6996 217 247 221 
0.424547 -0.238303 2.69786 178 208 180 
0.453362 -0.238787 2.70603 220 255 223 
0.381046 -0.235834 2.69157 60 86 61 
0.393808 -0.236201 2.69467 61 83 62 
0.407736 -0.233348 2.69619 166 190 168 
0.306408 -0.226835 2.67513 62 71 66 
0.570448 -0.229443 2.73219 79 67 55 
0.317006 -0.224823 2.67956 46 67 48 
0.370508 -0.223388 2.68823 223 240 224 
0.370394 -0.21788 2.68769 235 255 239 
0.324701 -0.216422 2.67702 226 255 232 
0.568179 -0.219131 2.72567 101 88 79 
0.30823 -0.214876 2.67607 82 105 89 
0.407989 -0.215209 2.693 231 255 235 
0.416562 -0.215454 2.69507 236 255 242 
0.422502 -0.215141 2.69626 70 99 77 
0.301646 -0.212416 2.67484 218 244 219 
0.287678 -0.208769 2.6697 82 107 86 
0.22006 -0.20503 2.65788 176 172 171 
0.221642 -0.205273 2.66092 168 164 163 
0.421289 -0.195955 2.69166 224 255 228 
0.560798 -0.196559 2.72353 25 16 1 
0.41941 -0.192159 2.69205 117 138 121 
0.42746 -0.192203 2.69309 38 71 44 
0.325441 -0.184947 2.67151 220 255 225 
0.525416 -0.185471 2.71735 65 55 45 
0.528429 -0.183769 2.718 225 215 206 
0.544943 -0.176999 2.71648 97 87 77 
0.540167 -0.173162 2.71521 57 47 37 
0.543259 -0.17288 2.7151 239 229 219 
0.609222 -0.170513 2.72909 58 45 36 
0.536233 -0.168031 2.71331 71 61 52 
0.543405 -0.166015 2.71515 30 20 11 
0.331446 -0.154564 2.66941 233 255 238 
0.548567 -0.147518 2.71269 52 42 32 
0.589065 -0.144141 2.71942 86 74 62 
0.490025 -0.132589 2.69562 214 227 210 
0.48456 -0.129074 2.69401 174 199 177 
0.48845 -0.129153 2.69324 52 65 48 
0.272318 -0.124392 2.65278 57 85 60 
0.493076 -0.121988 2.69933 100 93 85 
0.338103 -0.114855 2.66646 78 64 61 
-0.0683347 -0.0719458 2.58408 92 90 91 
-0.330455 -0.0707086 2.52565 151 150 148 
-0.0709018 -0.0713028 2.57734 106 106 106 
-0.3363 -0.0683734 2.52327 99 97 100 
-0.332544 -0.0681001 2.52416 50 48 49 
-0.346512 -0.06716 2.52027 197 198 200 
-0.343381 -0.0631372 2.51919 150 149 147 
-0.123928 -0.0635832 2.56525 155 153 154 
-0.0782563 -0.0645403 2.57434 72 74 71 
-0.0786148 -0.0616399 2.57463 119 121 120 
-0.0790559 -0.0587896 2.57468 60 60 62 
-0.345255 -0.0444312 2.51656 99 99 99 
0.0583277 -0.0405277 2.59771 116 116 116 
-0.183057 -0.0360948 2.54928 176 176 176 
-0.171078 -0.0356339 2.55115 126 126 126 
-0.408023 -0.0299275 2.49943 138 136 137 
0.163042 -0.0278967 2.61552 91 86 90 
-0.415807 -0.0244895 2.49693 127 126 124 
0.0810063 -0.0241531 2.59836 72 72 72 
-0.206161 -0.0195433 2.54051 57 57 59 
-0.252694 -0.0166393 2.5298 90 88 89 
-0.253882 -0.0139615 2.52713 46 44 45 
0.0767695 -0.00870588 2.59445 165 163 166 
0.0826258 -0.00559449 2.59457 104 104 106 
-0.417457 0.00262818 2.49102 152 152 152 
-0.419376 0.0182337 2.4883 206 206 206 
-0.05879 0.0394216 2.55816 99 98 103 
-0.191757 0.0587067 2.52753 80 80 80 
-0.296578 0.0703806 2.50479 92 92 94 
-0.370858 0.075629 2.48747 81 81 83 
-0.368456 0.0805166 2.48676 108 108 110 
0.373495 0.0980781 2.63005 185 183 186 
-0.399739 0.0924839 2.47665 167 167 169 
-0.247676 0.0961738 2.5094 146 146 146 
0.228252 0.100541 2.6027 150 149 147 
-0.398319 0.0957907 2.47762 103 103 105 
0.229095 0.103542 2.60232 181 181 181 
-0.396524 0.0993076 2.47914 166 166 168 
-0.413327 0.10761 2.47048 118 118 120 
-0.277634 0.111998 2.50608 51 51 53 
0.103314 0.119269 2.57521 200 200 200 
0.109479 0.122286 2.5758 206 206 206 
-0.308951 0.119969 2.49161 52 52 54 
-0.305093 0.12234 2.49244 160 160 162 
-0.445996 0.131169 2.45926 120 120 122 
-0.443261 0.132516 2.45848 187 187 189 
-0.436859 0.132914 2.46302 152 152 154 
-0.445622 0.133582 2.45904 125 125 127 
-0.404076 0.143741 2.46687 150 150 152 
-0.00804068 0.170522 2.5445 145 143 144 
-0.00738258 0.173426 2.54369 69 67 70 
-0.0418079 0.175917 2.53512 236 231 235 
-0.0496997 0.176643 2.53122 130 130 130 
-0.043079 0.178675 2.53541 190 186 187 
0.0153574 0.179782 2.54711 217 213 212 
-0.0429695 0.180728 2.53222 119 115 116 
-0.0131961 0.181853 2.5392 247 245 246 
-0.00906106 0.182228 2.54164 31 29 30 
-0.0417371 0.183886 2.53493 236 232 233 
-0.0117658 0.184714 2.54201 167 166 164 
-0.0117385 0.186863 2.54034 224 225 220 
0.0108009 0.190139 2.54318 60 56 57 
-0.0928628 0.191665 2.52192 168 166 167 
-0.374298 0.200616 2.46144 85 85 87 
0.0913628 0.211196 2.55552 194 196 195 
-0.190883 0.21137 2.49099 121 121 121 
0.0156192 0.221696 2.53887 157 153 152 
-0.0700245 0.222609 2.52248 158 158 158 
-0.0686591 0.225223 2.5225 123 123 123 
0.0111267 0.23343 2.53602 52 50 51 
0.017238 0.240858 2.53556 218 214 213 
-0.0208861 0.24056 2.52728 190 178 178 
-0.382179 0.234118 2.45414 104 105 107 
-0.258913 0.23743 2.47922 40 40 42 
0.00244679 0.243434 2.53271 153 151 154 
0.00208429 0.246644 2.53339 71 70 68 
0.00393691 0.249587 2.53022 129 128 126 
0.00303769 0.253209 2.52906 50 49 47 
-0.372132 0.245398 2.45279 44 44 46 
-0.273625 0.248562 2.47482 72 72 74 
-0.379497 0.248579 2.45162 30 30 32 
0.0173141 0.262767 2.53066 90 90 90 
0.0084969 0.266621 2.52742 80 80 80 
-0.211722 0.266712 2.48431 177 177 177 
-0.0549469 0.339291 2.50268 183 182 177 
-0.0235031 0.36416 2.49972 142 141 137 
-0.083081 0.383097 2.48416 201 195 195 
-0.0973993 0.384688 2.48239 66 64 67 
-0.0808315 0.384936 2.48689 233 228 225 
-0.230895 0.380255 2.45587 116 111 105 
-0.0722269 0.390113 2.48737 137 147 149 
-0.107537 0.399079 2.47875 214 212 213 
-0.311853 0.394646 2.43495 99 95 92 
0.4416 0.420176 2.58068 245 238 228 
-0.320357 0.396399 2.43403 189 185 182 
-0.200081 0.405516 2.45531 141 137 126 
-0.0814592 0.416398 2.48103 165 162 157 
-0.0220012 0.418597 2.49064 94 91 86 
-0.393339 0.407714 2.4144 179 176 167 
0.0477073 0.387848 2.24711 70 57 48 
-0.0173531 0.433406 2.4903 148 145 140 
-0.220523 0.430029 2.44623 167 163 152 
0.0524029 0.394614 2.24424 222 209 200 
0.0488016 0.394554 2.24459 131 121 111 
0.0461541 0.398266 2.24166 161 148 139 
0.050648 0.400093 2.24141 169 151 139 
0.0486037 0.403918 2.23912 128 120 117 
-0.247231 0.444242 2.43643 157 149 138 
-0.0715371 0.451863 2.47602 162 158 149 
-0.187122 0.448092 2.45083 167 163 152 
-0.249759 0.445759 2.43668 122 112 103 
0.0429926 0.414757 2.23796 71 72 76 
-0.177647 0.456539 2.45188 150 146 135 
-0.27561 0.452118 2.42901 163 159 148 
-0.239311 0.455259 2.43868 161 158 143 
-0.172925 0.457354 2.45066 149 145 134 
-0.172538 0.460694 2.45021 233 229 218 
-0.169389 0.461397 2.45122 154 150 139 
0.0275925 0.422387 2.24288 134 125 128 
-0.267306 0.459244 2.42993 161 152 147 
-0.151762 0.464394 2.45424 165 161 150 
-0.212398 0.462803 2.44027 172 168 156 
-0.148208 0.466394 2.45368 164 160 149 
0.026048 0.425992 2.24461 206 192 191 
-0.190616 0.465682 2.44538 159 155 144 
-0.153754 0.471572 2.45286 224 220 209 
-0.23488 0.471321 2.43482 175 171 160 
0.0354965 0.432489 2.24004 113 97 84 
0.0431737 0.432897 2.23827 79 75 66 
-0.341702 0.467074 2.4134 139 136 131 
-0.28407 0.471576 2.42358 155 151 142 
-0.283123 0.472189 2.42661 147 143 134 
0.0338684 0.436624 2.24106 106 92 79 
0.049756 0.437249 2.23776 109 101 98 
0.0550984 0.438692 2.23795 252 247 251 
0.0585046 0.440122 2.23848 92 90 93 
0.0453707 0.442073 2.2376 100 84 69 
0.0333773 0.445695 2.24106 124 108 92 
-0.206231 0.489083 2.4377 119 113 99 
-0.211273 0.489826 2.43655 148 144 132 
0.0441847 0.448904 2.23755 215 199 183 
-0.222691 0.489273 2.43266 225 221 209 
0.0380384 0.451007 2.23956 113 96 80 
-0.22505 0.491011 2.43296 159 155 143 
0.0238313 0.454594 2.24766 167 149 135 
0.0292753 0.453227 2.24323 208 192 179 
0.0545432 0.452575 2.2372 240 226 215 
0.0260304 0.455235 2.2432 98 82 69 
0.0361221 0.454527 2.23987 224 206 192 
0.0399731 0.457642 2.23901 194 177 161 
0.0316928 0.459557 2.24243 120 104 89 
0.0406348 0.459679 2.23872 115 99 83 
0.0313651 0.461729 2.24327 216 200 185 
0.0426171 0.460743 2.23788 193 177 162 
0.0382024 0.462171 2.24043 187 170 154 
0.0491937 0.462444 2.23621 165 149 136 
0.0280637 0.463972 2.24412 180 166 153 
0.0443548 0.462788 2.23754 108 92 77 
0.036919 0.465829 2.23914 179 162 146 
0.0294177 0.467637 2.24307 192 176 161 
0.0421219 0.466465 2.23729 204 188 173 
-0.285884 0.504601 2.41588 170 166 157 
0.0248816 0.470999 2.24739 152 138 125 
0.0549848 0.46862 2.23634 95 79 64 
-0.162579 0.516629 2.44173 162 158 147 
0.027929 0.473858 2.24535 173 159 148 
-0.129883 0.517958 2.44636 164 160 151 
0.0443994 0.475407 2.23813 166 149 133 
0.0354574 0.475797 2.23917 177 159 145 
0.0444537 0.475376 2.23824 166 149 133 
0.418108 0.54541 2.55612 182 178 167 
-0.123222 0.522148 2.44742 149 146 137 
-0.110138 0.522167 2.45149 169 162 154 
0.0366519 0.477541 2.23967 104 86 72 
0.0685776 0.479398 2.23921 173 157 142 
0.0305932 0.482643 2.24224 152 136 123 
0.0428065 0.481634 2.23731 195 176 161 
0.0369071 0.482634 2.23849 176 158 144 
-0.203055 0.525329 2.43043 160 158 146 
-0.318371 0.520767 2.40758 168 165 160 
0.0428452 0.484423 2.23757 86 70 54 
-0.274405 0.524244 2.41488 160 157 148 
-0.26397 0.524502 2.41769 164 161 152 
0.0229117 0.487886 2.24957 159 142 132 
0.0417235 0.486935 2.23864 183 167 152 
0.0447741 0.487101 2.23706 190 174 158 
0.0393274 0.487668 2.2372 65 49 36 
0.0493942 0.486858 2.23614 168 152 136 
0.0468249 0.488336 2.23596 94 78 62 
0.37414 0.556502 2.54437 165 161 150 
0.0440102 0.49031 2.23705 207 191 176 
0.0400259 0.492015 2.23827 171 155 142 
0.0463506 0.49276 2.23618 166 150 135 
0.0560037 0.492945 2.23613 200 184 171 
0.0412718 0.494736 2.238 168 152 139 
-0.272335 0.534613 2.41283 165 162 153 
-0.345527 0.532233 2.39787 155 150 146 
0.0270584 0.501359 2.24525 94 80 69 
0.0578729 0.50579 2.23634 69 55 44 
-0.217513 0.549423 2.42111 148 144 133 
0.366012 0.576338 2.54054 184 180 171 
-0.314634 0.548161 2.40147 143 142 137 
-0.26503 0.552047 2.40957 153 150 141 
-0.254667 0.554792 2.41335 146 142 131 
-0.267746 0.554544 2.40999 159 156 147 
0.036678 0.514485 2.23903 130 116 103 
0.073989 0.518108 2.23915 80 68 56 
0.0594063 0.517285 2.23545 153 141 129 
-0.218838 0.562965 2.41756 171 167 156 
0.0429035 0.520604 2.2373 162 148 135 
-0.258653 0.564451 2.41018 220 216 207 
-0.23517 0.565037 2.41349 170 171 157 
-0.265214 0.564964 2.40791 221 221 213 
0.0610986 0.525022 2.2352 155 146 131 
-0.215949 0.572426 2.41663 160 156 145 
0.35821 0.602113 2.53354 179 175 164 
-0.328912 0.567917 2.39432 171 170 165 
-0.155012 0.577188 2.42977 168 164 153 
0.0601024 0.53122 2.23588 143 136 120 
-0.224412 0.575836 2.41469 137 135 123 
0.0603657 0.534018 2.23463 58 49 34 
0.0574101 0.534003 2.23423 150 141 126 
0.364388 0.606882 2.53357 156 152 141 
-0.217922 0.577876 2.41454 167 163 152 
0.0677289 0.535746 2.23625 91 75 60 
-0.369693 0.570871 2.38426 163 160 155 
-0.336191 0.57342 2.39027 157 156 151 
0.0544865 0.537634 2.23353 78 65 49 
0.0604857 0.538511 2.23517 46 33 17 
-0.255035 0.58193 2.40909 152 149 140 
-0.25755 0.583214 2.40659 238 235 226 
0.060644 0.540719 2.23398 204 191 175 
0.0706462 0.541815 2.23656 91 75 60 
-0.261288 0.583347 2.405 139 135 126 
-0.352106 0.579287 2.38579 164 163 158 
-0.198082 0.588598 2.41656 166 163 154 
-0.162898 0.590453 2.42463 171 167 158 
0.058339 0.543907 2.2346 90 77 61 
0.0642769 0.544135 2.23487 204 188 173 
-0.371893 0.580655 2.38159 176 173 168 
0.0555955 0.545621 2.23405 187 174 158 
0.40206 0.622917 2.54108 152 148 137 
0.0531583 0.549362 2.23422 154 141 124 
-0.208477 0.595427 2.41383 236 233 224 
-0.182792 0.596956 2.41835 177 175 163 
0.0559079 0.550841 2.23504 44 31 15 
0.0584649 0.553709 2.2339 158 144 131 
-0.167784 0.601233 2.4217 162 159 150 
-0.202609 0.599828 2.41389 154 151 142 
-0.229022 0.600942 2.40866 174 170 161 
-0.255244 0.599979 2.40265 161 161 151 
0.0485536 0.559997 2.23548 128 112 97 
0.0620152 0.559729 2.23423 84 71 55 
0.0703332 0.56022 2.23527 187 174 158 
0.0601602 0.560984 2.23387 180 164 151 
0.073165 0.561602 2.23559 98 82 66 
0.0481466 0.562792 2.23521 179 163 148 
-0.215819 0.611804 2.40881 167 164 155 
0.0426962 0.569921 2.23697 151 135 120 
0.0446566 0.570279 2.23531 68 52 37 
0.0490726 0.571384 2.23488 168 152 137 
0.0630115 0.571935 2.23464 171 155 142 
-0.196894 0.61856 2.41178 176 174 162 
0.0448039 0.573291 2.23648 165 149 134 
0.0504529 0.572263 2.23333 70 54 39 
-0.234131 0.61641 2.40387 169 164 160 
-0.202189 0.620728 2.40851 148 148 136 
0.0633809 0.574889 2.2336 113 94 77 
0.0677949 0.576408 2.23376 128 111 93 
-0.252344 0.619936 2.3998 174 171 166 
-0.238261 0.620351 2.40097 168 165 160 
0.071678 0.578468 2.23416 86 69 49 
0.0469974 0.578726 2.23531 203 187 171 
0.053469 0.579382 2.23445 162 146 131 
0.0560834 0.579562 2.23303 62 44 30 
-0.254082 0.623956 2.39743 172 169 164 
-0.2257 0.626263 2.40427 159 156 149 
0.0486885 0.584027 2.23451 177 162 143 
0.0428046 0.587145 2.2371 97 80 64 
0.0488168 0.586939 2.23467 172 156 140 
0.0535165 0.58635 2.23331 157 139 125 
-0.360996 0.624292 2.37399 147 144 137 
0.0471441 0.588572 2.23446 87 71 55 
0.0478033 0.590282 2.23517 93 78 59 
-0.321692 0.630956 2.38196 179 176 171 
0.0669706 0.591805 2.23287 175 158 140 
0.072432 0.593821 2.23425 115 99 76 
0.0584968 0.595167 2.23278 97 79 59 
0.064218 0.595229 2.23347 178 161 145 
0.0662096 0.59604 2.23257 99 82 64 
0.317329 0.671654 2.51231 175 171 162 
0.0421434 0.599171 2.23626 189 172 152 
0.0581431 0.598099 2.2316 176 158 138 
0.0608788 0.60091 2.23304 175 157 137 
0.0581457 0.602282 2.23226 197 179 159 
0.0621722 0.602076 2.2312 117 99 79 
-0.30891 0.64665 2.38095 114 111 106 
-0.13022 0.658378 2.41733 167 164 155 
-0.161157 0.658084 2.40915 176 176 166 
-0.326392 0.649641 2.37633 170 167 162 
-0.309116 0.650756 2.37993 148 147 142 
-0.325159 0.654911 2.37538 163 160 155 
-0.312849 0.660167 2.37741 169 168 163 
-0.0606942 0.694051 2.42433 174 170 161 
0.0387593 0.640975 2.23988 110 94 78 
0.0623923 0.639046 2.23054 95 78 60 
0.0613349 0.642612 2.23055 75 58 40 
0.357096 0.728087 2.5131 174 175 167 
-0.0284641 0.705731 2.42911 148 146 133 
0.0624063 0.647888 2.2298 134 117 97 
0.0575111 0.650892 2.22998 212 197 178 
0.0535304 0.654156 2.23125 175 159 143 
-0.157083 0.705354 2.4009 173 170 165 
0.0560153 0.654607 2.22996 96 81 62 
0.303915 0.736078 2.49935 167 165 152 
0.0586351 0.655469 2.23018 186 171 152 
0.35218 0.742411 2.50935 108 105 96 
-0.299945 0.700537 2.37116 154 151 142 
0.304849 0.740942 2.49852 162 160 145 
0.0659538 0.667478 2.22923 143 127 111 
-0.105749 0.724339 2.4068 146 142 131 
0.0488934 0.671603 2.23341 168 151 133 
0.0659413 0.673114 2.22913 77 61 45 
0.405889 0.766917 2.51746 177 178 172 
-0.730005 0.692765 2.27876 176 174 162 
0.257649 0.760616 2.48454 122 120 107 
0.0677526 0.683668 2.22949 114 99 80 
0.344822 0.769793 2.5035 168 168 158 
0.259145 0.769037 2.48498 162 160 147 
0.0595448 0.688905 2.22909 177 160 144 
0.274697 0.77105 2.48711 175 175 165 
-0.0947533 0.746608 2.40695 158 155 150 
0.0580795 0.691597 2.2297 110 91 77 
0.295675 0.773764 2.49125 165 163 150 
-0.33733 0.730815 2.35554 160 159 154 
0.365709 0.781161 2.50623 170 169 164 
0.259543 0.776053 2.48203 132 130 117 
0.367902 0.78412 2.5071 149 148 143 
0.259971 0.781651 2.4825 161 162 148 
-0.229225 0.748058 2.3757 158 157 152 
0.337187 0.789678 2.49969 173 173 161 
-0.234062 0.751182 2.3745 164 163 159 
-0.104786 0.762447 2.40165 172 171 167 
-0.239836 0.753088 2.37189 177 176 171 
-0.226928 0.753769 2.37507 175 174 169 
0.473795 0.806796 2.52754 164 164 156 
-0.262897 0.756266 2.36633 230 229 224 
0.255032 0.793602 2.47922 109 106 99 
-0.254744 0.758208 2.36819 178 175 170 
0.295469 0.79829 2.48712 103 103 93 
0.439944 0.808696 2.51869 174 170 167 
0.500539 0.81304 2.53286 90 87 78 
0.458401 0.811437 2.52477 150 147 140 
0.259976 0.798218 2.47918 151 151 143 
-0.259065 0.76059 2.36576 156 153 148 
-0.00685365 0.780462 2.4216 109 106 97 
0.456187 0.812899 2.52117 137 132 126 
0.429311 0.812321 2.51686 156 155 151 
-0.231058 0.765543 2.37181 168 168 158 
0.490463 0.816373 2.52773 133 129 118 
0.43722 0.814894 2.51814 135 131 128 
0.45248 0.816785 2.5215 223 220 213 
0.485241 0.81807 2.52606 150 147 140 
0.49772 0.81843 2.5275 118 115 106 
0.448612 0.817864 2.52094 88 87 82 
0.467222 0.81831 2.52286 187 183 174 
0.454554 0.817735 2.52046 51 46 40 
0.26482 0.805632 2.47848 216 213 204 
0.460512 0.820083 2.52227 151 148 139 
0.439644 0.819588 2.51746 63 58 54 
0.443712 0.819058 2.51823 190 187 182 
0.0889255 0.724939 2.23074 101 89 75 
0.321478 0.812002 2.49144 130 128 116 
0.420121 0.818571 2.51313 141 137 134 
0.46715 0.821914 2.52378 102 98 89 
0.407623 0.818795 2.51134 224 220 211 
0.417479 0.82003 2.51034 196 193 186 
0.428009 0.820602 2.51403 151 148 143 
0.268098 0.810403 2.4802 117 113 102 
0.316369 0.813752 2.48901 133 131 119 
-0.0595089 0.788306 2.40621 158 154 145 
0.350052 0.818447 2.49633 121 112 103 
0.384801 0.821107 2.50315 189 181 168 
0.3105 0.81783 2.48757 238 236 224 
0.32823 0.819309 2.49195 134 130 119 
0.369012 0.821442 2.50086 166 157 148 
0.307402 0.818481 2.48746 55 53 41 
0.315936 0.81852 2.48884 152 148 137 
0.345273 0.821294 2.49573 111 107 96 
-0.176871 0.783133 2.381 170 165 159 
0.313176 0.820009 2.49032 238 236 224 
0.374572 0.823273 2.50037 95 85 75 
0.301636 0.819604 2.48593 152 150 138 
0.304762 0.820345 2.48665 244 240 229 
0.356473 0.823368 2.49758 65 63 51 
0.39192 0.823493 2.49773 53 38 19 
-0.0653058 0.793533 2.40464 166 162 153 
0.317186 0.822606 2.48902 224 217 207 
0.319677 0.821961 2.48779 117 110 100 
0.330091 0.823526 2.49181 159 155 144 
0.312221 0.822014 2.48692 124 120 109 
0.405167 0.825209 2.49301 146 133 125 
-0.0224575 0.800127 2.41251 142 137 131 
0.24508 0.819316 2.47085 166 157 142 
0.288709 0.822034 2.48054 119 116 99 
0.242972 0.820483 2.47237 239 230 213 
0.311502 0.825818 2.48836 143 140 133 
0.296735 0.825373 2.48389 136 133 118 
0.25906 0.823062 2.4737 226 216 204 
-0.0409679 0.801878 2.40876 130 127 118 
-0.0212878 0.802556 2.41197 118 113 107 
-0.00825457 0.803813 2.41624 82 77 71 
0.263512 0.824169 2.47661 233 225 212 
0.269459 0.825217 2.47775 119 111 98 
-0.217554 0.78828 2.37018 169 170 165 
-0.106941 0.797505 2.39525 162 158 149 
0.289639 0.826601 2.48083 130 127 110 
0.263549 0.826232 2.47644 114 104 92 
0.267621 0.826552 2.47583 215 205 193 
0.284327 0.827418 2.47971 123 121 100 
0.26269 0.829306 2.47438 73 63 51 
0.245907 0.8287 2.47059 88 85 66 
0.26059 0.830818 2.47502 188 185 170 
-0.0025749 0.811785 2.41474 163 158 155 
-0.0820882 0.806507 2.39856 153 149 140 
-0.041374 0.809634 2.40734 104 101 96 
-0.253283 0.79454 2.36154 164 163 158 
-0.0133088 0.811948 2.41149 143 138 135 
-0.00326049 0.81162 2.41316 159 154 151 
-0.127086 0.804751 2.38674 144 141 132 
-0.0622601 0.809662 2.40177 203 199 190 
-0.0514787 0.810355 2.40421 136 133 128 
-0.0060165 0.813546 2.41392 100 95 92 
0.0146874 0.81531 2.41913 7 2 0 
-0.012021 0.814452 2.41214 57 52 49 
-0.24726 0.798242 2.36248 169 168 164 
-0.158488 0.80468 2.37989 172 174 163 
0.00913236 0.816646 2.41475 136 132 131 
0.0146022 0.817686 2.41661 121 113 110 
0.00743175 0.818621 2.41548 31 27 24 
-0.0125046 0.819011 2.411 13 8 5 
0.0122169 0.820552 2.41642 21 17 14 
0.00997785 0.822172 2.41592 106 101 98 
-0.129665 0.812474 2.3853 148 145 136 
-0.0647018 0.819491 2.4006 18 13 10 
-0.0579076 0.819932 2.40139 169 164 161 
-0.054614 0.819982 2.40177 109 106 101 
-0.0501044 0.820742 2.40438 108 105 100 
-0.0373845 0.820554 2.40521 158 154 151 
-0.265656 0.804989 2.35663 164 163 159 
-0.0396898 0.821364 2.40439 102 98 95 
0.00793434 0.825692 2.41568 71 63 60 
-0.0580249 0.823151 2.40076 76 72 69 
-0.0432484 0.825719 2.40461 87 79 77 
-0.0400895 0.825359 2.40261 142 134 132 
-0.0987458 0.822388 2.39153 142 135 125 
-0.0510781 0.826258 2.40101 62 57 51 
-0.0726385 0.826093 2.39811 108 100 89 
-0.0239862 0.830825 2.40789 83 78 74 
-0.256184 0.814481 2.3562 168 167 162 
-0.0635902 0.830706 2.39818 82 78 67 
-0.197532 0.820677 2.36945 131 128 123 
-0.0868948 0.829376 2.39243 126 118 107 
-0.0480195 0.832668 2.40267 115 112 103 
-0.268315 0.816376 2.35387 161 157 154 
-0.120628 0.827656 2.38488 143 136 126 
-0.107326 0.828311 2.38781 222 212 200 
-0.0899885 0.829859 2.39334 210 202 189 
-0.08228 0.831324 2.39451 50 41 32 
-0.1917 0.823933 2.36906 120 115 109 
-0.0769989 0.831934 2.39442 196 188 177 
-0.0648568 0.832831 2.3978 159 152 142 
-0.059421 0.834438 2.39891 142 135 125 
-0.0494892 0.835373 2.40133 33 26 16 
-0.0462348 0.835483 2.40103 110 103 95 
-0.134188 0.828164 2.37971 176 172 161 
-0.107084 0.830868 2.38769 133 124 109 
-0.0795783 0.8326 2.39314 193 184 175 
-0.160489 0.827972 2.37655 148 140 127 
-0.116699 0.831417 2.38512 146 138 127 
-0.0904439 0.832416 2.39068 118 110 97 
-0.0721495 0.835584 2.39414 96 86 76 
-0.060372 0.836598 2.39738 29 23 11 
-0.260851 0.821244 2.35473 156 156 148 
-0.178709 0.827972 2.37159 153 151 139 
-0.0869455 0.835095 2.39253 97 87 78 
-0.0844969 0.835464 2.39262 151 140 134 
-0.080189 0.836141 2.39484 60 50 41 
-0.0574083 0.838898 2.39871 105 101 89 
-0.650601 0.796538 2.27491 150 139 133 
-0.119823 0.834716 2.38424 140 130 120 
-0.10828 0.835441 2.3866 109 97 85 
-0.105837 0.835988 2.38625 216 204 190 
-0.0911715 0.83814 2.39065 116 104 92 
-0.11424 0.836317 2.3851 124 112 100 
-0.132008 0.836726 2.38041 198 188 178 
-0.17458 0.833746 2.3703 218 210 197 
-0.162796 0.834778 2.37348 140 130 118 
-0.125053 0.838751 2.38264 60 50 40 
-0.120761 0.838576 2.38207 65 55 43 
-0.112993 0.840043 2.38572 181 169 155 
-0.11007 0.839526 2.38562 102 90 76 
-0.363754 0.821136 2.33216 144 145 140 
-0.107214 0.840181 2.3859 181 169 155 
-0.148979 0.837463 2.37586 151 139 127 
-0.190517 0.836065 2.36722 207 197 187 
-0.368852 0.822698 2.32946 147 148 143 
-0.153522 0.839532 2.37459 111 99 87 
-0.213921 0.836581 2.36295 166 158 147 
-0.206498 0.836728 2.36363 135 131 119 
-0.196584 0.838479 2.36648 221 211 199 
-0.168699 0.839395 2.37046 136 128 117 
-0.326043 0.828646 2.33866 132 131 129 
-0.248041 0.835318 2.35665 146 143 136 
-0.161581 0.841331 2.37275 212 202 190 
-0.301218 0.830958 2.34357 159 154 150 
-0.24458 0.835243 2.35629 200 195 189 
-0.242225 0.836012 2.35585 122 119 114 
-0.228505 0.836764 2.35888 128 123 119 
-0.203251 0.838898 2.36413 232 228 216 
-0.141783 0.84345 2.37702 156 146 136 
-0.254146 0.83606 2.35407 112 109 100 
-0.210678 0.839342 2.36218 168 161 151 
-0.181045 0.841501 2.3694 152 140 128 
-0.174022 0.842068 2.37027 201 193 180 
-0.158621 0.842617 2.37324 114 106 93 
-0.155901 0.84364 2.37383 169 161 148 
-0.363151 0.828657 2.33125 107 106 104 
-0.339261 0.829957 2.33576 141 137 128 
-0.276146 0.835348 2.34948 226 223 214 
-0.19842 0.841358 2.36567 173 162 156 
-0.184904 0.841848 2.36831 165 155 145 
-0.181915 0.844102 2.36889 242 232 223 
-0.269033 0.83748 2.35022 135 129 117 
-0.257538 0.83831 2.35235 145 139 127 
-0.229764 0.840818 2.35784 154 145 136 
-0.190892 0.843761 2.36653 146 137 128 
-0.178343 0.844298 2.36783 181 171 162 
-0.250329 0.839793 2.35354 75 72 63 
-0.23766 0.840558 2.3571 154 150 141 
-0.1649 0.846101 2.3708 150 141 132 
-0.175911 0.846441 2.36851 70 61 52 
-0.215647 0.845547 2.36103 42 33 24 
-0.37596 0.831946 2.32535 204 203 199 
-0.274077 0.840599 2.34825 228 220 209 
-0.236939 0.843461 2.35642 243 234 225 
-0.185842 0.847608 2.36789 74 63 57 
-0.316489 0.838159 2.33979 224 221 216 
-0.274599 0.840052 2.34666 236 228 217 
-0.344817 0.83667 2.33258 134 127 119 
-0.322878 0.837159 2.33588 209 206 201 
-0.227933 0.845654 2.35896 173 163 154 
-0.299621 0.840694 2.34207 222 215 209 
-0.265476 0.843335 2.35058 155 147 136 
-0.237869 0.845656 2.3551 132 119 111 
-0.235148 0.847178 2.35584 188 175 167 
-0.222339 0.846079 2.3568 179 171 160 
-0.296546 0.842302 2.34246 148 143 137 
-0.289377 0.843268 2.34386 99 90 83 
-0.241723 0.846863 2.35415 76 61 54 
-0.238434 0.848498 2.35646 159 144 137 
-0.33611 0.840309 2.33349 136 132 120 
-0.27073 0.844874 2.34813 115 106 97 
-0.233437 0.848382 2.35544 124 111 103 
-0.222832 0.849893 2.35835 69 60 53 
-0.354725 0.839824 2.32894 136 129 123 
-0.344925 0.840395 2.33121 121 112 105 
-0.304486 0.843596 2.33987 151 148 143 
-0.290483 0.845019 2.34244 199 192 184 
-0.26161 0.847262 2.34911 112 102 92 
-0.25897 0.848044 2.35032 171 158 149 
-0.228832 0.850471 2.35629 94 84 75 
-0.320319 0.843406 2.33603 125 120 116 
-0.264898 0.848416 2.34925 180 170 161 
-0.317926 0.844791 2.33751 204 199 195 
-0.283167 0.848028 2.34582 217 210 200 
-0.275255 0.848052 2.34498 196 189 181 
-0.290531 0.847807 2.34158 81 77 68 
-0.288038 0.848469 2.34243 208 204 195 
-0.285151 0.849004 2.34318 77 70 60 
-0.341969 0.845235 2.3315 138 129 122 
-0.284929 0.849474 2.34385 68 61 51 
-0.277555 0.850133 2.34531 58 49 42 
-0.336716 0.84723 2.33384 221 216 210 
-0.317722 0.848261 2.33675 120 115 111 
-0.314786 0.848259 2.33727 192 187 183 
-0.258283 0.85213 2.34939 138 125 117 
-0.335204 0.847155 2.33321 225 222 215 
-0.327027 0.848668 2.33475 122 118 109 
-0.342929 0.847665 2.33118 214 205 200 
-0.332565 0.848304 2.3331 123 118 112 
-0.329955 0.848618 2.33395 187 183 174 
-0.323952 0.847888 2.33362 158 153 149 
-0.394376 0.844329 2.32035 198 197 193 
-0.365133 0.846134 2.32594 113 106 98 
-0.345069 0.848555 2.33078 137 128 121 
-0.356305 0.847859 2.32884 232 222 213 
-0.316469 0.850639 2.33544 125 120 116 
-0.337086 0.850112 2.33057 159 154 150 
-0.333187 0.850767 2.33251 170 165 159 
-0.339613 0.85056 2.33088 46 38 35 
-0.35959 0.849995 2.3262 47 40 32 
-0.352419 0.850913 2.32753 196 189 181 
-0.382785 0.849094 2.32129 88 82 82 
-0.392607 0.849807 2.31828 85 82 75 
-0.354853 0.852257 2.32615 50 43 35 
-0.390268 0.85314 2.31844 66 62 53 
-0.388087 0.852832 2.31853 113 108 102 
-0.385495 0.853877 2.31791 35 28 22 
-0.374483 0.853512 2.31524 235 223 207 
-0.372399 0.854172 2.31363 16 4 0 
0.084365 0.823562 2.22355 109 99 98 
-0.51786 0.776847 2.08717 110 97 81 
-0.473265 0.802008 2.09555 133 123 111 
-0.51798 0.799986 2.08662 93 81 69 
-0.516244 0.832101 2.08521 103 93 81 
-0.474303 0.84279 2.09037 73 63 53 
-0.496723 0.844645 2.08265 93 85 72 
-0.492103 0.845742 2.08375 100 93 77 
-0.0636116 -0.820571 2.65773 41 19 6 
0.296763 -0.771498 2.70868 155 141 140 
0.299755 -0.751872 2.72104 185 175 174 
0.30429 -0.744707 2.72584 17 0 0 
0.468775 -0.458393 2.74961 35 49 34 
0.375237 -0.421637 2.72217 212 234 213 
0.360996 -0.41902 2.71826 188 214 187 
0.381047 -0.418086 2.72553 220 242 219 
0.367026 -0.409104 2.71855 216 235 216 
0.252675 -0.399304 2.69703 231 237 233 
0.253675 -0.385619 2.69487 228 240 226 
0.339757 -0.379496 2.70896 224 238 225 
0.387495 -0.378445 2.71731 60 88 65 
0.32105 -0.349547 2.70147 186 216 190 
0.357327 -0.350892 2.70752 225 250 228 
0.376505 -0.351568 2.71026 232 253 236 
0.259157 -0.345848 2.68626 25 45 33 
0.416918 -0.349022 2.71873 216 249 222 
0.330359 -0.334715 2.69921 43 61 45 
0.303514 -0.332124 2.69415 88 117 97 
0.254687 -0.329723 2.68504 230 232 227 
0.258737 -0.310341 2.68317 234 240 226 
0.252581 -0.296985 2.6821 171 161 149 
0.255205 -0.284547 2.67753 236 227 218 
0.254013 -0.28428 2.67514 229 221 210 
0.361048 -0.281476 2.69552 235 249 234 
0.352452 -0.27468 2.69226 227 250 230 
0.389111 -0.273879 2.69983 214 233 214 
0.411364 -0.273384 2.70427 244 255 246 
0.562358 -0.269946 2.73667 218 206 190 
0.377613 -0.261576 2.69462 225 255 227 
0.454083 -0.238815 2.70729 217 248 217 
0.376179 -0.234687 2.68999 222 248 223 
0.398902 -0.230755 2.69484 71 105 78 
0.307006 -0.227191 2.67629 62 71 66 
0.426094 -0.220867 2.69628 69 97 75 
0.360742 -0.217155 2.68391 84 100 89 
0.371165 -0.217733 2.68911 186 216 192 
0.447038 -0.217639 2.70195 217 239 216 
0.283481 -0.207796 2.66919 217 242 221 
0.419131 -0.1922 2.69155 54 86 62 
0.385006 -0.187907 2.6848 230 246 233 
0.419033 -0.188477 2.69172 222 251 231 
0.428819 -0.188126 2.69258 228 253 232 
0.566957 -0.189263 2.7234 90 77 69 
0.325223 -0.184969 2.67109 220 255 225 
0.381438 -0.186197 2.68405 230 247 231 
0.572359 -0.188606 2.72727 237 224 218 
0.428043 -0.183803 2.69178 94 122 99 
0.336452 -0.180073 2.67453 62 101 74 
0.517239 -0.174873 2.71238 239 228 222 
0.382258 -0.166256 2.67953 235 255 235 
0.384477 -0.167234 2.68138 214 233 214 
0.520378 -0.168989 2.7127 237 227 218 
0.598842 -0.163298 2.72827 109 96 87 
0.271583 -0.124576 2.65135 122 144 121 
-0.14699 -0.0852258 2.56823 156 154 155 
-0.00100337 -0.0774433 2.59365 94 94 94 
-0.165793 -0.0657247 2.5575 204 204 204 
-0.337029 -0.0617902 2.52187 25 25 25 
-0.254381 -0.0139384 2.52897 38 36 37 
-0.317212 0.0491913 2.50463 191 191 191 
-0.271461 0.105322 2.50291 109 111 110 
0.102986 0.119042 2.5745 221 221 221 
0.103258 0.126292 2.57081 37 37 37 
-0.438614 0.132695 2.45955 189 189 191 
-0.166531 0.136074 2.5184 222 220 221 
-0.0145479 0.169032 2.5426 183 181 184 
-0.0416142 0.176393 2.53559 227 223 224 
-0.324956 0.174382 2.4783 121 121 123 
0.011739 0.183548 2.54451 58 54 55 
0.0153523 0.190079 2.54602 123 119 118 
0.480835 0.20564 2.63387 249 247 248 
-0.370608 0.200069 2.46386 156 156 158 
-0.128998 0.207999 2.51015 88 88 88 
-0.389284 0.218767 2.45524 111 112 114 
-0.143442 0.230826 2.50505 213 213 213 
0.0168724 0.23968 2.53773 174 170 169 
-0.0272321 0.239729 2.52603 187 174 168 
-0.375926 0.233909 2.45476 225 225 227 
-0.212122 0.267904 2.48327 205 205 205 
-0.180043 0.276939 2.48908 53 53 53 
-0.0825163 0.383198 2.48561 201 195 195 
-0.1877 0.384334 2.46385 182 178 166 
-0.106585 0.399339 2.47871 193 191 192 
0.0578189 0.406274 2.24108 117 106 100 
-0.181408 0.459219 2.44882 154 150 139 
0.0356003 0.432531 2.24025 113 97 84 
0.0509787 0.436175 2.23886 200 194 194 
0.303376 0.496345 2.53735 104 95 86 
-0.357993 0.469974 2.40803 152 149 144 
-0.348119 0.47134 2.41231 157 154 149 
0.0585918 0.440297 2.23864 83 81 84 
0.0445258 0.449301 2.23822 223 207 191 
-0.260388 0.488257 2.42537 160 156 147 
0.0262703 0.455233 2.24369 98 82 69 
-0.267833 0.51941 2.41791 147 143 132 
0.0357806 0.48272 2.24033 171 153 139 
0.273364 0.55593 2.52409 175 165 155 
0.0463198 0.492674 2.23612 169 153 138 
0.0672974 0.535803 2.23539 81 65 50 
0.0613135 0.553191 2.23489 108 96 80 
0.0620862 0.559686 2.23437 84 71 55 
-0.196809 0.618537 2.41203 171 169 157 
-0.238483 0.620153 2.40031 168 165 160 
-0.238566 0.628164 2.39943 166 163 158 
0.067567 0.596784 2.23466 121 104 86 
-0.379271 0.636491 2.36733 126 122 119 
0.0724414 0.601189 2.2326 117 101 78 
-0.755063 0.664086 2.28053 148 144 135 
0.0699133 0.653069 2.23007 215 198 180 
0.0483863 0.671437 2.2324 176 159 141 
0.440592 0.762258 2.52788 160 160 152 
0.274932 0.771232 2.48754 173 174 166 
-0.297257 0.743519 2.36217 82 79 72 
0.0654145 0.701997 2.22824 166 153 137 
-0.234064 0.75134 2.37449 164 163 159 
0.474696 0.817734 2.525 186 179 171 
0.330912 0.81798 2.49365 235 233 221 
0.370234 0.821997 2.50296 195 186 177 
0.366265 0.821494 2.50082 101 92 83 
-0.0415707 0.79523 2.41004 130 126 117 
0.312039 0.822003 2.48659 127 123 112 
-0.0219383 0.801207 2.41367 122 117 111 
0.30468 0.82484 2.4836 101 97 86 
0.299959 0.826591 2.48093 175 172 157 
0.28793 0.829911 2.48145 192 191 171 
0.245825 0.828609 2.47044 88 85 66 
-0.00889796 0.815928 2.41336 153 148 145 
-0.0558798 0.818273 2.40187 173 168 165 
-0.0403385 0.824974 2.40204 142 134 132 
-0.03921 0.828615 2.40322 43 38 34 
-0.079052 0.832822 2.39444 200 191 182 
-0.105531 0.836218 2.38702 216 204 190 
-0.117746 0.836218 2.38293 184 172 160 
-0.186589 0.83674 2.36947 121 111 99 
-0.206406 0.83678 2.36389 135 131 119 
-0.276405 0.834961 2.34765 226 223 214 
-0.17091 0.843988 2.36995 90 82 71 
-0.243323 0.838816 2.35634 85 82 75 
-0.202705 0.843951 2.36288 54 47 37 
-0.176025 0.846286 2.3682 70 61 52 
-0.274686 0.839999 2.34639 236 228 217 
-0.336061 0.84032 2.33365 136 132 120 
-0.344455 0.840936 2.33279 128 119 112 
-0.296598 0.844611 2.34183 225 222 215 
-0.275433 0.846463 2.34602 211 204 194 
-0.335814 0.84732 2.33335 225 222 215 
-0.321718 0.848668 2.33652 182 177 173 
-0.355399 0.846844 2.32605 232 222 213 
-0.352419 0.850913 2.32753 196 189 181 
-0.128677 -0.83475 2.80516 24 6 0 
0.294865 -0.775519 2.70492 14 0 0 
0.287302 -0.765375 2.71102 31 18 10 
0.283173 -0.754847 2.71354 9 0 0 
0.206756 -0.644284 2.73331 114 97 77 
-0.0388619 -0.60805 2.67334 137 121 106 
0.252927 -0.452403 2.70248 55 78 52 
0.314863 -0.440847 2.71545 203 226 206 
0.470714 -0.446938 2.75099 63 75 61 
0.331719 -0.439762 2.7221 210 234 212 
0.314722 -0.42979 2.71354 69 86 70 
0.313227 -0.425068 2.71058 217 239 218 
0.360653 -0.425004 2.71712 205 215 204 
0.331395 -0.424788 2.71736 218 234 224 
0.347032 -0.418984 2.71766 213 218 211 
0.362505 -0.42045 2.72111 216 229 211 
0.243899 -0.413804 2.69746 156 146 136 
0.358523 -0.409734 2.7209 221 231 220 
0.322946 -0.405215 2.7127 38 62 46 
0.237785 -0.378087 2.6948 131 126 123 
0.257809 -0.369064 2.69184 162 190 165 
0.257138 -0.362698 2.69075 73 99 74 
0.377154 -0.351485 2.71146 218 239 222 
0.336121 -0.34912 2.70469 219 240 221 
0.418272 -0.349088 2.72117 216 253 222 
0.251197 -0.344844 2.68483 58 54 51 
0.256841 -0.322698 2.68534 224 234 225 
0.317457 -0.323675 2.69655 41 53 43 
0.258654 -0.309784 2.68357 234 240 226 
0.334358 -0.288763 2.69116 221 251 227 
0.361266 -0.281089 2.69592 230 244 229 
0.401752 -0.277929 2.70682 67 84 74 
0.410123 -0.276904 2.70555 223 237 220 
0.409909 -0.265379 2.70404 219 253 226 
0.303756 -0.231455 2.67377 226 251 232 
0.366184 -0.233491 2.68749 207 231 209 
0.376502 -0.234618 2.69059 222 248 223 
0.350661 -0.232298 2.68016 214 237 219 
0.327276 -0.226316 2.68158 208 226 212 
0.340329 -0.232334 2.73734 70 81 73 
0.385536 -0.228877 2.69266 70 98 76 
0.39881 -0.230762 2.69467 71 105 78 
0.38374 -0.227878 2.68937 85 117 93 
0.548347 -0.229429 2.72799 70 57 48 
0.427798 -0.222058 2.69933 72 108 80 
0.537987 -0.223265 2.72456 19 9 0 
0.283294 -0.214376 2.67189 58 76 64 
0.326083 -0.214216 2.67507 211 236 214 
0.511049 -0.215377 2.7166 138 128 116 
0.279668 -0.20864 2.6666 227 245 229 
0.460313 -0.208985 2.70333 216 245 217 
0.339997 -0.186624 2.67882 211 234 214 
0.498801 -0.188653 2.70982 26 13 5 
0.37074 -0.186372 2.68272 181 207 182 
0.628161 -0.187198 2.73455 59 47 31 
0.365313 -0.180686 2.68283 86 122 96 
0.40413 -0.182133 2.68583 61 91 65 
0.336255 -0.179646 2.67415 62 101 74 
0.428578 -0.1743 2.69017 99 125 98 
0.521016 -0.174427 2.71665 239 229 220 
0.338448 -0.169951 2.67569 75 107 83 
0.38403 -0.167159 2.68057 214 233 214 
0.333663 -0.16027 2.66919 65 91 66 
-0.327826 -0.144959 2.53842 157 153 150 
0.634334 -0.152694 2.73699 91 78 69 
0.646398 -0.146365 2.73505 131 122 107 
-0.109492 -0.0791663 2.56863 119 118 116 
-0.1132 -0.0739321 2.57039 168 166 167 
-0.334645 -0.0666707 2.51687 103 101 102 
-0.341884 -0.0643366 2.52385 180 178 179 
-0.19879 -0.0652972 2.55338 226 226 226 
-0.34763 -0.0615422 2.5191 56 56 56 
-0.121026 -0.0640225 2.56428 158 156 157 
-0.197985 -0.0560014 2.55151 117 117 117 
-0.152787 -0.0532878 2.55844 218 218 218 
-0.120174 -0.0513392 2.56227 228 227 225 
-0.144682 -0.0444655 2.55875 226 226 226 
-0.288869 -0.0387261 2.52727 217 221 222 
-0.312718 -0.0287503 2.52331 211 211 213 
-0.203485 -0.0259221 2.5429 193 193 193 
-0.208529 -0.0178768 2.54133 40 38 39 
-0.204073 -0.01479 2.54059 205 205 205 
-0.299143 0.0251621 2.51141 196 196 196 
-0.296762 0.0368071 2.51054 199 197 198 
-0.317814 0.0432749 2.50117 52 52 52 
-0.421055 0.0508942 2.47968 160 160 160 
-0.343188 0.0535374 2.49775 203 203 205 
0.0188537 0.0736377 2.56715 215 216 220 
-0.37035 0.0828348 2.48775 210 210 212 
-0.216608 0.0899039 2.5227 16 14 15 
-0.434848 0.0939188 2.47077 14 14 16 
0.229441 0.0996661 2.60354 118 116 117 
-0.452913 0.0979851 2.46373 34 34 36 
0.103568 0.104477 2.57688 213 213 213 
0.166973 0.112617 2.59067 90 89 87 
0.110622 0.123619 2.57599 224 224 224 
0.136718 0.125495 2.57869 232 234 233 
0.104196 0.126411 2.57287 39 39 39 
-0.446245 0.132431 2.45897 121 121 123 
-0.179404 0.135645 2.51637 224 226 225 
-0.166779 0.135821 2.5177 222 220 221 
-0.151498 0.141921 2.52172 49 49 49 
-0.175324 0.147856 2.51496 169 169 171 
-0.163917 0.146879 2.51363 217 217 219 
0.129073 0.156726 2.57203 73 73 73 
-0.0404067 0.17744 2.53735 231 227 228 
-0.322926 0.180488 2.47768 83 83 85 
0.473928 0.203941 2.63128 55 53 54 
-0.0823727 0.198972 2.52372 83 81 82 
-0.321778 0.198437 2.47387 139 139 141 
-0.319398 0.205307 2.47624 49 49 51 
0.0121758 0.21983 2.53753 76 75 73 
-0.252154 0.219714 2.48512 197 197 197 
-0.156894 0.221336 2.50572 220 220 220 
-0.274559 0.226907 2.47777 223 223 225 
0.00231127 0.248832 2.5337 82 81 79 
0.0193253 0.25358 2.53271 41 37 36 
-0.140968 0.258125 2.49771 22 22 22 
-0.134046 0.261069 2.50002 188 188 188 
-0.212234 0.268065 2.48293 220 220 220 
-0.201071 0.269898 2.48512 27 27 27 
-0.179905 0.277615 2.48705 53 53 53 
-0.113671 0.305047 2.49571 64 60 57 
-0.242321 0.378752 2.45278 58 54 51 
-0.223644 0.381491 2.45761 143 139 128 
-0.0872633 0.385453 2.48184 15 17 16 
-0.211637 0.385592 2.45949 110 105 101 
-0.107437 0.400636 2.47693 213 212 210 
-0.100698 0.427622 2.47251 29 28 26 
0.049893 0.404627 2.23949 113 108 102 
-0.0716068 0.452052 2.47525 163 159 150 
-0.269844 0.470037 2.42734 153 149 140 
-0.298389 0.471067 2.42046 160 158 146 
-0.225426 0.490434 2.43233 168 164 152 
0.0554607 0.451096 2.23784 249 236 227 
0.0430823 0.474479 2.23816 187 171 155 
-0.122712 0.522101 2.44659 163 160 151 
-0.215421 0.572639 2.41632 160 156 145 
0.0566054 0.528482 2.23334 75 66 51 
-0.218646 0.57724 2.41397 173 169 158 
-0.342796 0.572096 2.39004 165 164 159 
1.00678 0.814335 3.24636 167 138 132 
-0.222745 0.627393 2.40465 189 184 178 
-0.0402467 0.64308 2.44043 125 117 104 
-0.341714 0.680794 2.36585 153 152 147 
-0.0597568 0.696959 2.42427 113 109 100 
0.294307 0.733054 2.49608 180 178 166 
0.367533 0.784208 2.50645 159 158 153 
0.416103 0.801493 2.51668 144 143 138 
-0.106947 0.767092 2.39962 171 168 163 
0.418673 0.816769 2.50669 150 146 143 
0.267699 0.809563 2.47811 128 124 113 
-0.0410923 0.795771 2.41116 120 117 108 
0.332696 0.821339 2.49116 135 133 121 
0.2995 0.822979 2.48403 216 210 196 
-0.792753 0.746343 2.25293 152 148 139 
0.309736 0.828199 2.48752 41 38 29 
-0.203009 0.798012 2.37212 159 158 154 
-0.00876455 0.816163 2.41365 153 148 145 
-0.0556813 0.818431 2.40235 189 184 181 
-0.263637 0.805675 2.35856 186 185 183 
-0.109377 0.820382 2.39067 159 154 148 
-0.0853606 0.821926 2.39624 159 153 141 
-0.103239 0.820714 2.39009 199 192 184 
-0.197704 0.820853 2.36913 131 128 123 
-0.194205 0.823456 2.36794 221 216 210 
-0.190833 0.82409 2.36938 132 128 119 
-0.228589 0.836844 2.35845 128 123 119 
-0.165762 0.840749 2.37322 161 153 142 
-0.36872 0.829811 2.32892 210 210 202 
-0.182057 0.842755 2.36599 242 232 223 
-0.202662 0.844209 2.36299 54 47 37 
-0.196759 0.845265 2.36192 168 159 150 
-0.363425 0.837321 2.33046 124 120 117 
-0.248158 0.845928 2.35084 49 40 35 
-0.22625 0.850202 2.35952 139 129 120 
-0.336874 0.8403 2.33166 151 147 135 
-0.339837 0.848285 2.33358 148 141 135 
-0.33576 0.847111 2.33356 224 221 212 
-0.354984 0.847595 2.32745 224 215 208 
-0.316141 0.849771 2.33526 124 119 115 
0.0201793 0.832627 2.24669 168 165 160 
-0.636666 0.861547 2.26353 64 55 48 
0.309029 -0.763048 2.71912 172 159 153 
0.300963 -0.755567 2.72403 174 163 157 
0.304308 -0.747314 2.72603 7 0 0 
0.442752 -0.462525 2.74635 41 66 45 
0.468964 -0.439955 2.74853 72 102 76 
0.25505 -0.352398 2.68952 231 239 224 
0.320177 -0.345439 2.6973 207 228 211 
0.335234 -0.332946 2.70067 214 232 216 
0.255937 -0.323967 2.68371 208 213 207 
0.253614 -0.315565 2.6831 55 49 49 
0.258022 -0.307358 2.68074 219 226 210 
0.405697 -0.280811 2.70092 206 220 203 
0.376843 -0.280677 2.69218 213 234 215 
0.362118 -0.278967 2.69411 223 235 221 
0.260025 -0.271449 2.67669 217 215 200 
0.314067 -0.231702 2.68204 213 237 213 
0.470773 -0.237212 2.70871 221 238 219 
0.278701 -0.229302 2.66503 221 239 223 
0.544927 -0.227358 2.72781 115 105 95 
0.358318 -0.218916 2.68338 76 91 84 
0.508435 -0.216424 2.72142 102 92 80 
0.278189 -0.209327 2.6658 221 235 222 
0.337434 -0.173336 2.67374 74 124 86 
0.384387 -0.167201 2.68122 214 233 214 
0.358258 -0.164949 2.66468 213 238 219 
-0.341844 -0.064642 2.524 180 178 179 
-0.199686 -0.0640417 2.55129 228 228 228 
-0.153699 -0.0548001 2.56273 219 219 219 
-0.250142 -0.0481945 2.53805 41 41 41 
0.191547 0.00449417 2.61933 51 51 51 
-0.256191 0.00644155 2.52791 42 40 41 
-0.298217 0.0232808 2.51169 217 215 216 
0.0662882 0.0497078 2.58169 212 212 212 
-0.429387 0.0532496 2.47973 28 28 28 
-0.34088 0.0574521 2.50025 38 38 40 
0.0272509 0.0747481 2.5713 33 33 33 
-0.35306 0.0740296 2.49146 207 207 209 
-0.392099 0.0846121 2.48015 218 218 220 
-0.263062 0.0900726 2.50792 20 22 21 
-0.220525 0.10982 2.51273 217 219 216 
-0.273841 0.110777 2.50259 33 35 34 
-0.446245 0.124417 2.45892 207 207 209 
0.103514 0.128787 2.57342 29 29 29 
0.119868 0.126915 2.57652 229 229 229 
-0.321705 0.188193 2.47592 116 116 118 
0.0944755 0.206938 2.55781 222 222 222 
-0.211069 0.210511 2.49265 60 60 62 
-0.198868 0.215423 2.50433 227 227 227 
-0.279197 0.216205 2.48245 218 218 220 
-0.158325 0.217377 2.50557 228 228 228 
-0.252596 0.21933 2.48374 191 191 191 
-0.218607 0.231434 2.48688 226 226 228 
-0.214614 0.262148 2.48622 32 32 34 
-0.198309 0.270531 2.48639 149 149 149 
0.00140589 0.308681 2.52284 114 108 108 
0.0475546 0.322117 2.52398 88 84 83 
-0.321253 0.403496 2.43339 161 158 149 
-0.122712 0.522101 2.44659 163 160 151 
0.0531698 0.5982 2.23392 99 82 62 
0.504477 0.810436 2.53454 238 235 226 
-0.10191 0.781014 2.39992 184 181 176 
0.2989 0.821891 2.483 238 234 222 
-0.109837 0.820411 2.38948 140 137 130 
-0.168694 0.842765 2.37137 94 86 75 
-0.368777 0.829603 2.32873 223 223 215 
-0.253633 0.847701 2.35256 185 175 166 
-0.247043 0.847115 2.35413 64 55 50 
0.210915 -0.672089 2.72534 54 38 15 
0.389001 -0.406402 2.72159 220 237 219 
0.252602 -0.393474 2.69913 69 73 74 
0.377283 -0.354424 2.7105 215 225 216 
0.258736 -0.28941 2.67753 213 217 202 
0.333166 -0.211902 2.67573 222 243 224 
0.362711 -0.185764 2.68056 211 231 219 
-0.119263 -0.0752152 2.56272 214 212 213 
-0.344227 -0.0573709 2.5174 35 35 35 
-0.31964 -0.0599524 2.52416 204 204 204 
-0.182367 -0.0445585 2.54617 195 195 195 
0.167422 -0.0218536 2.61637 31 31 33 
-0.334991 -0.0220224 2.51515 141 141 143 
-0.434474 -0.00334399 2.49044 27 28 30 
0.153062 -0.0046912 2.60679 228 228 228 
0.190713 0.0193267 2.61308 60 60 60 
-0.32295 0.0367111 2.50177 214 214 214 
0.0660609 0.0514081 2.5813 217 217 217 
-0.429103 0.0516127 2.47903 26 26 26 
-0.420303 0.0586892 2.47615 213 213 213 
-0.045007 0.0766844 2.55524 214 214 214 
-0.256655 0.0805219 2.51782 217 219 218 
-0.37701 0.0821847 2.48948 107 106 111 
-0.27886 0.0869754 2.50444 212 214 213 
0.104693 0.104604 2.57839 181 181 181 
0.0889539 0.11163 2.57336 225 225 225 
0.138137 0.126943 2.58124 228 228 228 
-0.165995 0.1347 2.51803 225 223 224 
-0.437544 0.136685 2.46103 203 203 205 
-0.234395 0.145029 2.50057 36 36 36 
-0.199929 0.217509 2.49821 230 230 230 
-0.215909 0.222608 2.49299 102 102 102 
-0.225916 0.235326 2.49704 29 29 31 
-0.215233 0.240683 2.4945 31 31 33 
-0.260934 0.25836 2.48036 203 203 205 
0.0112457 0.264426 2.52554 44 44 44 
-0.197726 0.271873 2.48812 50 50 50 
-0.0873108 0.386882 2.48892 15 17 16 
-0.105226 0.388436 2.48729 27 25 26 
0.295959 0.53664 2.53039 161 153 142 
-0.260333 0.754977 2.36934 88 80 77 
-0.0456336 0.802807 2.407 152 149 140 
-0.0632502 0.821063 2.40465 133 128 125 
-0.191764 0.823869 2.36856 126 121 115 
0.0685198 0.802086 2.22678 78 69 62 
0.296345 -0.36992 2.70287 55 61 61 
0.260494 -0.297219 2.68722 235 247 227 
0.414836 -0.22325 2.75262 218 236 220 
0.32155 -0.176724 2.61578 220 222 217 
0.276287 -0.128457 2.65227 82 140 92 
0.278036 -0.128231 2.65568 83 141 93 
-0.131848 -0.0748008 2.56508 218 218 218 
-0.10638 -0.0749041 2.5725 67 65 66 
0.00998426 -0.0752686 2.5986 44 44 42 
-0.115343 -0.0475903 2.56277 222 221 219 
-0.402084 -0.0212073 2.49836 29 29 29 
0.166831 -0.020925 2.61474 40 40 42 
-0.230945 -0.00676357 2.53346 42 40 41 
0.0896266 -0.011667 2.59719 24 25 27 
-0.208278 -0.00182261 2.53729 220 218 219 
0.18918 0.0136458 2.61259 79 79 79 
-0.255315 0.0364797 2.51994 31 31 31 
0.0689913 0.038157 2.58922 40 38 39 
-0.319163 0.045211 2.50128 81 81 81 
0.034709 0.0412072 2.57645 222 222 222 
-0.4158 0.0509901 2.47991 30 30 30 
-0.410807 0.0611044 2.48139 27 27 27 
-0.318133 0.0612399 2.50046 219 219 219 
0.049682 0.0633872 2.57384 69 69 69 
-0.380078 0.0654572 2.4863 221 221 221 
-0.280541 0.0824557 2.5052 216 216 214 
-0.371488 0.0953838 2.48554 206 206 206 
0.262341 0.109064 2.5956 33 33 35 
-0.385318 0.11902 2.47594 36 36 38 
0.0804293 0.185962 2.56239 222 218 217 
-0.123097 0.201352 2.5067 51 51 51 
-0.324929 0.208073 2.47329 34 34 36 
-0.350693 0.217113 2.46262 220 220 222 
0.0905592 0.223612 2.55307 36 38 37 
-0.197962 0.223588 2.48846 228 228 228 
-0.303606 0.225989 2.47612 16 15 20 
-0.255435 0.222868 2.46984 32 32 34 
-0.329646 0.238539 2.46851 32 32 34 
-0.262943 0.264667 2.4814 219 219 221 
-0.23726 0.334592 2.48947 27 23 22 
-0.197323 0.340619 2.49591 24 20 17 
-0.101175 0.406013 2.46739 34 34 34 
0.0154437 0.768358 2.31067 127 120 114 
-0.0802031 0.824902 2.40008 223 217 203 
