ply
format ascii 1.0
comment PCL generated
element vertex 407
property float x
property float y
property float z
property uchar red
property uchar green
property uchar blue
element face 0
element camera 1
property float view_px
property float view_py
property float view_pz
property float x_axisx
property float x_axisy
property float x_axisz
property float y_axisx
property float y_axisy
property float y_axisz
property float z_axisx
property float z_axisy
property float z_axisz
property float focal
property float scalex
property float scaley
property float centerx
property float centery
property int viewportx
property int viewporty
property float k1
property float k2
end_header
0.181958 -0.29742399 1.82315 205 194 200
0.183377 -0.296352 1.82354 200 188 194
0.195195 -0.29955199 1.8272901 165 147 153
0.184881 -0.29521799 1.82407 195 183 189
0.188219 -0.26938599 1.8022799 180 167 171
0.188215 -0.269393 1.80226 180 167 171
0.191402 -0.27094701 1.80749 176 159 165
0.180355 -0.267364 1.81014 215 206 212
0.18296 -0.267295 1.80977 203 192 198
0.194498 -0.26679599 1.81815 170 153 158
0.19599099 -0.26614299 1.81504 156 139 143
0.19523001 -0.26997501 1.82068 168 149 154
0.19681901 -0.26930901 1.81775 155 134 138
0.179565 -0.261112 1.81405 215 206 213
0.184025 -0.26166901 1.81236 208 197 204
0.186628 -0.26183799 1.81209 192 179 186
0.18843099 -0.262894 1.81296 189 175 182
0.191855 -0.26196501 1.81296 173 161 165
0.18971901 -0.260631 1.8135999 185 172 178
0.19435699 -0.26255801 1.81303 166 151 155
0.193793 -0.26358899 1.8157001 171 156 161
0.195447 -0.26070601 1.81143 154 141 144
0.18083701 -0.259215 1.81329 213 204 210
0.18118399 -0.25681999 1.81209 213 204 210
0.18098 -0.25174901 1.80436 212 202 208
0.189816 -0.255431 1.80792 178 167 171
0.192523 -0.258205 1.8139499 170 158 162
0.178901 -0.252601 1.8088599 215 204 211
0.17918301 -0.25391799 1.8104399 215 204 211
0.191209 -0.25118601 1.80893 174 161 164
0.195271 -0.25681999 1.81573 158 148 151
0.176884 -0.25297299 1.8148299 216 205 212
0.19325399 -0.25509799 1.81634 166 157 158
0.19574299 -0.25332701 1.81566 151 142 144
0.198232 -0.255409 1.81806 131 121 122
0.175062 -0.253892 1.82066 217 208 215
0.176347 -0.248567 1.8116601 215 205 211
0.177876 -0.25097001 1.81414 215 205 211
0.189871 -0.249504 1.81248 193 180 184
0.196052 -0.249598 1.81405 140 130 130
0.175696 -0.25153199 1.81891 216 207 213
0.188879 -0.24809401 1.81555 204 191 196
0.191294 -0.247355 1.81305 180 164 168
0.193856 -0.247501 1.81253 159 147 149
0.180087 -0.24168999 1.81141 213 201 207
0.182322 -0.24232499 1.81256 211 198 204
0.183589 -0.24431799 1.81311 210 197 204
0.18749499 -0.245745 1.81583 206 192 198
0.19031499 -0.24594299 1.8176 202 188 193
0.172769 -0.244781 1.8197401 217 209 215
0.175422 -0.244028 1.81814 216 206 212
0.178624 -0.234807 1.80644 212 199 206
0.180547 -0.237587 1.80812 211 198 205
0.18887 -0.24336199 1.81723 203 187 193
0.191633 -0.243347 1.81839 193 178 182
0.173917 -0.241816 1.81964 217 208 213
0.17628001 -0.236086 1.80876 213 203 209
0.1761 -0.24049801 1.81513 215 205 211
0.17873 -0.23988301 1.8153 214 202 208
0.186277 -0.232455 1.80655 200 178 186
0.188758 -0.23548201 1.8109601 199 175 183
0.17260399 -0.23961601 1.82162 217 210 214
0.17430601 -0.237745 1.81598 216 206 212
0.17973 -0.231794 1.8093801 211 197 204
0.193159 -0.24146201 1.8212399 189 170 174
0.17549101 -0.234561 1.81608 214 205 210
0.17521399 -0.234346 1.81819 215 205 211
0.178004 -0.23325001 1.81504 212 200 207
0.180508 -0.22859 1.80946 210 195 202
0.176107 -0.23110101 1.81617 214 204 210
0.178515 -0.23015 1.8149199 213 200 207
0.176441 -0.227742 1.8128901 212 202 208
0.19060799 -0.22834601 1.8115 190 163 171
0.190871 -0.225279 1.80937 180 151 159
0.181729 -0.222183 1.80878 206 189 196
0.179786 -0.224181 1.81397 209 196 203
0.194176 -0.222627 1.81374 148 116 122
0.175804 -0.22825199 1.82798 212 204 209
0.176212 -0.22311001 1.82242 211 202 207
0.178398 -0.222307 1.81918 209 198 204
0.18108299 -0.22154599 1.82019 207 193 200
0.17442501 -0.22100601 1.82532 213 206 210
0.176552 -0.21977 1.81967 210 200 206
0.176948 -0.22033501 1.82198 210 200 206
0.181301 -0.214687 1.81501 205 191 197
0.186818 -0.20872501 1.80674 175 153 158
0.17841201 -0.21101999 1.81418 207 196 202
0.179965 -0.21260101 1.81508 206 194 200
0.181751 -0.210673 1.81426 203 190 196
0.190429 -0.21456 1.82013 183 155 162
0.190937 -0.215137 1.81998 180 151 159
0.193527 -0.216629 1.82152 159 127 135
0.196282 -0.217522 1.8231601 135 100 105
0.197449 -0.220321 1.82556 131 92 98
0.17716201 -0.20897099 1.81445 208 198 203
0.180133 -0.208795 1.81253 205 193 198
0.182925 -0.20857701 1.8138 201 187 193
0.18481199 -0.209905 1.8166 197 181 187
0.189046 -0.211771 1.8193099 186 163 169
0.193932 -0.21413501 1.8227299 154 122 129
0.173265 -0.207046 1.8153 210 204 208
0.17590401 -0.206944 1.8152601 208 200 205
0.18620799 -0.207173 1.81759 191 174 180
0.187705 -0.209415 1.81924 190 171 176
0.19064 -0.209242 1.8203599 169 145 149
0.172152 -0.20554499 1.81794 211 205 209
0.172812 -0.20035499 1.80966 209 202 207
0.175467 -0.200592 1.81016 205 198 203
0.177949 -0.20401999 1.81428 205 196 201
0.178293 -0.201455 1.81256 202 193 198
0.18086299 -0.203641 1.81627 202 189 194
0.18370999 -0.203054 1.81604 196 182 187
0.18488701 -0.20504101 1.81732 192 176 183
0.189211 -0.20672999 1.8200099 175 153 158
0.174211 -0.19842701 1.81076 206 199 204
0.17695799 -0.19899499 1.81227 203 194 199
0.18248799 -0.200784 1.81603 198 185 189
0.18372101 -0.202498 1.81724 197 182 187
0.18633001 -0.202574 1.8173701 185 167 172
0.187564 -0.200532 1.81609 169 149 152
0.18905 -0.20270699 1.8178101 165 144 147
0.182146 -0.196558 1.81568 196 182 187
0.185001 -0.20024499 1.81691 189 172 177
0.186488 -0.198136 1.81688 173 155 158
0.18603501 -0.197955 1.8169301 176 158 161
0.189017 -0.19870301 1.8171099 165 143 146
0.19356 -0.20635501 1.82717 153 125 129
0.171933 -0.194374 1.81449 207 201 206
0.177331 -0.19573601 1.8163 202 194 200
0.180952 -0.194194 1.81629 197 186 190
0.185072 -0.195696 1.81663 178 162 165
0.18350101 -0.194245 1.8156199 186 171 175
0.18773501 -0.195719 1.81701 166 146 151
0.19013999 -0.196761 1.81777 160 136 140
0.19374301 -0.202204 1.82717 146 121 123
0.179765 -0.191791 1.8170201 197 186 193
0.18218599 -0.192136 1.81563 190 177 181
0.184863 -0.191917 1.8158 172 156 159
0.186372 -0.19346499 1.81732 168 150 154
0.186506 -0.192922 1.81749 167 148 154
0.188848 -0.19390699 1.8168499 162 142 144
0.172111 -0.18999 1.8151 206 199 204
0.172639 -0.18683399 1.8141 203 196 202
0.180888 -0.18973701 1.81593 193 182 186
0.183734 -0.190042 1.81748 179 164 170
0.183672 -0.18946201 1.81704 178 163 167
0.186424 -0.19042701 1.81822 168 149 155
0.186333 -0.18937799 1.81724 167 148 154
0.17885 -0.188292 1.8185 206 197 202
0.182337 -0.187259 1.81705 183 171 174
0.18508101 -0.187714 1.81724 169 152 158
0.172933 -0.18232 1.8161 200 193 199
0.18107501 -0.185234 1.81795 190 179 183
0.183768 -0.185358 1.81867 172 159 162
0.18379501 -0.185479 1.81894 171 158 163
0.18644001 -0.18513601 1.81817 164 146 150
0.177053 -0.18287399 1.81749 198 190 195
0.17973 -0.18294799 1.81805 192 182 187
0.182411 -0.178859 1.81511 168 155 159
0.182411 -0.178859 1.81511 171 157 158
0.176787 -0.177733 1.81621 193 185 188
0.179662 -0.17845599 1.819 186 176 181
0.181067 -0.18075299 1.8187701 182 171 175
0.18381 -0.18099301 1.8200099 168 155 159
0.186528 -0.180981 1.8208801 160 144 146
0.189853 -0.185554 1.82577 153 134 137
0.178285 -0.176266 1.8195699 188 180 184
0.18234 -0.178468 1.81952 171 159 163
0.18092 -0.17612401 1.81963 174 164 167
0.189871 -0.18142299 1.82605 146 128 128
0.191567 -0.18475901 1.8295701 142 123 124
0.191567 -0.18475901 1.8295701 142 123 124
0.173372 -0.177213 1.82365 198 192 198
0.175916 -0.177215 1.82197 193 187 192
0.68327302 -0.226799 1.90917 162 148 129
0.68289202 -0.22574501 1.90535 158 143 124
0.17474 -0.17481101 1.8234 193 187 191
0.177324 -0.174877 1.8229899 188 182 185
0.68133801 -0.225438 1.91098 195 180 165
0.68200803 -0.22346801 1.90907 184 170 154
0.68253201 -0.222156 1.9042799 160 144 128
0.68396503 -0.220652 1.9043 155 139 122
0.687087 -0.225683 1.91047 169 151 130
0.67990297 -0.223042 1.91085 209 196 180
0.67995602 -0.22297101 1.9109499 209 196 180
0.68128198 -0.220217 1.90729 196 182 166
0.68060201 -0.221046 1.90899 208 194 179
0.68200302 -0.219973 1.90633 182 169 152
0.67903602 -0.219695 1.90876 211 198 182
0.68064201 -0.217492 1.90608 206 192 177
0.68391901 -0.216956 1.90658 171 157 140
0.68468398 -0.215001 1.9046 165 149 132
0.68643802 -0.217125 1.90561 158 142 124
0.68476897 -0.213708 1.90128 159 143 125
0.680255 -0.212862 1.90429 211 197 182
0.68273902 -0.214302 1.90668 197 184 167
-1.01854 0.23955201 2.58937 161 127 93
-1.01828 0.23629899 2.59127 174 140 105
0.19300801 -0.306198 1.81873 161 143 148
0.194362 -0.305401 1.82403 160 142 147
0.193829 -0.30178899 1.8269 168 150 157
0.19595499 -0.30221301 1.82523 150 131 133
0.19272099 -0.29929399 1.82767 175 157 165
0.17889 -0.29645801 1.82673 217 210 216
0.187023 -0.296507 1.8236901 190 174 181
0.185568 -0.294716 1.82248 191 177 183
0.188021 -0.29453999 1.8221101 187 170 178
0.189557 -0.296204 1.82381 184 166 174
0.19144 -0.29731101 1.8276401 180 161 170
0.193611 -0.297418 1.82653 170 150 157
0.19608299 -0.29720399 1.82608 154 133 136
0.180215 -0.29538 1.82515 214 205 211
0.190402 -0.29435799 1.82219 182 162 171
0.197064 -0.29480699 1.82472 142 119 120
0.17911001 -0.29034501 1.8250999 216 208 213
0.181043 -0.292115 1.82444 209 198 203
0.18371999 -0.29113701 1.82569 194 181 187
0.187298 -0.29152101 1.8256201 190 174 180
0.17667 -0.28832799 1.82557 217 210 215
0.177679 -0.28809401 1.8252 217 210 214
0.18003 -0.28498799 1.8171999 203 192 198
0.182448 -0.289233 1.82522 197 186 191
0.18172599 -0.284998 1.81541 194 180 187
0.183596 -0.28294799 1.81172 193 177 184
0.18470401 -0.28931001 1.82463 193 178 185
0.18727399 -0.28918299 1.82347 190 174 180
0.17549799 -0.28700301 1.82556 217 211 216
0.17584901 -0.281735 1.8156101 215 209 214
0.17850401 -0.28163901 1.81584 214 206 210
0.17721599 -0.283593 1.81604 216 209 213
0.180856 -0.28217101 1.81423 196 183 190
0.180048 -0.28312099 1.81659 203 191 197
0.182721 -0.279349 1.8065701 191 177 184
0.172022 -0.278914 1.81086 217 210 216
0.172738 -0.27776301 1.80825 216 208 215
0.172214 -0.27695099 1.80431 216 208 214
0.17219999 -0.27496701 1.80268 216 207 214
0.178573 -0.27787399 1.81138 213 202 208
0.180483 -0.27748099 1.80987 198 185 192
0.18149 -0.27724999 1.80639 191 178 185
0.183837 -0.27705199 1.80516 190 174 181
0.170287 -0.27741301 1.81476 218 213 218
0.17273401 -0.271795 1.80353 214 206 212
0.175358 -0.27565399 1.80979 213 205 212
0.18005399 -0.27468801 1.80969 205 194 201
0.178552 -0.27590999 1.80964 213 202 209
0.182789 -0.27526301 1.80681 190 176 182
0.18989301 -0.27686399 1.81401 178 159 166
0.179956 -0.27262399 1.8071899 208 197 204
0.181363 -0.27050301 1.80784 202 189 196
0.183346 -0.27128699 1.8074501 188 173 180
0.17625301 -0.270556 1.80964 213 204 211
0.1789 -0.27112699 1.80987 213 202 210
0.181438 -0.268794 1.80738 205 193 199
0.184021 -0.268648 1.8068 187 172 179
0.18253 -0.262624 1.80785 208 196 203
0.181473 -0.2617 1.81317 210 200 206
0.175446 -0.25553599 1.8241 212 204 211
0.17317501 -0.25026199 1.81791 212 203 210
0.193739 -0.25161901 1.81637 149 137 137
0.172433 -0.257303 1.84308 217 212 216
0.17172 -0.250626 1.82232 213 206 212
0.16968399 -0.252662 1.8393101 217 212 217
0.16968399 -0.25459701 1.84076 217 213 217
0.17227501 -0.254574 1.83991 216 211 216
0.17169499 -0.24779999 1.82004 212 205 210
0.174115 -0.24696 1.8178 212 201 208
0.18265399 -0.245637 1.81437 208 194 202
0.169525 -0.248372 1.83284 215 209 215
0.168015 -0.249107 1.8367701 217 212 218
0.169982 -0.24945 1.83843 217 211 217
0.169315 -0.246209 1.8292201 214 208 214
0.183633 -0.24064 1.80869 203 186 193
0.18597201 -0.242981 1.81479 203 187 193
0.16878 -0.24478801 1.82921 215 208 214
0.17158701 -0.24631 1.83126 213 206 212
0.171794 -0.24447601 1.82725 212 205 210
0.166822 -0.24439999 1.83359 216 211 217
0.170151 -0.24258099 1.8267 213 206 211
0.16852599 -0.23954 1.8311 214 208 214
0.167943 -0.24135099 1.83362 216 210 215
0.17097101 -0.238566 1.82915 213 206 211
0.17129301 -0.235375 1.82781 212 206 211
0.167163 -0.238225 1.84363 217 212 217
0.173994 -0.229986 1.83199 211 203 209
0.170022 -0.22700401 1.83331 212 206 211
0.173126 -0.22324701 1.8232 209 201 207
0.174042 -0.22670101 1.82963 210 202 207
0.168669 -0.22477201 1.83516 212 207 212
0.171166 -0.224015 1.83328 211 205 210
0.171783 -0.221122 1.82525 209 202 208
0.173035 -0.218815 1.82715 209 202 207
0.18177401 -0.21796601 1.8189501 202 186 193
0.17569301 -0.21874 1.82744 208 199 205
0.17639001 -0.216057 1.8299299 207 198 204
0.17789499 -0.21174499 1.81815 204 193 199
0.170251 -0.20927601 1.81868 208 202 206
0.17193601 -0.209244 1.8149 207 201 205
0.17456 -0.204533 1.81505 204 197 202
0.16836999 -0.20310199 1.81294 208 202 206
0.166784 -0.200922 1.81532 208 204 209
0.169347 -0.19989599 1.8153 206 201 205
0.167757 -0.197715 1.81768 206 202 206
0.17009901 -0.19637901 1.81528 204 200 204
0.183396 -0.198752 1.8152601 187 172 175
0.68178302 -0.22201601 1.89706 141 126 112
0.16951001 -0.190758 1.81415 203 197 202
0.167697 -0.18892699 1.82225 205 200 205
0.17002299 -0.18758599 1.8129801 201 195 200
0.175072 -0.186713 1.81206 195 186 192
0.16752601 -0.186906 1.8213 203 199 203
0.168704 -0.18197399 1.82625 201 196 200
0.169857 -0.17866901 1.82495 198 193 198
0.16891199 -0.178708 1.82621 199 195 200
0.171822 -0.179245 1.8211499 197 190 195
0.17079 -0.177137 1.8241301 197 191 197
0.172176 -0.175133 1.8249201 194 189 193
-1.0842299 -0.28475499 2.7804999 198 162 127
-1.08078 -0.28537601 2.78145 145 110 77
-1.08588 -0.28147 2.7779701 194 154 118
-1.08174 -0.280247 2.7783799 180 142 104
-1.09123 -0.278272 2.7845099 188 150 113
-1.08586 -0.27884299 2.7792201 200 161 123
-1.08147 -0.27566299 2.7722001 213 174 133
-1.09226 -0.271671 2.77706 167 136 101
-1.09404 -0.273509 2.78297 168 135 100
-1.09231 -0.27413899 2.78057 181 147 111
-1.09672 -0.27633601 2.78315 149 117 82
-1.09202 -0.27581301 2.7829101 191 155 118
-1.08279 -0.271817 2.7724199 227 189 148
-1.0904 -0.26789999 2.7734001 163 130 96
-1.0858999 -0.26785001 2.7716401 217 181 142
-1.08894 -0.27110401 2.77828 221 186 147
-1.08024 -0.26976499 2.77773 170 132 93
-1.09085 -0.26530901 2.7690201 145 113 81
-1.0841399 -0.26617199 2.7718799 214 177 138
-1.08117 -0.26692101 2.7746501 185 148 107
-1.09128 -0.258322 2.76982 155 124 90
-1.08934 -0.26172 2.7701399 177 146 110
-1.0924 -0.25510499 2.7676001 139 109 76
-1.08893 -0.253768 2.76755 189 157 120
-1.08566 -0.25602901 2.7694099 215 180 141
-1.08176 -0.25786999 2.77385 189 153 113
-1.0786099 -0.25553501 2.77108 170 134 96
-1.07774 -0.25655401 2.76753 176 141 102
-1.07762 -0.25689501 2.77262 166 130 93
-1.09173 -0.25142699 2.76548 139 107 73
-1.08846 -0.24907 2.7642901 168 135 101
-1.08516 -0.25188199 2.7667601 210 175 135
-1.08153 -0.254069 2.77001 204 169 128
-1.07699 -0.24969099 2.7628801 170 136 98
-1.07731 -0.249228 2.76373 170 136 98
-1.0771101 -0.25016901 2.7686901 155 120 84
-1.07511 -0.253663 2.76897 144 109 76
-1.08613 -0.246323 2.7664599 189 152 118
-1.07423 -0.24767201 2.76632 153 121 86
-1.01544 0.235811 2.59378 165 132 99
-1.01504 0.238142 2.5902901 156 124 91
-1.01219 0.23952 2.5945201 147 116 81
-1.01389 0.244807 2.5894699 153 121 88
-1.01243 0.24189299 2.5912199 144 112 79
-1.00881 0.242149 2.5933599 163 132 99
-1.00946 0.24213199 2.59285 155 124 90
-1.01012 0.24138901 2.5996399 168 137 103
-1.0065 0.244187 2.59777 179 148 113
-1.00708 0.243587 2.5973799 180 149 115
-1.0104001 0.246025 2.58935 141 109 76
-1.00757 0.247237 2.5988801 173 142 108
-1.00679 0.245959 2.5934701 168 137 104
-1.01191 0.25156599 2.5809901 170 137 100
-1.01038 0.25062099 2.57054 188 154 114
-1.01825 0.24837101 2.5901699 163 130 94
-1.01433 0.24940801 2.5874801 163 130 94
-1.00747 0.25163299 2.57849 151 119 85
-1.0103199 0.250108 2.5861499 145 114 79
-1.00507 0.248914 2.58302 140 109 77
-1.01757 0.25328299 2.5867801 184 150 110
-1.0105799 0.25630501 2.5817399 168 136 98
-1.02101 0.261834 2.57322 186 148 107
-1.01043 0.26189899 2.57686 182 148 108
-1.00899 0.26227799 2.5818701 153 121 84
-1.0178601 0.263551 2.5725601 183 144 103
-1.00802 0.26595199 2.5757 161 128 92
-1.00853 0.26413 2.58231 149 117 81
-1.03398 0.26794001 2.5738001 170 138 100
-1.0315599 0.268976 2.5752599 206 171 131
-1.0185601 0.267335 2.57212 185 146 105
-1.01588 0.266893 2.575 174 138 96
-1.0125999 0.26750499 2.5772099 173 138 97
-1.03561 0.27291101 2.57143 136 105 70
-1.03211 0.27158701 2.57372 195 161 122
-1.0288 0.27063799 2.5757 213 177 135
-1.02531 0.272057 2.57464 211 173 131
-1.0167201 0.270399 2.57319 178 141 100
-1.01274 0.270331 2.5746601 160 126 85
-1.03426 0.27644801 2.5720601 133 103 69
-1.0327899 0.27406299 2.5718999 156 125 89
-1.0293601 0.27528799 2.57091 200 167 128
-1.0254 0.27514601 2.57095 206 170 128
-1.02097 0.27385199 2.5706501 188 151 110
-1.01739 0.27356699 2.5717399 185 148 108
-1.01423 0.27584299 2.57109 166 133 93
-1.0341901 0.27937299 2.5685 141 112 78
-1.02631 0.27732 2.5673599 194 161 124
-1.01851 0.277536 2.5708899 183 148 109
-1.01504 0.27853701 2.5697 175 142 104
-1.03023 0.28022099 2.5660601 134 105 71
0 0 0 1 0 0 0 1 0 0 0 1 0 0 0 0 0 407 1 0 0
