ply                 
format ascii 1.0    
element vertex 1366
property float x    
property float y    
property float z    
property uchar red  
property uchar green
property uchar blue 
end_header          
-0.20155 0.0714419 1.42482 0 0 0 
-0.190944 0.058607 1.42454 0 0 0 
-0.125365 0.0340987 1.23984 0 0 0 
-0.124765 -0.106062 1.28797 0 0 0 
-0.110969 0.562644 1.18202 21 5 5 
-0.112115 0.538936 1.19246 1 1 1 
-0.110672 0.316943 1.22585 0 0 0 
-0.110658 0.0696988 1.23717 0 0 0 
-0.106144 0.473845 1.19583 0 0 0 
-0.107634 0.00351202 1.22864 0 0 0 
-0.107634 0.00351202 1.22864 0 0 0 
-0.105098 -0.0932809 1.27036 0 0 0 
-0.0857612 0.00444575 1.21703 0 0 0 
-0.0861131 0.205658 1.21285 0 0 0 
-0.085743 0.208556 1.21261 0 0 0 
-0.0847747 0.129984 1.21901 0 0 0 
-0.0847747 0.129984 1.21901 0 0 0 
-0.0843463 0.110125 1.21893 0 0 0 
-0.0837961 0.298248 1.20579 0 0 0 
-0.0824964 0.257571 1.20787 0 0 0 
-0.0819836 0.203335 1.21215 0 0 0 
-0.0815234 0.209404 1.21079 0 0 0 
-0.0808184 0.213316 1.20977 0 0 0 
-0.0796709 0.216748 1.20965 0 0 0 
-0.0784397 0.228487 1.20728 0 0 0 
-0.07818 0.165904 1.21319 0 0 0 
-0.0833304 -0.23104 1.30769 0 0 0 
-0.0751858 0.162948 1.2122 0 0 0 
-0.0778697 -0.135191 1.26735 0 0 0 
-0.0734194 0.199633 1.20806 0 0 0 
-0.0724332 0.2329 1.20555 0 0 0 
-0.0775239 -0.175287 1.28313 0 0 0 
-0.0721029 0.194509 1.2077 0 0 0 
-0.0714867 0.270337 1.20303 0 0 0 
-0.0756254 -0.186035 1.28764 0 0 0 
-0.069588 0.230652 1.20436 0 0 0 
-0.069588 0.230652 1.20436 0 0 0 
-0.0685445 0.21315 1.20469 0 0 0 
-0.0728204 -0.23043 1.30048 0 0 0 
-0.0659017 0.311775 1.19817 10 6 57 
-0.0659017 0.311775 1.19817 10 6 57 
-0.0737681 -0.30072 1.33217 0 0 0 
-0.0737681 -0.30072 1.33217 0 0 0 
-0.0717665 -0.289481 1.32599 0 0 0 
-0.0616813 0.283653 1.19875 17 62 17 
-0.0632705 -0.158884 1.2665 0 0 0 
-0.0583124 0.14646 1.20755 0 0 0 
-0.0624175 -0.295035 1.32286 0 0 0 
-0.0615748 -0.270411 1.31236 0 0 0 
-0.0531076 0.285823 1.19642 81 255 78 
-0.0538401 -0.270559 1.30707 0 0 0 
-0.0450175 -0.108098 1.23539 0 0 0 
-0.0455751 -0.161156 1.25585 0 0 0 
-0.0422391 0.00136375 1.20005 50 49 47 
-0.0382332 0.548491 1.16716 38 254 39 
-0.0420895 -0.304693 1.31269 0 0 0 
-0.0365536 -0.181309 1.25853 0 0 0 
-0.0340549 -0.166596 1.25097 0 0 0 
-0.0315221 -0.20673 1.26494 0 0 0 
-0.0329318 -0.274536 1.29442 0 0 0 
-0.0275374 0.162391 1.18966 4 254 11 
-0.0268194 0.217686 1.18603 30 28 29 
-0.0233578 0.10019 1.19239 254 61 59 
-0.0235323 0.309867 1.17995 35 33 34 
-0.0208583 0.0973681 1.19307 43 44 254 
-0.020284 0.0892792 1.19346 254 63 61 
-0.018978 0.25245 1.18247 37 254 46 
-0.0176547 0.0857915 1.19315 57 60 254 
-0.0153827 0.0343449 1.19612 3 254 24 
-0.0051634 0.198072 1.18676 64 254 63 
0.00338784 -0.362757 1.39792 0 0 0 
0.0314998 -0.207475 1.26157 25 20 254 
-0.146636 0.0335075 1.25866 0 0 0 
-0.139349 0.181462 1.25308 0 0 0 
-0.132383 0.0210467 1.24528 0 0 0 
-0.130845 0.209888 1.24165 0 0 0 
-0.129959 0.0336571 1.24347 0 0 0 
-0.131204 0.103157 1.2516 0 0 0 
-0.116999 0.0330993 1.23249 0 0 0 
-0.117722 -0.0529248 1.25523 0 0 0 
-0.114174 -0.0269725 1.23937 0 0 0 
-0.112025 0.0248906 1.23104 0 0 0 
-0.110965 0.353782 1.21594 0 0 0 
-0.117255 -0.134926 1.29227 0 0 0 
-0.110381 -0.0644315 1.26019 0 0 0 
-0.108824 -0.0457477 1.2479 0 0 0 
-0.0982909 0.610808 1.15178 0 0 0 
-0.105258 -0.0316065 1.23688 0 0 0 
-0.0992887 0.46763 1.19597 0 0 0 
-0.100457 -0.040242 1.23793 0 0 0 
-0.0977463 0.338642 1.21 0 0 0 
-0.098518 0.150831 1.2243 0 0 0 
-0.104538 -0.150362 1.29046 0 0 0 
-0.0918247 0.493132 1.1877 0 0 1 
-0.0955553 -0.108702 1.26806 0 0 0 
-0.0941541 -0.0906533 1.26181 0 0 0 
-0.0880115 0.544043 1.17984 63 60 59 
-0.0860983 0.251606 1.21125 0 0 0 
-0.0857814 0.173969 1.21645 0 0 0 
-0.0947063 -0.258966 1.3255 0 0 0 
-0.0844193 0.0251256 1.21581 0 0 0 
-0.0857812 -0.0902208 1.2557 0 0 0 
-0.08858 -0.168715 1.28739 0 0 0 
-0.0868331 -0.125487 1.26932 0 0 0 
-0.0817679 0.193031 1.213 0 0 0 
-0.0861695 -0.135384 1.27257 0 0 0 
-0.0812843 0.244571 1.20869 0 0 0 
-0.0802857 0.0430559 1.21295 0 0 0 
-0.0828338 -0.0656742 1.24376 0 0 0 
-0.0789113 9.33812e-05 1.21359 0 0 0 
-0.0755781 0.51699 1.18138 63 65 254 
-0.0766141 0.175289 1.21161 0 0 0 
-0.0838821 -0.262497 1.32168 0 0 0 
-0.074095 -0.0343293 1.21772 0 0 0 
-0.0733734 0.133531 1.21378 0 0 0 
-0.0721379 0.0547176 1.20953 0 0 0 
-0.0784891 -0.212777 1.29501 0 0 0 
-0.0695676 0.290871 1.20193 0 0 2 
-0.0789741 -0.306631 1.33645 0 0 0 
-0.0774484 -0.288925 1.3281 0 0 0 
-0.0679983 0.183408 1.20769 0 0 0 
-0.072984 -0.201586 1.2896 0 0 0 
-0.0661148 0.02415 1.20858 0 0 0 
-0.0659931 0.0854678 1.21406 0 0 0 
-0.0721034 -0.257622 1.31181 0 0 0 
-0.0648312 -0.048969 1.22093 0 0 0 
-0.0656279 -0.0870497 1.24165 0 0 0 
-0.0623173 0.0405863 1.20527 0 0 0 
-0.0662211 -0.176 1.27606 0 0 0 
-0.0691435 -0.311431 1.33095 0 0 0 
-0.065271 -0.217453 1.29019 0 0 0 
-0.0671394 -0.338988 1.34253 0 0 0 
-0.0566949 0.557301 1.16697 254 44 43 
-0.0591365 -0.107483 1.24431 0 0 0 
-0.0583674 -0.0843751 1.23637 0 0 0 
-0.0553072 0.186348 1.2037 19 15 122 
-0.0611064 -0.306829 1.32517 0 0 0 
-0.053394 0.199308 1.20141 52 46 226 
-0.051739 -0.0966713 1.23655 0 0 0 
-0.0532924 -0.161118 1.26092 0 0 0 
-0.0566382 -0.340717 1.33744 0 0 0 
-0.0486838 0.0574105 1.21004 21 21 23 
-0.0490946 -0.128458 1.24683 0 0 0 
-0.0508617 -0.232135 1.28591 0 0 0 
-0.0509678 -0.282171 1.30875 0 0 0 
-0.0451568 0.16014 1.2038 34 34 34 
-0.0430051 0.202286 1.20038 35 36 254 
-0.0457099 -0.260389 1.2965 0 0 0 
-0.039974 0.607311 1.15758 0 0 3 
-0.0456916 -0.273557 1.30143 0 0 0 
-0.0406544 -0.0851486 1.22461 0 0 0 
-0.0403482 -0.0972015 1.22884 0 0 0 
-0.0466327 -0.378198 1.34413 0 0 0 
-0.0384966 0.0631305 1.20767 254 32 30 
-0.0381877 0.0830375 1.2058 253 68 68 
-0.0455607 -0.398384 1.35191 0 0 0 
-0.0427881 -0.290199 1.30589 0 0 0 
-0.0374587 0.0510248 1.20356 36 34 35 
-0.0399945 -0.232453 1.28091 0 0 0 
-0.0343441 0.596453 1.16007 255 71 67 
-0.0336933 0.331802 1.18169 33 32 30 
-0.0319976 0.00740104 1.19971 27 26 24 
-0.0316964 -0.0198466 1.19776 82 81 79 
-0.0378042 -0.339718 1.3239 0 0 0 
-0.0303497 0.256137 1.18513 58 58 58 
-0.028821 0.0786213 1.19518 254 54 52 
-0.031608 -0.224951 1.27195 0 0 0 
-0.0281353 0.132412 1.19185 64 65 254 
-0.0277593 0.204744 1.18785 72 254 75 
-0.0323198 -0.32397 1.31263 0 0 0 
-0.0264247 0.192963 1.18926 70 71 254 
-0.0295295 -0.286135 1.29589 0 0 0 
-0.0265955 -0.160092 1.24779 0 0 0 
-0.0250291 0.447914 1.17515 24 25 254 
-0.0239251 0.0340503 1.19648 63 254 79 
-0.0241687 0.401376 1.17581 254 14 13 
-0.0235638 0.0478866 1.19566 254 3 1 
-0.0265212 -0.336155 1.31578 0 0 0 
-0.0264776 -0.350862 1.32009 0 0 0 
-0.0214577 0.0118915 1.19717 60 59 57 
-0.0222228 0.474203 1.17272 42 41 39 
-0.021373 0.0602889 1.19549 16 14 15 
-0.0206462 0.296564 1.18177 40 254 41 
-0.0242952 -0.390516 1.33474 0 0 0 
-0.018822 0.262749 1.18354 254 42 40 
-0.0186288 0.2005 1.18646 254 27 27 
-0.018494 0.120665 1.19293 254 46 45 
-0.0209649 -0.310982 1.30091 0 0 0 
-0.019669 -0.236879 1.27477 0 0 0 
-0.0170769 0.224951 1.18693 254 59 59 
-0.0164668 0.272087 1.18296 40 38 39 
-0.0156873 0.176079 1.18916 67 254 56 
-0.0150337 0.239082 1.18564 254 48 48 
-0.0191909 -0.404525 1.33812 0 0 0 
-0.0156365 -0.15974 1.24967 0 0 0 
-0.0130447 -0.0847927 1.22651 81 79 255 
-0.0140375 -0.27793 1.28948 0 0 0 
-0.0112632 0.105028 1.19291 254 51 49 
-0.0113921 0.210383 1.18774 30 29 27 
-0.0110169 0.0577233 1.19523 34 34 34 
-0.0158019 -0.446122 1.35218 0 0 0 
-0.0102369 -0.0406163 1.20483 56 254 84 
-0.0132325 -0.305808 1.29898 0 0 0 
-0.0103026 0.133356 1.19177 41 254 47 
-0.0101553 0.28882 1.18281 254 37 37 
-0.0105811 0.499322 1.17231 254 36 34 
-0.00937982 0.118686 1.19339 55 53 54 
-0.0116473 -0.328906 1.30822 0 0 0 
-0.00803186 0.0327073 1.19565 49 254 54 
-0.00893086 0.546282 1.16864 254 34 33 
-0.0103784 -0.286486 1.29252 0 0 0 
-0.00808903 0.309836 1.18155 41 39 40 
-0.00722715 0.223271 1.18601 14 14 254 
-0.00638391 0.0467289 1.19455 52 254 51 
-0.00867548 -0.312511 1.30184 0 0 0 
-0.00524115 0.0684087 1.19532 21 21 254 
-0.00455612 -0.00708663 1.1929 63 254 69 
-0.00810569 -0.389439 1.32896 0 0 0 
-0.00479979 0.328096 1.18073 47 47 47 
-0.00671578 -0.321481 1.30606 0 0 0 
-0.00843706 -0.61003 1.39093 0 0 0 
-0.00348157 0.300952 1.18208 254 52 51 
-0.00291745 0.2499 1.1856 44 43 39 
-0.00303443 -0.126207 1.24111 30 32 39 
-0.00239023 0.560544 1.16349 23 254 25 
-0.000836638 0.00143913 1.19592 254 5 4 
-0.00185118 0.394468 1.17797 254 57 55 
-0.00128653 0.418583 1.17721 54 52 254 
-0.00111735 0.429732 1.17586 53 51 254 
-0.00178526 -0.283375 1.29314 0 0 0 
0.000119436 0.178971 1.18875 57 254 66 
0.000854863 0.613478 1.14054 0 0 1 
0.00164447 0.218738 1.18709 47 254 52 
-0.000913675 -0.617377 1.38229 0 0 0 
0.00270479 0.0480547 1.19574 254 8 7 
0.00298874 0.120587 1.19194 50 51 254 
0.00320253 -0.0580522 1.21864 52 49 254 
0.00240821 0.481979 1.17394 61 254 50 
0.00173603 -0.3523 1.31733 0 0 0 
0.00360954 -0.0785168 1.22818 254 84 84 
0.00290309 0.5439 1.17127 254 49 47 
0.00332224 0.553673 1.16673 48 47 45 
0.00453273 0.138917 1.19196 33 31 32 
0.00166275 -0.535919 1.37611 0 0 0 
0.00489752 0.227723 1.18752 22 254 25 
0.00535055 -0.193817 1.25605 230 56 57 
0.00447533 -0.303249 1.30143 0 0 0 
0.00671598 -0.0183171 1.19747 35 31 22 
0.00677019 0.173229 1.19006 60 254 59 
0.00725129 0.109295 1.193 53 254 43 
0.00867396 -0.124378 1.24294 32 254 36 
0.00761379 -0.334517 1.31321 0 0 0 
0.00995674 -0.0868799 1.23304 27 28 254 
0.0102188 0.0989245 1.19492 64 64 254 
0.00959597 -0.382228 1.32856 0 0 0 
0.0110337 0.149016 1.19231 254 56 52 
0.010037 -0.365547 1.3232 0 0 0 
0.0119269 0.0166384 1.19723 45 41 42 
0.0118376 -0.0965021 1.23519 50 51 254 
0.0112564 0.565978 1.16446 254 50 48 
0.0116948 -0.397489 1.33368 0 0 0 
0.0132742 0.0892401 1.19506 38 38 38 
0.0118686 -0.567336 1.38359 0 0 0 
0.0142073 0.302247 1.18387 42 30 32 
0.0153478 -0.105737 1.23897 48 46 254 
0.0146685 0.343614 1.1808 45 46 254 
0.0150392 0.231943 1.18796 27 29 254 
0.0152847 -0.29564 1.29903 0 0 0 
0.01653 0.0336164 1.19674 254 1 0 
0.0165216 -0.233813 1.25895 59 58 56 
0.01642 0.114316 1.19388 65 65 67 
0.0179344 -0.202916 1.25789 254 46 45 
0.0187338 -0.086653 1.234 104 105 254 
0.0174085 0.485334 1.17654 29 30 254 
0.0194154 -0.352737 1.31974 0 0 0 
0.0208573 0.209127 1.18955 254 44 22 
0.0217185 0.126299 1.19388 42 40 41 
0.0216915 -0.609571 1.38408 0 0 0 
0.0221584 0.40074 1.18348 39 38 36 
0.0259101 -0.102124 1.23988 115 113 254 
0.0264837 -0.297193 1.30151 0 0 0 
0.0255403 0.347657 1.18284 254 65 65 
0.0268821 -0.379415 1.33107 0 0 0 
0.0273455 -0.339032 1.31768 0 0 0 
0.0276631 -0.391849 1.33416 0 0 0 
0.0279476 -0.0179014 1.20058 125 116 254 
0.0285888 0.0485237 1.19862 254 40 39 
0.027823 0.566973 1.16779 51 254 48 
0.0313739 -0.196282 1.26105 49 44 254 
0.0341222 -0.305432 1.30648 0 0 0 
0.0341335 0.347186 1.18589 254 55 53 
0.0353464 0.0998109 1.19879 254 37 37 
0.036098 0.0290514 1.20039 53 51 52 
0.0365795 0.213197 1.19238 254 47 27 
0.0370559 0.18974 1.19288 37 22 25 
0.0376286 0.109671 1.19818 31 31 254 
0.0377059 0.124038 1.19708 27 28 254 
0.0384182 0.147973 1.19484 254 52 50 
0.0400842 -0.314599 1.31028 0 0 0 
0.0409601 0.44962 1.18416 47 45 46 
0.0434314 -0.0173471 1.20423 70 63 254 
0.0437749 0.195148 1.19567 31 27 26 
0.0451675 0.0187042 1.2038 49 47 254 
0.0446312 0.209146 1.19568 27 254 33 
0.0438002 0.399666 1.18627 51 254 50 
0.0441957 0.415356 1.18602 254 54 52 
0.0441461 0.607743 1.16705 52 53 253 
0.0479487 0.0519966 1.20331 16 16 16 
0.0509468 -0.303849 1.309 0 0 0 
0.0508296 0.319237 1.19304 23 24 254 
0.0497383 0.570582 1.17253 48 254 47 
0.054436 -0.203384 1.26372 254 51 47 
0.0530406 0.0967237 1.20399 21 19 20 
0.0549221 -0.118593 1.24932 24 25 254 
0.0539355 0.129094 1.20128 21 254 29 
0.0603863 0.106304 1.20588 57 57 254 
0.0622793 0.0193235 1.20966 49 48 46 
0.0680712 0.124059 1.20794 254 27 27 
0.071498 -0.124751 1.25513 41 254 47 
0.0706091 0.303006 1.20078 254 47 45 
0.0719278 0.10781 1.21097 254 58 58 
0.073092 0.0371489 1.21414 59 62 254 
0.0734942 0.134698 1.20953 254 21 19 
0.0802425 0.0113407 1.2175 33 31 254 
0.0840774 -0.060486 1.23702 254 111 110 
0.0859428 0.0530108 1.21916 16 255 16 
-0.19967 0.514134 1.3501 0 0 0 
-0.161477 0.0595681 1.47476 0 0 0 
-0.197627 0.4734 1.34214 0 0 0 
-0.199883 0.448819 1.31457 0 0 0 
-0.194597 0.468479 1.32477 0 0 0 
-0.188057 0.280327 1.34423 0 0 0 
-0.193384 0.477333 1.31515 0 0 0 
-0.184818 0.068467 1.34081 0 0 0 
-0.192103 0.488086 1.3115 0 0 0 
-0.180821 0.104026 1.3393 0 0 0 
-0.193913 0.448712 1.29454 0 0 0 
-0.158016 -0.103521 1.38574 0 0 0 
-0.142526 -0.218168 1.4033 0 0 0 
-0.173126 0.0268678 1.30004 0 0 0 
-0.168452 0.0995905 1.30555 0 0 0 
-0.172556 0.280787 1.29125 0 0 0 
-0.169487 0.161057 1.29897 0 0 0 
-0.185738 0.600877 1.24202 6 2 2 
-0.17117 -0.00660282 1.28648 0 0 0 
-0.178164 0.524672 1.25486 0 0 0 
-0.168027 0.273305 1.28647 0 0 0 
-0.170645 0.449401 1.26786 0 0 0 
-0.165318 0.0179333 1.2873 0 0 0 
-0.162032 0.109002 1.29199 0 0 0 
-0.167866 0.382929 1.27143 0 0 0 
-0.175838 0.544605 1.24466 2 9 2 
-0.166253 -0.00464474 1.27558 0 0 0 
-0.162757 0.165054 1.28226 0 0 0 
-0.162274 0.00508009 1.28532 0 0 0 
-0.160657 0.116785 1.28738 0 0 0 
-0.133187 -0.230871 1.35572 0 0 0 
-0.159733 0.212695 1.27659 0 0 0 
-0.160797 0.263037 1.27211 0 0 0 
-0.160091 0.233095 1.27418 0 0 0 
-0.159869 0.0559941 1.27628 0 0 0 
-0.15962 0.220996 1.27219 0 0 0 
-0.158708 0.0266482 1.27675 0 0 0 
-0.15687 0.0673438 1.27804 0 0 0 
-0.155419 0.00204872 1.26584 0 0 0 
-0.151793 0.218576 1.26672 0 0 0 
-0.150223 0.139039 1.27148 0 0 0 
-0.142517 -0.086066 1.29383 0 0 0 
-0.129356 -0.160438 1.32934 0 0 0 
-0.165703 0.57291 1.21876 8 46 8 
-0.140618 -0.0966805 1.29319 0 0 0 
-0.14742 0.0705791 1.27229 0 0 0 
-0.150084 0.192229 1.26282 0 0 0 
-0.149614 0.225889 1.26138 0 0 0 
-0.147845 0.165255 1.26417 0 0 0 
-0.150526 0.298258 1.25484 0 0 0 
-0.140339 -0.0724514 1.28483 0 0 0 
-0.129366 -0.149742 1.31176 0 0 0 
-0.134078 -0.109353 1.29701 0 0 0 
-0.146277 0.18294 1.25988 0 0 0 
-0.143688 -0.0456946 1.26854 0 0 0 
-0.143398 0.0951 1.26658 0 0 0 
-0.146059 0.0322788 1.25982 0 0 0 
-0.14297 0.206824 1.25468 0 0 0 
-0.140261 0.146942 1.25724 0 0 0 
-0.141896 0.260831 1.24905 0 0 0 
-0.0993019 -0.274017 1.36352 0 0 0 
-0.129328 -0.0841589 1.28269 0 0 0 
-0.115461 -0.181249 1.31304 0 0 0 
-0.113491 -0.189134 1.31551 0 0 0 
-0.137906 0.0323967 1.25108 0 0 0 
-0.134613 0.0845426 1.25802 0 0 0 
-0.137271 -0.0202689 1.25043 0 0 0 
-0.120873 -0.123319 1.29244 0 0 0 
-0.139405 0.350978 1.23895 1 2 1 
-0.128047 -0.0645687 1.27154 0 0 0 
-0.0984077 -0.275222 1.34798 0 0 0 
-0.132454 -0.0394718 1.25711 0 0 0 
-0.134351 0.0555268 1.24939 27 9 9 
-0.137017 0.328009 1.23861 0 0 0 
-0.116214 -0.135092 1.29486 0 0 0 
-0.13091 0.103292 1.25233 2 1 1 
-0.131462 0.0660818 1.24807 12 12 18 
-0.130671 0.118204 1.24908 0 0 0 
-0.112357 -0.143836 1.29443 0 0 0 
-0.132602 0.272617 1.2382 1 1 1 
-0.130954 0.0406386 1.24422 50 205 51 
-0.110425 -0.152012 1.29693 0 0 0 
-0.130193 0.0305895 1.24424 227 72 70 
-0.129406 0.211052 1.24191 5 3 2 
-0.0825657 -0.326002 1.36354 0 0 0 
-0.0973337 -0.23035 1.3219 0 0 0 
-0.131114 0.365066 1.22679 39 38 36 
-0.139803 0.552913 1.20292 29 29 21 
-0.0886252 -0.281157 1.33566 0 0 0 
-0.124873 -0.028044 1.24264 61 57 56 
-0.122197 0.0997928 1.24485 23 113 17 
-0.10278 -0.149041 1.29105 0 0 0 
-0.0998366 -0.165141 1.29363 0 0 0 
-0.0917713 -0.220018 1.31164 0 0 0 
-0.132872 0.541121 1.20211 254 8 8 
-0.13408 0.561127 1.19333 37 34 25 
-0.122688 0.451405 1.21438 254 125 126 
-0.0996 -0.118086 1.27601 0 0 0 
-0.106463 -0.0644249 1.25668 41 43 208 
-0.118815 0.334358 1.22215 45 43 254 
-0.078235 -0.258276 1.31963 0 0 0 
-0.0974662 -0.103574 1.26911 2 2 2 
-0.0899557 -0.160875 1.28713 0 0 0 
-0.056739 -0.401197 1.36449 0 0 0 
-0.0643505 -0.33811 1.34386 0 0 0 
-0.108705 -0.0202703 1.23377 254 71 68 
-0.103317 -0.0474085 1.24491 70 68 69 
-0.0862648 -0.152974 1.28069 0 0 0 
-0.0695454 -0.275336 1.32034 0 0 0 
-0.112787 0.446253 1.21044 9 254 32 
-0.0705684 -0.247888 1.30936 0 0 0 
-0.0476973 -0.409472 1.36197 0 0 0 
-0.114783 0.496765 1.19374 24 26 21 
-0.0480879 -0.394033 1.3559 0 0 0 
-0.11993 0.604535 1.17776 12 99 14 
-0.0955276 -0.0494961 1.24126 254 57 56 
-0.056287 -0.326861 1.33308 0 0 0 
-0.0620423 -0.280563 1.31917 0 0 0 
-0.0992337 -0.0282269 1.23029 69 64 61 
-0.0789618 -0.154705 1.27517 0 0 0 
-0.0362459 -0.455198 1.37351 0 0 0 
-0.0826798 -0.108691 1.26145 251 48 46 
-0.098588 0.0246482 1.22341 254 47 46 
-0.0409235 -0.417245 1.35888 0 0 0 
-0.0567681 -0.290632 1.31866 0 0 0 
-0.0628283 -0.252743 1.30205 0 0 0 
-0.0526291 -0.311326 1.3247 0 0 0 
-0.0962706 -0.0184125 1.22193 58 54 254 
-0.013417 -0.622892 1.41422 0 0 0 
-0.093463 0.123579 1.22358 41 39 40 
-0.0577998 -0.262794 1.30866 0 0 0 
-0.0432209 -0.368277 1.3424 0 0 0 
-0.0498607 -0.300439 1.31919 0 0 0 
-0.0177158 -0.533363 1.39308 0 0 0 
-0.0113091 -0.568688 1.40641 0 0 0 
-0.055709 -0.246745 1.29966 0 0 0 
-0.0442098 -0.320491 1.32404 0 0 0 
-0.0324863 -0.403642 1.34839 0 0 0 
-0.0693229 -0.135433 1.26228 54 53 49 
-0.0840727 -0.0395771 1.22752 57 52 49 
-0.0354943 -0.367711 1.33631 0 0 0 
-0.0855841 0.183051 1.21537 33 254 26 
0.00604144 -0.684607 1.42334 0 0 0 
-0.084367 -0.0192273 1.21606 92 254 88 
-0.0684515 -0.106785 1.25009 69 68 64 
-0.057126 -0.18441 1.2754 11 12 12 
-0.060653 -0.150343 1.26251 51 47 44 
-0.0517537 -0.210513 1.28074 101 105 72 
-0.0359121 -0.314687 1.31447 0 0 0 
-0.0953154 0.587869 1.16945 35 33 34 
-0.0588149 -0.139343 1.25606 63 58 254 
-0.063165 -0.0960466 1.24427 254 27 26 
-0.02608 -0.358788 1.32599 0 0 0 
-0.0166191 -0.423946 1.34685 0 0 0 
-0.0915376 0.573903 1.16886 43 41 42 
0.0054442 -0.612059 1.38771 0 0 0 
0.0156558 -0.703633 1.41022 0 0 0 
0.00614706 -0.622553 1.38706 0 0 0 
-0.0601092 -0.0756391 1.23375 49 47 254 
-0.0690765 0.0661339 1.21285 35 33 255 
-0.0459686 -0.18217 1.26506 4 254 85 
-0.0158644 -0.387225 1.33132 0 0 0 
-0.0338315 -0.266986 1.29138 0 1 1 
-0.0223945 -0.323346 1.3104 0 0 0 
-0.0585055 -0.0652061 1.22626 254 59 57 
-0.039039 -0.198854 1.26721 58 55 254 
-0.0295691 -0.256098 1.28603 121 113 78 
-0.0564319 -0.057094 1.22022 83 81 82 
-0.0679548 0.449642 1.18875 38 254 40 
-0.0384482 -0.172859 1.25461 44 45 254 
-0.0556321 -0.0499748 1.21539 76 254 90 
-0.0609283 0.233189 1.20058 254 28 27 
-0.0404925 -0.14233 1.24547 54 52 254 
-0.0586815 0.00851293 1.20557 55 51 254 
-0.0488008 -0.0792741 1.2256 46 254 48 
-0.0567582 0.0253308 1.20382 54 255 65 
-0.0462254 -0.0638203 1.21895 70 71 254 
-0.0472576 0.2233 1.19898 255 4 2 
0.0181158 -0.396221 1.33662 0 0 0 
-0.000582264 -0.288846 1.29649 1 1 1 
-0.0572546 0.60447 1.15651 61 57 54 
-0.0133811 -0.20544 1.25266 64 59 254 
-0.0353134 0.0904138 1.20232 41 40 38 
-0.0359474 0.104301 1.1981 44 255 43 
-0.0367593 0.190012 1.19362 41 39 40 
-0.0359078 0.171991 1.19341 69 255 76 
-0.0369476 0.19945 1.18981 55 55 55 
-0.0370346 0.2385 1.18855 32 30 31 
0.0218796 -0.308072 1.30659 37 42 148 
-0.0124034 -0.0849446 1.22778 52 51 49 
-0.0297994 0.141143 1.1907 41 44 255 
-0.028509 0.115338 1.19091 255 37 33 
-0.0263882 0.0683446 1.19509 49 48 46 
0.0071419 -0.191462 1.25647 26 254 33 
0.000543141 -0.1153 1.2389 66 254 65 
-0.0101829 0.0243364 1.19508 255 11 10 
-0.00552822 0.106257 1.18992 48 50 49 
-0.00657115 0.211692 1.18562 36 34 254 
-0.000897779 0.178769 1.18684 255 47 43 
0.00208707 0.12035 1.19026 35 255 39 
0.00569651 -0.0183488 1.19556 116 111 255 
0.00316941 0.212654 1.18462 36 34 255 
0.0107017 0.0904306 1.19366 255 31 30 
0.0155738 0.0269703 1.19531 255 32 30 
0.00632382 0.541618 1.17121 29 28 254 
0.0296234 0.399214 1.18206 255 45 44 
0.0424968 0.605913 1.16415 254 33 31 
-0.181419 0.0575994 1.40874 0 0 0 
-0.17018 0.114332 1.39546 0 0 0 
-0.107423 0.422865 1.20789 0 0 0 
-0.102598 0.12671 1.22845 0 0 0 
-0.101181 0.40358 1.20593 0 0 0 
-0.102509 -0.202101 1.31078 0 0 0 
-0.0879825 0.343924 1.20318 0 0 0 
-0.0727135 0.100057 1.21446 0 0 0 
-0.0673815 -0.0558421 1.22807 0 0 0 
-0.0658397 0.258476 1.20071 0 0 1 
-0.0559133 -0.220415 1.28717 0 0 0 
-0.0454574 0.0386356 1.20052 58 61 253 
-0.0447433 -0.00723944 1.19575 95 254 64 
-0.0302142 0.28154 1.18225 30 30 30 
-0.026077 0.604463 1.15488 16 16 84 
-0.0232948 -0.185497 1.25727 0 0 0 
-0.0209982 -0.0963328 1.23018 4 2 2 
-0.01748 -0.203625 1.26519 0 0 0 
-0.0136798 -0.554069 1.39157 0 0 0 
-0.00693386 0.0851847 1.19398 76 78 254 
-0.00842403 -0.54393 1.38758 0 0 0 
-0.00624517 -0.401025 1.33613 0 0 0 
-0.00268435 -0.339862 1.31459 0 0 0 
-0.00480201 -0.296186 1.40268 0 0 0 
0.00449447 -0.270471 1.29171 0 0 0 
0.00900735 0.0721761 1.19566 55 254 56 
0.00115787 0.296816 1.584 28 254 16 
0.015128 0.558037 1.16487 34 32 33 
0.0203207 0.0724654 1.19651 39 39 39 
0.0279601 0.116736 1.19602 56 254 57 
0.0287731 0.606462 1.16113 84 82 251 
0.0353006 0.0615477 1.2009 254 8 8 
0.0342894 0.492373 1.17915 40 41 254 
0.0475487 0.0660155 1.20346 254 31 31 
0.0624358 0.314132 1.19566 42 38 37 
-0.193674 0.540234 1.4097 0 0 0 
-0.179141 -0.00675258 1.44453 0 0 0 
-0.205148 0.456508 1.34482 0 0 0 
-0.188987 0.049066 1.39397 0 0 0 
-0.188888 0.00452428 1.394 0 0 0 
-0.198005 0.481512 1.34664 0 0 0 
-0.183666 0.198902 1.39357 0 0 0 
-0.19221 -0.00516203 1.36809 0 0 0 
-0.187471 0.279547 1.37617 0 0 0 
-0.190301 0.381375 1.36515 0 0 0 
-0.18315 0.187288 1.38651 0 0 0 
-0.188801 0.298553 1.36655 0 0 0 
-0.179108 0.0823521 1.39862 0 0 0 
-0.184172 0.194817 1.37094 0 0 0 
-0.186929 0.0280005 1.36469 0 0 0 
-0.187283 0.0511944 1.36246 0 0 0 
-0.187519 0.00899409 1.3623 0 0 0 
-0.196146 0.488935 1.32821 0 0 0 
-0.181944 0.157257 1.37102 0 0 0 
-0.18362 0.173746 1.36531 0 0 0 
-0.184197 0.208137 1.36283 0 0 0 
-0.166833 0.327314 1.41217 0 0 0 
-0.164707 -0.0726952 1.42428 0 0 0 
-0.195495 0.537699 1.32115 0 0 0 
-0.185239 0.230896 1.35519 0 0 0 
-0.194875 0.483573 1.31929 0 0 0 
-0.179997 0.1401 1.36907 0 0 0 
-0.185165 0.0601275 1.35407 0 0 0 
-0.185212 0.196402 1.35033 0 0 0 
-0.195494 0.492789 1.31328 0 0 0 
-0.188121 0.355725 1.33643 0 0 0 
-0.179578 0.101156 1.3611 0 0 0 
-0.184059 -0.0160387 1.34934 0 0 0 
-0.194309 0.547408 1.30695 0 0 0 
-0.179531 0.124404 1.35575 0 0 0 
-0.181428 0.0690051 1.35091 0 0 0 
-0.173599 -0.042123 1.37357 0 0 0 
-0.17855 0.0926787 1.35451 0 0 0 
-0.179669 0.141997 1.34961 0 0 0 
-0.193681 0.467207 1.30242 0 0 0 
-0.183581 0.285184 1.33066 0 0 0 
-0.181921 0.198619 1.33537 0 0 0 
-0.158195 -0.0819387 1.40546 0 0 0 
-0.182016 0.0206664 1.33334 0 0 0 
-0.165306 -0.0556512 1.38252 0 0 0 
-0.197091 0.495267 1.28062 0 0 0 
-0.179279 0.181474 1.33285 0 0 0 
-0.182264 0.276649 1.32252 0 0 0 
-0.178348 0.163084 1.33134 0 0 0 
-0.174628 0.072318 1.34251 0 0 0 
-0.169325 -0.044727 1.35666 0 0 0 
-0.179909 0.28897 1.31935 0 0 0 
-0.179033 0.18894 1.32262 0 0 0 
-0.1781 0.176957 1.32282 0 0 0 
-0.199759 0.452844 1.25581 0 0 0 
-0.182407 0.324621 1.30637 0 0 0 
-0.178033 -0.0178748 1.32235 0 0 0 
-0.185344 0.385083 1.29212 0 0 0 
-0.17467 0.125269 1.3239 0 0 0 
-0.192324 0.481161 1.2659 0 0 0 
-0.175383 0.00272267 1.31992 0 0 0 
-0.189436 0.44596 1.27034 0 0 0 
-0.178057 0.292471 1.3016 0 0 0 
-0.142553 -0.140697 1.40798 0 0 0 
-0.179182 0.363626 1.29527 0 0 0 
-0.171077 -0.0328166 1.32103 0 0 0 
-0.175875 -0.00491814 1.30144 0 0 0 
-0.174078 0.244397 1.30059 0 0 0 
-0.188564 0.512971 1.2537 0 0 0 
-0.172194 0.0448106 1.3068 0 0 0 
-0.164215 -0.0447542 1.33061 0 0 0 
-0.135173 -0.200178 1.41352 0 0 0 
-0.14522 -0.0354621 1.38132 0 0 0 
-0.170934 0.0269738 1.30622 0 0 0 
-0.166823 -0.039643 1.31222 0 0 0 
-0.132442 -0.257425 1.40982 0 0 0 
-0.172277 0.260262 1.29049 0 0 0 
-0.170713 0.222741 1.29344 0 0 0 
-0.132734 -0.185331 1.40335 0 0 0 
-0.169402 -0.00652048 1.29139 0 0 0 
-0.1336 -0.154393 1.39097 0 0 0 
-0.163727 0.159575 1.30268 0 0 0 
-0.151124 -0.0808546 1.33907 0 0 0 
-0.164781 0.149564 1.29652 0 0 0 
-0.12709 -0.209544 1.39223 0 0 0 
-0.129458 -0.255703 1.386 0 0 0 
-0.131463 -0.15698 1.37878 0 0 0 
-0.160331 0.132293 1.28898 0 0 0 
-0.143204 -0.0940376 1.33813 0 0 0 
-0.163326 0.233409 1.27822 0 0 0 
-0.13657 -0.137186 1.35428 0 0 0 
-0.182249 0.57309 1.21796 4 4 4 
-0.152714 0.138763 1.28816 0 0 0 
-0.126832 -0.198366 1.361 0 0 0 
-0.134781 -0.128688 1.33488 0 0 0 
-0.154371 0.109499 1.27899 0 0 0 
-0.123643 -0.256846 1.36487 0 0 0 
-0.156728 0.191734 1.26892 0 0 0 
-0.152745 0.165691 1.27314 0 0 0 
-0.125449 -0.192924 1.34934 0 0 0 
-0.155049 0.255931 1.26076 0 0 0 
-0.153467 0.17933 1.26553 0 0 0 
-0.153472 0.234357 1.26425 0 0 0 
-0.154973 0.266402 1.25543 0 0 0 
-0.123878 -0.205536 1.34206 0 0 0 
-0.142746 0.0653558 1.27798 0 0 0 
-0.147314 -0.0296691 1.26491 0 0 0 
-0.1624 0.533121 1.21634 231 60 60 
-0.0815909 -0.325748 1.43665 0 0 0 
-0.119737 -0.178442 1.33504 0 0 0 
-0.143284 0.103691 1.26829 0 0 0 
-0.139135 -0.0571576 1.28025 0 0 0 
-0.152896 0.375436 1.23882 0 0 0 
-0.129605 -0.118513 1.30517 0 0 0 
-0.123725 -0.159462 1.31898 0 0 0 
-0.144434 0.216143 1.25551 0 0 0 
-0.147253 0.277677 1.24519 0 0 0 
-0.119251 -0.16837 1.3202 0 0 0 
-0.14818 0.342634 1.23827 0 0 0 
-0.107709 -0.230626 1.34794 0 0 0 
-0.140438 0.0173185 1.25965 0 0 0 
-0.136901 -0.0532448 1.26778 0 0 0 
-0.0802882 -0.322624 1.41475 0 0 0 
-0.138011 0.1231 1.26152 0 0 0 
-0.110549 -0.201456 1.3325 0 0 0 
-0.0903721 -0.291526 1.38135 0 0 0 
-0.128609 -0.0715082 1.28154 0 0 0 
-0.0997315 -0.249993 1.35633 0 0 0 
-0.135075 0.0723188 1.26012 0 0 0 
-0.0777142 -0.334834 1.40642 0 0 0 
-0.104514 -0.226635 1.33371 0 0 0 
-0.0820263 -0.314665 1.3877 0 0 0 
-0.133327 -0.0176203 1.25538 29 31 25 
-0.151691 0.517088 1.20215 44 39 254 
-0.110808 -0.168042 1.31328 0 0 0 
-0.134474 0.228235 1.24445 1 1 1 
-0.0892412 -0.28949 1.36254 0 0 0 
-0.147191 0.456037 1.20853 51 254 67 
-0.101702 -0.204856 1.32951 0 0 0 
-0.131447 -0.0283543 1.25234 1 1 1 
-0.0931358 -0.266449 1.34929 0 0 0 
-0.118661 -0.0837616 1.28335 0 0 0 
-0.130698 0.0257905 1.25144 49 50 137 
-0.0539259 -0.405783 1.4378 0 0 0 
-0.132313 0.252652 1.23349 6 29 5 
-0.0710882 -0.354905 1.39107 0 0 0 
-0.109843 -0.116461 1.29254 0 0 0 
-0.0810903 -0.304911 1.36524 0 0 0 
-0.0960428 -0.21623 1.32642 0 0 0 
-0.0680626 -0.364657 1.39613 0 0 0 
-0.119444 -0.0525239 1.26547 0 0 0 
-0.142726 0.481294 1.19967 24 254 103 
-0.0780574 -0.319548 1.36617 0 0 0 
-0.072958 -0.343193 1.37629 0 0 0 
-0.132895 0.340996 1.22099 58 244 63 
-0.111735 -0.0729863 1.27587 0 0 0 
-0.0792936 -0.312806 1.35739 0 0 0 
-0.0564328 -0.40349 1.41356 0 0 0 
-0.0958292 -0.190854 1.31451 0 0 0 
-0.10745 -0.105265 1.28344 0 0 0 
-0.0631122 -0.371006 1.39028 0 0 0 
-0.120566 0.0253144 1.24461 37 253 94 
-0.10092 -0.134115 1.29046 0 0 0 
-0.121274 0.186126 1.23573 75 253 67 
-0.0770915 -0.299949 1.34802 0 0 0 
-0.0701023 -0.339287 1.36402 0 0 0 
-0.0659495 -0.359144 1.37316 0 0 0 
-0.0771033 -0.272534 1.34159 0 0 0 
-0.0805324 -0.217464 1.31374 0 0 0 
-0.107726 0.0764381 1.24213 38 39 254 
-0.112786 0.160654 1.22737 55 254 57 
-0.0391049 -0.454484 1.40409 0 0 0 
-0.0616293 -0.33471 1.34469 0 0 0 
-0.0549593 -0.353385 1.36008 0 0 0 
-0.0960151 -0.070865 1.26037 49 254 53 
-0.115277 0.338291 1.20831 71 69 70 
-0.120418 0.456414 1.19057 19 19 29 
-0.078375 -0.161692 1.28933 0 0 0 
-0.0945858 -0.0573791 1.24937 63 254 62 
-0.0277981 -0.494717 1.40785 0 0 0 
-0.0465641 -0.36398 1.35744 0 0 0 
-0.010119 -0.555722 1.43649 0 0 0 
-0.1147 0.482101 1.18107 254 50 49 
-0.0648792 -0.194212 1.29954 0 0 0 
-0.0294113 -0.458029 1.38005 0 0 0 
-0.00550263 -0.574179 1.434 0 0 0 
-0.0527847 -0.300906 1.32324 0 0 0 
-0.0208374 -0.496732 1.39761 0 0 0 
-0.00623537 -0.630543 1.4307 0 0 0 
-0.103822 0.347333 1.19814 254 21 21 
-0.0779801 -0.0966985 1.26105 41 37 34 
-0.085356 -0.0541817 1.2431 51 52 254 
-0.0306189 -0.417848 1.36918 0 0 0 
-0.0798927 -0.0798089 1.25385 64 254 53 
-0.0913488 0.102424 1.2232 74 74 254 
-0.0042102 -0.612613 1.42141 0 0 0 
-0.0897109 0.0341324 1.22059 254 23 22 
-0.0842034 -0.0507209 1.23266 70 66 67 
0.0106244 -0.703687 1.44283 0 0 0 
-0.051531 -0.257284 1.29688 0 0 0 
-0.0093592 -0.490829 1.38949 0 0 0 
-0.0136108 -0.462852 1.37793 0 0 0 
0.00524119 -0.362146 1.4159 0 0 0 
-0.0702245 -0.0721239 1.24583 78 77 75 
-0.0453374 -0.580588 1.30611 0 0 0 
-0.0777904 -0.0313951 1.22803 65 62 57 
-0.09575 0.4444 1.1814 62 254 69 
-0.0805956 0.147368 1.21403 52 48 254 
-0.0512956 -0.173418 1.27927 138 17 16 
0.00746365 -0.613844 1.41149 0 0 0 
-0.0154114 -0.420703 1.3586 0 0 0 
-0.0717723 0.0515536 1.22524 13 13 255 
0.023045 -0.705678 1.4384 0 0 0 
-0.0659873 -0.0677981 1.23697 254 72 71 
0.0235732 -0.672334 1.43717 0 0 0 
-0.0289519 -0.312162 1.31782 0 0 0 
0.00332811 -0.494121 1.38629 0 0 0 
0.0219308 -0.638333 1.42719 0 0 0 
-0.084374 0.38069 1.18446 43 254 41 
-0.0542735 -0.116762 1.25399 254 57 55 
0.0279528 -0.717148 1.43693 0 0 0 
-0.0875 0.469617 1.17388 27 25 254 
-0.01306 -0.368997 1.3342 0 0 0 
0.0105856 -0.502079 1.38612 0 0 0 
-0.0780333 0.354308 1.18709 36 34 254 
-0.0335568 -0.244829 1.28668 47 189 44 
0.0183364 -0.634334 1.39966 0 0 0 
0.013607 -0.517553 1.38693 0 0 0 
0.0230074 -0.556343 1.40739 0 0 0 
0.00532426 -0.440728 1.35878 0 0 0 
-0.0459501 -0.120716 1.24396 254 60 59 
0.0260342 -0.626026 1.40092 0 0 0 
-0.018659 -0.283037 1.30087 2 3 2 
0.0248502 -0.50535 1.38938 0 0 0 
-0.000180742 -0.366465 1.3332 0 0 0 
0.00388678 -0.383852 1.34192 0 0 0 
-0.0601158 0.240217 1.19257 35 33 34 
0.0546185 -0.62949 1.43443 0 0 0 
-0.00925729 -0.269558 1.29777 51 49 228 
-0.034533 -0.12497 1.24326 69 65 254 
-0.0575697 0.215663 1.18837 82 83 254 
-0.0182331 -0.21501 1.27377 49 45 254 
-4.29302e-05 -0.251763 1.29529 254 80 79 
-0.00567453 -0.239209 1.27877 88 88 78 
-0.0297494 -0.0795525 1.22176 71 254 63 
0.00431027 -0.26075 1.2902 59 58 56 
-0.0436942 0.318017 1.17894 43 42 40 
-0.0395865 0.214527 1.18782 64 64 62 
-0.0431941 0.303355 1.17505 49 52 255 
0.0329474 -0.336185 1.33206 0 0 0 
-0.0203855 -0.0605097 1.21694 4 5 0 
-0.0432279 0.408303 1.16497 31 254 47 
-0.0386064 0.287977 1.17375 255 36 34 
0.041993 -0.354936 1.33866 1 1 1 
0.00605229 -0.182362 1.26234 254 25 24 
0.0470818 -0.365075 1.34411 0 0 0 
-0.0344273 0.220929 1.17626 37 38 255 
-0.0352211 0.322064 1.16972 28 26 254 
-0.00230175 -0.0993725 1.23809 20 254 18 
-0.00988673 -0.0587903 1.21957 61 54 254 
0.0493573 -0.33487 1.33509 252 71 67 
0.0168617 -0.224551 1.26604 254 19 19 
0.00813972 -0.126701 1.24107 67 254 71 
-0.0262715 0.337276 1.16961 255 50 49 
-0.0166163 0.128385 1.18539 255 42 41 
0.0710996 -0.310217 1.35007 71 254 85 
0.0320738 -0.241636 1.27214 72 70 254 
0.0374046 -0.18504 1.27391 30 29 27 
0.03723 -0.170603 1.27241 51 49 254 
0.0328986 -0.228996 1.26404 69 254 65 
-0.00264716 0.137147 1.18714 44 42 45 
-0.005298 0.177621 1.1786 255 47 43 
-0.00146722 0.0953752 1.18644 255 36 38 
0.0361087 -0.131991 1.25897 254 67 66 
0.00023722 0.188515 1.18393 10 5 9 
-0.00602656 0.34567 1.16995 55 55 255 
0.049394 -0.185668 1.27444 55 53 254 
0.0175996 -0.0396934 1.21257 52 255 72 
0.00896299 0.0822605 1.19286 33 31 32 
0.0442751 -0.106628 1.25518 61 59 255 
0.037319 -0.07596 1.24179 94 89 255 
0.00461704 0.222006 1.17619 44 43 41 
0.102303 0.0262811 1.35816 10 8 9 
0.00690298 0.251125 1.17854 44 42 254 
0.0586465 -0.144568 1.27142 255 53 49 
0.00934271 0.340064 1.17274 255 30 28 
0.0323982 -0.0321314 1.21748 53 50 45 
0.0213895 0.0501852 1.19411 10 255 11 
0.0151907 0.291273 1.17912 24 20 17 
0.0538533 -0.102342 1.25202 64 62 255 
0.011588 0.380496 1.17057 35 36 255 
0.0187792 0.250282 1.18169 31 22 23 
0.0293372 -0.0129314 1.19769 59 255 67 
0.0322256 0.0163847 1.2019 255 46 46 
0.0738919 -0.164547 1.2782 254 44 43 
0.0778974 -0.184835 1.28482 35 34 32 
0.0309102 0.0833354 1.19756 74 72 73 
0.0318956 0.0351658 1.19812 39 255 59 
0.0661493 -0.0834987 1.24986 21 20 18 
0.034716 0.229436 1.19024 17 19 255 
0.0751255 -0.113234 1.26016 58 255 62 
0.0735688 -0.0988966 1.2572 39 255 43 
0.0594799 -0.0449939 1.229 67 63 255 
0.056444 -0.0370325 1.22278 54 255 51 
0.039875 0.238583 1.19066 25 255 46 
0.039371 0.27848 1.18624 26 27 255 
0.0432355 0.204839 1.19304 31 255 49 
0.0513395 0.00956556 1.20848 255 24 20 
0.0367727 0.37146 1.17947 255 44 42 
0.0454814 0.162441 1.19557 41 40 38 
0.0768884 -0.0814443 1.2512 70 255 60 
0.0531638 0.118367 1.20312 36 255 41 
0.0540872 0.0259287 1.20552 46 255 31 
0.0463453 0.253258 1.18878 43 24 26 
0.0621614 0.0568041 1.21084 255 46 45 
0.0653493 0.0851625 1.21039 22 23 255 
0.076201 -0.0329732 1.22766 65 63 50 
0.0576434 0.294351 1.19219 45 26 28 
0.0626321 0.2271 1.20113 28 30 255 
0.0657676 0.180107 1.2056 24 255 19 
0.061486 0.248176 1.19743 24 255 39 
0.0726164 0.0624298 1.21658 24 24 24 
0.0817305 -0.0453279 1.23193 76 70 255 
0.0688336 0.158031 1.20744 28 255 34 
0.0773461 0.0920768 1.21498 51 255 7 
0.0697158 0.302587 1.19926 10 254 30 
0.088782 0.0532008 1.22397 13 11 255 
0.124618 0.204116 1.27238 52 50 53 
0.107231 0.057141 1.24288 21 21 255 
0.104833 0.0123636 1.23783 255 41 40 
0.113776 0.233338 1.24903 34 33 255 
0.108926 0.0287545 1.24034 255 45 44 
0.1207 0.0554848 1.25365 17 15 255 
0.116208 0.0415951 1.24536 38 255 36 
0.146689 0.619645 1.22089 254 46 44 
-0.218344 0.577432 1.35084 0 0 0 
-0.20101 -0.000867519 1.38148 0 0 0 
-0.20054 0.471942 1.35478 0 0 0 
-0.194361 0.049176 1.37679 0 0 0 
-0.197263 0.568188 1.34594 0 0 0 
-0.193156 0.323304 1.35754 0 0 0 
-0.202869 0.449608 1.32917 0 0 0 
-0.196994 0.513043 1.3413 0 0 0 
-0.17638 -0.0676084 1.40053 0 0 0 
-0.178639 -0.0560572 1.38971 0 0 0 
-0.196924 0.483106 1.335 0 0 0 
-0.192005 0.0201468 1.35363 0 0 0 
-0.195955 -0.0028323 1.34418 0 0 0 
-0.189107 0.175945 1.35453 0 0 0 
-0.187389 0.303758 1.35076 0 0 0 
-0.194056 0.509817 1.32706 0 0 0 
-0.194266 0.52223 1.32253 0 0 0 
-0.192812 0.567819 1.32241 0 0 0 
-0.192559 0.538682 1.31847 0 0 0 
-0.183928 0.115821 1.34291 0 0 0 
-0.164322 -0.0954322 1.39131 0 0 0 
-0.182831 0.087779 1.34261 0 0 0 
-0.182844 0.139986 1.33702 0 0 0 
-0.185441 0.0206265 1.32544 0 0 0 
-0.159834 -0.0962882 1.3697 0 0 0 
-0.182456 -0.0177036 1.31233 0 0 0 
-0.177717 0.124512 1.31701 0 0 0 
-0.144616 -0.234334 1.39818 0 0 0 
-0.174839 -0.0324285 1.31262 0 0 0 
-0.14358 -0.194769 1.38409 0 0 0 
-0.142311 -0.199742 1.3759 0 0 0 
-0.181229 0.469627 1.26997 0 0 0 
-0.178353 0.45013 1.27138 0 0 0 
-0.138244 -0.20552 1.36779 0 0 0 
-0.169251 0.026998 1.29062 0 0 0 
-0.169023 0.0392386 1.28771 0 0 0 
-0.168878 0.254728 1.28312 0 0 0 
-0.139478 -0.153305 1.35331 0 0 0 
-0.141556 -0.136741 1.33514 0 0 0 
-0.163358 0.0109463 1.27862 0 0 0 
-0.162347 0.0458548 1.27782 0 0 0 
-0.162229 0.310024 1.27356 0 0 0 
-0.15717 0.13773 1.27877 0 0 0 
-0.103033 -0.292322 1.3927 0 0 0 
-0.101544 -0.30309 1.39439 0 0 0 
-0.105813 -0.285371 1.38445 0 0 0 
-0.156569 -0.0140409 1.26631 0 0 0 
-0.153313 0.281189 1.263 0 0 0 
-0.164229 0.598567 1.22318 8 7 7 
-0.13621 -0.0674882 1.2762 0 0 0 
-0.142794 0.0172268 1.25491 0 0 0 
-0.142981 0.0410236 1.25354 0 0 0 
-0.140252 0.23467 1.25087 0 0 0 
-0.0593394 -0.424943 1.38319 0 0 0 
-0.128355 0.00305305 1.24235 59 255 66 
-0.11503 -0.0718729 1.26494 0 0 0 
-0.121621 0.109649 1.2425 43 45 130 
-0.0381673 -0.490741 1.41147 0 0 0 
-0.119358 0.0852637 1.24205 56 202 30 
-0.117656 0.00913662 1.23414 254 51 51 
-0.0593778 -0.297934 1.33517 0 0 0 
-0.111629 -0.00646279 1.22512 75 74 72 
-0.0348776 -0.464406 1.36949 0 0 0 
-0.117585 0.524523 1.20137 22 254 20 
-0.0171569 -0.60832 1.39693 0 0 0 
-0.0164181 -0.618067 1.39063 0 0 0 
-0.0970486 0.0913267 1.22713 18 20 254 
-0.0420543 -0.355805 1.33094 0 0 0 
-0.0598056 -0.229195 1.28972 0 0 0 
0.00582898 -0.690123 1.40823 0 0 0 
-0.0734433 -0.118014 1.25598 252 69 70 
0.00809864 -0.675953 1.41061 0 0 0 
0.0146678 -0.693595 1.40715 0 0 0 
-0.0171909 -0.430057 1.34496 0 0 0 
-0.0124793 -0.451499 1.35185 0 0 0 
-0.0184639 -0.407354 1.33807 0 0 0 
-0.0206517 -0.394279 1.33311 0 0 0 
0.00942053 -0.566392 1.38318 0 0 0 
-0.0227223 -0.351285 1.31752 0 0 0 
-0.0761943 0.0911204 1.21685 37 35 36 
-0.0382619 -0.211602 1.26857 70 70 68 
-0.00448703 -0.388365 1.32834 0 0 0 
-0.0678948 0.11834 1.21222 49 50 254 
-0.0167173 -0.294171 1.29456 0 0 0 
0.0272328 -0.466711 1.36102 0 0 0 
-0.0444659 0.0720384 1.20694 21 20 18 
-0.0441922 0.186871 1.19937 254 9 7 
-0.0127436 -0.176358 1.25145 68 52 53 
-0.0326408 0.0570561 1.1981 55 54 52 
-0.040498 0.455452 1.17815 254 40 38 
-0.036916 0.304948 1.1843 51 49 254 
-0.0284132 0.179545 1.18902 46 47 254 
-0.0225232 0.133476 1.19232 34 32 255 
-0.00788957 -0.032594 1.20025 28 24 254 
-0.00712117 0.237301 1.1843 26 27 255 
-0.00835575 0.471381 1.17291 34 32 254 
0.0188804 0.0960233 1.19442 255 44 42 
0.0211474 0.106986 1.19357 52 50 51 
0.0560287 -0.10215 1.24377 55 56 255 
0.0294962 -0.0181812 1.20291 26 22 255 
0.0205401 0.303299 1.18444 254 39 38 
0.0285377 0.0720203 1.19614 2 255 12 
0.028581 0.269562 1.18788 36 254 36 
-0.175806 0.0313638 1.32999 0 0 0 
-0.164129 0.192997 1.27092 0 0 0 
-0.159542 0.149621 1.2672 0 0 0 
-0.157426 0.184888 1.26181 0 0 0 
-0.14777 0.563397 1.19564 0 0 0 
-0.13517 0.481118 1.19837 0 0 0 
-0.127941 0.345842 1.21632 0 0 0 
-0.119774 0.581743 1.17299 1 1 1 
-0.117991 0.0644373 1.22988 0 0 0 
-0.114655 0.463729 1.19142 0 0 0 
-0.10638 0.172851 1.2132 0 0 0 
-0.108688 -0.204959 1.30177 0 0 0 
-0.096407 0.533265 1.17372 148 31 31 
-0.0958495 0.179276 1.20916 0 0 0 
-0.106763 -0.253913 1.33164 0 0 0 
-0.0869783 0.504494 1.17009 27 24 18 
-0.0883495 0.446826 1.18786 0 0 0 
-0.0871932 -0.0712646 1.2359 0 0 0 
-0.0832196 0.0148053 1.2044 0 0 0 
-0.0789638 0.450295 1.17998 4 5 3 
-0.0825774 -0.200748 1.28134 0 0 0 
-0.0747579 -0.0464173 1.21341 0 0 0 
-0.0656102 0.600784 1.15146 2 0 0 
-0.0609905 0.607333 1.13249 0 0 0 
-0.0665067 -0.187807 1.26921 0 0 0 
-0.0570607 -0.200116 1.26461 0 0 0 
-0.0550251 -0.374366 1.33632 0 0 0 
-0.0399672 0.606977 1.1293 0 0 0 
-0.0415684 0.463451 1.16688 35 36 254 
-0.0470752 -0.34726 1.32113 0 0 0 
-0.0460705 -0.386144 1.3341 0 0 0 
-0.0353119 0.400013 1.16369 254 33 32 
-0.0325539 0.520592 1.16112 55 254 48 
-0.0335039 -0.300201 1.29018 0 0 0 
-0.0349341 -0.383172 1.32742 0 0 0 
-0.0234645 0.147636 1.17631 83 254 82 
-0.0205084 0.607515 1.12917 0 0 0 
-0.0212688 -0.139352 1.22937 0 0 0 
-0.0234793 -0.3802 1.31499 0 0 0 
-0.0212736 -0.26478 1.27088 0 0 0 
-0.0169994 -0.0498486 1.19552 74 74 254 
-0.0181247 -0.610485 1.39837 0 0 0 
-0.014583 -0.469174 1.34883 0 0 0 
-0.00855354 -0.117281 1.22533 69 43 44 
-0.00855428 -0.189756 1.24066 0 0 0 
-0.00831737 -0.366945 1.30983 0 0 0 
-0.00435143 0.578153 1.15242 41 40 254 
-0.000418495 0.345175 1.16719 29 29 254 
0.000857199 -0.0891583 1.21925 20 18 19 
0.00205559 -0.60461 1.3713 0 0 0 
0.00349526 -0.32212 1.2997 0 0 0 
0.00600174 0.459622 1.16383 48 46 254 
0.00724978 -0.635309 1.39437 0 0 0 
0.00936457 0.383403 1.16996 24 25 254 
0.00866628 -0.519578 1.36017 0 0 0 
0.0106222 0.400142 1.17017 47 47 47 
0.0110113 -0.319377 1.29365 0 0 0 
0.0135791 0.195546 1.1783 23 24 254 
0.0121186 -0.6541 1.39896 0 0 0 
0.014367 -0.215096 1.23977 59 253 61 
0.0134342 -0.533334 1.36594 0 0 0 
0.0135482 -0.505438 1.36034 0 0 0 
0.0149181 -0.169376 1.24416 44 43 41 
0.0146542 -0.492353 1.35373 0 0 0 
0.0168798 -0.26776 1.24944 0 0 0 
0.0159276 0.444896 1.16837 23 24 254 
0.0170339 -0.372211 1.3143 0 0 0 
0.0170726 0.545881 1.16211 30 28 29 
0.0187856 -0.0717455 1.21643 66 65 63 
0.0193779 0.607983 1.14353 15 15 67 
0.0247983 -0.567744 1.37071 0 0 0 
0.0263277 -0.255814 1.24948 0 0 1 
0.027147 -0.316555 1.29861 0 0 0 
0.0275741 0.000117467 1.18317 25 24 22 
0.0277443 -0.530716 1.36975 0 0 0 
0.0304732 -0.184845 1.24888 95 254 92 
0.0304061 0.503155 1.17003 52 50 51 
0.0310272 0.358095 1.17556 22 20 21 
0.0303873 0.606451 1.14132 27 26 25 
0.0339292 -0.288456 1.2892 0 0 0 
0.0364301 -0.382957 1.32249 0 0 0 
0.037983 -0.359616 1.31354 0 0 0 
0.0352428 0.46984 1.17198 254 66 65 
0.0397578 -0.546935 1.39087 0 0 0 
0.038522 0.0896075 1.18739 40 254 87 
0.0396579 -0.0491245 1.2086 67 63 60 
0.0381608 0.389649 1.17423 25 26 254 
0.0414525 -0.325214 1.30529 0 0 0 
0.0411267 -0.185337 1.24866 37 254 41 
0.0427725 -0.50008 1.37805 0 0 0 
0.0429206 -0.417121 1.33617 0 0 0 
0.0398854 0.379568 1.17725 41 42 254 
0.0425773 0.30642 1.17986 32 254 48 
0.0446031 0.585224 1.16102 32 254 34 
0.0501325 -0.285461 1.289 2 2 1 
0.0495537 -0.0843158 1.22812 30 254 24 
0.0485823 0.436037 1.17805 28 254 31 
0.0527321 -0.191257 1.25121 42 40 41 
0.0513038 0.266423 1.18511 29 254 35 
0.0510559 0.453174 1.17829 36 34 35 
0.0522686 0.554133 1.17057 40 38 39 
0.0551817 0.0611733 1.1867 30 30 254 
0.0541859 0.401701 1.17813 42 254 42 
0.0559783 0.146495 1.19112 53 51 52 
0.0608367 -0.178637 1.25639 45 254 43 
0.0583913 0.428026 1.18133 28 27 25 
0.0589139 0.529254 1.17817 254 29 27 
0.0635182 -0.198047 1.25804 254 60 56 
0.0639385 -0.151085 1.25114 45 43 254 
0.0674149 -0.205692 1.26822 254 51 47 
0.0665443 -0.0965681 1.23301 54 53 51 
0.0654613 0.610511 1.14715 62 60 210 
0.0698419 -0.0296986 1.20661 70 67 254 
0.0687402 0.323237 1.19028 254 37 33 
0.0715534 -0.0799204 1.23102 254 32 30 
0.0689783 0.421906 1.18346 43 41 254 
0.0734262 -0.144377 1.25094 42 254 26 
0.0736281 -0.111726 1.23988 254 105 103 
0.0723737 0.0698217 1.20157 14 14 14 
0.0699994 0.572357 1.17033 44 254 50 
0.0720913 0.281734 1.18769 254 38 36 
0.0714228 0.438311 1.18589 254 65 64 
0.0730767 0.25254 1.19287 31 31 31 
0.0828251 -0.0931158 1.23767 30 29 27 
0.081389 0.122659 1.20538 61 61 254 
0.082398 0.0397081 1.20891 49 254 50 
0.0874599 -0.176644 1.2766 254 44 43 
0.0844016 0.437374 1.20668 62 60 63 
0.0945514 -0.331305 1.36789 46 254 72 
0.0863741 0.334032 1.2096 254 28 26 
0.0907248 -0.143421 1.26563 254 39 35 
0.0904544 -0.101562 1.24609 92 91 89 
0.0882666 0.248054 1.21477 34 254 34 
0.086441 0.498396 1.19532 41 254 39 
0.0887014 0.189095 1.21601 40 254 46 
0.0863057 0.548937 1.19033 35 254 26 
0.0882191 0.377836 1.2093 254 37 35 
0.0897333 0.162062 1.21916 33 31 32 
0.0918497 0.073752 1.22236 254 54 54 
0.0928716 0.0259123 1.21465 55 254 49 
0.0932358 0.176267 1.2196 38 38 38 
0.0933999 0.392116 1.2157 254 56 55 
0.094612 0.231518 1.21882 30 30 30 
0.0938626 0.405628 1.21133 41 39 254 
0.094189 0.474901 1.20039 254 53 51 
0.0949174 0.431428 1.21028 254 54 52 
0.0967355 0.216612 1.22356 30 30 32 
0.0975949 0.124553 1.22856 29 29 29 
0.100856 -0.134112 1.27559 79 74 255 
0.0976741 0.00280019 1.21382 34 35 254 
0.0987728 0.153627 1.22492 44 42 43 
0.0968355 0.453613 1.21189 22 20 21 
0.0996972 0.0193438 1.21844 62 60 254 
0.102687 0.099301 1.23104 255 28 28 
0.101318 0.378454 1.21927 30 30 254 
0.103282 0.0390006 1.21997 15 16 254 
0.102746 0.260238 1.22557 55 255 59 
0.107601 0.0759331 1.23106 55 255 58 
0.107197 0.202042 1.2303 254 24 24 
0.106472 0.407887 1.22254 36 34 35 
0.108984 0.0891552 1.2334 59 59 255 
0.107573 0.43933 1.21969 254 51 50 
0.109858 0.0467852 1.22168 61 57 56 
0.110315 0.211694 1.23403 29 30 255 
0.110944 0.133054 1.23618 32 254 35 
0.111694 0.117839 1.23692 255 27 27 
0.109343 0.460832 1.21812 28 26 27 
0.111492 0.448636 1.22499 11 10 8 
0.112456 0.49432 1.21422 47 45 48 
0.115676 0.147195 1.24165 31 29 30 
0.115635 0.0576101 1.22969 43 43 43 
0.114123 0.409926 1.2315 70 68 69 
0.114694 0.42297 1.23148 35 254 34 
0.115162 0.374271 1.23232 42 254 62 
0.11923 0.0868487 1.24421 255 54 52 
0.116779 0.461031 1.22762 65 64 62 
0.116667 0.485058 1.21766 23 24 254 
0.13244 -0.252119 1.39998 35 31 28 
0.119417 0.552956 1.21953 60 58 59 
0.12483 0.0299115 1.23946 254 44 42 
0.124668 0.00985828 1.23075 40 39 37 
0.123431 0.493075 1.22522 254 37 36 
0.130804 0.108282 1.25962 255 63 63 
0.141343 -0.211211 1.37556 28 27 255 
0.132205 0.0591871 1.25428 52 255 57 
0.131374 0.33792 1.25318 254 41 40 
0.131558 0.376572 1.25236 54 50 49 
0.131287 0.459424 1.24994 47 45 254 
0.145056 0.0867801 1.42233 53 255 60 
0.132562 0.358683 1.25538 57 254 61 
0.138578 0.259292 1.27641 255 47 46 
0.139412 0.0804226 1.26764 69 65 64 
0.145629 -0.120963 1.34009 55 51 48 
0.138843 0.00642541 1.25205 50 48 255 
0.138669 0.413238 1.26161 254 50 49 
0.147619 -0.130577 1.34699 255 59 58 
0.135556 0.609879 1.21992 36 37 254 
0.14772 -0.109918 1.337 51 52 255 
0.136903 0.578815 1.22472 254 20 18 
0.143757 0.369228 1.27318 32 31 29 
0.145768 0.0236244 1.26433 81 255 69 
0.147566 0.340586 1.30257 255 48 46 
0.148123 0.00569383 1.26158 255 64 63 
0.163299 -0.0739186 1.3409 55 53 255 
0.154749 0.613365 1.21237 80 254 66 
-0.16583 0.122245 1.30522 0 0 0 
-0.158135 0.533184 1.23687 0 0 0 
-0.12464 -0.202676 1.33298 0 0 0 
-0.124617 0.143007 1.24922 0 0 0 
-0.121604 -0.149127 1.30819 0 0 0 
-0.119184 -0.249725 1.35478 0 0 0 
-0.112602 0.595584 1.1857 20 18 139 
-0.106543 0.489449 1.19969 24 137 27 
-0.0821195 0.613255 1.15026 0 0 0 
-0.0547958 -0.388486 1.36211 0 0 0 
-0.062812 0.567996 1.17067 254 36 32 
-0.0509875 0.304401 1.20129 49 49 254 
-0.0427831 -0.222508 1.28374 0 0 0 
-0.0442024 -0.149607 1.25694 0 0 0 
-0.0234227 -0.46326 1.36974 0 0 0 
-0.0157633 -0.485635 1.37526 0 0 0 
-0.0226346 0.359572 1.18354 33 34 254 
-0.022877 0.440244 1.17897 57 55 254 
0.000410247 -0.596169 1.39507 0 0 0 
0.00322596 -0.313718 1.30947 0 0 0 
-0.00632875 0.412443 1.17983 254 46 45 
-0.00468258 0.4483 1.17877 254 54 53 
0.0222159 -0.625425 1.38758 0 0 0 
0.00784422 0.267467 1.18839 25 26 254 
0.00901134 0.286767 1.18697 44 28 29 
0.0402677 0.567929 1.17236 33 31 32 
0.0451033 0.369925 1.1907 42 40 41 
0.0701208 -0.175088 1.27361 78 254 86 
0.0603997 0.551491 1.18697 41 39 40 
-0.169518 0.0585474 1.41546 0 0 0 
-0.159984 0.0595773 1.46107 0 0 0 
-0.129159 0.169206 1.25092 0 0 0 
-0.11409 0.376566 1.21852 0 0 0 
-0.0458136 -0.428929 1.37286 0 0 0 
-0.0421488 -0.448723 1.37769 0 0 0 
-0.0537404 0.338353 1.19541 254 58 56 
-0.0308092 -0.443599 1.36837 0 0 0 
-0.00558819 -0.614175 1.37775 0 0 0 
0.0139838 -0.343426 1.32193 0 0 0 
0.0203275 0.00902199 1.20239 38 40 255 
0.0219955 0.363952 1.18281 254 46 46 
0.0319334 -0.0590093 1.2302 60 254 64 
0.0265402 0.448973 1.18014 52 254 50 
0.0323351 0.552076 1.17311 55 56 254 
-0.174309 0.58084 1.23489 17 4 4 
-0.131776 0.0622156 1.4151 0 0 0 
-0.0742544 -0.0593158 1.2369 1 1 1 
-0.0398186 -0.296415 1.33918 0 0 0 
-0.0994839 0.0579383 1.45287 0 0 0 
0.00923974 -0.580569 1.40689 0 0 0 
-0.190745 0.482854 1.27041 0 0 0 
-0.173512 0.52863 1.23827 0 0 0 
-0.0904963 -0.299828 1.3421 0 0 0 
-0.0861138 -0.268253 1.31994 0 0 0 
-0.0318797 -0.48782 1.3725 0 0 0 
-0.0700079 0.000404584 1.20459 45 44 40 
-0.198949 0.493142 1.32681 0 0 0 
-0.193627 -0.020569 1.34876 0 0 0 
-0.151814 -0.128653 1.3547 0 0 0 
-0.153101 -0.0920657 1.31171 0 0 0 
-0.134735 -0.189655 1.32966 0 0 0 
-0.0976591 -0.312061 1.37815 0 0 0 
-0.150853 0.319596 1.24561 0 0 0 
-0.147498 0.333611 1.23955 0 0 0 
-0.0850901 -0.344258 1.37592 0 0 0 
-0.132304 0.128665 1.24037 1 3 1 
-0.148591 0.577228 1.19691 43 13 13 
-0.148008 0.590991 1.19678 6 6 5 
-0.138924 0.484484 1.20698 45 254 55 
-0.123194 -0.0174412 1.23057 67 65 66 
-0.121915 0.349638 1.21498 64 67 254 
-0.111018 0.0436527 1.21928 254 90 88 
-0.0192901 -0.503483 1.36666 0 0 0 
-0.0910658 0.327091 1.19883 47 45 46 
-0.303347 0.630395 1.34469 0 0 0 
-0.260184 0.621043 1.3444 0 0 0 
-0.160444 0.0375874 1.4683 0 0 0 
-0.201721 0.0421919 1.39512 0 0 0 
-0.249529 0.616547 1.31766 168 48 46 
-0.194148 0.11889 1.39953 0 0 0 
-0.287303 0.626151 1.26261 0 0 0 
-0.193679 0.174407 1.39603 0 0 0 
-0.192938 0.140065 1.39735 0 0 0 
-0.225075 0.56075 1.34469 0 0 0 
-0.192517 0.0776429 1.39487 0 0 0 
-0.19406 0.130182 1.38777 0 0 0 
-0.206111 -0.0125881 1.36944 0 0 0 
-0.196176 0.171213 1.37821 0 0 0 
-0.21793 0.541493 1.34142 0 0 0 
-0.24261 0.618339 1.30314 71 59 246 
-0.198729 0.108625 1.37117 0 0 0 
-0.197611 -0.0299061 1.37143 0 0 0 
-0.196186 0.118829 1.36838 0 0 0 
-0.19448 0.080754 1.37074 0 0 0 
-0.200244 0.322222 1.35646 0 0 0 
-0.209779 0.486049 1.33945 0 0 0 
-0.199083 0.249811 1.35762 0 0 0 
-0.203097 -0.0138046 1.35778 0 0 0 
-0.192546 -0.0379435 1.36742 0 0 0 
-0.194573 0.0983044 1.35705 0 0 0 
-0.199078 0.308267 1.34541 0 0 0 
-0.180133 -0.0676323 1.37629 0 0 0 
-0.164156 -0.134366 1.39785 0 0 0 
-0.205989 0.520778 1.32534 0 0 0 
-0.209717 0.37015 1.30872 0 0 0 
-0.203462 0.474196 1.31244 0 0 0 
-0.20194 0.544141 1.30488 25 24 21 
-0.195339 0.2243 1.31827 0 0 0 
-0.200338 0.491083 1.30377 0 0 0 
-0.200742 0.559965 1.29956 54 46 230 
-0.201056 0.464003 1.29693 0 0 0 
-0.200777 0.493977 1.29328 0 0 0 
-0.202953 0.525291 1.28819 111 3 3 
-0.187652 -0.0284532 1.31311 0 0 0 
-0.177169 -0.0520899 1.32491 0 0 0 
-0.147205 -0.247538 1.35706 0 0 0 
-0.18436 0.152723 1.30283 0 0 0 
-0.225965 0.610405 1.24221 57 56 51 
-0.197518 0.501896 1.27195 48 252 49 
-0.164145 -0.0751523 1.30754 0 0 0 
-0.210465 0.604368 1.23261 83 80 75 
-0.09522 -0.336667 1.37947 0 0 0 
-0.195521 0.551564 1.24577 40 40 40 
-0.0882065 -0.364753 1.3859 0 0 0 
-0.213743 0.623421 1.21981 69 64 255 
-0.097949 -0.323099 1.36837 0 0 0 
-0.175861 -0.0153956 1.26667 254 71 71 
-0.0818075 -0.382069 1.38153 0 0 0 
-0.100847 -0.306768 1.35813 0 0 0 
-0.161624 -0.0702394 1.28379 0 0 0 
-0.0776526 -0.39663 1.3862 0 0 0 
-0.176733 0.390799 1.25691 59 54 254 
-0.0867521 -0.365406 1.37271 0 0 0 
-0.166483 0.154707 1.26546 70 66 63 
-0.0779329 -0.388882 1.37495 0 0 0 
-0.0830271 -0.373528 1.36731 0 0 0 
-0.0846938 -0.362375 1.36117 0 0 0 
-0.117293 -0.238292 1.32189 0 0 0 
-0.0549938 -0.465903 1.38746 0 0 0 
-0.0323498 -0.611117 1.4025 0 0 0 
-0.0338626 -0.536608 1.39804 0 0 0 
-0.0849963 -0.337158 1.3357 0 0 0 
-0.0753372 -0.364038 1.33944 0 0 0 
-0.149432 0.00653251 1.23875 254 36 35 
-0.00557786 -0.700354 1.402 0 0 0 
-0.103992 -0.185737 1.28578 1 1 1 
0.00166471 -0.687068 1.40372 0 0 0 
-0.0798999 -0.2364 1.28789 0 0 0 
0.0131005 -0.545222 1.37121 0 0 0 
-0.0555573 -0.245418 1.27526 75 70 252 
-0.145409 0.598852 1.16459 254 54 54 
-0.107571 0.0151821 1.20866 40 41 255 
-0.112466 0.511753 1.18137 39 47 58 
0.0323337 -0.374287 1.32077 1 1 0 
-0.0260118 0.0677867 1.18232 24 255 16 
