ply
format ascii 1.0
comment PCL generated
element vertex 601
property float x
property float y
property float z
property uchar red
property uchar green
property uchar blue
element face 0
element camera 1
property float view_px
property float view_py
property float view_pz
property float x_axisx
property float x_axisy
property float x_axisz
property float y_axisx
property float y_axisy
property float y_axisz
property float z_axisx
property float z_axisy
property float z_axisz
property float focal
property float scalex
property float scaley
property float centerx
property float centery
property int viewportx
property int viewporty
property float k1
property float k2
end_header
-2.3675499 0.32820499 4.2535801 60 52 62
-2.36344 0.33188301 4.2342 47 37 46
-2.35921 0.338801 4.2512202 32 24 33
-2.3450699 0.34105 4.2484899 32 23 32
-2.38941 0.37372401 4.4786 37 31 38
-2.36868 0.33998501 4.2262301 31 25 34
-2.3612199 0.34059301 4.2298198 32 27 34
-2.3586299 0.34143701 4.2397599 35 28 37
-2.3471601 0.34895 4.24401 46 43 59
-2.3276 0.35206401 4.2639699 35 32 45
-2.36321 0.372935 4.41436 38 36 52
-2.3768699 0.377707 4.4558101 42 38 55
-2.3801 0.38277501 4.4728498 42 45 67
-2.36748 0.385699 4.4720402 41 48 75
-2.40289 0.38502401 4.5212598 40 37 52
-2.36078 0.34937701 4.2352099 30 31 48
-2.3566699 0.349877 4.2418499 40 40 59
-2.35659 0.34894899 4.2428098 41 40 57
-2.3508899 0.357894 4.2521 47 55 86
-2.35798 0.35985199 4.27074 50 57 85
-2.3261099 0.35772899 4.2718501 39 45 69
-2.32335 0.36484501 4.2785001 65 79 114
-2.3199799 0.365309 4.2865601 60 72 104
-2.3462501 0.37646401 4.38978 45 52 80
-2.33761 0.38522899 4.3919501 68 81 117
-2.3622301 0.38187999 4.4266901 51 61 92
-2.37238 0.39227799 4.4686599 66 79 115
-2.3658299 0.39152399 4.4753399 59 72 106
-2.36184 0.392845 4.4713302 64 77 113
-2.3638501 0.35749099 4.2322798 49 59 88
-2.3535199 0.35856199 4.2435098 53 65 97
-2.3517001 0.35707501 4.2420402 48 58 89
-2.32689 0.36435699 4.2662001 68 83 119
-2.31706 0.371764 4.2762399 78 90 128
-2.3140299 0.37619799 4.2880802 51 59 94
-2.36233 0.36542401 4.2137098 61 73 109
-2.36111 0.367149 4.22434 66 79 116
-2.3569 0.368727 4.2563801 81 97 136
-2.34514 0.36961499 4.2551599 73 85 125
-2.33657 0.36995199 4.2574701 55 66 104
-2.3132701 0.38194701 4.2796102 52 59 94
-2.29882 0.38633001 4.2867999 53 63 97
-2.2849 0.38798201 4.2911401 70 81 119
-2.27965 0.388331 4.2971201 56 64 100
-2.2733099 0.38430601 4.29812 45 55 89
-2.3557301 0.373604 4.2119799 63 76 112
-2.3574901 0.37744701 4.2140198 64 78 114
-2.3556001 0.37470701 4.2231302 69 83 122
-2.3528199 0.380389 4.2319198 60 74 114
-2.3454299 0.378299 4.2447 65 77 114
-2.3276801 0.37924999 4.2470598 50 60 96
-2.3201399 0.37947699 4.2503099 59 71 110
-2.3115699 0.38547301 4.2722702 61 71 108
-2.3061099 0.39295599 4.2750401 62 74 111
-2.3011 0.39356399 4.28333 59 71 108
-2.29405 0.393704 4.28724 68 79 117
-2.2811501 0.395262 4.2917399 70 83 121
-2.2794099 0.39605701 4.30164 57 68 105
-2.3629301 0.383688 4.2132502 57 69 107
-2.3455801 0.38741601 4.22405 68 82 121
-2.32412 0.387427 4.24722 58 70 105
-2.32426 0.39533401 4.2505102 57 66 101
-2.3211701 0.39206699 4.2519898 62 73 109
-2.31791 0.397531 4.2616501 67 79 115
-2.3090501 0.39955401 4.27144 67 81 119
-2.30006 0.400374 4.2762198 74 88 128
-2.2983 0.40118101 4.2859502 73 87 126
-2.3605599 0.39001399 4.2042098 75 91 131
-2.3541701 0.38957599 4.2109299 68 82 123
-2.3483901 0.390843 4.2165098 76 88 126
-2.3406799 0.39466199 4.2313299 70 82 118
-2.33513 0.402226 4.2437601 63 74 111
-2.3285699 0.40237099 4.2485299 60 69 105
-2.3116801 0.40191901 4.26125 61 72 108
-2.3081801 0.40755701 4.2652798 57 68 104
-2.30639 0.405305 4.2764201 69 83 119
-2.35901 0.39566401 4.19487 86 105 146
-2.3549099 0.401968 4.2073598 87 103 146
-2.35513 0.39730901 4.2161498 70 82 122
-2.3454499 0.39809999 4.2175798 47 55 90
-2.33672 0.40833399 4.2304201 67 79 115
-2.32774 0.408811 4.24054 61 73 112
-2.3192 0.408342 4.25631 47 54 90
-2.3123701 0.409109 4.2599001 48 58 93
-2.2966101 0.41494301 4.2719002 59 70 108
-2.2681 0.424164 4.2973499 51 61 96
-2.25949 0.43008399 4.3175201 52 62 96
-2.35463 0.406479 4.1868401 92 112 155
-2.3493299 0.40903199 4.2053399 85 99 139
-2.3447001 0.40901801 4.2148499 53 61 97
-2.3408101 0.41191 4.2215199 55 65 101
-2.33148 0.41615501 4.2381301 74 90 131
-2.3267601 0.416004 4.2350402 73 88 130
-2.3231299 0.416758 4.2438202 70 87 128
-2.3118 0.419554 4.2525301 71 87 128
-2.30408 0.419144 4.2589798 74 89 128
-2.2992799 0.41968 4.2653599 70 84 124
-2.2876401 0.424867 4.2732201 74 88 127
-2.27439 0.43305001 4.2866702 76 92 132
-2.2584801 0.430877 4.3021498 64 76 113
-2.26087 0.42945001 4.2969799 61 74 111
-2.35991 0.41258401 4.1901498 90 109 151
-2.35076 0.411605 4.1968899 92 106 146
-2.3439701 0.41681001 4.2160702 48 56 89
-2.3378501 0.41738799 4.2273598 71 87 124
-2.3296499 0.42320099 4.23033 92 110 150
-2.32341 0.42323399 4.2363601 91 109 153
-2.31283 0.430462 4.2484899 91 108 151
-2.2974 0.43395299 4.2553902 82 97 138
-2.2931099 0.43458301 4.2644401 80 96 137
-2.28585 0.43683499 4.2678299 81 94 133
-2.28565 0.43198499 4.2758002 71 84 123
-2.2646101 0.43538499 4.2927699 72 89 130
-2.26917 0.437574 4.29106 79 97 139
-2.26509 0.44155401 4.3021102 87 105 147
-2.25769 0.437962 4.2986999 82 99 140
-2.25249 0.44193301 4.3032398 76 92 133
-2.24634 0.442054 4.3080502 68 83 122
-2.24862 0.44325399 4.3228202 62 77 116
-2.35025 0.417346 4.1886601 60 68 106
-2.3459301 0.422241 4.1981401 48 52 82
-2.34166 0.42714101 4.2076702 36 42 70
-2.3339801 0.42460501 4.2217102 68 80 113
-2.3341899 0.42888999 4.2156701 45 48 74
-2.32952 0.42950299 4.22294 54 61 90
-2.3249099 0.42986599 4.2304602 89 101 138
-2.3191199 0.43005699 4.23667 98 116 158
-2.3111401 0.437709 4.2437601 89 105 146
-2.30549 0.43549499 4.24933 64 78 121
-2.29285 0.44300199 4.2568002 85 99 139
-2.2910099 0.44390699 4.2665601 77 90 129
-2.2828901 0.44377699 4.2698398 65 75 111
-2.2762401 0.44392201 4.27493 42 52 89
-2.2723999 0.442233 4.2836399 75 92 132
-2.2716899 0.44602999 4.2933602 88 108 150
-2.25106 0.45384899 4.2961798 87 101 143
-2.2505901 0.44920599 4.30689 73 89 130
-2.24913 0.44996101 4.3179698 71 87 127
-2.35623 0.42741999 4.18753 52 60 95
-2.35063 0.42867801 4.1954298 29 33 61
-2.3429101 0.43312699 4.2013102 60 73 102
-2.3311701 0.43609199 4.21664 23 23 39
-2.32898 0.436746 4.2177401 21 20 35
-2.31882 0.43633199 4.2292099 66 73 103
-2.3144901 0.43960801 4.2356901 86 98 132
-2.31041 0.44584 4.24192 68 79 116
-2.30497 0.44200701 4.2469902 88 104 144
-2.2978001 0.44225401 4.2506099 87 102 142
-2.29474 0.451148 4.2632499 63 69 102
-2.27565 0.45130301 4.2691698 40 47 78
-2.2748101 0.450046 4.28122 64 79 117
-2.2587099 0.458534 4.2940302 82 96 138
-2.25207 0.45942301 4.3069501 79 93 134
-2.3547101 0.434733 4.191 23 26 54
-2.35653 0.44080701 4.18578 26 28 57
-2.35671 0.44090101 4.1860399 26 28 56
-2.3508101 0.44176099 4.1918101 31 38 64
-2.34583 0.444931 4.1970301 63 79 111
-2.33109 0.44399199 4.2146101 21 23 36
-2.33375 0.44572601 4.2080798 33 36 58
-2.3239701 0.444157 4.2186599 16 15 27
-2.3257599 0.44433099 4.2206602 16 15 27
-2.319 0.44523999 4.2244101 24 28 43
-2.3132701 0.446132 4.2294202 49 56 80
-2.3055 0.45318601 4.23735 48 55 86
-2.29774 0.454393 4.2433 52 57 87
-2.2960899 0.451689 4.2551098 54 60 92
-2.28319 0.45717701 4.2579598 38 44 68
-2.2738299 0.461319 4.2619901 40 45 72
-2.2697799 0.46276 4.27596 77 89 123
-2.26559 0.46474701 4.2804599 78 92 129
-2.2532899 0.46605799 4.2952399 63 74 114
-2.25225 0.46949399 4.3049598 64 77 115
-2.3485701 0.44945201 4.1907902 46 56 83
-2.33618 0.45432901 4.2028599 38 45 73
-2.3271401 0.45576 4.2044101 18 19 36
-2.3224101 0.45504501 4.2069101 22 23 37
-2.3217499 0.456384 4.2176099 26 27 42
-2.31409 0.45446599 4.22262 35 38 55
-2.3048 0.46048799 4.2306399 37 48 77
-2.29969 0.461072 4.2365198 62 76 108
-2.2948101 0.46634999 4.24506 43 53 87
-2.27615 0.470512 4.2590699 43 50 78
-2.27 0.46707499 4.26719 48 51 78
-2.2673399 0.47062901 4.2748499 62 72 102
-2.26227 0.472 4.2806201 77 91 129
-2.3519101 0.456568 4.1891198 30 35 60
-2.3447299 0.45639801 4.1944199 60 72 103
-2.34091 0.45894599 4.1985698 63 74 104
-2.33463 0.462199 4.20227 29 34 59
-2.3208101 0.464331 4.2112098 36 44 65
-2.31512 0.46500301 4.2165098 30 38 61
-2.31089 0.46624801 4.2228298 32 40 67
-2.3060601 0.467419 4.2259598 36 49 80
-2.30195 0.46797299 4.2329998 71 90 126
-2.2964699 0.47085401 4.2378001 77 93 133
-2.2885799 0.47118899 4.2474399 33 44 79
-2.2816 0.47497699 4.2516198 66 79 114
-2.2750499 0.47616401 4.26722 22 24 49
-2.2660401 0.4781 4.2769399 57 69 103
-2.2495501 0.48219201 4.2899799 65 79 118
-2.35287 0.46360701 4.1806898 41 47 74
-2.3487201 0.46248701 4.1794 38 45 71
-2.3457 0.46290401 4.1890998 42 47 72
-2.3387001 0.46742499 4.1978898 48 54 77
-2.3282101 0.47209701 4.2025099 42 52 79
-2.32604 0.473295 4.2115598 50 62 90
-2.31547 0.473263 4.2115798 47 59 91
-2.3164001 0.47502801 4.2242098 45 58 91
-2.31234 0.47629899 4.2270999 49 63 98
-2.30288 0.477256 4.2277198 69 85 123
-2.2943799 0.47845799 4.2372398 83 100 141
-2.2882299 0.47944 4.2416701 70 86 128
-2.2797699 0.48092499 4.2543001 65 79 117
-2.27123 0.48304799 4.2678299 31 41 71
-2.26667 0.48478401 4.27212 56 71 105
-2.2624199 0.48511401 4.2786698 79 96 134
-2.2627599 0.49179 4.2735701 81 97 135
-2.2525201 0.48899701 4.28653 70 85 125
-2.34828 0.46903899 4.1845698 42 48 69
-2.3426399 0.47307199 4.1937599 27 29 47
-2.33726 0.47604799 4.1998401 47 54 79
-2.32658 0.47824201 4.2002501 54 67 97
-2.3157499 0.48269501 4.2132101 74 91 128
-2.3140199 0.48409599 4.22297 75 92 131
-2.3073299 0.48451099 4.2271199 70 85 126
-2.29931 0.48446 4.2305598 76 91 133
-2.29719 0.48729801 4.2428498 88 105 146
-2.2871101 0.48560199 4.2478499 81 98 140
-2.2771001 0.49197999 4.25209 83 100 141
-2.27391 0.493404 4.2597899 70 85 124
-2.27109 0.49638399 4.2660198 56 68 106
-2.2646899 0.49868801 4.27002 52 63 101
-2.2591901 0.49890399 4.2753701 85 98 138
-2.2532101 0.50155097 4.2796402 82 98 138
-2.2500401 0.49668899 4.2850199 75 90 131
-2.33935 0.479413 4.1837602 19 20 35
-2.33693 0.48259699 4.1930199 29 36 58
-2.33044 0.48278201 4.1975002 55 67 97
-2.3258801 0.48347899 4.2038598 64 78 112
-2.31668 0.49023601 4.20329 81 97 138
-2.3122699 0.491359 4.2151399 86 104 146
-2.3118501 0.491521 4.21032 87 104 147
-2.3090799 0.492309 4.2230601 88 105 147
-2.2979 0.493168 4.2350602 72 88 129
-2.2878499 0.49542299 4.2416601 86 101 143
-2.29408 0.49840999 4.2437801 70 83 123
-2.2890301 0.49693301 4.2523398 92 108 150
-2.2757499 0.50283802 4.25139 91 106 147
-2.26215 0.50628 4.26964 49 61 98
-2.25648 0.50654101 4.2744699 69 81 119
-2.2514601 0.506881 4.2808399 78 93 132
-2.2431099 0.51124501 4.2856002 79 94 133
-2.3373201 0.487753 4.1852398 28 34 56
-2.3441801 0.486231 4.1821499 30 35 55
-2.3269401 0.49092999 4.1981101 67 83 120
-2.31619 0.499782 4.2042899 91 108 150
-2.31214 0.50124902 4.2122502 90 106 147
-2.3122799 0.50099498 4.2206502 90 104 145
-2.30564 0.50157601 4.2247701 75 88 128
-2.29478 0.50428802 4.23598 59 69 105
-2.2860601 0.50656998 4.2452698 64 74 110
-2.2897401 0.50516599 4.2442598 61 71 107
-2.2818799 0.50698799 4.2519898 85 98 136
-2.2745199 0.50690502 4.2561498 83 98 139
-2.2654099 0.51320702 4.26577 67 83 121
-2.2553799 0.51270598 4.2665601 64 78 117
-2.25002 0.51299399 4.2725201 56 68 107
-2.24983 0.51292598 4.2723198 56 68 107
-2.24545 0.51758498 4.28052 70 82 121
-2.2388599 0.51763898 4.2891502 80 93 133
-2.34127 0.49746001 4.1806402 38 44 64
-2.3359399 0.498081 4.1863799 34 39 62
-2.3296299 0.49872601 4.1912298 57 68 100
-2.31581 0.505988 4.2157102 78 91 132
-2.3110001 0.50871903 4.2214298 67 77 115
-2.30161 0.50883901 4.2252202 57 67 105
-2.29146 0.50978798 4.23528 43 51 82
-2.2853301 0.51835698 4.2416301 35 45 74
-2.2822499 0.51384902 4.2473402 60 71 105
-2.27861 0.51375902 4.2536702 68 81 120
-2.2746999 0.52083701 4.25353 63 77 116
-2.3380401 0.50449997 4.17206 24 25 44
-2.33199 0.50705802 4.1827502 26 28 44
-2.32722 0.50813699 4.1891098 42 49 73
-2.3206401 0.50904 4.1931901 72 82 114
-2.3187499 0.51327598 4.1946802 58 66 97
-2.3171799 0.514754 4.2048001 64 73 108
-2.30936 0.51339602 4.2193799 58 68 105
-2.30268 0.51426101 4.2199998 63 74 111
-2.29322 0.51511103 4.2236199 55 66 103
-2.2802701 0.52154398 4.2465801 66 79 112
-2.34021 0.51947999 4.1792898 33 41 64
-2.3404601 0.519656 4.1795702 34 41 64
-2.3303001 0.51657897 4.1813898 23 27 43
-2.3232701 0.52133799 4.1890202 37 43 64
-2.3122799 0.52331698 4.2055202 73 85 121
-2.3090601 0.522201 4.2164402 59 73 110
-2.2995 0.528256 4.2301402 69 82 120
-2.2967801 0.533575 4.23315 63 75 113
-2.28897 0.52949202 4.23735 42 52 85
-2.27423 0.530366 4.2417202 48 57 91
-1.89729 0.64741302 4.6553001 99 117 164
-1.86052 0.64169502 4.6297402 99 118 164
-2.3434 0.51861602 4.1704001 50 60 90
-2.3373401 0.52526897 4.1700401 54 63 92
-2.3355 0.52644497 4.1802201 30 35 57
-2.3234301 0.52871299 4.1791 25 28 44
-2.31744 0.52948302 4.18432 42 48 68
-2.3141899 0.531259 4.1944799 51 61 91
-2.3094599 0.531932 4.2007198 80 95 133
-2.3097301 0.53298801 4.2111602 78 92 132
-2.3057699 0.53336102 4.2181301 65 79 120
-2.3015201 0.53834301 4.2231798 74 89 131
-2.29036 0.53865999 4.2334199 63 78 118
-2.2774899 0.54193997 4.2287598 81 97 137
-2.27402 0.53619897 4.2348599 62 76 114
-1.9155 0.65231597 4.6419101 98 116 161
-1.8788199 0.649122 4.6394801 99 117 163
-1.86982 0.65241897 4.6346698 100 117 162
-1.8541501 0.64932799 4.6263299 99 117 163
-2.3319299 0.53197002 4.16926 34 40 65
-2.32932 0.53429502 4.17873 21 24 38
-2.3120501 0.54099202 4.1911602 36 46 74
-2.30739 0.54177999 4.1975498 81 97 135
-2.29984 0.54381698 4.22715 80 96 137
-1.91087 0.658485 4.62675 81 96 136
-1.91097 0.65956098 4.6504302 88 104 146
-1.8972 0.65660602 4.64923 97 114 158
-1.8787 0.65829098 4.6334 88 104 147
-1.8568799 0.656982 4.6245298 95 112 155
-1.85884 0.65888298 4.6358099 96 113 156
-2.3366499 0.53657901 4.1640401 54 63 91
-2.33413 0.54244 4.1686602 39 44 70
-2.3343599 0.54055101 4.17658 21 23 42
-2.3264301 0.544819 4.1876798 20 22 35
-2.3041699 0.54830199 4.1884398 70 88 127
-2.3025601 0.549514 4.1981702 86 104 146
-2.2962401 0.55658698 4.2263598 81 96 136
-1.92329 0.66656101 4.6277699 86 93 122
-1.90652 0.66252398 4.63271 79 91 127
-1.88599 0.663899 4.63026 79 90 125
-1.86707 0.66238397 4.6167302 79 91 126
-1.8530999 0.66716498 4.6234198 81 90 125
-2.34006 0.54250199 4.1612201 56 69 99
-2.33867 0.549734 4.1647201 55 68 99
-2.3322501 0.550134 4.16961 27 32 57
-2.32568 0.550524 4.17416 23 28 48
-2.3171799 0.55062801 4.1767602 26 33 57
-2.3138499 0.55104798 4.18507 35 49 79
-2.29566 0.56456399 4.2135 68 77 114
-2.2874501 0.56365502 4.2228198 63 74 112
-2.2831399 0.56391501 4.2311201 71 84 123
-2.27617 0.56640297 4.2286401 72 85 122
-2.2711 0.56585598 4.2361498 74 88 126
-1.90771 0.66506702 4.61305 89 93 122
-1.90607 0.66655397 4.6196098 90 94 121
-1.89867 0.67031598 4.6170402 96 95 117
-1.88809 0.67024302 4.6133499 96 95 116
-1.88291 0.670555 4.6171298 95 95 116
-1.86326 0.6706 4.61095 93 93 116
-1.85366 0.671435 4.6123199 92 93 117
-1.8528301 0.67606997 4.6169801 96 94 115
-2.3331101 0.55688798 4.1619501 49 61 96
-2.32443 0.55605298 4.1657701 41 53 83
-2.2967701 0.55668598 4.1537099 65 82 117
-2.2926099 0.56082302 4.1654301 74 89 123
-2.3022799 0.55853897 4.1845002 80 99 138
-2.2932 0.56505197 4.1760802 63 70 102
-2.2955401 0.56419998 4.1956501 79 89 124
-2.2832601 0.57143998 4.2240601 56 63 91
-2.2749701 0.571666 4.2262301 58 66 97
-2.2674999 0.57375097 4.2343702 53 57 89
-2.2651601 0.57737601 4.24299 55 59 89
-1.92022 0.67325401 4.6145301 97 95 115
-1.89785 0.67223102 4.6001301 98 95 115
-1.9191099 0.67486298 4.6217399 97 95 115
-1.88299 0.67111599 4.59377 97 95 115
-1.86576 0.68046498 4.6085501 97 95 113
-1.85365 0.68462598 4.6104002 97 94 112
-1.84814 0.68681997 4.6226301 97 95 113
-2.3263099 0.56410301 4.1575999 65 79 112
-2.2678199 0.56273198 4.1331201 45 48 73
-2.28231 0.57075101 4.1696701 40 38 57
-2.2916999 0.58244902 4.2204199 56 45 59
-2.2806301 0.58004701 4.2249198 46 41 59
-2.2801499 0.57774001 4.22366 44 42 62
-2.2731299 0.57925302 4.2273302 44 40 61
-2.2702 0.586604 4.2273998 59 46 59
-2.2690699 0.582573 4.2381301 48 43 64
-2.26298 0.58764201 4.2406201 62 52 68
-2.26106 0.58544999 4.24154 54 48 67
-2.2562001 0.58867699 4.2449298 57 48 64
-2.25493 0.58635098 4.2462401 50 45 64
-1.91945 0.68084502 4.6044998 98 96 115
-1.88486 0.68395501 4.60783 98 95 114
-1.88289 0.68513399 4.6150599 98 95 114
-1.8635 0.68483698 4.6124301 98 95 113
-1.85983 0.69226402 4.61097 97 94 112
-1.8599401 0.69387197 4.6206398 97 94 112
-1.85359 0.694368 4.62008 97 94 112
-2.3185799 0.57878298 4.16394 58 48 65
-2.29656 0.57858402 4.1947198 43 36 48
-2.2682099 0.590002 4.2344599 65 51 63
-2.2570701 0.59593499 4.2441902 61 48 58
-1.92316 0.68407798 4.5727 102 100 121
-1.91238 0.68932098 4.5679598 96 93 112
-1.9246 0.69113398 4.61057 99 96 114
-1.88394 0.69028902 4.60045 98 95 113
-1.88042 0.69768798 4.5995402 89 85 99
-1.88933 0.69775099 4.6003098 89 84 98
-1.87081 0.69748199 4.5978799 90 85 100
-1.88431 0.69190001 4.6103501 97 94 112
-1.86452 0.69950098 4.6091399 91 87 102
-1.8642401 0.70104802 4.61832 92 89 104
-1.85558 0.70106298 4.6178298 95 91 107
-1.85569 0.70109397 4.6179399 95 91 107
-1.85917 0.69963199 4.6182098 95 92 108
-1.83601 0.70463699 4.6175199 94 91 108
-2.33445 0.57800299 4.1561599 57 54 75
-2.32757 0.57829797 4.1621799 62 56 76
-2.3169501 0.59061903 4.1831002 53 40 50
-1.91563 0.69602299 4.55969 86 83 97
-1.91319 0.69553602 4.5764999 88 84 99
-1.90429 0.69660199 4.5864801 88 83 97
-1.89781 0.69773299 4.6005702 89 83 98
-1.87839 0.70682698 4.60848 61 53 61
-1.8699501 0.70689303 4.6082702 66 58 66
-1.86923 0.70837498 4.61693 74 67 76
-1.86017 0.70831299 4.6159601 75 68 78
-1.85142 0.70830703 4.6153302 78 73 84
-1.84253 0.70411402 4.61273 91 87 102
-1.83521 0.71201098 4.6298399 95 91 106
-1.82617 0.71192801 4.6332302 96 92 110
-2.33197 0.58848101 4.1638799 72 53 63
-2.3271401 0.58909899 4.1699901 63 45 55
-2.3231399 0.59038502 4.17804 57 41 51
-2.31235 0.59851599 4.1792598 63 48 59
-2.3112299 0.594374 4.1870999 58 44 53
-1.94043 0.70055002 4.5476098 87 83 98
-1.92774 0.69823599 4.5538301 87 82 97
-1.9145499 0.70158702 4.56003 62 58 67
-1.9135799 0.70199299 4.5704899 74 67 78
-1.90668 0.70334601 4.5803499 57 50 58
-1.90048 0.70390999 4.5827298 51 43 50
-1.8947999 0.70688802 4.5643902 30 24 29
-1.89398 0.70921201 4.58322 29 24 28
-1.88624 0.71213198 4.59129 26 23 25
-1.88589 0.71311402 4.5989299 26 23 26
-1.88185 0.71380401 4.6048002 27 23 26
-1.8725801 0.71370399 4.6037102 28 23 27
-1.84505 0.71734899 4.6118498 34 28 33
-1.83044 0.71898401 4.6327701 79 74 84
-1.81295 0.71728599 4.6261902 88 86 101
-1.81233 0.72504801 4.6338201 78 74 86
-1.80194 0.72217399 4.63027 91 87 103
-1.80018 0.72886002 4.6392999 88 85 99
-1.96358 0.70221001 4.5289998 100 95 111
-1.9522901 0.699184 4.5359902 98 93 108
-1.92264 0.70869601 4.5412002 35 28 34
-1.9072599 0.70402598 4.5378098 37 30 37
-1.9075201 0.70668 4.5443602 31 25 30
-1.89798 0.70501101 4.5483499 33 26 31
-1.90834 0.71014398 4.5542798 27 23 26
-1.89056 0.71009701 4.5469899 25 22 24
-1.89606 0.71465999 4.57342 24 21 23
-1.891 0.71096998 4.5784702 26 23 25
-1.87911 0.71728897 4.5770302 22 20 23
-1.87194 0.71592802 4.5889702 22 21 24
-1.84444 0.72187799 4.6037502 21 18 23
-1.85531 0.73867399 4.6680799 23 20 25
-1.8177201 0.73231298 4.63482 40 34 40
-1.97628 0.70433003 4.50528 101 98 116
-1.97542 0.70504701 4.5223198 101 97 114
-1.97761 0.71162897 4.53227 91 85 99
-1.96497 0.70867401 4.5381398 89 82 94
-1.96623 0.708781 4.5394902 89 82 95
-1.93362 0.71256602 4.5396199 32 26 31
-1.91063 0.715608 4.5334001 22 20 22
-1.86426 0.72777897 4.60221 19 18 23
-1.8369 0.72877002 4.5925002 19 18 22
-1.83034 0.72794199 4.59869 21 19 24
-1.83631 0.73358399 4.59728 20 19 23
-2.00967 0.712524 4.5116501 101 99 116
-1.98191 0.70671099 4.4974399 101 98 116
-1.94463 0.71512902 4.5327902 33 27 32
-2.0085499 0.72074902 4.5044298 99 95 112
-1.9992599 0.72385103 4.5173202 84 79 92
-1.99029 0.72883302 4.5349202 38 31 39
-1.98833 0.72897702 4.5325298 36 29 37
-2.0113001 0.72977602 4.5019102 90 84 100
-2.00404 0.72619402 4.5070801 88 82 97
-2.00279 0.73256499 4.5142398 63 54 65
-1.99956 0.73382801 4.5158901 47 39 48
-1.99624 0.72988099 4.5243502 51 44 52
-1.9949501 0.72998202 4.52319 49 41 50
-1.98861 0.73080802 4.5234599 35 28 35
-1.97744 0.73488402 4.5188098 27 24 28
-2.00966 0.73479003 4.5019598 78 70 84
-2.0067599 0.73638099 4.5061798 63 54 65
-2.0016301 0.73866498 4.5213399 34 27 34
-2.00144 0.73899901 4.5221 33 26 33
-2.0230601 0.72995597 4.4539299 101 98 118
-2.01405 0.73281902 4.4564199 98 96 113
-2.0120201 0.73187798 4.4545898 98 96 113
-2.0147099 0.73643798 4.4903798 88 82 97
-2.00508 0.74508202 4.4937901 38 31 38
-2.0118501 0.74238902 4.4953899 62 54 65
-2.01193 0.742383 4.4956002 62 54 65
-2.00178 0.73959702 4.5012498 42 34 43
-2.0043499 0.74023598 4.5046501 42 34 43
-2.0038099 0.74239099 4.5114698 33 27 34
-2.00384 0.74700898 4.5130501 30 25 31
-2.03125 0.74081898 4.4389 102 99 119
-2.0190699 0.73850399 4.45368 99 96 114
-2.0167799 0.74117798 4.4635901 94 89 106
-2.0160201 0.75020802 4.4885302 50 42 52
-2.0072601 0.74811399 4.49861 33 27 34
-2.00753 0.74819797 4.4988499 33 27 34
-2.0283899 0.751885 4.4491501 96 91 109
-2.0256701 0.74329299 4.44452 100 97 115
-2.01823 0.75479198 4.4612598 73 65 79
-2.0197599 0.747145 4.4588499 92 86 102
-2.0081 0.754655 4.48739 31 26 32
-2.00863 0.75477701 4.4879999 31 26 32
-2.0362301 0.75446099 4.4298801 100 97 116
-2.0274301 0.749677 4.43647 99 96 114
-2.03299 0.76112503 4.4581199 88 80 96
-2.02071 0.76052099 4.4559698 68 61 72
-2.0410199 0.762878 4.4302502 97 94 113
-2.0358701 0.768673 4.4552398 81 73 87
-2.0193501 0.76848698 4.473 31 25 32
-2.03001 0.77772301 4.45158 42 35 43
-2.0193999 0.77167898 4.45544 35 28 34
-2.04649 0.77778202 4.44557 89 82 98
-2.0403299 0.78271502 4.4463902 65 56 68
-2.02614 0.78285301 4.4541302 32 26 31
-2.0497501 0.78154498 4.3941898 99 96 115
-2.0554099 0.784338 4.4120898 99 96 114
-2.0470901 0.78671402 4.43613 82 75 89
-2.04056 0.792054 4.4379401 45 37 46
-2.03005 0.79042298 4.4468498 32 26 32
-2.05848 0.78087699 4.3903499 100 98 117
-2.0566001 0.79209501 4.4304299 91 85 101
-2.04948 0.79771399 4.4321299 61 52 63
-2.02759 0.79525 4.4299598 32 26 31
-2.0699201 0.79799902 4.4285002 96 91 107
-2.0634 0.802163 4.4278898 85 77 91
-2.0434 0.802737 4.4326701 35 27 35
-2.0624299 0.80656201 4.4158401 77 68 83
-2.05951 0.80748302 4.42451 66 57 68
-2.0517299 0.80829102 4.4263601 42 34 43
-2.0533199 0.816221 4.4168901 37 31 39
-2.0448699 0.81690103 4.4180398 31 26 33
-2.08272 0.88558 4.4092898 82 73 92
-2.0783501 0.887573 4.4166899 62 55 73
-2.0783999 0.88819802 4.4166198 62 55 73
-2.09231 0.89541101 4.4124699 87 77 99
-2.0776 0.89379901 4.4061499 77 69 88
-2.0746701 0.89631599 4.4154701 54 49 65
-2.0771999 0.90218699 4.4073601 72 65 83
-2.0711999 0.90523601 4.4117699 52 45 61
-2.08218 0.90625203 4.40027 87 76 98
-2.0777299 0.91091299 4.4098201 67 59 78
-2.0783501 0.91391498 4.41961 53 46 63
-2.07902 0.91637999 4.4067602 76 67 87
-2.08237 0.92488998 4.4186902 62 55 73
-2.0922101 0.92323899 4.4105301 88 77 98
-2.0882299 0.93025601 4.4112902 85 75 96
-2.0769401 0.93102503 4.4152098 53 46 62
-2.0866001 0.93821597 4.4133101 79 70 89
-2.08341 0.93501699 4.41113 77 68 87
-2.08216 0.93954498 4.42243 51 45 60
-2.0729401 0.938568 4.3782201 87 76 99
-2.0885201 0.94468302 4.4086199 85 74 95
-2.0850699 0.94562399 4.4171901 65 56 74
-2.08148 0.94738102 4.4134798 61 53 70
-2.08462 0.94821602 4.4169698 63 54 72
-2.0838301 0.95283502 4.4292402 45 41 56
-2.08448 0.948901 4.3955498 86 76 98
-2.08095 0.95222503 4.40418 76 66 86
-2.0825701 0.95756203 4.41891 51 46 63
-2.08444 0.960693 4.43365 43 40 54
-2.08131 0.95582598 4.39429 85 75 96
-2.0756099 0.96249199 4.4030499 57 51 68
-2.0809901 0.96447903 4.4208398 45 42 57
-2.07775 0.96775198 4.3948598 76 68 87
-2.0822101 0.96246499 4.3896198 86 75 98
-2.0825901 0.97372103 4.4269099 42 40 54
-2.0940101 0.972525 4.3985 86 76 99
-2.0839801 0.97133702 4.3909602 86 75 97
-2.08113 0.97611701 4.4071898 56 50 68
-2.0824101 0.97861803 4.42098 42 41 56
-2.0904601 0.98041999 4.3962102 86 75 98
-2.0854101 0.98141301 4.4022799 76 67 87
-2.0805199 0.98483402 4.40835 47 43 61
-2.0839601 0.98872602 4.38236 85 76 98
-2.0748 0.99104601 4.38203 77 70 91
-2.07232 0.99613702 4.3937802 44 45 58
-2.07444 0.99150598 4.4043398 41 40 54
-1.90521 0.70947701 4.5722499 29 24 27
0 0 0 1 0 0 0 1 0 0 0 1 0 0 0 0 0 601 1 0 0
