ply
format ascii 1.0
comment PCL generated
element vertex 843
property float x
property float y
property float z
property uchar red
property uchar green
property uchar blue
element face 0
element camera 1
property float view_px
property float view_py
property float view_pz
property float x_axisx
property float x_axisy
property float x_axisz
property float y_axisx
property float y_axisy
property float y_axisz
property float z_axisx
property float z_axisy
property float z_axisz
property float focal
property float scalex
property float scaley
property float centerx
property float centery
property int viewportx
property int viewporty
property float k1
property float k2
end_header
-5.6024299 -2.3619299 18.7348 75 83 82
-5.59904 -2.38083 18.7943 70 77 76
-5.6220999 -2.35344 18.7253 81 89 88
-5.4718299 -2.3589201 18.746201 48 54 51
-5.4940801 -2.38083 18.789301 53 59 56
-5.5960999 -2.336 18.7589 72 80 79
-5.5762 -2.32727 18.6709 73 81 80
-5.4786201 -2.3108599 18.6523 59 65 63
-5.5094399 -2.3232901 18.699499 64 70 68
-5.59061 -2.2716 18.689899 79 87 87
-5.6128001 -2.2546799 18.6723 86 95 94
-5.6054802 -2.29212 18.680599 84 93 92
-5.59587 -2.2237999 18.6334 80 89 89
-5.6033802 -2.2179301 18.613899 87 96 96
-5.6030998 -2.2400701 18.697901 76 85 84
-5.6030998 -2.2400701 18.697901 76 85 84
-5.5627198 -2.15675 18.5235 82 91 93
-5.55652 -2.1414199 18.519699 87 96 99
-5.5268798 -2.09253 18.511101 81 90 92
-5.4497499 -2.0569899 18.3983 67 75 74
-5.4566302 -2.0644901 18.3755 71 78 79
-4.9668298 -2.1656899 19.316601 54 61 53
-4.9691401 -2.19086 19.3074 53 60 53
-5.4780102 -2.0067101 18.315201 78 86 88
-5.46913 -2.0336101 18.424101 67 74 74
-4.9907999 -2.0787699 19.102699 49 57 42
-4.98739 -2.1138999 19.1311 56 63 53
-4.9664402 -2.10376 19.1999 64 72 64
-4.95222 -2.11604 19.2526 57 65 57
-4.9559102 -2.1070099 19.3001 54 61 52
-5.4785399 -1.95339 18.3144 66 74 74
-5.43048 -1.97955 18.2367 70 78 78
-4.9870801 -2.0606301 19.1511 49 56 42
-0.343211 -1.24822 7.8537598 30 35 33
-5.45612 -1.9222 18.289101 65 73 75
-5.4776602 -1.93197 18.240801 77 86 87
-5.46241 -1.8907501 18.276501 69 77 78
-5.0629401 -1.98965 19.0135 49 55 45
-5.01017 -1.9915299 19.131599 47 55 38
-5.0130801 -2.02035 19.171301 47 55 38
-5.0342798 -2.01373 19.110001 43 51 33
-4.91747 -2.0191901 19.2969 48 54 41
-0.35306999 -1.2287 7.90448 47 53 53
-0.3547 -1.23399 7.8516002 36 41 38
-0.348851 -1.2309901 7.88205 46 53 52
-0.35620999 -1.2395 7.85923 35 40 38
-0.31479299 -1.2092 7.7803202 42 49 46
-0.31785899 -1.22059 7.7824798 36 43 41
-0.329393 -1.23831 7.7677202 37 43 42
-0.32451501 -1.23151 7.7909198 37 43 41
-0.33673501 -1.228 7.8102298 42 49 47
-5.4597802 -1.8810101 18.2117 70 78 78
-5.4731102 -1.86545 18.183701 82 91 92
-5.4415398 -1.84858 18.1632 73 82 82
-5.45474 -1.83328 18.137501 82 89 89
-5.0099602 -1.9367599 19.060499 52 60 43
-5.0099301 -1.96409 19.0945 59 67 50
-0.36198199 -1.21395 7.9015799 50 56 56
-0.34938201 -1.19647 7.8557401 55 63 64
-0.34851301 -1.21515 7.8888998 43 50 49
-0.357696 -1.19091 7.8095002 51 60 61
-0.33612099 -1.19844 7.84162 49 57 57
-0.32781601 -1.2068501 7.7909002 45 51 49
-0.331312 -1.18564 7.8291402 47 54 53
-0.323001 -1.1941 7.7786398 41 47 46
-0.31823701 -1.18196 7.7708802 36 42 40
-0.31827101 -1.18205 7.7705102 36 42 40
-5.4910598 -1.81093 18.3512 74 83 84
-5.4725399 -1.81213 18.3242 71 79 79
-5.4707999 -1.84435 18.364599 57 65 64
-5.0507598 -1.8670501 18.8957 56 61 53
-5.0517702 -1.91018 18.9655 53 59 48
-5.0109701 -1.90899 19.049601 48 55 40
-5.0123 -1.8805799 19.053101 47 54 39
-4.9939899 -1.9215 19.0807 54 62 47
-5.0022898 -1.89589 19.0966 50 57 42
-0.31823501 -1.168 7.7604198 38 45 42
-0.32673299 -1.16868 7.7813601 41 47 45
-5.4700799 -1.78645 18.3361 67 76 77
-5.4889498 -1.7739201 18.440599 65 74 74
-5.0588899 -1.84776 18.8822 59 64 56
-5.05126 -1.82874 18.932199 53 59 48
-5.0490098 -1.8682899 18.9363 50 56 44
-5.05092 -1.83744 18.872499 57 63 55
-5.0402999 -1.84834 18.9797 43 50 36
-5.0105801 -1.85048 19.0457 49 56 42
-5.0082798 -1.84874 19.0497 49 55 42
-4.9924698 -1.8590699 19.104799 52 58 45
-5.50282 -1.73677 18.4685 70 79 80
-5.4509602 -1.70118 18.2104 76 86 86
-5.4745898 -1.74428 18.332701 76 86 87
-5.0630999 -1.76903 18.870899 63 68 61
-5.0475602 -1.80338 18.837799 60 65 58
-5.0524702 -1.78882 18.923599 54 59 50
-5.0473299 -1.81106 18.997999 45 51 37
-5.0270901 -1.81045 18.9786 43 49 35
-5.0116601 -1.80004 19.023701 40 47 32
-4.9843898 -1.8090301 19.045401 52 59 45
-5.0181198 -1.82368 19.0338 48 54 40
-4.85922 -1.81883 19.3417 55 62 49
-4.8618698 -1.82897 19.336201 53 61 47
-5.44415 -1.6599 18.2085 69 78 76
-5.42518 -1.65576 18.224001 62 70 68
-5.0549998 -1.74946 18.9167 59 64 56
-5.0436702 -1.76899 18.9666 43 49 36
-5.0409098 -1.73817 18.9639 47 53 40
-5.0315599 -1.75631 19.0058 41 47 33
-4.9791899 -1.73871 19.0296 51 57 44
-4.90909 -1.75837 19.0986 57 64 54
-4.8514099 -1.79477 19.356701 64 71 59
-5.4422798 -1.62971 18.2411 64 73 70
-5.4373202 -1.62251 18.215799 65 73 71
-5.04813 -1.711 18.8902 56 62 54
-4.9734802 -1.69712 19.0368 48 55 43
-4.9552798 -1.69943 19.0728 44 51 40
-4.9672298 -1.7218601 19.068001 49 56 44
-4.9455299 -1.7363 19.072901 47 55 44
-4.9003601 -1.69857 19.0954 65 72 62
-4.92348 -1.7364399 19.1054 59 66 57
-5.7090302 -1.58956 18.3526 89 97 97
-5.7083902 -1.58839 18.474501 74 82 81
-5.67799 -1.60466 18.371099 79 87 86
-5.6267099 -1.59108 18.3326 80 88 85
-5.0458899 -1.67243 18.8815 60 65 58
-5.0374198 -1.63205 18.851 58 64 56
-4.9343801 -1.6744601 19.058399 51 58 48
-4.9611502 -1.67467 19.046499 42 48 38
-4.94243 -1.65047 19.0415 43 50 40
-4.9120898 -1.66881 19.091 66 73 64
-4.8744898 -1.6935199 19.1689 58 66 53
-4.8463101 -1.6975501 19.249399 55 64 49
-4.9273701 -1.6131999 19.056801 39 47 38
-4.9222102 -1.64565 19.077 61 68 60
-4.9087 -1.6243 19.0886 64 71 62
-4.8955998 -1.6385 19.090799 66 73 63
-4.89358 -1.64604 19.079 66 73 63
-4.8733501 -1.6424 19.1894 57 64 50
-4.7285299 -1.64342 19.5119 56 62 55
-4.6894102 -1.6475101 19.492001 61 66 60
-4.7042799 -1.66231 19.4951 54 60 53
-4.7225399 -1.66813 19.4589 55 61 53
-4.9349799 -1.58885 19.0254 50 58 48
-4.9243002 -1.55124 19.0387 61 69 61
-4.9176602 -1.57592 19.0744 60 67 59
-4.7114 -1.61048 19.487301 63 68 61
-4.6949501 -1.62325 19.6147 72 78 72
-5.0187302 -1.50881 18.8948 45 51 39
-4.9660902 -1.50223 18.930799 46 53 42
-4.96064 -1.5158401 18.968399 49 56 45
-4.9795599 -1.52617 18.931999 49 57 45
-4.9934201 -1.4972399 18.9104 48 55 43
-4.9445801 -1.5201 19.028799 52 60 50
-4.9081402 -1.53936 19.085899 70 78 70
-4.89885 -1.51036 19.106199 76 84 79
-4.9018302 -1.54339 19.0595 69 77 70
-4.9099302 -1.51958 19.037399 71 79 73
-4.8745899 -1.52194 19.107599 75 82 76
-4.8331099 -1.5208499 19.199301 68 75 66
-4.8182602 -1.5362099 19.245701 60 67 56
-4.8091998 -1.53787 19.2796 57 63 52
-4.7975798 -1.52782 19.273199 58 65 53
-4.7288299 -1.56261 19.448799 57 63 55
-4.74191 -1.57665 19.408199 57 63 54
-4.70715 -1.56382 19.4729 72 78 73
-4.7220602 -1.58702 19.474899 58 63 56
-4.68222 -1.55454 19.4846 95 100 100
-5.0419998 -1.46284 18.828899 44 50 39
-5.01369 -1.45055 18.841801 44 51 39
-4.9468298 -1.46383 18.966999 46 54 44
-4.9424601 -1.49094 18.9835 50 58 48
-4.9298701 -1.4569401 19.025801 58 65 58
-4.9063301 -1.45744 19.039301 65 72 67
-4.8326702 -1.49409 19.244301 61 69 59
-4.81288 -1.51236 19.230301 60 67 56
-5.0025301 -1.42259 18.7864 46 52 41
-4.9252801 -1.4155101 18.9991 64 72 67
-4.6637602 -1.47517 19.4904 86 92 92
-4.8140898 -1.36686 19.078501 63 71 63
-4.8206902 -1.40425 19.1105 62 69 62
-4.7557402 -1.40185 19.246401 47 54 39
-4.6561799 -1.4201 19.4863 91 96 95
-4.6503601 -1.4134099 19.499201 90 96 96
-4.66254 -1.44699 19.5261 88 94 94
-4.6611199 -1.4408799 19.5079 91 97 96
-4.8967099 -1.34268 18.8967 67 73 69
-4.8952198 -1.33969 18.876801 64 71 67
-4.8808398 -1.3167599 18.869301 66 72 67
-4.7170901 -1.35181 19.2987 56 63 53
-4.7274199 -1.3446 19.2523 54 61 49
-4.6768198 -1.37228 19.438601 76 82 79
-4.6919599 -1.35181 19.422001 67 73 67
-4.6988502 -1.3884701 19.437599 64 69 65
-4.7023501 -1.36514 19.372101 62 69 61
-4.6617398 -1.35726 19.4884 88 94 92
-4.6638498 -1.3899 19.500401 88 93 92
-4.6665001 -1.39077 19.5014 87 93 92
-4.6445098 -1.37348 19.5138 91 97 96
-4.64608 -1.37062 19.506001 90 97 96
-4.99402 -1.25258 18.8162 40 47 34
-4.99297 -1.28637 18.8409 51 58 46
-4.9619002 -1.24661 18.8046 45 53 39
-4.9593101 -1.28012 18.8228 54 62 51
-4.89045 -1.26264 18.858801 71 78 72
-4.8566599 -1.26864 18.905001 72 80 75
-4.8372402 -1.28527 19.0578 75 83 78
-4.82339 -1.30732 19.055901 73 82 76
-4.6746802 -1.3361 19.4592 78 84 81
-4.6898799 -1.30805 19.4049 69 75 69
-4.7024598 -1.33539 19.401501 63 69 62
-4.6822 -1.33132 19.434999 71 77 72
-4.6521101 -1.31857 19.461599 88 94 93
-4.90306 -1.24537 18.776199 61 68 60
-4.88832 -1.23702 18.841 67 74 68
-4.89575 -1.23944 18.874201 66 73 67
-4.7440901 -1.21842 18.841101 68 76 69
-4.7919402 -1.24391 19.1031 62 70 62
-4.6733198 -1.27598 19.397699 76 82 77
-4.6791801 -1.2503 19.3972 75 81 76
-4.698 -1.28431 19.376699 67 74 67
-4.6571002 -1.25634 19.438101 87 93 90
-4.66576 -1.20121 19.3778 78 84 80
-4.6554699 -1.23707 19.339399 79 85 81
-4.6918101 -1.20096 19.3598 69 76 70
-4.6495299 -1.22184 19.399099 87 92 89
-4.9256001 -1.09013 18.4578 33 41 27
-4.9047198 -1.08533 18.4704 37 46 31
-4.6510301 -1.16462 19.3514 78 84 79
-4.6767902 -1.1568 19.3543 68 74 69
-4.6635098 -1.1822 19.3167 71 77 72
-4.6789999 -1.16802 19.275101 68 74 68
-4.6515899 -1.19543 19.418501 86 92 89
-4.9018202 -1.05014 18.434999 37 45 30
-4.6865702 -1.1337399 19.3403 63 68 64
-4.6791101 -1.1024899 19.3095 67 73 68
-4.8788099 -0.93503499 18.309 35 43 28
-4.88309 -0.89764202 18.340401 33 41 26
-4.8743401 -0.87558699 18.299601 32 40 26
-4.8604398 -0.85790902 18.365499 36 44 29
-4.8647799 -0.88373202 18.410999 40 48 34
-4.8836198 -0.86966699 18.363899 33 41 26
-4.8522801 -0.87669802 18.4151 47 55 41
-4.85991 -0.82966799 18.391701 39 47 32
-4.8560801 -0.80349803 18.387199 38 45 31
-4.8438201 -0.84719503 18.4006 43 51 37
-4.8620701 -0.691562 18.4778 37 44 31
-4.8464699 -0.68247801 18.314699 34 42 28
-4.8375201 -0.66936803 18.3461 35 42 29
-4.8349299 -0.60932302 18.259501 38 45 32
-4.8446598 -0.63256502 18.3048 38 45 32
-4.8475499 -0.57816398 18.2101 30 37 25
-4.8422899 -0.58755398 18.2363 33 41 28
-4.8285999 -0.56309199 18.274401 35 42 30
-4.8246598 -0.58790201 18.280899 40 47 34
-4.8011498 -0.54573601 18.264099 46 52 41
-4.7948198 -0.47007501 18.257299 43 50 39
-4.7901902 -0.45012301 18.238701 42 49 38
-4.7772698 -0.45304701 18.252399 51 58 50
-4.6243701 -0.33065799 19.013599 54 60 56
-4.58921 -0.34145299 19.0117 65 73 73
-4.6111498 -0.36647999 19.0753 67 75 74
-4.6287899 -0.28833401 19.040199 51 58 54
-4.5728698 -0.299043 18.9718 76 84 86
-4.60115 -0.31623799 18.991301 61 68 65
-4.58076 -0.25660101 18.9571 73 81 83
-4.5889502 -0.224718 18.942301 66 73 71
-4.59799 -0.246714 18.9245 59 65 63
-4.54948 -0.17987099 18.889299 76 83 83
-4.6577101 -0.082796499 18.7931 62 69 68
-4.5823202 -0.109885 18.941 69 76 75
-4.58287 -0.108068 18.877001 66 73 71
-4.5633898 -0.118373 19.0839 84 93 92
-4.5780501 -0.114246 19.2024 85 93 91
-4.6715202 -0.030185301 18.756001 77 85 86
-4.6464801 -0.024738699 18.7652 62 70 69
-4.6700602 -0.059504502 18.7826 68 76 76
-4.4965301 -0.048858501 18.6665 74 83 80
-4.5196099 -0.046822101 19.2714 91 99 99
-4.6715102 0.0045914701 18.7271 75 84 85
-4.6494098 0.0098794196 18.7481 60 69 68
-4.5004702 -0.0092701297 18.7285 72 81 79
-4.48592 -0.026117001 18.815599 82 90 88
-4.4706202 0.0132481 18.8071 88 97 95
-4.6610799 0.066584699 18.5935 78 87 89
-4.6539898 0.0395093 18.6283 72 81 82
-4.6255999 0.039508499 18.618 65 74 74
-4.4866099 0.067854598 18.73 77 85 82
-4.5391002 0.030952699 18.8979 74 82 79
-4.487 0.062846899 18.7167 78 86 83
-4.4837198 0.053996999 18.630699 73 81 78
-4.4735098 0.062300101 18.575399 73 81 77
-4.5121698 0.051348999 18.8393 77 85 82
-4.5226598 0.035190899 18.8962 75 84 81
-4.4981699 0.0347948 18.8351 83 91 88
-4.4794302 0.055529501 18.842501 88 96 94
-4.4714398 0.0904558 18.6141 76 84 81
-4.4726901 0.108677 18.707001 83 92 90
-4.5072098 0.077212498 18.871799 81 89 87
-4.4742799 0.091036797 18.716101 82 90 88
-4.4850602 0.076402798 18.695499 77 85 82
-4.5044398 0.077144399 18.861799 81 89 87
-4.4890499 0.090255998 18.5889 70 77 74
-4.66363 0.13479 18.591999 80 89 91
-4.65273 0.15722001 18.5935 72 81 83
-4.6398101 0.13484199 18.601101 72 82 83
-4.5144701 0.148397 18.754499 71 79 77
-4.4865499 0.13123 18.705999 78 86 84
-4.5300002 0.20002399 18.8034 76 83 81
-4.4840899 0.170385 18.7139 82 90 90
-4.4938102 0.17549101 18.7295 80 88 88
-4.5232401 0.193657 18.7836 76 83 82
-4.4403501 0.202107 18.5543 86 93 94
-4.4293299 0.172143 18.5289 87 95 96
-4.4541001 0.24763399 18.381701 75 83 83
-4.5257602 0.30645901 18.638201 68 76 74
-4.4702001 0.27551699 18.4119 68 76 73
-4.4590201 0.27699399 18.48 76 84 83
-4.4741101 0.25916299 18.811701 88 97 99
-4.5184398 0.33049101 18.6085 67 76 74
-4.5109301 0.341748 18.644199 72 81 79
-4.4593902 0.33359101 18.562 75 85 85
-4.5054998 0.36789101 18.673201 70 79 78
-4.5160298 0.41600901 18.714001 67 76 75
-4.5710602 0.43629199 19.272699 83 92 94
-4.4961901 0.494277 18.740999 76 85 86
-4.4281998 0.46889099 18.560301 80 90 91
-4.4068499 0.52563298 18.4846 84 94 95
-4.4703002 0.57494301 18.544901 76 86 87
-4.43326 0.58597797 18.4993 85 95 97
-4.43718 0.54610503 18.5397 84 94 95
-4.3889799 0.56305897 18.4734 89 98 102
-4.4219198 0.55426902 18.5009 83 93 95
-4.4053402 0.59250998 18.497101 90 99 104
-4.3676801 0.64148498 18.496599 95 103 109
-4.9555101 1.21345 7.54392 86 87 87
-4.9465399 1.2258 7.5397801 109 109 104
-4.9222798 1.28715 7.5243602 110 112 112
-4.9355402 1.32233 7.52386 131 133 131
-5.4863501 -2.4261501 18.8148 55 60 55
-5.50213 -2.28881 18.680401 66 73 71
-5.50913 -2.32442 18.8221 57 63 61
-5.4991398 -2.19203 18.542999 72 78 78
-5.49684 -2.1540401 18.447901 86 93 93
-5.47329 -2.1535399 18.4559 75 81 81
-0.331808 -1.179 7.8403802 56 65 68
-4.69664 -1.54003 19.5098 84 90 89
-4.86482 -1.31915 18.9182 75 83 78
-4.8008699 -1.18843 19.0734 70 77 69
-4.7865901 -1.1540999 19.0518 67 74 65
-4.6487298 -1.14914 19.430201 83 89 85
-4.8659801 -0.91715401 18.431499 39 47 32
-4.8403902 -0.65075499 18.4119 41 48 34
-4.8098001 -0.66090798 18.441401 56 63 53
-4.8227701 -0.65153998 18.5471 64 72 65
-4.82937 -0.63466001 18.4573 49 56 44
-4.8357301 -0.62385499 18.5611 59 66 57
-4.8360901 -0.62389499 18.5623 59 66 57
-4.7873201 -0.52922201 18.2987 53 59 49
-4.7926698 -0.47492799 18.248301 43 50 38
-4.55721 -0.31342399 18.8274 63 71 69
-4.5543799 -0.27112901 18.8302 72 80 80
-4.5627599 -0.245583 18.8104 65 72 71
-4.5658498 -0.109695 18.9795 77 85 84
-4.5843501 -0.091602698 19.1716 85 94 93
-4.59726 -0.059877601 19.1905 80 88 86
-4.5665998 -0.054937299 19.2101 88 96 95
-4.51232 -0.050696801 19.2334 93 102 101
-4.4842501 -0.0312126 18.7533 81 89 87
-4.4663501 0.00536172 18.671301 83 91 89
-4.5303798 0.0310778 19.5 102 111 112
-4.5409799 0.056439798 19.498199 97 107 106
-4.5197301 0.056675401 19.515301 100 109 110
-4.6040602 0.067519903 18.569599 70 79 80
-4.5222101 0.083797403 19.487101 100 109 110
-4.5412102 0.0726308 19.511999 98 108 108
-4.6182199 0.101237 18.608101 70 79 79
-4.4421 0.122228 18.6831 90 99 98
-4.45994 0.147773 18.691 86 95 95
-4.4668798 0.188646 18.7265 88 97 98
-4.4964299 0.213718 18.7672 85 93 94
-4.4527202 0.208975 18.624701 88 95 97
-4.51827 0.234707 18.7791 80 87 88
-4.4958901 0.252249 18.768999 86 94 95
-4.5008602 0.252233 18.7915 86 94 95
-4.4835601 0.27253401 18.7946 88 97 99
-4.4566398 0.35749799 18.5303 79 88 88
-4.4565401 0.41633901 18.5196 78 87 87
-4.40734 0.48451799 18.4095 76 86 87
-4.3870201 0.49624401 18.445999 86 96 97
-4.4523101 0.544792 18.5172 77 87 87
-4.3715801 0.60166299 18.4664 94 104 109
-4.9784098 1.16514 7.5946798 163 163 161
-4.9907699 1.17484 7.5894098 95 95 94
-5.00349 1.18397 7.5845299 73 68 63
-4.9917598 1.19113 7.5867 76 76 74
-4.9885898 1.20008 7.6002898 147 147 145
-4.99404 1.2105 7.5927801 80 80 78
-4.9921398 1.2199301 7.6112099 149 150 146
-4.92203 1.20652 7.53299 136 135 135
-4.9980001 1.2296799 7.6003199 94 92 89
-4.9184599 1.22307 7.5184598 143 143 142
-4.9089999 1.21863 7.5247202 97 96 96
-4.9934802 1.24658 7.5928001 99 96 94
-4.9243999 1.2364399 7.5187101 140 140 133
-4.9949098 1.26094 7.5932598 85 82 80
-4.91117 1.23695 7.5188498 126 126 126
-4.9934301 1.27395 7.5906301 94 92 89
-4.9180198 1.25392 7.5218902 136 135 134
-4.9233198 1.26675 7.5163202 137 137 135
-4.91078 1.26746 7.5201602 100 99 98
-4.93929 1.27237 7.5068002 64 63 63
-4.9319701 1.28032 7.5155902 136 137 136
-4.91817 1.28075 7.5176101 133 133 132
-4.93396 1.28924 7.4993901 71 70 70
-4.9332299 1.30423 7.4988599 73 72 72
-4.9312401 1.31274 7.51473 145 145 143
-4.9795299 1.34393 7.5589399 73 72 71
-4.9169898 1.34323 7.5164499 128 128 127
-4.9728498 1.35717 7.56178 113 112 112
-4.9728098 1.36726 7.5508499 67 66 66
-4.9513898 1.36722 7.5418401 143 143 142
-5.47471 -2.40238 18.8272 51 56 51
-5.54704 -2.3296299 18.7033 65 74 72
-5.5906601 -2.30001 18.6537 86 94 94
-5.4899702 -2.28827 18.539301 65 73 71
-5.5461998 -2.2574601 18.6642 72 81 79
-5.5107098 -2.2012601 18.506001 79 87 87
-5.5011101 -2.20506 18.5182 71 79 79
-5.5040302 -2.2314701 18.570299 69 76 76
-5.51474 -2.1916101 18.525499 79 88 88
-5.4970798 -2.1824 18.464899 79 87 88
-5.49687 -2.1140201 18.444799 84 93 94
-5.5021901 -2.11744 18.4846 79 87 89
-4.93467 -2.20504 19.385 49 56 44
-4.9510598 -2.18874 19.353001 51 58 49
-0.36696899 -1.22814 7.9057102 48 54 52
-5.0651102 -1.93127 18.951 57 62 54
-5.02844 -1.88456 18.947001 48 55 41
-5.04108 -1.85166 18.934999 51 57 44
-5.47118 -1.69853 18.3897 67 77 75
-4.7012801 -1.59659 19.6052 80 85 81
-4.84272 -1.5394599 19.157801 68 76 67
-4.9096999 -1.50289 19.0536 75 82 77
-4.84588 -1.4965301 19.1583 73 80 74
-4.7901802 -1.51299 19.247801 58 65 52
-4.8337698 -1.4704 19.158199 68 76 68
-4.8193598 -1.46296 19.224501 58 65 53
-4.7987199 -1.45337 19.2549 53 61 45
-4.8189402 -1.4189399 19.184601 61 69 58
-4.7987199 -1.4159 19.184 53 61 46
-4.6866598 -1.43695 19.455 77 82 79
-4.6806402 -1.44655 19.4599 82 87 85
-4.7281899 -1.40977 19.387899 63 69 60
-4.71417 -1.41255 19.436701 64 70 64
-4.7448101 -1.38019 19.2731 54 62 47
-4.7293 -1.38221 19.3158 61 67 56
-4.7066002 -1.38244 19.3326 63 69 60
-4.68185 -1.40488 19.462299 79 84 82
-4.6475301 -1.4089 19.4965 94 100 99
-4.6450901 -1.40997 19.495199 94 100 100
-4.7041798 -1.3120199 19.1234 56 63 51
-4.6437201 -1.34126 19.509199 94 99 98
-4.6936598 -1.30084 19.1471 58 65 53
-4.71313 -1.31286 19.382601 64 70 62
-4.82516 -1.2632 19.064899 73 82 76
-4.7931399 -1.27195 19.1304 63 72 62
-4.6694498 -1.29969 19.450899 86 92 88
-4.6545 -1.28364 19.493401 93 99 98
-4.6465402 -1.29083 19.5746 94 100 101
-4.8712602 -1.2234499 18.893801 75 82 78
-4.8143001 -1.223 18.988899 73 81 75
-4.6906199 -1.25289 19.219101 70 77 68
-4.6682701 -1.26403 19.459101 87 92 89
-4.64888 -1.2663701 19.539101 97 103 103
-4.79953 -1.21708 19.1031 71 77 70
-4.6462498 -1.24547 19.5755 99 104 105
-4.8113699 -1.17468 19.063999 72 79 72
-4.64291 -1.2193201 19.570101 98 103 104
-4.6424298 -1.17398 19.461201 92 98 96
-4.6539898 -1.18838 19.561899 98 104 102
-4.6754899 -1.14281 19.214399 66 72 66
-4.6462402 -1.1180201 19.377001 87 93 90
-4.66535 -1.09663 19.175301 68 74 68
-4.6412301 -1.08727 19.3335 84 91 89
-4.88693 -1.0366 18.754601 61 69 62
-4.65874 -1.0700901 19.3039 76 83 80
-4.6403098 -1.06503 19.3985 87 96 95
-4.8854499 -0.99836701 18.7299 57 65 56
-4.64256 -1.04088 19.330601 89 97 97
-4.9246602 -0.981157 18.669001 41 49 34
-4.8528299 -0.96599501 18.5466 54 61 51
-4.87887 -0.943928 18.489901 37 45 30
-4.87431 -0.889983 18.305799 33 41 26
-4.8383899 -0.86671901 18.463699 44 52 38
-4.8306899 -0.83664101 18.454399 55 63 50
-4.8391299 -0.81873298 18.4021 44 51 36
-4.8537598 -0.78299701 18.338499 41 49 34
-4.8568301 -0.740291 18.3538 38 46 31
-4.81496 -0.60956502 18.291201 41 49 35
-4.8007302 -0.58789903 18.290701 46 53 40
-4.8193898 -0.52834499 18.2605 35 42 28
-4.8229299 -0.51090997 18.2024 29 37 23
-4.7990398 -0.511576 18.258499 41 48 35
-4.81739 -0.46905699 18.1672 28 36 23
-4.7978902 -0.49434599 18.1985 36 44 30
-4.79461 -0.47766101 18.2544 44 51 40
-4.62116 -0.39615601 19.3214 85 95 99
-4.5949502 -0.36679101 19.1038 83 93 95
-4.6045599 -0.31603199 19.187799 80 90 94
-4.58915 -0.212972 19.098101 83 91 93
-4.5714402 -0.113217 19.0651 86 94 93
-4.5286999 0.00161367 19.515499 98 107 109
-4.4793301 0.097876303 18.8451 92 100 98
-4.6148 0.187795 18.5058 73 83 83
-4.5650301 0.182111 18.8589 69 76 74
-4.5690498 0.21503299 18.9002 72 79 76
-4.5329599 0.357454 18.6752 68 77 74
-4.4880199 0.38650101 18.581699 73 83 82
-4.48171 0.416145 18.521099 72 81 80
-4.5922799 0.45895901 19.194901 80 90 91
-5.5208101 -2.36164 18.7721 62 68 66
-5.5005398 -2.34867 18.8631 55 62 58
-5.5461998 -2.2574601 18.6642 74 82 81
-5.5384498 -2.2618201 18.642599 70 78 77
-5.5410399 -2.1905999 18.5303 86 96 96
-5.5095501 -2.1003599 18.449699 90 99 101
-5.4756699 -2.0697 18.405199 74 83 84
-5.47402 -1.9991 18.448999 69 77 77
-5.0406299 -2.01754 19.066999 50 57 40
-4.8512201 -1.72665 19.303499 58 66 52
-4.8380499 -1.68818 19.2994 54 62 45
-5.7356901 -1.5592099 18.728001 78 87 82
-4.7231202 -1.64292 19.4011 57 63 55
-5.0280199 -1.5154099 18.812201 46 52 40
-4.69696 -1.56743 19.553699 99 104 104
-4.6805801 -1.54195 19.59 97 102 105
-4.9198198 -1.47991 19.039801 66 73 67
-4.6916599 -1.50846 19.482201 85 90 90
-4.8026199 -1.48228 19.2258 55 62 48
-4.7692499 -1.47707 19.373699 50 57 43
-4.7628398 -1.45725 19.4202 59 66 54
-4.6704702 -1.48008 19.5735 91 96 97
-4.9376502 -1.27703 18.8564 64 71 63
-4.8751998 -1.29633 18.904699 75 82 78
-4.7217202 -1.31599 19.309401 59 66 55
-4.7167301 -1.3009501 19.2078 56 64 51
-4.7143798 -1.30616 19.290899 60 67 56
-4.8235202 -1.19985 18.9744 76 83 78
-4.6750698 -1.22341 19.3554 76 81 76
-4.6464801 -1.23851 19.423599 93 98 96
-4.78161 -1.1772 19.1082 60 67 59
-4.6894898 -1.1661299 19.216 69 76 69
-4.9113898 -1.05319 18.387199 35 43 28
-4.6940699 -1.10261 19.132401 63 70 63
-4.6737299 -1.09666 19.309799 69 76 71
-4.62359 -1.10067 19.364201 88 95 94
-4.9479399 -1.02209 18.695101 38 46 30
-4.9154601 -1.01592 18.697901 42 49 36
-4.6660299 -1.04326 19.2017 69 76 71
-4.9068999 -0.95003402 18.3438 34 42 26
-4.6582398 -1.01721 19.194401 76 84 80
-4.6437702 -1.01495 19.2803 88 95 95
-4.8931999 -0.92904001 18.4354 36 44 28
-4.8397298 -0.89755303 18.433599 51 58 45
-4.8829899 -0.78336 18.346701 37 45 30
-4.8494201 -0.674927 18.5026 44 51 39
-4.6251202 -0.368256 19.2869 85 95 99
-4.6152401 -0.34228101 19.2798 84 94 98
-4.6127901 -0.31872001 19.3141 88 96 102
-4.59199 -0.190686 19.164801 89 97 98
-4.5819001 -0.153937 19.1278 84 92 91
-4.57057 0.219164 18.882799 70 77 75
-4.4840002 0.39280999 18.6427 80 89 90
-4.4221802 0.48777801 18.4839 76 86 87
-4.93262 1.31906 7.4971399 71 67 63
-5.5099101 -2.3364999 18.7257 62 69 67
-5.4977002 -2.2867801 18.5819 65 73 72
-5.5074201 -2.27264 18.6311 66 73 73
-5.4962301 -2.28685 18.663401 62 69 68
-5.5644302 -2.1804399 18.534599 87 96 97
-5.5108099 -2.19771 18.6124 71 79 79
-5.5605502 -2.1018 18.5284 94 104 107
-4.9801202 -2.14588 19.1327 60 67 60
-4.9719701 -2.1404099 19.269199 65 73 66
-4.9453502 -2.1331501 19.331699 54 61 51
-5.47402 -1.9991 18.448999 69 77 76
-4.9798498 -2.0915101 19.1562 63 70 60
-4.96139 -2.08935 19.2693 61 69 60
-5.0482202 -2.04055 19.0382 55 61 48
-4.96452 -2.07582 19.2342 60 68 59
-4.9499898 -2.0690601 19.290899 52 60 48
-4.9355302 -2.0889599 19.3165 52 59 48
-4.9359899 -2.08866 19.316799 52 59 48
-4.9749599 -2.04529 19.208799 58 66 54
-4.9320102 -2.0520899 19.317801 47 54 41
-4.9979801 -2.00598 19.213499 52 60 44
-4.9377999 -2.0285399 19.2612 55 63 50
-5.0382099 -1.98771 19.071301 45 52 35
-4.9391799 -1.99974 19.246799 57 64 51
-4.91395 -1.9885401 19.2614 54 61 47
-4.90483 -2.01617 19.380301 52 59 43
-4.9116902 -1.9989901 19.3748 52 60 45
-5.0194998 -1.89096 18.9881 46 53 36
-4.9748702 -1.90519 19.0809 56 64 49
-5.5326099 -1.81034 18.430799 80 89 92
-5.0233898 -1.86309 19.0047 45 51 36
-4.9833398 -1.89369 19.1432 60 67 52
-5.5289202 -1.76639 18.4291 91 101 104
-4.97651 -1.84181 19.122299 52 59 45
-4.9007702 -1.84996 19.2789 58 65 51
-4.8833399 -1.85326 19.344999 59 67 52
-5.0636401 -1.78659 18.807501 66 71 65
-4.9173002 -1.8193901 19.1756 60 67 54
-4.8980899 -1.82125 19.207899 59 67 53
-4.89289 -1.8325599 19.2833 59 67 52
-4.84552 -1.829 19.4084 59 66 53
-4.9798598 -1.78021 19.005199 51 58 44
-4.91397 -1.79977 19.2192 61 69 56
-4.8757601 -1.81002 19.2939 60 67 53
-5.0603399 -1.7302999 18.8484 63 68 62
-5.01438 -1.75286 18.9893 44 51 34
-4.9390001 -1.76061 19.1129 62 69 59
-4.8931699 -1.76214 19.212601 61 68 57
-4.8961802 -1.78347 19.320499 60 67 55
-4.8717899 -1.78949 19.3347 69 76 63
-4.8547602 -1.7728699 19.382099 63 71 58
-5.02039 -1.7259901 18.985201 51 57 43
-4.9071202 -1.73919 19.1506 68 76 65
-4.8875699 -1.7321399 19.183599 64 72 60
-4.8853202 -1.75187 19.2766 64 72 60
-4.8535399 -1.74357 19.3585 60 67 54
-4.8285799 -1.74384 19.3666 56 64 51
-5.0345602 -1.69247 18.9237 57 64 52
-4.9065399 -1.71179 19.091499 65 72 62
-4.8884802 -1.7036 19.164101 63 70 58
-4.8873701 -1.7251 19.290001 65 72 59
-5.6223202 -1.61291 18.398001 80 88 86
-5.0583401 -1.6525199 18.8461 61 66 60
-4.9019399 -1.68095 19.164801 63 70 58
-4.8721399 -1.68655 19.260599 60 68 52
-5.7340298 -1.57451 18.3326 86 95 95
-5.7007799 -1.58652 18.467899 78 86 84
-5.7152901 -1.61195 18.725599 76 84 81
-4.8889198 -1.65718 19.164801 60 68 55
-4.8681798 -1.66889 19.178801 58 66 51
-4.8515301 -1.67126 19.267401 59 66 50
-5.7527499 -1.58249 18.738701 69 77 74
-5.0478501 -1.61133 18.8083 61 67 60
-4.7617202 -1.6590199 19.4356 55 62 53
-5.6732101 -1.55336 18.7178 78 87 87
-4.9609499 -1.60466 19.014 39 47 35
-5.6921401 -1.53039 18.689501 85 94 93
-5.0239801 -1.5424 18.8001 47 53 43
-4.8945699 -1.55521 19.0776 72 80 73
-4.83183 -1.55621 19.224001 60 67 56
-4.80971 -1.55801 19.292 53 61 48
-5.0620399 -1.50147 18.8193 49 55 45
-4.7823801 -1.54579 19.316999 54 61 49
-4.7554698 -1.55562 19.392599 60 66 56
-4.7733202 -1.55032 19.373199 56 62 51
-5.0408602 -1.49095 18.843 48 54 42
-4.76793 -1.5274 19.3979 59 66 55
-5.0354199 -1.43625 18.7978 45 51 39
-4.9921999 -1.4328901 18.871599 51 58 47
-4.7856302 -1.47525 19.335699 48 56 40
-4.9436302 -1.41596 18.9561 64 71 64
-4.8257198 -1.44165 19.139099 66 74 65
-4.7818398 -1.43382 19.317699 45 53 36
-4.89956 -1.39735 18.9946 76 83 79
-4.7868299 -1.42116 19.271999 50 58 41
-4.9019299 -1.36376 18.870899 62 70 65
-4.9154 -1.37751 18.982599 79 86 82
-4.9052501 -1.32156 18.802 65 71 65
-4.88481 -1.34515 18.9452 82 89 86
-4.9517202 -1.31804 18.8183 65 71 64
-4.90868 -1.3024 18.8528 61 68 63
-4.8987098 -1.27364 18.802299 67 74 68
-4.8738699 -1.26683 18.872601 72 80 74
-4.8362899 -1.25599 18.920099 79 86 82
-4.8475399 -1.28087 18.975 77 85 81
-4.8412499 -1.26047 19.010599 77 84 80
-4.8129301 -1.28573 19.071199 69 77 70
-4.8583398 -1.24076 18.930401 79 87 82
-4.8488898 -1.2103 18.8981 80 87 83
-4.8396502 -1.22857 18.952999 77 84 80
-4.8702002 -1.1977201 18.8501 76 83 78
-4.8463702 -1.1986001 18.937799 80 87 83
-4.78651 -1.11562 19.069099 61 68 60
-4.7735801 -1.13704 19.094801 60 68 59
-4.6673398 -1.13828 19.3955 76 83 78
-4.9299102 -1.03317 18.6719 39 46 31
-4.9389601 -0.98532599 18.616301 39 48 32
-4.6637702 -1.04466 19.2801 72 79 75
-4.9411998 -0.97492403 18.5434 36 45 29
-4.8780499 -0.97751099 18.7323 56 64 55
-4.9082599 -0.95037299 18.4855 37 45 29
-4.8497701 -0.596205 18.5798 65 72 64
-4.56182 -0.094964802 19.4438 100 108 109
-4.6524901 -0.059714399 18.818199 67 75 73
-4.6727901 0.0123502 18.663601 85 94 97
-4.67133 0.101838 18.606199 86 95 99
-4.6098399 0.153035 18.961399 66 72 69
-4.6012802 0.215128 18.927999 73 79 77
-4.5602598 0.45846301 19.1682 88 97 99
-5.6255698 -2.3964601 18.724899 74 81 79
-0.30507699 -1.1859 7.7726698 24 29 26
-0.29387701 -1.17823 7.7357602 33 37 35
-0.28732601 -1.1635 7.7165599 47 50 48
-0.33192399 -1.15707 7.7655902 41 47 46
-0.318277 -1.15224 7.7346902 36 42 39
-0.30150101 -1.14407 7.74652 31 36 33
-0.285707 -1.14662 7.7040801 49 54 52
-0.289536 -1.13529 7.6926498 42 47 44
-0.28209901 -1.11893 7.68787 65 69 70
-0.27956301 -1.1189801 7.67977 68 73 72
-0.28222001 -1.10344 7.6785102 59 64 63
-0.27414 -1.1095099 7.67766 75 81 82
-5.5062099 -2.1558001 18.614401 71 79 79
-5.5062099 -2.1558001 18.614401 71 79 79
-4.9537802 -2.2253001 19.378099 53 60 51
-5.4478898 -2.02035 18.418301 69 77 76
-5.0623398 -2.0706899 19.135599 52 59 44
-5.0432301 -1.9947 18.9895 53 60 47
-4.99014 -1.99863 19.1984 52 60 45
-5.6768098 -1.5852799 18.745399 70 78 76
-5.03548 -1.59381 18.849899 60 66 57
-4.8611498 -1.64661 19.2785 58 65 49
-5.6672301 -1.53062 18.6961 82 92 92
-5.5187502 -1.4929399 18.298599 82 92 93
-4.6975002 -1.62324 19.499399 68 73 66
-4.8203201 -1.44633 19.1991 59 66 55
-4.8466201 -0.75614202 18.393101 46 53 39
-4.8454599 -0.59196001 18.469101 47 54 40
-4.77247 -0.490711 18.2577 60 67 57
-4.75352 -0.44406399 18.269199 69 76 70
-4.6482401 -0.41944799 19.3717 85 94 100
-4.5917602 -0.26961699 18.984699 75 83 83
-4.61093 -0.085244901 19.1703 78 87 86
-4.61868 -0.0596953 19.165701 75 83 80
-4.5037899 -0.023999499 19.2726 98 106 106
-4.6637702 0.162756 18.6255 75 84 87
-4.6282301 0.190594 18.626101 73 82 82
-4.4751101 0.488231 18.8174 83 93 94
-4.43612 0.51625001 18.4949 71 80 80
-5.6237702 -2.36098 18.727301 84 92 91
-5.60464 -2.18731 18.5805 98 106 110
-4.9678302 -2.2143199 19.282301 59 66 60
-5.57302 -2.08163 18.530199 94 105 108
-5.0018702 -2.13464 19.1175 47 53 42
-4.95081 -2.17717 19.443199 37 44 31
-5.5759802 -2.0559101 18.501301 104 113 118
-5.52771 -2.0480199 18.4641 93 103 106
-5.4875302 -2.0636799 18.5741 68 75 74
-4.9674401 -2.1259401 19.1541 69 76 70
-4.9498801 -2.0961599 19.2474 61 69 60
-5.0240102 -2.0756199 19.131001 53 60 44
-5.00598 -2.0613 19.1675 47 55 40
-5.02354 -2.0327499 19.1094 45 53 34
-5.0166702 -2.0558701 19.1639 45 53 36
-5.0409002 -1.94129 18.956499 51 58 44
-5.0397501 -1.96035 19.0471 42 49 31
-4.8969302 -1.97947 19.4014 51 58 42
-5.0183101 -1.92054 18.9883 46 53 36
-4.98423 -1.93646 19.1448 60 67 53
-4.8948302 -1.9674799 19.3888 51 58 42
-5.0566602 -1.88392 18.885799 60 66 58
-4.9011598 -1.94243 19.2913 56 63 48
-5.0722899 -1.8669699 18.855 64 69 62
-4.8887501 -1.8958499 19.393 51 59 43
-5.0655098 -1.8229001 18.8326 67 72 66
-5.01685 -1.83363 18.989401 51 57 43
-4.9725599 -1.83201 19.052 55 61 47
-4.9612298 -1.80916 19.058901 55 62 50
-4.8905702 -1.83455 19.2948 58 65 51
-4.8643098 -1.85411 19.4564 61 68 54
-4.89503 -1.80207 19.257 60 67 54
-4.8548398 -1.79838 19.382099 65 72 60
-4.8277602 -1.81155 19.419399 57 65 54
-5.08991 -1.72851 18.851999 64 69 63
-4.9921398 -1.72577 18.9904 55 62 47
-5.06566 -1.69257 18.8717 61 66 59
-4.9955101 -1.69989 18.9438 52 58 44
-5.67665 -1.62442 18.441299 91 98 97
-5.6375799 -1.61677 18.3633 90 97 97
-5.61273 -1.63051 18.476601 87 96 93
-5.6073899 -1.63015 18.437201 93 102 100
-4.7761998 -1.69523 19.6591 60 65 58
-5.0217199 -1.61344 18.878599 51 57 47
-4.95122 -1.62831 19.0362 44 51 41
-4.8898702 -1.62754 19.132999 63 70 58
-4.6836901 -1.67088 19.534 67 72 65
-5.7340298 -1.5515701 18.3682 75 83 84
-4.8706698 -1.6182801 19.204 63 70 56
-5.0072498 -1.56429 18.9244 49 56 44
-4.9474502 -1.56609 19.0151 67 75 65
-4.9879298 -1.4581701 18.878 53 60 48
-4.9674501 -1.47431 18.903 52 60 48
-4.97681 -1.44876 18.907801 55 62 52
-4.8334799 -0.65143198 18.5804 66 75 68
-4.5725999 -0.138513 18.981701 82 90 90
-4.5727601 -0.142332 19.188299 90 99 97
-4.6833901 -0.082105599 18.7946 83 91 92
-4.6941099 -0.060086802 18.787001 86 93 95
-4.55269 -0.0451505 19.5762 97 105 107
-4.4685502 0.45487601 18.622999 78 88 88
-5.4400001 -1.82285 18.163401 80 89 90
-5.4278302 -1.8384 18.192101 73 82 82
-5.70085 -1.53146 18.4583 80 87 81
-5.6835299 -1.5437599 18.4774 77 84 81
-5.0240898 -1.53597 18.868799 44 50 38
-4.7466998 -1.54624 19.428801 60 66 56
-4.7257299 -1.52993 19.4403 63 68 62
-4.80794 -1.38608 19.1434 63 70 57
-4.8295002 -1.34998 19.047001 74 82 76
-4.7994199 -1.34823 19.104401 62 70 58
-4.7325802 -1.3575701 19.176399 53 61 46
-4.8158498 -1.3316 19.0765 70 77 70
-4.75597 -1.3277299 19.2803 55 62 49
-4.7043099 -1.2241 19.3564 68 75 68
-4.71422 -1.2006 19.342501 69 75 68
-4.68994 -1.12034 19.2171 64 69 64
-4.8532 -0.94002402 18.521099 51 58 46
-4.8200598 -0.95022899 18.5336 62 69 62
-4.8612299 -0.89777398 18.354601 36 44 28
-4.8953099 -0.76483399 18.320101 32 40 25
-4.8687401 -0.72465801 18.320101 31 39 24
-4.83634 -0.64502102 18.260099 35 43 28
-4.8501902 -0.62670898 18.233299 34 41 27
-4.8259602 -0.44847399 18.2327 32 40 26
-4.6731701 -0.44557101 19.398199 87 97 100
-4.60918 -0.36860001 19.316099 86 95 101
-4.59901 -0.126111 18.8493 61 67 64
-4.6026001 -0.088473797 18.8668 63 70 67
-4.5893002 -0.070386 18.9037 67 74 71
-4.5808501 -0.0693703 19.2103 89 97 95
-4.5547099 -0.077893697 19.2185 90 98 96
-4.51894 -0.069411397 19.3134 96 103 104
-4.69837 -0.060346499 18.717699 78 85 85
-4.54562 -0.0549936 19.2335 94 101 100
-4.5798101 -0.032012999 19.207199 89 95 93
-4.5565 -0.032018099 19.2208 91 97 95
-4.6851802 0.134767 18.5753 85 95 98
-4.4772701 0.434174 18.646299 78 88 88
-4.92345 1.2955 7.5087099 136 136 136
0 0 0 1 0 0 0 1 0 0 0 1 0 0 0 0 0 843 1 0 0
