ply                 
format ascii 1.0    
element vertex 1338
property float x    
property float y    
property float z    
property uchar red  
property uchar green
property uchar blue 
end_header          
0.36094 -1.20665 6.23724 13 18 37 
1.48498 -1.32613 4.92983 15 22 40 
-2.04852 -0.914388 7.22739 31 47 70 
-2.03361 -0.909198 7.19262 20 37 63 
-1.97858 -0.979007 7.30097 54 92 131 
-1.93052 -1.34694 7.44582 73 97 167 
-2.04116 -1.35561 7.37098 75 117 159 
-2.02107 -1.35275 7.37064 77 116 157 
-2.03122 -1.35791 7.39501 75 117 157 
-2.03233 -1.00803 7.28864 199 217 255 
0.754279 -1.65459 6.35042 103 146 189 
-1.94693 -0.978084 7.31539 203 218 255 
1.77236 -0.117677 3.4725 14 18 29 
-1.93041 1.44435 7.03142 105 122 165 
1.8055 -0.288873 3.40564 10 11 16 
-1.97217 -1.02466 7.33656 200 213 255 
-1.99717 -1.02362 7.3142 193 219 254 
0.723168 0.201067 5.65246 16 18 41 
1.6884 -0.463062 3.67014 98 101 92 
1.55617 -0.223346 4.01428 22 29 37 
-2.30013 0.484318 6.41858 26 40 66 
0.701572 -0.368455 5.7973 33 46 88 
-2.33114 -0.687939 6.93893 76 95 138 
-2.51307 -0.86632 6.63367 166 181 238 
1.80174 -0.625998 3.33536 35 40 59 
-1.82689 0.525622 6.59293 28 41 73 
-1.44118 -0.702329 7.4511 47 48 78 
0.659091 1.21077 5.41702 10 11 15 
-2.25286 0.486981 6.42518 22 32 57 
0.622189 -0.102516 5.76531 22 35 70 
0.225928 0.956351 5.46922 33 40 50 
1.79758 -0.326511 3.44313 11 15 27 
-2.30043 0.42472 6.42954 31 47 80 
-1.91929 0.452217 6.56786 28 41 73 
0.698038 0.583793 5.57321 18 23 42 
0.698417 0.899475 5.50159 15 20 42 
-1.5786 -0.711478 7.40275 31 37 63 
0.171334 -0.84732 6.25277 105 128 162 
0.621459 0.544177 5.60832 21 26 56 
0.74187 -1.82495 6.39664 202 220 255 
-1.82693 0.709847 6.55089 44 58 95 
0.701541 -0.362951 5.79481 33 45 87 
-2.618 -0.400914 4.85828 44 66 103 
-1.88775 0.412839 6.66496 33 39 73 
-2.39327 0.476786 6.38237 24 34 61 
1.35192 0.726359 4.48443 31 38 66 
-1.35117 -0.697836 7.48522 33 38 70 
-1.9058 -0.308867 6.7586 59 74 113 
-1.39852 0.501124 6.75748 34 49 78 
-1.81205 -0.817205 6.80927 44 48 73 
-2.34891 0.473377 5.26851 42 41 49 
0.726594 -0.436154 5.8076 34 48 85 
-2.63717 -0.714845 4.9069 109 128 171 
-2.39509 0.419887 6.39832 30 45 76 
-1.85229 -0.301002 6.7768 117 134 177 
0.724682 -0.128712 5.73604 28 39 71 
1.76603 -0.11933 3.49581 68 86 126 
1.73093 -0.617916 3.51716 31 29 42 
-2.50591 -0.336752 4.83274 69 62 80 
0.699989 -0.0944512 5.73406 30 40 75 
-2.25107 0.427999 6.43278 30 46 72 
-2.4992 0.34163 4.66639 60 61 79 
-1.39432 -0.698094 7.46461 35 39 74 
-1.84954 0.729884 6.52828 111 125 164 
-1.30541 0.513348 6.79402 37 51 80 
-2.57456 -0.965316 6.42637 15 42 87 
-1.72467 0.0790306 6.7039 66 57 74 
0.172993 -0.914848 6.26827 100 114 151 
-1.99796 -1.00112 7.30818 199 223 255 
-2.38697 0.337035 6.43866 25 32 51 
-2.29713 0.353005 6.44161 20 31 53 
0.710776 0.567902 5.57353 89 105 139 
-2.44276 -0.0522423 6.12488 50 41 68 
1.36457 0.751466 4.42932 36 43 69 
0.153016 -0.866758 6.23415 34 51 81 
-1.30723 0.568355 6.78182 38 45 74 
0.71152 0.844853 5.51203 43 45 58 
-2.44396 0.0196916 6.45682 71 66 86 
-1.9195 0.699697 6.51304 38 53 84 
0.163274 -1.28398 7.16366 43 56 101 
-1.47837 0.787255 6.63279 46 38 53 
0.711714 0.84391 5.50859 43 45 58 
-1.71993 0.766848 6.53463 56 49 67 
-2.59622 -0.81009 6.99957 165 189 249 
-2.34961 0.349357 6.42462 25 33 52 
-1.85013 0.0391874 6.69184 128 142 187 
-2.56518 0.047242 4.74817 41 48 67 
1.75692 -0.632316 3.47202 21 19 20 
0.713487 -0.499643 5.81004 64 60 74 
-1.85236 0.380913 6.61332 97 115 153 
-2.28361 0.495775 6.44716 57 76 106 
-2.32313 -0.775913 7.13192 25 31 67 
-2.32911 -0.00170962 6.52505 118 131 175 
-1.62726 -0.71488 7.39214 30 38 77 
-1.95749 0.746813 6.45849 50 48 69 
-2.1926 0.725403 6.35482 51 46 66 
-1.80425 -0.310799 6.8211 56 69 101 
-1.78226 0.716305 6.56531 41 60 92 
-1.92163 0.387528 6.58886 24 32 53 
-1.95195 0.746405 6.46859 51 41 52 
1.5655 -0.39433 4.01542 98 116 156 
0.132876 -0.850105 6.24234 87 110 144 
-1.72834 -0.73511 7.32772 205 225 255 
1.69162 -0.475276 3.66734 32 30 31 
-1.42388 0.56496 6.72981 65 72 101 
1.75848 -0.629668 3.46544 24 20 17 
-1.78381 0.591737 6.59693 33 48 79 
-2.41419 -0.765046 6.65185 164 193 249 
-1.49138 -0.500881 6.84056 98 131 162 
1.76783 -0.482804 3.44947 24 19 25 
1.33877 -0.742444 4.82264 25 32 61 
-1.80086 0.535428 6.59558 57 73 106 
-1.78163 0.591304 6.59187 32 47 78 
0.701882 -0.469634 5.82151 36 43 85 
-1.89958 0.526319 6.55642 63 77 106 
1.71589 -0.598909 3.54961 83 83 71 
1.66938 -0.518817 3.70396 94 108 143 
-2.40986 -0.102655 5.88958 44 56 94 
0.713087 0.975248 5.48246 62 70 93 
0.632227 0.838115 5.54752 41 45 56 
-1.06079 -0.350466 6.83274 79 91 133 
-1.37876 -0.259197 6.95929 107 124 167 
-1.92037 0.579986 6.53975 29 42 76 
-2.39141 0.345399 6.409 24 35 57 
-1.37984 0.0795131 6.88532 111 128 171 
1.18897 0.848749 4.78306 15 19 30 
-1.87563 -0.233502 6.74609 66 86 137 
1.4033 0.604605 4.27767 48 51 82 
-1.37987 0.0796765 6.88538 111 128 171 
1.56789 -0.323301 3.99619 44 53 92 
-0.0203208 -1.40062 7.30371 43 47 74 
-1.85382 0.558801 6.57868 108 125 169 
1.71841 -0.42341 3.56287 86 87 81 
1.5842 -0.149676 4.03496 51 74 108 
-2.29825 0.545726 6.39691 41 59 95 
-2.27726 0.452387 6.43233 103 121 161 
-1.87604 -0.224792 6.74583 68 90 140 
-1.78271 0.400228 6.6349 27 35 58 
1.77287 -0.288876 3.50439 54 75 118 
1.37524 0.903587 4.3737 94 116 153 
-0.549295 0.550845 2.61646 53 62 33 
-2.28831 -0.789333 7.12751 185 207 255 
0.937412 -1.3585 6.03059 53 84 128 
-2.52097 -1.04524 6.45687 162 188 249 
1.77135 -0.211627 3.47682 48 49 77 
-1.82799 -0.229648 6.77344 66 86 136 
1.06351 -0.455816 5.52169 81 100 142 
0.744327 -1.8739 6.40642 203 221 255 
1.17144 1.05643 4.74817 76 90 119 
1.55218 0.14155 2.9621 83 84 68 
1.29769 0.550845 4.56647 40 51 79 
-1.77289 0.744099 6.54901 112 126 163 
1.4097 0.434338 4.28777 42 52 87 
1.80353 -0.188668 3.39918 16 11 34 
-1.98437 -0.448377 6.73157 8 11 16 
-1.83119 0.407282 6.62376 28 39 69 
-1.05793 -0.348918 6.82332 80 92 134 
1.16045 -0.72868 5.17364 64 70 102 
0.623131 0.152395 5.70095 32 44 82 
0.71055 0.483035 5.58098 53 51 64 
-1.92237 0.400124 6.5875 24 34 59 
1.39711 0.492203 4.32363 48 54 80 
-2.30574 -0.0233117 6.54392 65 88 132 
-2.37191 0.443866 6.3977 101 116 157 
0.109788 -1.32905 7.21711 175 205 255 
-1.78194 0.411232 6.62895 27 37 64 
-1.42349 0.525813 6.74881 95 113 149 
1.64205 -0.286837 3.77116 23 20 29 
-0.549107 0.550978 2.61614 53 59 31 
1.38946 0.966101 4.21906 35 27 40 
1.8032 -0.273927 3.41554 76 91 132 
1.1853 0.895623 4.77582 17 21 33 
1.52653 0.410245 3.95627 37 44 70 
1.74546 -0.611686 3.47441 66 56 44 
1.78868 -0.278081 3.46008 83 107 143 
-2.59197 -0.371681 4.85005 105 117 165 
1.08283 1.10701 5.14293 79 97 143 
0.174633 -0.867972 6.25532 109 129 164 
0.698089 0.536434 5.58193 32 43 73 
-2.54034 -0.734573 4.91708 44 26 38 
0.802867 -1.33486 5.94108 113 160 204 
-2.57387 -0.63197 4.91881 49 68 108 
0.208714 0.943121 5.47193 83 99 132 
-1.9012 0.448193 6.58149 87 100 134 
1.4022 0.730185 4.25385 47 51 78 
0.634439 -0.387844 5.82336 86 105 145 
-1.7819 0.029474 6.71594 67 89 136 
1.08846 1.15312 5.01176 44 33 47 
0.71187 -0.378101 5.78977 80 95 134 
1.2937 0.920906 4.50434 42 46 73 
1.70857 -0.569257 3.60861 20 19 27 
1.71785 -0.564568 3.59873 75 74 69 
-1.44418 0.618408 6.71505 32 45 77 
0.722386 -1.70617 6.3479 198 218 255 
-2.46049 -0.462555 6.3132 82 100 136 
0.0801408 1.3566 5.41783 7 11 20 
0.0355096 1.37 5.41251 80 84 111 
0.0172278 1.36361 5.42317 78 92 127 
1.65283 -0.564577 3.71677 88 103 136 
1.4015 0.669233 4.27523 47 52 84 
1.75382 -0.444199 3.49591 71 92 121 
-1.65665 0.351407 6.6637 97 88 109 
-1.7557 0.361158 6.62457 47 35 47 
-0.00322005 1.35057 5.41255 74 90 123 
0.0803398 1.35631 5.41667 7 11 20 
0.0393402 1.36527 5.39094 82 83 111 
-1.46194 1.16045 6.43589 86 98 136 
1.46895 -1.33097 4.95508 203 219 255 
-1.69779 -0.42486 6.85807 11 13 25 
-1.32641 0.574414 6.77577 71 84 116 
-0.228514 1.34359 5.32473 31 31 39 
1.08277 1.10631 5.14005 79 97 143 
1.58525 -0.345311 3.95003 56 57 85 
-1.7865 0.388055 6.64345 25 32 51 
0.158443 -0.858866 6.25386 34 48 85 
-1.92158 0.731994 6.49597 112 125 159 
1.80382 -0.274101 3.41797 76 94 134 
0.307445 -1.20407 7.04163 183 207 255 
1.56281 -0.294769 4.00788 49 56 84 
-1.30012 0.674106 6.76099 32 43 75 
1.20912 1.05155 4.72904 72 89 119 
-2.02587 0.322053 6.53697 100 91 108 
-1.40295 0.0623353 6.88343 62 84 134 
-0.00665728 1.34539 5.41896 76 90 125 
1.36013 0.223342 3.48561 32 18 18 
-1.78651 -0.216661 6.78658 67 89 138 
1.4857 -0.778587 4.32196 54 46 59 
1.76428 -0.635567 3.44284 81 76 99 
1.76243 -0.64633 3.48195 81 71 80 
1.67279 -0.285852 3.62014 22 17 14 
-2.40516 0.689723 6.32335 112 122 157 
0.706055 1.00583 5.48372 100 116 152 
-1.35128 0.627678 6.7563 44 57 91 
-2.30966 0.714439 4.96517 51 57 83 
0.803006 -1.3343 5.93673 112 156 201 
1.70858 -0.429803 3.59556 36 32 31 
0.723372 0.147781 5.66667 32 42 77 
-1.89613 0.69177 6.51059 73 87 122 
0.634736 0.184565 5.69055 83 94 124 
1.37399 0.521983 4.37783 94 114 151 
0.0579541 1.37804 5.3951 82 79 98 
-2.32596 -0.242998 6.57401 117 131 176 
-2.35655 0.648949 6.3221 58 80 117 
1.00123 0.781374 3.40735 41 27 40 
1.53475 -0.321464 4.08642 97 112 153 
0.152558 -0.905109 6.26049 32 46 73 
0.0599965 1.37567 5.38326 83 78 98 
0.647494 0.14735 5.69532 32 45 79 
0.63377 0.119929 5.70445 53 50 67 
1.79083 -0.331326 3.45647 75 84 117 
0.734711 0.213641 5.64979 89 103 132 
-1.78351 0.60138 6.59359 35 52 82 
0.055881 1.3808 5.40697 83 80 99 
1.20987 0.927307 4.76158 70 87 117 
1.73662 -0.608158 3.50613 18 18 18 
-2.38441 1.17286 4.52563 81 90 123 
1.72805 -0.637456 3.5151 93 110 153 
-1.40069 -0.183801 6.92606 63 83 133 
1.32066 -0.180675 4.67333 62 63 93 
-1.35338 0.0586776 6.90058 62 84 133 
0.157619 -0.903335 6.26914 34 49 80 
1.72618 -0.539559 3.544 80 87 106 
1.30565 0.307979 4.61812 66 62 76 
-1.30885 0.438885 6.81617 33 40 68 
0.785091 0.870347 5.44734 46 47 67 
-1.29396 0.0925617 6.90933 93 105 143 
0.710851 0.192737 5.66525 72 86 112 
-2.41067 0.374961 6.39609 97 113 147 
1.3875 0.459064 4.33419 42 47 76 
-2.41033 0.440943 6.38328 98 111 143 
1.21471 0.630115 4.80798 66 79 111 
1.72472 -0.550614 3.55819 42 39 60 
-2.32491 1.22033 4.51313 24 24 32 
0.723257 0.154908 5.66514 35 50 83 
-2.32306 1.21982 4.51069 23 22 28 
0.613284 0.162643 5.70257 86 99 131 
1.37744 0.455842 4.39129 70 83 125 
1.36802 -0.180304 4.54975 55 58 89 
-0.202238 1.33376 5.32165 82 96 131 
1.30561 0.308113 4.61764 71 69 83 
-1.42592 0.76238 6.66744 80 99 141 
-0.205374 1.33483 5.32171 82 96 131 
-0.200207 1.33343 5.3214 81 97 133 
-2.39945 0.357716 6.4194 25 37 63 
-1.4549 -0.293741 6.91048 49 38 55 
1.68299 -0.272193 3.61679 69 62 54 
1.17909 1.24748 4.68618 7 8 13 
1.2946 -0.358753 4.76767 39 34 54 
0.718665 -1.36273 5.98528 59 104 143 
1.3549 0.877866 4.37546 36 42 68 
1.35336 0.516673 4.42603 51 65 104 
1.37867 0.452477 4.38719 89 103 142 
-1.28916 0.71845 6.75851 103 116 150 
-1.32974 0.533648 6.7861 88 108 145 
1.57426 -0.371109 3.98547 84 103 136 
-1.32569 0.77466 6.72485 88 106 144 
-1.90531 0.725445 6.49279 87 105 145 
1.30184 0.303747 4.62352 45 37 52 
0.117675 -0.582439 5.8793 70 79 108 
-1.67433 0.36108 6.6663 87 85 109 
-1.29263 0.784683 6.73094 106 116 151 
0.675069 -0.44338 5.83113 96 88 109 
-1.44841 -0.28728 6.93047 58 60 85 
0.787493 0.996335 5.41915 42 45 64 
0.777219 1.34339 5.33517 29 28 42 
-0.0239867 -1.42815 7.31539 173 199 250 
0.628945 0.639233 5.57691 94 103 134 
1.67104 -1.05694 3.84275 67 83 119 
-0.0277049 -1.42955 7.32326 165 190 244 
1.74894 -0.38769 3.4696 43 48 70 
-1.25979 0.3941 6.83163 84 68 81 
0.62313 0.146077 5.70445 30 45 76 
1.64728 -0.187213 3.74613 81 85 86 
-1.87677 -0.320151 6.75638 60 69 100 
0.108636 -0.58788 5.86806 67 74 102 
1.76965 -0.761889 3.59312 53 72 115 
1.15615 1.2174 4.70304 88 74 87 
1.67093 -1.0565 3.8422 67 83 119 
0.796662 -1.29636 5.86938 9 25 41 
1.69397 -0.450944 3.64396 68 84 117 
-1.30945 0.429427 6.81983 32 38 62 
-1.47658 -0.474778 6.83808 14 19 25 
-1.77458 0.690963 6.5675 38 52 87 
0.712666 0.775495 5.48608 73 82 111 
1.54733 0.196549 2.98711 61 63 52 
1.74248 -0.403033 3.44997 16 15 20 
-1.3291 0.775475 6.73143 88 106 144 
1.2029 -0.59418 5.08914 78 94 128 
-1.89738 -0.205235 6.73192 115 132 176 
0.80545 -0.526987 5.78101 62 51 57 
1.30933 -0.184643 4.69326 91 110 143 
-2.40657 -0.00324049 6.47362 105 110 142 
1.38298 -0.390724 4.53696 54 59 91 
0.192355 -0.958921 6.28695 16 18 31 
0.939388 -1.3827 6.03406 43 82 125 
-2.38347 -0.0254167 6.47374 64 86 135 
-1.83854 -0.227662 6.77739 69 92 142 
1.5384 0.880324 3.84626 35 30 37 
1.22485 0.551413 4.81193 84 102 138 
1.68226 -0.271707 3.61324 69 62 54 
1.53761 0.880875 3.84745 35 29 39 
1.4026 0.978202 4.19246 39 45 71 
1.74911 -0.387651 3.47035 50 56 78 
-1.84642 0.000854687 6.69065 123 140 186 
1.79864 -0.180444 3.41671 103 120 164 
-0.239756 0.50093 5.50664 21 20 34 
-2.42376 1.14105 4.51895 76 89 124 
-1.80139 0.70054 6.55103 77 95 135 
1.58154 -0.411592 3.97514 46 55 88 
1.18921 1.09245 4.72185 15 19 30 
-1.87697 -0.282788 6.76547 57 76 119 
-2.36236 0.158744 6.45825 107 122 165 
-1.76897 0.0552238 6.69932 120 132 170 
1.54992 -0.31213 4.05581 88 103 134 
1.73614 -0.18295 3.56089 54 43 57 
0.883378 -1.36303 6.01631 49 90 134 
1.55347 0.214833 2.98582 77 64 74 
1.65642 -0.856402 3.85545 59 50 53 
1.7082 -0.433375 3.59516 40 31 32 
-1.82221 -0.316825 6.79239 59 65 99 
1.12899 0.492196 5.07128 55 56 76 
-1.35401 -0.125201 6.94526 64 85 130 
1.72584 -0.575059 3.58645 46 36 35 
-1.30088 0.45628 6.8126 33 46 78 
0.485484 1.3906 5.54497 39 37 58 
-1.30196 0.485261 6.81044 38 51 83 
1.34594 0.367299 4.48387 83 90 109 
-1.42966 0.713779 6.70483 40 50 86 
-2.26087 -0.265731 6.60839 59 81 128 
-2.25122 0.642457 6.39386 42 52 88 
1.57386 -0.998737 4.10284 63 79 113 
0.720614 1.00095 5.44931 95 111 147 
1.38324 0.550628 4.32962 53 49 66 
1.74289 -0.403318 3.45172 16 15 20 
1.11894 0.61008 5.06457 47 57 93 
1.21167 0.862868 4.74696 70 86 120 
-1.86182 -0.229818 6.73497 74 87 140 
1.17732 1.27149 4.67902 6 9 14 
1.78913 -0.180332 3.44093 75 88 130 
-1.40305 -0.139173 6.91991 67 88 135 
-0.230814 0.586027 5.49611 46 48 63 
-1.87084 -0.251338 6.75606 66 82 131 
1.57504 -0.358886 3.97686 46 57 87 
-0.234169 -0.272303 5.7368 45 41 55 
1.74198 -0.593433 3.51588 24 19 13 
-0.240272 0.667555 5.46802 13 12 20 
-1.99835 -1.08559 7.32778 183 210 253 
1.40357 0.452857 4.31879 77 92 131 
-1.8315 -0.281111 6.79053 57 77 127 
-1.50693 -0.469932 6.83348 72 60 70 
0.754859 -1.78468 6.38753 73 105 156 
0.870353 0.77426 5.49425 69 76 104 
-1.30462 0.449311 6.80466 33 47 76 
-1.43421 0.764098 6.68993 76 98 137 
-2.39814 -0.269033 6.56245 60 82 132 
0.501397 -0.472039 5.89492 75 71 70 
-1.2863 0.429153 6.83755 95 101 133 
1.7979 -0.237443 3.40009 71 80 113 
1.22483 1.06001 4.72075 67 82 113 
-1.37949 -0.161503 6.93976 109 126 170 
1.40926 0.37277 4.29875 38 48 84 
-2.63552 -0.59111 4.87782 115 135 185 
0.787284 1.12271 5.39193 47 50 69 
-2.45529 0.0151328 6.28001 13 22 51 
0.101775 -0.68965 5.80009 44 55 77 
-2.14735 -0.535866 6.58986 17 19 31 
0.71656 -1.3742 5.9848 61 103 143 
0.937718 0.575858 5.56533 34 38 63 
1.6368 -1.04045 3.94466 60 70 97 
-0.205678 0.762533 5.45037 89 100 132 
1.78916 -0.18039 3.44107 75 88 130 
1.78086 -0.495519 3.41373 32 31 45 
-1.8261 -0.417556 6.78995 24 29 58 
0.945161 1.21319 5.42631 67 81 108 
1.21585 -0.585444 5.05705 53 47 59 
0.644707 0.491192 5.61388 34 38 67 
-2.46846 -0.446411 6.39235 9 25 50 
1.40357 0.452904 4.31881 77 92 131 
0.858302 0.816034 5.48862 36 41 60 
-2.40632 -0.376207 6.55069 42 32 43 
-1.85099 -0.135959 6.73665 122 143 188 
0.0789283 -0.514216 5.8655 26 34 53 
1.57135 -0.406016 4.00514 58 69 101 
1.60713 1.91906 8.33134 45 33 47 
-1.28039 0.402092 6.82028 47 33 46 
0.534919 0.776456 5.55227 41 47 71 
0.776703 -1.38529 6.00457 65 110 152 
1.37288 0.23274 3.44545 63 57 45 
-1.99976 -1.37605 7.40133 180 201 254 
1.6493 -0.955222 3.89664 53 47 49 
-1.92205 0.0424995 6.65811 134 140 172 
-2.20283 -0.386154 6.62766 84 75 96 
1.77551 -0.396703 3.40245 31 25 27 
-1.44468 0.711999 6.66296 29 45 78 
0.801451 0.824199 5.45814 75 88 120 
0.601063 -1.34924 6.02809 63 106 148 
1.30465 -0.304933 4.74627 99 118 160 
0.933545 -0.449609 5.80672 32 31 36 
-2.3404 1.19144 4.51767 107 80 97 
0.688004 -0.479385 5.82854 101 110 143 
-1.92286 -0.288835 6.75668 51 72 115 
-1.80559 0.0460958 6.70872 105 116 162 
-1.85265 -0.177858 6.74797 125 143 189 
1.11516 -0.539406 5.33148 87 101 136 
-2.39456 -0.277437 6.55773 59 83 131 
1.65247 -0.358046 3.5974 73 70 79 
1.80276 -0.653157 3.34552 70 83 115 
0.621414 0.487685 5.62284 29 35 59 
0.92858 1.13304 5.43443 33 38 58 
1.52831 0.429611 3.96695 84 107 139 
1.30555 0.456351 4.76691 84 99 132 
1.14886 1.26382 4.70417 68 58 67 
-1.88555 -0.422352 6.77015 25 31 55 
1.54985 0.179571 2.99533 55 55 45 
1.15411 1.00666 4.76427 75 88 122 
0.567404 1.40747 5.38204 68 61 69 
-0.267443 0.538827 5.50721 27 22 26 
1.40944 -0.750931 4.54158 44 42 63 
-1.85096 -0.0802852 6.72153 124 142 188 
-1.89395 -0.164057 6.70683 94 115 158 
-0.677975 0.710504 2.61534 60 57 12 
0.873045 1.14271 5.40938 69 79 104 
-1.44716 0.0817721 6.84548 104 113 152 
1.39238 0.509248 4.3137 91 111 148 
-1.97896 -1.33784 7.41527 181 202 255 
0.561386 -0.594544 5.87053 109 128 170 
0.927997 0.880883 5.49799 42 45 62 
1.55917 -0.468526 4.03713 58 70 108 
1.42824 0.773943 4.15485 42 47 76 
-2.54835 -0.362366 4.83428 120 134 171 
1.37239 0.232653 3.4415 63 57 45 
-1.30077 0.767625 6.67444 78 97 139 
0.772884 0.0228606 5.67543 87 100 134 
1.73659 -0.638014 3.50049 87 103 137 
1.77536 -0.396368 3.40188 32 26 28 
1.0148 0.787142 5.33881 60 53 71 
1.3608 -0.332148 4.59333 83 97 134 
1.63774 -0.847485 3.90429 55 45 53 
1.69802 -0.5283 3.66785 69 83 109 
0.567428 1.40778 5.38132 68 61 69 
1.56092 -0.996881 4.14228 59 69 96 
0.780047 0.934742 5.42741 46 44 65 
1.75168 -0.576672 3.50483 60 72 98 
1.3314 -0.359347 4.67361 58 63 93 
1.78014 -0.536121 3.42334 26 31 51 
1.22079 0.483626 4.83147 85 104 144 
-1.24544 0.750398 6.51652 89 102 137 
-1.4423 -0.187741 6.90899 62 84 131 
1.11523 -0.539128 5.33481 87 103 137 
-1.31469 0.0613772 6.92188 62 85 129 
1.57496 -0.435957 4.00597 102 125 166 
-2.04348 0.331539 6.52423 77 89 127 
-0.241326 0.642842 5.47657 19 19 29 
-2.19895 0.301162 6.45686 92 83 104 
0.0872345 1.20994 5.45886 18 22 33 
0.0982187 -0.917699 6.22929 69 78 107 
0.0663877 -0.600854 5.87098 60 71 93 
1.73796 -0.360738 3.52048 61 60 76 
0.546766 1.39135 5.38811 42 35 43 
0.579865 0.0900374 5.71113 69 60 77 
-2.26413 1.23724 4.5582 27 28 32 
0.0425725 -0.592559 5.88925 72 81 112 
1.21328 0.422178 4.85938 79 95 131 
-0.241867 1.1732 5.35279 19 19 27 
-2.41728 0.405795 6.30943 83 83 107 
-2.45734 -0.437352 6.42755 54 61 80 
-0.243493 1.34091 5.30529 15 16 20 
1.55657 -0.305177 4.02229 91 109 145 
-1.48256 -0.322933 6.90702 75 69 95 
-1.85619 -0.421656 6.77737 29 31 56 
1.79861 -0.347001 3.35199 51 47 48 
-1.72803 0.33985 6.64069 91 83 104 
0.557448 -0.599882 5.86955 112 130 170 
-1.30135 0.424491 6.81906 30 36 58 
1.5518 -0.996215 4.16695 23 22 36 
0.788792 1.33909 5.323 46 47 65 
1.2857 0.521961 4.5991 79 91 131 
-1.42724 0.691385 6.71483 54 67 101 
1.29569 1.04321 4.46973 43 49 75 
-2.43171 0.280032 6.37771 80 77 104 
1.75793 -0.397334 3.44364 33 37 46 
-1.30931 -0.175471 6.961 65 86 133 
0.712903 0.214962 5.66042 83 97 126 
0.0774179 0.305768 5.6697 30 38 59 
1.38128 0.0895553 3.47099 78 85 114 
0.01372 -1.36795 7.25528 43 49 81 
1.76477 -0.466833 3.43716 82 84 71 
0.646266 1.08569 5.43684 75 87 113 
-2.36516 -0.358452 6.55578 57 70 104 
0.591146 -0.606271 5.91889 112 125 169 
-1.99248 -0.435096 6.72891 18 16 29 
0.480559 0.861414 5.6752 51 57 83 
-2.41615 0.334368 6.40159 89 94 123 
0.0240385 -0.581222 5.87888 78 84 116 
-0.241397 1.03495 5.3828 17 15 26 
0.620078 0.480745 5.6204 39 42 61 
1.03279 0.553641 5.31342 81 99 137 
0.534442 0.896344 5.52946 50 57 86 
-1.79875 -0.137818 6.75175 79 102 144 
1.75882 -0.397626 3.4474 31 38 48 
1.24686 -0.669614 4.97368 72 69 64 
0.744089 -0.519031 5.78464 76 69 85 
1.3525 -0.231121 4.59817 86 105 137 
0.633189 0.536557 5.60951 78 93 126 
1.24675 -0.668888 4.97196 72 69 64 
-1.42288 -0.165032 6.90431 103 122 164 
0.555528 0.676184 5.58573 84 95 127 
-0.227307 1.30848 5.33707 19 25 39 
-2.43277 -0.407789 6.5385 53 49 66 
-2.49848 -0.0972699 4.77559 80 93 135 
1.10623 1.16351 4.98481 46 51 81 
1.43323 0.467679 4.20248 47 53 77 
-2.42931 0.0687927 6.33769 101 115 160 
1.63672 -0.952768 3.93319 50 42 40 
-1.31047 -0.131601 6.95411 63 86 130 
1.24605 -0.455742 4.93531 56 60 89 
1.7694 -0.367108 3.44561 68 58 67 
-2.37761 0.691841 6.3566 109 122 164 
1.57169 0.809373 3.52304 75 63 73 
0.739245 0.771832 5.48519 71 78 104 
-1.91299 -0.425437 6.76454 23 29 55 
1.54138 -0.441653 4.09511 89 103 140 
-0.240828 0.529157 5.50201 24 23 37 
1.63789 -0.847434 3.90514 54 47 55 
1.31868 0.34829 4.56779 53 59 93 
0.802601 0.859233 5.44895 68 79 109 
1.77259 -0.53997 3.42959 63 75 97 
-0.231468 -0.00445068 5.65314 36 33 44 
-1.26225 -0.286934 6.98996 70 57 66 
-1.87168 -0.406664 6.77255 115 132 176 
1.76881 -0.556574 3.43215 92 92 84 
0.942299 0.874238 5.49265 65 76 104 
0.802307 -1.28663 5.85818 19 22 31 
0.76782 -1.62616 6.30621 77 113 161 
1.23759 0.376797 4.79768 57 63 89 
1.06606 1.2741 5.07911 62 73 101 
0.660374 1.09761 5.43532 42 46 73 
1.29314 -0.314573 4.75758 74 90 126 
0.517299 0.715048 5.65552 86 102 138 
-1.95733 0.32253 6.56509 86 86 112 
0.858922 0.76406 5.50113 31 36 56 
-1.76902 -0.379261 6.79202 117 133 182 
0.130902 -0.686665 5.81216 41 54 73 
1.76917 -0.549762 3.43809 59 54 58 
1.39853 0.559082 4.30012 87 103 139 
0.766375 0.769077 5.46609 71 82 110 
-0.239931 0.613315 5.48176 20 19 27 
1.02597 1.19717 5.2183 51 31 40 
1.79534 -0.231436 3.4275 68 81 115 
-1.91025 0.672418 6.46891 32 46 83 
-0.242855 0.753757 5.45314 12 12 20 
1.10699 0.635323 5.11822 78 92 129 
-2.35128 1.19199 4.52059 105 77 92 
0.0518213 -0.595687 5.88916 65 74 105 
-0.240106 0.87338 5.41676 23 22 28 
-2.03688 0.284583 6.52932 108 125 169 
-1.98417 1.04623 6.79118 20 18 31 
-1.82071 -0.42648 6.81164 22 30 49 
-0.252928 -0.0292893 5.65878 59 49 60 
0.743293 0.168497 5.64927 93 93 117 
0.787347 0.93466 5.43082 44 46 67 
0.961499 -1.29806 5.97132 13 30 56 
1.33603 1.12105 4.35604 43 45 66 
-2.11611 -0.519515 6.61624 65 52 59 
1.43332 -0.758044 4.4781 62 60 63 
1.52003 0.70002 2.89802 14 14 12 
-1.77384 -0.413428 6.8069 23 29 53 
-1.30459 -0.135117 6.95788 64 81 124 
1.42925 -0.851707 4.50334 47 55 91 
1.21474 0.901287 4.78547 60 74 101 
-1.96253 -0.414546 6.80967 115 130 173 
1.68512 -0.54191 3.678 16 13 22 
1.13194 0.53759 5.07001 85 103 139 
0.101448 -0.534497 5.88442 85 100 131 
-1.42251 0.646405 6.7 75 88 130 
0.930675 1.21967 5.41951 37 42 64 
-1.63737 0.339052 6.67236 83 87 122 
0.659401 -1.38903 6.01574 59 102 137 
0.633861 0.56005 5.60144 88 103 132 
1.7004 -0.445469 3.64947 74 90 126 
1.76567 -0.505991 3.4471 61 69 90 
0.789647 1.20938 5.3747 40 42 65 
0.726802 0.790842 5.47827 51 53 78 
-0.662194 0.587106 2.72642 57 72 41 
1.63459 -0.880217 3.93338 43 49 75 
-8.70005 4.78738 24.5068 67 85 121 
-0.240989 1.06027 5.37768 20 19 27 
0.766366 0.718766 5.47756 81 91 126 
-2.29711 -0.357615 6.61423 61 66 96 
1.43492 -0.804414 4.48339 83 82 78 
1.54754 -0.989787 4.18152 60 65 85 
1.3612 0.484994 4.41591 87 103 139 
1.36518 0.794574 3.29482 81 75 77 
1.78108 -0.417224 3.32771 32 20 20 
1.56233 -0.357925 4.02068 79 97 137 
1.14638 1.20629 4.72688 53 50 71 
1.66473 -0.29091 3.63535 77 77 79 
1.55193 -0.273653 4.04687 91 89 110 
-0.202393 0.728673 5.4587 82 97 128 
0.78784 1.212 5.37336 46 48 71 
0.737548 0.749399 5.4793 61 63 84 
1.54601 0.675748 2.87623 90 91 83 
1.21445 0.899082 4.77886 64 80 106 
1.34209 -0.150046 4.62356 71 75 100 
1.58348 -0.293254 3.9367 64 60 75 
0.788371 0.83335 5.45892 45 51 75 
1.38998 0.999373 4.23321 75 92 120 
1.34269 0.558039 4.45551 55 62 91 
1.73932 -0.201667 3.56701 64 57 73 
1.76146 -0.587787 3.48871 38 36 41 
0.788433 0.812495 5.466 44 46 69 
1.52419 0.144464 3.0147 19 17 20 
1.24949 0.38171 4.73362 67 67 91 
-1.97038 -1.31774 7.42108 183 205 255 
1.33781 1.03195 4.37164 77 90 125 
0.470899 -0.41921 5.98708 56 60 85 
1.60369 -0.526422 3.92396 63 74 106 
1.38311 -0.336448 4.53809 78 94 130 
-1.72661 0.340139 6.63725 93 88 111 
1.07616 0.654642 5.19481 49 64 95 
-2.4084 -0.249357 6.54021 101 113 151 
1.73414 -0.557523 3.54885 39 41 54 
1.55643 -0.98127 4.15246 61 72 102 
0.737891 0.751124 5.48371 51 53 74 
1.36512 0.794122 3.29416 77 73 72 
1.43174 1.12327 4.70016 50 55 85 
0.623116 0.126332 5.70434 51 55 80 
-2.49344 -0.969407 6.43202 47 59 75 
1.38323 0.0781045 3.48322 59 41 55 
1.52383 0.144176 3.01281 19 17 20 
-1.29398 -0.153909 6.96166 92 107 148 
-2.05782 0.295986 5.83828 60 65 85 
-0.270505 0.0347456 5.64405 76 70 82 
0.232551 1.43988 5.43474 28 29 31 
1.30131 0.330381 4.60643 95 111 147 
1.67743 -0.951651 3.81755 62 53 58 
1.54168 0.133253 2.96636 24 25 17 
1.28248 0.521388 4.59884 79 91 131 
0.870895 0.807188 5.48604 71 78 104 
-2.40689 -0.249713 6.53753 101 113 151 
1.75442 -0.595297 3.47334 54 52 40 
-0.666544 0.66108 5.93388 25 20 24 
0.964104 -0.511332 5.73258 61 52 53 
-1.33746 -0.116031 6.94327 68 89 132 
1.11043 -0.585463 5.3482 82 97 128 
0.714328 1.05273 5.41961 69 75 107 
1.75381 -0.616859 3.47074 42 37 34 
0.993583 0.0484253 5.56277 95 111 147 
1.41202 -0.678922 4.52271 49 60 92 
-0.25278 0.838581 5.44106 15 15 17 
1.72911 -1.09866 3.69372 30 33 50 
0.14094 -1.00739 6.25797 35 44 61 
1.76364 -1.07484 3.60538 63 81 117 
0.880902 1.19155 5.39578 36 37 55 
0.826124 -0.411907 5.76777 69 63 67 
-0.263912 0.57335 5.50183 21 20 26 
1.3445 0.982016 4.4478 96 103 132 
-0.235733 1.35924 5.28088 56 52 67 
1.51748 -0.135769 4.1025 97 114 157 
-0.326379 -0.105037 5.64237 79 69 80 
1.54308 -0.275429 4.06088 86 97 127 
1.35382 -0.866396 4.71927 63 76 110 
1.49062 -0.210542 4.15387 86 102 138 
-2.39487 -0.200769 6.53427 61 82 129 
-1.7203 -0.406264 6.82524 17 23 47 
0.930112 0.967319 5.47541 39 43 68 
0.796352 -0.727917 5.83598 110 125 166 
0.860605 1.27764 5.38343 43 44 65 
1.55974 0.822891 3.5253 71 74 89 
0.81899 -0.387151 5.75619 83 96 131 
-2.45694 -0.378331 6.36386 14 20 42 
0.448139 1.43704 5.53685 34 32 37 
0.73011 1.06455 5.40978 45 49 74 
1.58332 -0.316952 3.94528 91 105 144 
1.47081 -0.75353 4.36935 86 85 91 
0.732158 1.06061 5.40985 48 50 75 
0.93062 0.843298 5.5074 40 46 72 
-2.48096 0.987894 4.53508 87 102 143 
-0.240019 0.891813 5.40328 14 14 22 
0.802087 0.988296 5.41821 67 77 104 
-0.267387 1.21819 5.34234 23 22 30 
-1.37861 -0.0962208 6.91851 109 127 173 
0.762248 1.37327 5.32743 57 44 53 
0.44908 1.43325 5.52832 34 27 35 
1.54208 0.0875132 2.94831 71 54 60 
0.764535 1.31951 5.37499 75 64 72 
-0.241613 1.00502 5.39161 20 18 29 
1.55208 -0.272658 4.04818 77 73 90 
0.549346 0.80263 5.5433 88 84 107 
1.58203 -0.29777 3.96065 86 100 129 
1.75289 -0.608537 3.46563 33 25 22 
1.37556 1.00156 4.2457 81 95 132 
0.0339894 0.276902 5.67257 103 117 154 
-2.36599 -0.18687 6.53211 66 90 134 
-1.3128 -0.120738 6.95085 64 87 131 
1.33479 1.04824 4.37661 54 59 89 
1.47158 -0.897721 4.40248 81 96 135 
0.752557 1.40208 5.32314 58 50 61 
0.789925 1.18924 5.37902 34 39 59 
1.20897 0.594992 4.82777 60 74 101 
0.599115 -1.38119 6.03873 59 102 144 
1.12703 0.712147 5.0348 55 59 86 
0.846275 1.14659 5.42268 66 76 103 
-2.00033 0.394131 6.53202 105 119 164 
0.109748 1.38467 5.42154 74 70 84 
0.083472 -0.698025 5.80473 10 14 23 
1.24073 0.0471561 4.84625 53 59 85 
1.34942 -0.871839 4.72094 60 66 90 
1.68068 -0.248884 3.61348 82 76 88 
1.26591 0.449578 4.68149 96 114 154 
-1.98084 0.109925 6.55628 112 129 173 
1.57737 -0.444663 3.99812 92 107 150 
1.01282 0.70504 5.35822 71 86 117 
0.696036 0.724649 5.50665 78 89 121 
-0.274449 -0.0335842 5.65089 67 56 70 
1.55233 -0.0971154 4.04883 69 60 77 
-0.0933183 0.0367438 5.62873 109 122 164 
1.55447 0.192961 2.96882 52 52 40 
-1.29494 -0.154261 6.96455 92 107 148 
0.74617 1.37177 5.33402 70 58 68 
1.03934 -0.0517648 5.4661 56 56 82 
1.67891 -0.523982 3.68335 53 52 70 
0.475094 -0.353871 5.97502 46 53 82 
0.879192 0.816601 5.48002 38 40 63 
0.858541 0.900452 5.46781 41 47 71 
1.25363 0.781735 4.65255 57 65 101 
-0.36394 0.399623 2.5874 42 82 84 
1.39608 0.652818 4.28703 87 103 136 
0.972119 -0.502696 5.70661 62 56 56 
0.772775 1.35972 5.27746 62 45 51 
1.43982 0.0628773 3.23189 60 44 57 
0.765293 1.27386 5.36169 76 65 79 
0.781488 1.07727 5.40441 73 82 111 
-0.116375 0.323774 5.60093 101 117 151 
0.986794 0.700329 5.40186 80 94 131 
-2.43491 -0.000215281 6.46193 107 101 115 
-1.45766 0.0260736 6.84672 77 91 128 
0.841439 -0.601877 5.815 58 62 89 
0.52796 1.378 5.39727 82 76 90 
1.13161 -0.588584 5.28527 90 85 81 
0.531304 1.37722 5.39923 85 78 94 
1.76545 -1.08251 3.59494 47 58 90 
-0.666686 0.634498 5.94127 33 28 35 
1.64857 -0.994549 3.90978 67 77 113 
-2.41281 0.408946 6.28152 68 79 111 
1.68031 -0.250691 3.61361 81 75 85 
-1.33174 -0.156942 6.95378 99 114 155 
0.560424 0.78729 5.53665 88 85 104 
1.30958 1.12236 4.3744 42 42 66 
0.477706 0.785109 5.711 55 62 91 
0.931309 -0.626718 5.84019 30 19 25 
1.74061 -0.258052 3.56123 44 34 43 
1.68569 -0.44734 3.6695 62 79 105 
-1.64608 0.320289 6.6772 103 120 163 
1.14047 1.26214 4.70336 64 57 65 
-0.202228 0.728696 5.45793 82 97 128 
0.704555 -0.490039 5.82278 44 54 81 
0.964072 -0.511783 5.74107 61 53 51 
1.55212 -0.97763 4.16502 37 46 75 
0.660636 0.496892 5.60702 85 90 120 
0.931296 -0.626461 5.84069 30 19 25 
0.870869 -0.385299 5.72625 42 48 64 
1.20067 0.923289 3.38662 59 50 55 
1.19528 1.11686 4.70069 16 21 40 
-2.46796 -0.161281 6.11466 112 127 160 
-1.27953 -0.281482 6.96068 51 35 45 
0.702158 -1.37763 5.99259 85 134 175 
1.78039 -0.60191 3.40214 40 29 27 
-1.80033 -0.373133 6.79401 118 139 182 
-2.50634 0.744797 4.57546 62 39 47 
1.54977 -0.487835 4.07047 87 101 138 
1.55411 0.0470357 2.97188 53 36 42 
0.502669 -0.301259 5.89696 66 71 100 
0.94497 1.24758 5.41134 61 68 94 
0.530878 1.28382 5.43802 74 88 117 
1.37175 0.725271 4.40993 102 120 158 
1.51936 0.386355 3.98636 76 87 119 
-0.200395 -0.438575 5.75304 109 125 159 
-0.318215 0.611172 5.46524 32 22 30 
0.810884 0.998997 5.41564 43 43 67 
1.64373 -0.940426 3.9102 84 80 77 
0.779688 1.1517 5.38199 64 64 88 
-1.95507 -0.412865 6.7928 115 132 176 
1.26236 0.441331 4.70421 71 65 75 
1.22175 -0.69515 5.09573 58 48 47 
1.31025 1.12436 4.38281 44 44 68 
-1.31302 -0.182942 6.96449 64 85 132 
0.789541 1.18782 5.37598 37 40 59 
0.5267 1.3683 5.4443 45 46 66 
-2.29354 -0.402112 6.52711 68 73 102 
0.806227 -0.629027 5.81509 64 60 87 
0.809685 0.872047 5.43921 44 46 71 
0.474628 -0.414977 5.99247 55 60 82 
-2.36576 -0.282263 6.56272 65 88 132 
1.38126 0.785207 3.30082 46 48 43 
0.84322 1.01716 5.42927 67 73 105 
1.52972 -0.443982 4.1419 86 101 142 
1.68186 -0.480728 3.67057 80 82 81 
1.36147 -0.302012 4.59866 101 120 160 
1.13674 -0.657176 5.30342 81 91 126 
-2.40091 -0.368335 6.58513 56 56 80 
0.187305 -0.849017 6.25024 24 30 56 
0.371961 1.43293 5.49848 31 24 31 
0.817541 0.573145 5.5351 76 91 124 
0.841867 -0.601361 5.79877 55 59 84 
-1.95089 -0.413462 6.73949 108 123 166 
0.920512 0.83418 5.51056 69 81 107 
1.33683 0.298316 4.5207 53 60 89 
0.773182 1.16335 5.37655 68 65 86 
0.927553 -1.39894 6.04568 87 136 177 
1.70868 -0.304474 3.60556 50 53 62 
-1.40822 -0.282964 6.95531 58 64 90 
-1.91302 -0.400059 6.7613 118 135 181 
0.918423 -0.417827 5.79535 49 41 38 
-2.51099 0.319858 4.67872 95 91 106 
1.4846 -0.368925 4.24029 68 69 100 
0.749177 1.00247 5.43237 82 77 99 
0.843089 0.776224 5.50149 59 65 89 
1.63355 -1.00328 3.94734 33 44 74 
-2.27112 1.20193 4.57622 114 96 118 
0.060504 -0.972994 6.19463 18 20 32 
-2.09038 -0.507773 6.67072 19 23 35 
-0.590945 0.826508 5.77811 38 19 25 
0.487992 0.935908 5.65278 80 97 127 
0.780942 1.20085 5.38132 70 77 103 
1.78382 -0.544415 3.42122 51 76 130 
0.779436 1.1528 5.38937 64 66 89 
-2.49628 0.32293 4.6653 99 94 114 
0.10176 -0.71066 5.80315 40 52 74 
1.04219 -0.149035 5.44716 69 83 122 
-1.79775 0.646853 6.56238 52 74 115 
-2.27116 1.20176 4.5763 114 96 118 
0.881852 0.388291 5.59784 44 49 69 
0.737454 1.07762 5.40456 73 80 109 
-2.41277 -0.314175 6.55758 90 108 146 
-0.308197 0.960806 5.37988 26 19 26 
-2.37338 0.71466 6.30586 59 49 58 
1.39004 0.476663 4.33091 68 82 117 
-0.289996 0.537882 5.49997 25 20 27 
-1.938 0.113005 6.53179 112 129 175 
0.751704 0.54353 5.54383 91 88 107 
-1.97795 0.446311 6.48535 104 121 165 
1.7316 -0.487937 3.54293 64 71 90 
0.116099 0.570671 5.60056 90 104 139 
0.935096 0.949941 5.48431 38 44 66 
1.72925 -1.09869 3.69438 30 33 50 
-0.26558 0.466641 5.52077 30 29 35 
1.42692 -0.305694 4.40015 76 81 113 
-0.323762 0.920566 5.38048 35 28 35 
1.56187 0.830293 3.46196 66 63 58 
1.67819 -0.884065 3.81046 84 91 109 
-1.29281 -0.233157 6.966 66 75 116 
-1.47443 -0.437019 6.86223 53 44 47 
0.775771 1.20168 5.37747 71 72 93 
0.812011 0.627826 5.50972 66 64 85 
-1.96555 -1.33019 7.43087 184 204 255 
0.0784919 -0.702928 5.83621 12 17 23 
1.77329 -0.521392 3.4175 45 66 83 
-0.286729 0.0200665 5.64086 53 40 50 
-0.267955 0.46456 5.52186 36 33 40 
0.550938 0.781025 5.55132 86 85 103 
1.36084 -0.303099 4.58422 100 117 160 
0.690875 -0.0318403 5.72421 97 108 140 
1.03145 -0.0211628 5.46368 66 67 97 
-2.5372 0.339157 4.66706 62 55 63 
0.129935 0.83668 5.53616 84 102 138 
1.54285 0.209607 2.99537 17 11 11 
1.24923 -0.256233 4.88349 71 66 96 
0.186464 0.868909 5.51159 83 99 133 
1.21163 -0.632558 5.08678 46 51 71 
-1.38365 -0.223669 6.94902 107 122 163 
1.06261 -0.684284 5.51385 65 75 110 
1.02844 0.0182777 5.47543 65 73 110 
0.0580184 0.467079 5.62399 84 99 132 
-1.73657 -0.328088 6.80129 110 103 119 
-0.199886 1.36704 5.29356 37 36 42 
0.88442 1.35143 5.35556 37 34 51 
0.736104 -0.215654 5.71532 69 67 81 
1.53867 -0.299388 4.07921 85 104 137 
0.0588947 0.703781 5.5729 85 99 134 
-0.269516 1.16609 5.37125 27 25 30 
-1.94152 -0.304627 6.74518 103 114 146 
0.919718 0.585 5.56311 70 76 102 
-1.33753 -0.195159 6.9641 66 87 132 
0.106051 1.10146 5.48097 74 88 123 
0.0506786 1.39748 5.38207 37 35 48 
0.058676 0.466897 5.62006 84 99 132 
1.4611 -0.11884 4.27119 51 57 83 
1.3812 0.309199 4.39697 93 112 152 
-0.203751 0.913945 5.40888 76 87 117 
0.730377 1.03921 5.42184 48 52 77 
1.6235 -0.90215 3.95604 76 89 123 
1.1731 1.20647 4.70059 55 51 66 
0.539529 1.23046 5.44415 67 72 101 
1.74236 -1.07802 3.64785 66 76 111 
1.26443 0.59204 4.64011 68 83 116 
1.7375 -1.05445 3.67084 62 74 100 
1.22393 0.32069 4.84718 57 62 91 
-0.204797 0.243921 5.57421 100 114 149 
0.0354614 -0.445406 5.85412 106 120 159 
0.816454 -0.520873 5.78503 80 70 68 
0.745612 0.537896 5.56491 91 88 107 
0.66109 0.753255 5.51528 67 73 99 
1.24877 -0.186158 4.86396 62 65 96 
0.80035 0.642983 5.50455 86 102 138 
0.467031 -0.384198 5.98883 83 94 124 
0.169443 1.08427 5.5302 71 87 121 
-0.276441 1.19484 5.35536 52 44 57 
0.882976 -0.51431 5.82413 49 43 43 
-1.90296 0.973296 6.52936 11 22 28 
-2.06368 -0.523954 6.72132 12 18 30 
0.602681 0.157301 5.70096 77 75 97 
0.646044 0.765021 5.51452 38 44 68 
1.78509 -0.377395 3.39022 38 34 33 
-2.08457 -0.450794 6.60008 47 30 36 
0.751257 0.734207 5.48368 46 48 73 
-0.317695 0.630897 5.45202 64 51 61 
1.67462 -1.06961 3.8343 30 29 45 
1.58731 -0.435564 3.96295 81 89 136 
1.31144 0.545341 4.554 82 100 138 
0.8446 0.892608 5.47246 66 72 104 
0.840554 0.110529 5.63771 55 52 71 
-1.05358 -0.0768727 6.74947 102 119 162 
0.750419 0.754149 5.46594 40 46 68 
0.24016 1.02873 5.45198 66 81 110 
1.41893 -0.741321 4.50269 80 75 79 
1.49191 -0.697495 4.28229 83 95 133 
1.74353 -1.05816 3.65471 62 76 105 
-0.275903 0.69733 5.46584 27 22 26 
1.29006 -0.34715 4.77236 89 99 134 
0.862977 1.25811 5.38433 35 37 58 
0.931947 -0.516829 5.83335 36 28 26 
-0.266155 1.35279 5.2727 59 54 61 
-0.275291 0.697026 5.46326 27 22 26 
0.936563 0.766596 5.51863 28 36 55 
0.787541 1.35834 5.3163 79 70 75 
1.4778 -0.718731 4.32807 62 66 95 
1.69231 -0.565681 3.62865 66 54 76 
1.68203 -0.302341 3.62302 48 47 55 
0.985995 1.33042 5.29442 60 65 87 
0.732823 1.04239 5.41799 52 56 81 
0.792701 -0.628498 5.79079 66 60 86 
1.64011 -0.834834 3.90284 64 59 65 
0.668641 1.08248 5.42573 73 79 105 
-0.205771 0.244056 5.57866 104 117 152 
-1.03016 0.525211 6.57841 62 53 74 
0.762915 1.02537 5.41043 84 79 99 
-0.194058 -0.133265 5.68138 103 119 153 
1.64226 -0.897508 3.90487 86 86 84 
0.0575867 -0.195786 5.78015 98 113 152 
-0.22471 1.35622 5.29333 67 63 77 
1.22885 0.445805 4.82007 95 99 98 
0.841443 -0.0511857 5.68341 49 54 74 
-0.70137 0.76813 5.8592 50 24 33 
1.53881 0.404368 3.94604 78 94 130 
0.915535 0.996276 5.47614 59 66 85 
-2.05802 -0.52284 6.71959 14 20 32 
1.49321 -0.837701 4.31193 77 84 112 
0.502587 -0.300644 5.8977 65 70 99 
0.0525071 -0.428835 5.83946 100 116 152 
0.7925 -0.629205 5.79691 67 63 88 
0.792579 1.06718 5.40075 40 44 69 
0.926947 -1.3733 6.03573 71 115 152 
0.0516662 -0.429246 5.84461 100 116 152 
1.70279 -0.364266 3.5495 62 57 61 
-2.42363 -0.380032 6.53287 74 62 72 
0.711472 0.137613 5.67011 62 68 92 
1.56978 -0.460377 4.01909 93 112 154 
1.57538 -0.409786 3.98361 44 55 87 
-1.31024 -0.0492051 6.93896 63 84 131 
0.0562916 -0.196017 5.78802 102 117 158 
0.286648 1.41137 5.47122 51 41 52 
1.77756 -0.618712 3.42232 53 47 61 
0.98683 -0.528576 5.67603 78 88 123 
1.24924 -0.234648 4.87685 63 69 103 
1.20026 -0.255594 5.02468 74 93 125 
1.48522 0.0893629 3.07748 51 42 45 
1.27006 0.800798 4.63516 71 87 120 
1.78025 -0.614218 3.40994 46 46 56 
-1.50396 -0.40314 6.82678 46 34 36 
0.840562 0.559613 5.52957 61 59 81 
1.55393 -0.0424818 3.01709 68 51 59 
-0.149711 0.752233 5.45573 89 109 142 
1.26344 0.935835 4.62007 67 78 108 
-0.231929 0.966157 5.3953 50 53 70 
0.992599 0.811517 5.33922 62 75 109 
0.586079 0.769819 5.53587 40 44 69 
1.68131 -0.302351 3.61942 48 48 58 
0.39393 -0.575666 6.01573 75 86 116 
0.514662 -0.457638 5.88394 81 78 71 
-0.0749403 1.39963 5.33275 62 59 68 
1.47949 -0.721711 4.342 61 61 89 
1.06667 0.705334 5.20616 86 109 143 
-1.8413 -0.405612 6.78055 94 108 147 
0.858414 1.03088 5.43787 45 47 70 
0.818895 -0.582885 5.80678 93 107 144 
0.155201 -0.695188 5.81503 14 21 29 
0.817438 -0.0903621 5.6784 84 96 136 
-2.42319 0.467309 6.38603 95 92 119 
0.110867 -0.0495836 5.75756 104 119 158 
1.03285 -0.101618 5.48086 95 115 152 
0.750002 -1.46765 6.03483 106 157 204 
1.40924 -0.278332 4.44099 86 102 136 
1.5455 0.687873 2.81661 75 64 72 
1.26641 1.15513 4.51421 46 48 69 
0.774357 -1.27356 5.89075 54 44 52 
0.012269 0.590012 5.6145 94 110 146 
1.55576 0.672718 2.82318 45 47 44 
1.55435 -0.281151 4.02869 84 91 119 
0.811461 1.21726 5.36408 60 66 92 
0.115202 0.100725 5.72588 98 114 150 
0.843637 0.802442 5.49528 62 68 92 
-2.52113 -0.0684524 4.77498 101 98 115 
0.685976 0.787683 5.5111 70 80 107 
-1.93697 -0.019861 6.67688 108 121 156 
0.778355 -1.39332 5.98079 63 108 149 
-1.34533 0.806735 6.72375 61 53 64 
0.802455 -0.509322 5.77686 83 89 121 
0.807299 -1.40137 5.97224 92 139 183 
-0.171324 0.721557 2.674 8 13 17 
-1.50159 -0.432639 6.86476 26 25 33 
-2.41382 0.189611 6.29851 97 114 157 
1.37065 -0.281172 4.56967 75 88 130 
1.41141 -0.00824838 4.38051 91 104 138 
-1.44674 -0.087169 6.8898 65 86 131 
0.676785 -1.37704 6.01427 86 133 175 
1.20037 -0.641338 5.10634 69 82 114 
0.770013 1.08218 5.40562 67 71 100 
0.0618297 0.89595 5.50843 83 97 132 
0.90868 -0.544158 5.82709 54 60 84 
0.801862 -1.41636 6.00928 95 143 189 
0.100073 -0.117992 5.79429 98 117 150 
-2.4509 -0.0122445 6.43079 98 115 158 
1.83615 -0.924124 3.38437 78 92 131 
0.752771 0.683291 5.49295 66 67 95 
-1.22772 0.784759 6.72889 94 108 147 
0.826694 1.34776 5.34524 37 36 50 
-2.33095 -0.544826 6.45458 9 13 24 
0.357174 -0.577624 5.98753 80 88 124 
1.47754 -0.718253 4.32593 62 66 95 
1.49824 -0.488502 4.21806 86 100 137 
-0.334509 1.12244 5.3268 41 28 37 
0.665264 -0.56959 5.81571 106 121 164 
-2.50456 -0.938001 6.39023 48 53 73 
0.654749 1.07483 5.43538 45 51 75 
1.10646 1.06655 4.88762 67 78 110 
0.0524509 0.045297 5.72704 95 110 143 
0.812179 -0.433617 5.7599 84 93 122 
-2.39766 -0.330073 6.57421 50 71 116 
1.8136 -0.591724 3.33418 50 55 84 
1.56327 -0.98515 4.14069 46 51 81 
-0.230331 -0.312856 5.75295 47 45 59 
0.80566 1.23586 5.38565 69 78 107 
-2.42493 0.301109 6.38068 90 83 99 
-0.293822 -0.516225 5.75965 80 69 83 
1.25043 0.235442 4.77001 62 66 91 
0.646751 0.742867 5.51156 43 48 77 
-0.264058 1.1904 5.34563 42 38 52 
-0.1371 1.40512 5.29961 32 30 35 
1.27419 0.934089 4.55128 41 48 77 
0.833298 -0.371522 5.75221 55 61 87 
0.835302 -0.133831 5.69131 55 59 86 
-1.49545 -0.434199 6.84839 21 23 35 
1.77238 -0.547645 3.43006 48 48 46 
1.47579 -0.388335 4.28315 86 99 134 
-2.04822 -0.51965 6.71507 17 21 33 
-1.29181 0.0520363 6.93467 109 125 161 
0.667298 -1.47687 6.08018 100 145 187 
-1.43442 -0.044728 6.88099 76 94 140 
-2.18123 0.00541176 6.5509 114 127 172 
1.52356 0.70271 2.8873 78 74 75 
1.49885 -0.489112 4.22285 86 100 137 
0.187467 -0.884853 6.27607 22 28 60 
-1.49764 -0.433517 6.85421 23 23 33 
1.491 -0.695108 4.2753 83 97 134 
0.154432 -0.695961 5.82033 14 21 29 
-0.338955 -0.00241427 5.61153 52 41 55 
1.41179 -0.00788657 4.38434 91 104 138 
-0.206799 0.475266 5.53337 94 107 142 
0.674086 1.0846 5.42427 69 73 100 
1.58388 -0.369045 3.95712 74 73 91 
1.7411 -0.535175 3.48172 45 44 39 
1.48976 -0.645551 4.28171 89 101 139 
-1.44768 -0.045371 6.8553 79 98 141 
1.44188 -0.257932 4.35352 74 84 119 
-0.197945 0.19256 5.59687 102 118 154 
-1.36421 -0.325072 6.98729 58 65 94 
1.67489 -0.907754 3.8054 82 90 109 
1.68749 -0.500249 3.68024 48 55 81 
1.26273 -0.203555 4.84505 91 109 147 
0.928841 0.971606 5.47416 42 48 72 
-1.36028 -0.237511 6.96637 56 79 123 
0.128371 0.929573 5.52317 85 97 135 
1.65639 -0.348686 3.59157 34 24 23 
0.737466 0.339071 5.57124 73 78 108 
0.766377 0.826738 5.46349 87 84 103 
1.72642 -1.05159 3.69505 63 73 108 
1.21902 -0.576929 5.05998 83 80 89 
1.76395 -0.369225 3.45877 46 37 42 
1.29409 1.06509 4.49606 71 79 115 
-0.34019 -0.118572 5.63315 54 43 57 
0.0570642 -0.133871 5.77232 96 112 148 
0.659367 -1.17037 5.96144 87 101 138 
0.0728286 0.188282 5.70243 42 56 82 
-0.218038 1.36861 5.27319 36 33 42 
0.259366 -0.860805 6.36201 49 56 82 
1.43224 -0.63178 4.44516 57 61 88 
-2.33731 0.437594 5.29425 109 124 163 
-0.26493 0.392414 5.54249 38 30 41 
-1.22835 0.0932773 6.89866 96 111 152 
1.43989 -0.727789 4.43553 82 81 79 
0.0622262 1.19484 5.44958 71 89 125 
0.95703 1.19168 5.39242 44 46 69 
-2.35031 -0.417752 6.56642 82 94 134 
-1.4382 -0.213881 6.92393 61 79 125 
0.908573 -0.545481 5.83674 55 61 85 
1.274 0.933682 4.54859 41 48 77 
-0.175924 -0.328357 5.74943 107 121 160 
-0.0122125 0.607283 5.60636 96 108 148 
0.110908 -0.434897 5.85246 103 119 155 
-2.09072 -0.507475 6.67144 19 23 35 
0.732315 0.655174 5.51623 69 64 86 
1.74638 -1.09676 3.65966 38 42 67 
1.77724 -0.515706 3.42341 53 67 80 
-2.32295 -0.542476 6.4553 11 16 22 
-1.89616 0.0953802 6.6434 111 128 174 
1.52622 0.787791 3.87507 66 80 115 
-2.32833 -0.544171 6.46558 12 15 22 
0.202096 1.39014 5.44308 85 81 98 
0.756495 -0.481634 5.78973 109 106 127 
0.0831143 1.21741 5.44029 17 21 33 
1.6307 -0.804098 3.91222 78 90 128 
-2.31878 0.789082 4.93204 93 115 156 
1.48999 -0.646303 4.28351 89 101 139 
0.706239 1.09585 5.42047 63 69 95 
0.105591 1.19254 5.45764 71 86 119 
-0.322215 0.567093 5.45995 37 27 35 
-0.268683 0.617427 5.4838 30 23 30 
0.734161 0.721539 5.49144 78 84 116 
1.5993 -0.485695 3.93545 98 116 156 
0.782912 0.752914 5.44623 38 44 66 
-1.90702 -0.052485 6.7297 94 115 160 
-1.32623 0.0318481 6.88468 87 102 145 
0.482265 1.32505 5.56889 51 57 83 
0.0439592 0.127438 5.70952 100 116 152 
-2.05269 -0.534895 6.71655 21 21 31 
0.98925 0.622624 5.41626 87 102 141 
-1.88247 -0.760191 6.79333 65 57 68 
0.837463 0.894191 5.46807 62 68 100 
0.747993 0.329262 5.57714 65 71 97 
-2.00844 -0.418361 6.67958 52 49 70 
0.0212313 1.27503 4.8613 62 56 68 
0.0486887 0.582123 5.60339 89 103 138 
0.0499963 -0.135528 5.76125 105 120 159 
0.802236 -1.41207 5.99633 94 142 188 
1.68202 -0.860099 3.79306 83 94 114 
1.2392 0.12826 4.82256 66 68 93 
0.98088 1.37148 5.29588 64 53 59 
-2.02598 -1.32063 7.41917 182 203 255 
1.20296 -0.274087 5.00797 81 96 129 
1.57547 -0.408759 3.98435 63 78 109 
0.692058 -0.255682 5.74386 96 97 125 
0.755546 1.16095 5.39201 78 70 81 
0.70785 1.06938 5.4283 53 55 78 
1.78996 -0.381603 3.39208 26 24 27 
-0.471743 1.06125 5.54921 61 53 64 
1.47928 -0.929053 4.37367 59 65 91 
0.889315 0.938242 5.45013 46 51 70 
1.70082 -1.05988 3.76187 71 87 121 
-0.207046 -0.291391 5.71169 97 110 144 
1.18105 0.942657 4.76601 20 21 39 
-0.293855 0.537385 5.49389 24 22 27 
-1.25686 0.788799 6.72591 85 76 95 
0.985636 0.24918 5.50249 82 96 133 
1.79387 -0.818878 3.53985 70 98 138 
0.704365 0.716928 5.50947 75 84 115 
-0.277978 0.616179 5.48081 33 27 31 
0.749092 0.00286596 5.65368 72 78 110 
-2.17549 0.684905 6.39047 97 114 157 
-0.178985 -0.0186812 5.64787 108 126 162 
1.54309 -0.423823 4.0821 92 109 152 
-0.107432 1.40894 5.31987 31 30 35 
1.08138 1.19326 5.06052 78 88 123 
1.24168 -0.577075 4.96624 68 64 89 
-0.316754 0.984239 5.37008 55 42 52 
1.4098 -0.278529 4.44662 86 102 136 
1.11755 -0.418825 5.30248 89 101 139 
0.928525 1.39104 5.3555 49 38 42 
1.53363 0.685897 2.87373 72 77 70 
0.834135 -0.297656 5.73163 59 59 85 
1.20787 0.0657532 4.92206 85 100 133 
0.861787 0.881022 5.46943 43 48 70 
1.59512 -0.468287 3.94253 94 112 152 
1.71216 -0.236513 3.58579 71 73 96 
-1.48052 0.0818554 6.82216 99 95 112 
1.73967 -0.546073 3.49385 54 50 47 
-1.96447 -1.38923 7.43339 182 202 255 
-0.26608 0.00385315 5.64686 67 61 75 
1.24168 -0.576633 4.96657 71 67 92 
1.5346 0.439869 3.9512 68 84 118 
-0.317433 0.984658 5.37282 55 42 52 
-1.32705 -0.258106 6.96778 63 81 121 
0.583331 1.16536 5.44794 30 19 25 
1.67436 -0.323917 3.6374 20 15 21 
-0.18151 0.185463 5.61327 102 116 153 
1.63 -0.964511 3.95812 70 83 117 
0.692478 0.861566 2.76279 28 34 56 
0.828078 0.789483 5.52119 63 69 93 
1.11562 -0.181982 5.24676 93 107 142 
1.53999 -0.419105 4.07706 97 119 160 
-0.300125 -0.0945948 5.65753 78 69 86 
0.11679 -0.212373 5.80668 106 124 164 
1.11562 -0.181781 5.24683 93 107 142 
0.837569 1.17551 5.41457 55 67 91 
-0.289398 0.81161 5.43033 56 43 50 
0.836841 -0.199497 5.71765 52 58 84 
0.702696 1.06695 5.4217 53 54 75 
1.57669 0.824998 3.45637 31 31 23 
0.780096 1.11344 5.39308 61 67 89 
-0.323695 0.671024 5.44027 64 51 61 
0.591088 -0.506081 5.84644 102 99 118 
0.299112 -1.14372 6.96728 63 69 101 
-0.278853 0.459444 5.51555 42 35 42 
1.48696 -0.063096 4.1772 70 70 94 
-0.199705 -0.578146 5.77969 95 108 140 
1.67641 -0.488602 3.68089 86 105 138 
0.919593 1.12503 5.44371 57 59 80 
1.32254 0.580431 4.5096 79 84 113 
0.695221 0.747831 5.48894 67 74 100 
1.36996 -0.280631 4.56187 77 90 134 
1.32134 0.797848 2.90927 41 45 56 
0.2224 -0.587912 5.95673 80 91 121 
0.589199 -0.505803 5.84648 103 100 121 
0.839408 -0.537415 5.77496 78 87 116 
-0.292758 0.813131 5.44438 58 45 52 
1.57717 0.825056 3.45878 31 31 23 
1.46684 -0.409463 4.30444 59 66 92 
-0.208189 -0.0895524 5.66993 106 117 149 
1.13373 -0.174646 5.21174 69 78 111 
1.28642 0.870796 4.51576 86 105 138 
0.103319 -0.154397 5.78549 100 118 154 
-0.0985732 -0.214529 5.73894 98 112 147 
-0.233831 -0.0701012 5.69412 43 42 56 
-0.0491686 -0.589926 5.82394 82 97 128 
1.56485 0.823645 3.46712 63 60 53 
0.844085 0.927088 5.46642 59 66 92 
0.799404 0.28458 5.57238 76 89 123 
1.58447 0.863174 3.45638 32 26 28 
0.229248 -0.920276 6.23813 42 48 74 
0.648273 1.0572 5.45859 63 67 94 
-1.03662 0.108701 6.68566 85 99 138 
-1.6922 0.706194 6.56707 97 114 157 
-2.42107 -0.244483 6.52651 87 81 107 
0.816279 0.232315 5.60561 79 95 129 
1.13415 -0.175166 5.22547 67 77 113 
0.747893 1.06697 5.4043 46 48 73 
-1.73016 0.527447 6.65308 84 92 129 
0.146599 -0.293489 5.82511 109 123 160 
0.829156 1.21159 5.37431 59 66 94 
-2.29316 -0.73679 5.04758 108 126 172 
1.48697 -0.0631009 4.17725 70 70 94 
0.58048 0.803829 5.52739 66 58 71 
-1.27755 0.54494 6.80559 77 77 105 
0.664397 0.72665 5.51745 79 88 121 
0.837664 -0.201224 5.7124 53 59 85 
0.610413 0.766949 5.52431 38 42 67 
0.681827 -0.105492 5.74968 81 85 114 
0.886852 0.0791568 5.62596 57 53 70 
-1.44204 0.0161351 6.89445 84 101 145 
0.922981 0.618433 5.56316 77 72 66 
0.627333 0.728003 5.52512 81 91 126 
1.19918 1.13577 4.70678 21 27 41 
-2.00297 -1.39511 7.36073 183 203 255 
-2.03295 -1.16044 7.33807 186 206 255 
-0.264466 0.00387066 5.63976 67 61 75 
-1.20516 0.522683 6.7233 93 110 154 
1.59422 -0.405963 3.93436 45 58 92 
1.76312 -0.5196 3.44702 61 70 85 
0.820548 1.14549 5.37143 58 65 93 
1.63066 -0.96553 3.96196 70 83 117 
1.73462 -0.645967 3.50044 62 75 107 
1.20138 0.687493 4.81972 34 42 65 
1.48494 -0.172436 4.20401 67 72 104 
0.461452 1.39606 5.5648 68 79 109 
0.696833 -1.43161 6.04633 95 146 189 
0.493045 1.34847 5.56942 57 62 81 
0.868034 1.07982 5.42606 64 76 102 
0.779969 0.73155 5.45915 44 48 73 
1.40564 -0.348082 4.44954 91 104 139 
1.18067 0.81584 4.79305 22 24 39 
1.48572 -0.813153 4.31624 77 71 75 
-1.82262 -0.816713 6.79562 58 92 127 
0.909795 0.966006 5.49158 60 66 92 
1.73825 -0.190208 3.55523 73 79 105 
-0.201053 0.00813392 5.62425 106 122 158 
-1.85649 0.135301 6.66598 98 93 115 
1.52664 0.520604 3.94887 77 96 129 
1.68393 -0.512375 3.68034 66 80 109 
