ply                 
format ascii 1.0    
element vertex 41
property float x    
property float y    
property float z    
property uchar red  
property uchar green
property uchar blue 
end_header          
0.353683 0.19342 1.36015 50 76 0 
-0.0918378 0.299059 1.47162 29 27 0 
-0.395189 0.474555 1.55382 150 164 77 
0.57197 0.472295 1.31598 44 46 7 
-0.60159 0.658511 1.61934 129 140 80 
0.204242 -0.325762 1.35505 62 94 0 
-0.346298 0.434484 1.53595 34 52 0 
-0.395143 0.474496 1.55408 153 167 79 
0.570623 0.466707 1.31873 121 138 46 
-0.119889 0.529124 1.49145 146 162 87 
0.572217 0.472206 1.31626 44 46 7 
-0.601652 0.65832 1.61889 129 140 80 
0.0482637 0.715504 1.45575 78 95 1 
0.19338 -0.186678 1.37028 181 233 106 
-0.00646311 -0.132781 1.42755 68 121 69 
-0.00232791 -0.132869 1.42676 0 42 0 
0.555924 -0.0706406 1.28917 33 47 0 
-0.418135 0.299286 1.54968 46 67 26 
-0.0979701 0.309292 1.47279 83 99 54 
0.401298 0.344296 1.34374 53 61 4 
-0.308693 0.698406 1.53798 161 177 89 
0.249202 -0.46167 1.34037 122 145 37 
0.454826 -0.0306849 1.30895 150 169 77 
0.558371 0.216684 1.31273 121 136 55 
-0.0710807 0.353941 1.46373 152 173 78 
-0.523626 0.399301 1.57791 52 67 0 
-0.261619 0.401537 1.51737 144 176 49 
0.043143 0.419154 1.44631 153 174 79 
0.24873 0.712277 1.40445 124 143 51 
0.352789 0.711302 1.37527 63 83 0 
-0.417456 -0.553757 1.4934 135 191 80 
-0.228308 -0.480529 1.44975 9 51 0 
0.357139 -0.171203 1.32609 155 178 72 
0.34837 -0.160973 1.32638 38 52 0 
0.200798 0.243549 1.3982 52 60 9 
-0.433226 0.326352 1.55769 171 186 105 
-0.185251 0.335608 1.48929 151 179 60 
0.0315501 0.700354 1.44276 58 74 11 
0.423861 -0.437955 1.28893 145 172 67 
-0.456283 0.549116 1.57652 144 168 58 
-0.575746 0.659652 1.60897 153 171 71 
