ply                 
format ascii 1.0    
element vertex 343
property float x    
property float y    
property float z    
property uchar red  
property uchar green
property uchar blue 
end_header          
0.0625134 0.171712 2.02085 75 62 45 
0.355892 0.254781 2.10385 116 104 90 
0.214457 0.267698 2.13044 67 127 102 
0.414423 0.323222 2.26215 160 121 56 
0.218552 0.394613 2.04876 134 130 119 
0.05646 0.452351 1.96563 82 169 137 
0.217968 0.49324 2.04603 48 37 19 
0.460373 0.576353 2.2893 81 74 66 
0.199354 0.562946 2.04749 38 25 16 
0.849242 0.710116 2.28631 202 163 36 
0.137044 0.680717 2.04044 131 127 116 
0.850289 0.731198 2.27324 225 185 28 
0.113643 0.772355 2.03518 144 135 126 
0.107191 0.796003 2.03668 132 128 119 
-0.168108 0.845445 1.91803 102 78 44 
-0.544814 0.94222 2.21556 14 0 0 
-0.0484111 1.04113 2.1151 150 153 146 
0.239985 0.412628 2.04742 71 60 54 
0.622355 0.497541 2.23468 153 125 28 
0.555582 0.523978 2.25445 145 125 26 
0.460321 0.576329 2.28951 81 74 66 
0.198625 0.562781 2.04662 31 18 9 
0.100887 0.788868 2.03345 191 187 178 
0.101554 0.788878 2.03412 200 196 187 
-0.556516 0.922894 2.22735 129 113 90 
0.508446 -0.129784 2.66808 62 47 4 
0.499359 -0.100316 2.65916 98 76 35 
-0.404212 0.175761 2.16262 251 212 197 
0.21441 0.267895 2.12958 56 111 88 
0.226208 0.382282 2.04644 92 80 64 
0.491172 0.406747 2.23664 200 169 52 
0.621691 0.498076 2.23069 152 123 19 
0.454649 0.556987 2.27438 8 9 4 
-0.545096 0.559854 2.0749 63 30 0 
-0.536632 0.563175 2.07578 178 143 111 
-0.745119 0.597914 1.97999 238 216 169 
0.679282 0.649166 2.24562 173 138 20 
0.849781 0.692352 2.29561 98 50 0 
0.137714 0.681297 2.04204 131 127 116 
0.0954108 0.791853 2.0385 87 83 74 
0.0836369 0.816184 2.0458 183 181 169 
0.0882955 0.877005 2.03153 74 68 54 
0.0718037 0.933208 2.02827 88 80 67 
-0.0482651 1.0409 2.11218 153 156 149 
0.499501 -0.100615 2.66012 98 76 35 
0.226573 0.0297773 2.32244 131 243 203 
0.209526 0.284995 2.07799 17 56 38 
-0.00977426 0.469733 1.94783 9 28 8 
0.417809 0.542161 2.27725 111 108 99 
0.523271 0.585838 2.27866 173 143 29 
0.175158 0.630327 2.04397 112 102 93 
0.849729 0.731257 2.28336 221 183 12 
0.114002 0.785888 2.03577 66 59 49 
0.094276 0.798362 2.03932 202 198 189 
0.0840613 0.816214 2.04439 187 185 173 
-0.556123 0.922826 2.22531 127 111 86 
-0.170674 0.837421 1.92665 186 158 121 
-0.544238 0.935077 2.21975 82 68 42 
0.103956 0.890283 2.03958 77 62 43 
0.392226 -0.352396 2.69698 75 167 118 
0.291623 0.120869 2.23698 0 68 47 
0.273214 0.160486 2.18859 0 63 39 
0.203558 0.169803 2.14746 1 65 39 
-0.413915 0.191593 2.13622 68 33 3 
0.115073 0.219069 2.04549 0 41 27 
0.0465342 0.234508 2.01448 7 102 70 
0.49326 0.405139 2.24641 195 165 19 
0.411592 0.497263 2.27881 7 7 7 
0.200419 0.477423 2.0507 80 68 54 
0.771865 0.621174 2.29218 99 53 1 
-0.559468 0.667598 2.10763 47 15 4 
0.844481 0.728005 2.27969 221 184 8 
0.0960322 0.792858 2.03443 134 130 121 
0.0909769 0.801379 2.03871 189 185 176 
-0.166264 0.846877 1.9223 46 17 0 
-0.124 0.194776 2.03229 0 54 35 
0.522398 0.336417 2.26262 158 108 0 
0.527599 0.378688 2.24919 205 172 9 
0.495972 0.400057 2.24811 200 168 7 
0.639212 0.4479 2.21565 9 8 6 
0.637378 0.505659 2.23906 129 92 11 
-0.434013 0.53315 2.06444 0 27 16 
0.761208 0.620888 2.28426 89 44 3 
1.03685 0.613333 2.31061 62 64 63 
0.68435 0.657902 2.23282 205 169 11 
-0.548213 0.849109 2.21817 51 72 55 
0.0927425 0.864046 2.0335 203 193 192 
-0.330354 1.2875 2.39132 199 161 34 
0.482672 -0.345512 2.21726 31 16 0 
-0.148207 0.263738 1.89741 63 64 66 
-0.387025 0.284029 1.91482 118 215 174 
0.227385 0.393448 1.85361 237 227 215 
0.167317 0.424308 1.86957 180 181 175 
0.170823 0.448692 1.85311 200 200 190 
0.179967 0.467949 1.85355 66 60 48 
0.514444 0.501702 2.05053 150 129 46 
0.759138 0.513425 2.14258 127 74 0 
0.152761 0.512902 1.85672 190 188 176 
0.191318 0.527481 1.85634 98 88 78 
0.608934 0.602375 2.0323 109 67 0 
0.17271 0.591236 1.85784 123 115 104 
0.167076 0.602429 1.85639 29 19 10 
0.791164 0.678423 2.10245 202 163 36 
0.793254 0.698456 2.09255 225 185 28 
0.112483 0.710568 1.85012 160 155 149 
0.130748 0.728741 1.85361 62 52 40 
0.12971 0.73868 1.84988 145 135 126 
0.0934705 0.748514 1.85017 192 188 179 
0.0990136 0.765094 1.8496 89 85 76 
0.118955 0.770589 1.84841 81 72 65 
0.0822497 0.827549 1.84623 76 70 58 
0.100767 0.832753 1.84678 56 47 40 
0.0282031 0.862267 1.87734 112 120 107 
-0.0439707 0.981188 1.92699 150 153 146 
-0.41405 0.230447 1.90371 15 0 0 
0.235065 0.369607 1.85695 212 200 188 
0.167006 0.425474 1.86125 170 171 163 
0.179652 0.458119 1.85111 206 196 195 
0.57667 0.479292 2.03975 153 125 28 
0.605285 0.500448 2.03865 206 170 20 
0.162521 0.532144 1.85581 35 28 20 
0.944466 0.806193 2.20885 46 46 46 
0.481528 -0.353356 2.21296 17 1 0 
0.745329 -0.19224 2.57806 48 73 34 
-0.544011 -0.14368 2.42557 255 255 225 
-0.0941583 0.193762 1.83555 33 117 83 
-0.405168 0.231065 1.906 90 76 50 
0.193735 0.275253 1.93308 36 111 80 
0.207532 0.36352 1.85758 212 203 194 
0.209482 0.372142 1.85466 92 80 64 
0.541501 0.376121 2.01715 99 101 98 
-0.32751 0.426883 1.89876 24 86 61 
0.789719 0.660804 2.10446 98 50 0 
0.91988 0.795312 2.19789 1 0 0 
0.0981848 0.753222 1.84953 129 125 116 
0.0965214 0.842125 1.84853 70 57 38 
0.0662475 0.868366 1.84212 122 112 102 
-0.0613788 1.002 1.92951 157 157 147 
-0.12696 1.08001 1.95356 88 79 64 
0.201951 0.38202 1.85916 133 129 118 
0.180575 0.537279 1.85011 59 46 38 
0.583845 0.610641 2.03372 200 166 42 
0.905486 0.734924 2.1303 204 174 40 
0.10704 0.74504 1.85184 66 59 49 
0.125481 0.761224 1.85008 116 107 100 
0.188721 0.176706 1.94638 1 65 39 
0.0443805 0.236255 1.81863 7 102 70 
0.0628439 0.248187 1.82576 0 48 32 
-0.0524202 0.253282 1.79527 0 55 29 
0.589246 0.472245 2.03374 168 139 13 
0.605902 0.490478 2.04053 205 173 13 
0.893729 0.5503 2.11227 35 27 8 
0.00933367 0.539224 1.75884 49 125 95 
0.902416 0.584424 2.10286 14 4 0 
0.598731 0.601997 2.02379 195 160 30 
0.927921 0.786217 2.19251 89 88 86 
-0.271079 0.244852 1.8908 52 125 95 
0.515154 0.351812 2.04202 220 189 10 
0.214756 0.362845 1.87352 66 57 48 
0.905364 0.583964 2.1103 26 16 4 
0.915597 0.598255 2.1183 10 5 11 
1.0155 0.60855 2.16326 34 18 5 
1.04153 0.620812 2.16376 224 197 46 
0.636263 0.62881 2.04597 205 169 11 
0.08728 0.819448 1.85872 203 193 192 
-0.362346 1.24181 2.19999 171 143 36 
0.219905 -0.502483 4.06962 62 148 113 
0.368388 -0.464255 3.97415 64 164 126 
0.353853 -0.447794 3.98819 3 89 62 
0.193861 -0.363464 3.83845 2 38 12 
0.301938 -0.320069 3.88293 1 99 61 
0.697314 -0.081351 3.98888 150 119 36 
0.966856 0.0616145 3.87394 40 41 33 
0.970524 0.0908559 3.90827 85 86 78 
0.179611 -0.760804 4.30901 226 227 213 
0.262208 -0.645127 4.28734 114 179 149 
0.688361 -0.48194 4.1074 36 63 32 
0.246742 -0.0902693 4.10917 73 73 71 
1.57724 0.289277 3.9689 36 27 10 
0.170973 0.971605 3.71929 115 105 93 
1.16429 -1.14744 4.97366 95 35 43 
-0.280399 -0.669919 4.00213 31 22 5 
-0.344705 -0.655886 4.01357 111 95 72 
-0.340407 -0.638106 3.95746 113 95 73 
-0.269693 -0.657388 4.00125 113 105 84 
-0.255542 -0.655356 4.06216 235 180 150 
0.184024 -0.792285 4.40759 232 230 218 
-0.183313 -0.652169 4.08236 255 246 207 
-0.235253 -0.603172 4.01582 255 250 220 
-0.534858 -0.574375 4.01424 24 74 36 
-0.788036 -0.629073 4.23594 60 44 21 
0.820405 -0.724617 4.52595 77 62 29 
0.351547 -0.553037 4.12602 0 80 48 
0.30685 -0.467676 4.04133 3 79 51 
0.368433 -0.460743 4.00297 0 81 49 
0.204066 -0.364807 3.88132 3 41 28 
0.336556 -0.419172 4.08228 2 56 40 
0.110505 -0.288111 3.66954 86 67 53 
0.0453723 -0.274557 3.67204 77 60 40 
0.410376 -0.325071 3.84193 0 69 39 
0.493033 -0.374647 4.01831 0 77 43 
0.563275 -0.40533 4.19502 1 76 53 
0.466912 -0.311381 3.96912 1 74 47 
0.394546 -0.230253 3.83314 8 80 56 
0.394193 -0.195626 3.81612 63 131 106 
0.364514 -0.12331 3.83358 76 139 112 
0.872752 -0.192866 4.09669 255 252 171 
0.674763 0.0126513 3.88252 174 134 46 
1.11251 -0.0167844 3.99006 41 35 23 
0.631456 -0.0988197 4.77865 10 1 0 
0.961955 0.0867957 3.85442 0 0 0 
0.518276 0.109406 4.02769 17 0 0 
0.780065 0.155421 3.89701 159 128 20 
0.485931 0.203764 3.98659 28 10 0 
1.04131 0.26305 3.90849 158 132 45 
1.18862 0.253944 3.93215 151 111 0 
1.01168 0.286258 3.84986 151 122 28 
1.06362 0.318339 3.85391 221 178 47 
0.757556 0.359577 3.98987 92 94 89 
1.63353 0.344818 3.89859 75 65 38 
1.18749 0.492116 3.93559 77 35 0 
1.31424 0.495742 3.82946 158 101 0 
1.56372 0.489745 3.87382 72 65 49 
1.57684 0.517442 3.80516 17 13 10 
1.57159 0.528667 3.78133 68 65 56 
2.02831 0.518865 3.94744 165 123 2 
0.372389 0.660627 4.16824 59 43 7 
1.35465 0.60608 3.87225 124 77 0 
0.305155 0.899938 4.16091 29 12 0 
0.185399 0.913923 3.73486 71 62 47 
0.0757684 -0.62501 3.52851 107 88 56 
-0.978352 -0.782687 4.19958 255 255 236 
-0.911954 -0.832447 4.45231 255 253 231 
1.15102 -1.12015 4.89669 87 9 23 
-0.334254 -0.681347 4.0369 40 27 10 
-0.654111 -0.585053 4.20688 0 46 26 
0.252598 -0.61107 4.16865 139 183 160 
0.256311 -0.566289 4.10779 3 71 48 
-0.440117 -0.426466 3.91614 72 147 117 
-0.107852 -0.341895 3.72804 39 11 0 
0.347126 -0.43777 3.98778 1 55 39 
0.677534 -0.464535 4.04328 30 63 32 
0.0964315 -0.295346 3.67286 16 2 0 
0.719284 -0.429525 4.03223 69 54 23 
0.437624 -0.367344 3.94022 0 80 48 
0.943097 -0.215694 4.04428 218 188 98 
0.706969 -0.0208257 4.07957 173 135 34 
1.05859 -0.0137448 3.92334 59 47 5 
0.848244 0.019332 3.90069 158 107 0 
0.895934 0.0781749 3.86446 217 189 46 
0.49417 0.171861 3.96831 30 14 0 
0.785376 0.149052 3.94412 176 146 26 
1.1591 0.175286 3.96236 143 124 48 
1.47095 0.293201 3.97618 228 211 107 
0.43519 0.474611 4.27391 79 42 0 
2.19048 0.34682 4.18627 167 107 0 
1.99181 0.532325 3.89254 227 196 18 
0.368623 0.661237 4.09716 67 51 15 
1.65641 0.641729 3.7819 11 6 0 
0.639149 -1.09911 4.61932 55 148 95 
-0.888358 -1.13726 5.1576 255 244 202 
1.15804 -1.09382 4.83139 91 7 23 
-0.962913 -0.849196 4.68563 255 249 217 
0.16928 -0.706877 4.10391 43 52 33 
0.184811 -0.774028 4.35802 239 236 229 
-0.762574 -0.598774 4.14668 17 9 0 
1.50689 -1.09612 5.27589 205 201 166 
-0.644029 -0.56335 4.13161 0 47 30 
-0.194199 -0.43341 3.65622 2 19 9 
-0.150679 -0.580104 4.10136 5 58 38 
-0.684075 -0.582916 4.2417 0 29 16 
1.50475 -1.03219 5.21012 69 63 41 
-0.31871 -0.489899 3.92669 42 128 93 
0.386485 -0.611084 4.20972 217 226 209 
0.421871 -0.576546 4.19136 189 221 198 
0.352905 -0.528643 4.07686 0 64 47 
0.233594 -0.405185 3.78942 0 50 36 
0.676917 -0.460997 4.03027 44 65 34 
0.205953 -0.380691 3.91877 3 47 32 
0.317549 -0.372396 3.93758 2 50 36 
0.760184 -0.504777 4.2898 69 54 23 
0.264755 -0.258374 3.75747 0 44 33 
0.201076 -0.215569 3.74046 2 36 22 
0.239946 -0.210565 3.76997 0 35 28 
0.773389 -0.289027 4.0745 61 44 16 
0.864576 -0.183854 4.05597 255 252 171 
0.360037 -0.0944712 3.87063 13 67 44 
0.812272 -0.12195 4.07311 255 255 205 
0.860378 0.00941882 3.95985 156 105 0 
0.95966 0.057513 3.87874 27 29 24 
0.83208 0.11091 4.02357 207 173 49 
1.02216 0.125978 3.83664 37 35 38 
1.11912 0.207827 3.85052 102 74 11 
1.13472 0.206807 3.99481 145 123 37 
0.948948 0.328914 3.89758 182 148 38 
1.06167 0.331244 3.84607 142 94 9 
1.41773 0.315952 3.81704 233 217 122 
1.67227 0.389251 4.02653 178 179 181 
1.63836 0.493434 3.84717 55 54 50 
1.74184 0.541969 3.87953 222 189 34 
1.97487 0.627189 3.85273 131 101 47 
1.77638 0.705259 3.79683 107 72 4 
-0.691806 -1.1124 5.115 135 83 7 
1.15138 -1.08943 4.91116 145 140 134 
-0.181865 -0.661379 4.03115 61 36 16 
0.185121 -0.724447 4.23238 241 233 230 
-0.771378 -0.613848 4.19781 21 12 3 
0.299234 -0.663686 4.33756 59 134 103 
-0.338431 -0.431007 3.76505 157 206 177 
0.333588 -0.587776 4.12736 222 228 216 
0.378244 -0.605779 4.18106 222 217 211 
0.880702 -0.85212 4.84615 150 135 104 
-0.231265 -0.380401 3.725 4 50 37 
0.389438 -0.531599 4.11362 0 43 24 
0.239613 -0.436728 3.90463 1 49 37 
-0.332418 -0.389371 3.91085 0 62 39 
-0.132668 -0.429353 3.99253 62 24 11 
0.454284 -0.413998 3.95293 4 61 42 
0.547403 -0.320693 3.91109 30 80 55 
0.382958 -0.285788 3.90099 0 53 35 
0.837978 -0.215274 4.20848 243 206 40 
0.922364 0.0489294 3.94597 224 192 23 
0.90099 0.0516451 3.98998 150 100 5 
0.862101 0.0888338 3.90038 207 174 7 
0.830546 0.106934 3.99895 204 172 27 
0.756279 0.157672 3.90893 181 149 12 
1.14144 0.145791 4.09446 102 86 71 
1.07684 0.250588 3.90282 92 65 10 
0.702173 0.301327 3.93303 120 125 121 
1.42849 0.312301 3.85287 245 227 93 
1.64129 0.334378 3.9481 86 81 85 
1.61745 0.401691 3.87146 178 179 181 
1.48498 0.512143 3.66429 25 17 14 
1.63525 0.484334 3.8483 67 66 64 
1.53596 0.504419 3.80284 10 4 6 
1.62638 0.525773 3.85914 83 75 73 
1.72062 0.544671 3.82288 226 194 31 
1.40606 0.678538 3.87261 111 73 2 
1.54147 0.672564 3.8812 6 2 3 
1.67089 0.663596 3.85794 92 77 48 
1.76465 0.705274 3.77566 109 75 4 
0.312644 0.911611 4.20594 27 14 0 
-0.196746 -0.345545 4.31197 73 43 17 
